<?xml version="1.0" encoding="UTF-8" standalone="no"?>
<!DOCTYPE svg PUBLIC "-//W3C//DTD SVG 1.0//EN" "http://www.w3.org/TR/2001/REC-SVG-20010904/DTD/svg10.dtd">
<!-- Generato da Microsoft Visio 11.0, SVG Export, v1.0 conn-82.svg Pagina 1 -->
<svg xmlns="http://www.w3.org/2000/svg" xmlns:v="http://schemas.microsoft.com/visio/2003/SVGExtensions/" width="8.64205in"
		height="4.5654in" viewBox="0 0 622.227 328.709" xml:space="preserve" color-interpolation-filters="sRGB" class="st8">
	<v:documentProperties v:langID="1040" v:metric="true" v:viewMarkup="false">
		<v:userDefs>
			<v:ud v:nameU="MBSAAddinOutlineVisible" v:prompt="" v:val="VT0(1):26"/>
		</v:userDefs>
	</v:documentProperties>

	<style type="text/css">
	<![CDATA[
		.st1 {fill:#ffffff;stroke:none;stroke-linecap:round;stroke-linejoin:round;stroke-width:0.72}
		.st2 {stroke:#8c8c8c;stroke-dasharray:0,6.48;stroke-linecap:round;stroke-linejoin:round;stroke-width:2.16}
		.st3 {stroke:#f28226;stroke-linecap:round;stroke-linejoin:round;stroke-width:2.16}
		.st4 {stroke:#f28226;stroke-dasharray:0,6.48;stroke-linecap:round;stroke-linejoin:round;stroke-width:2.16}
		.st5 {fill:none;stroke:none;stroke-linecap:round;stroke-linejoin:round;stroke-width:0.72}
		.st6 {fill:#000000;font-family:Arial;font-size:0.666664em;font-weight:bold}
		.st7 {stroke:#000000;stroke-linecap:round;stroke-linejoin:round;stroke-width:2.16}
		.st8 {fill:none;fill-rule:evenodd;font-size:12;overflow:visible;stroke-linecap:square;stroke-miterlimit:3}
	]]>
	</style>

	<g v:mID="0" v:index="1" v:groupContext="foregroundPage">
		<title>Pagina 1</title>
		<v:pageProperties v:drawingScale="0.0393701" v:pageScale="0.0393701" v:drawingUnits="24" v:shadowOffsetX="8.50394"
				v:shadowOffsetY="-8.50394"/>
		<g id="shape139-1" v:mID="139" v:groupContext="shape" transform="translate(0.72,-0.72)">
			<title>Foglio.139</title>
			<rect x="0" y="1.44" width="586.772" height="327.269" class="st1"/>
		</g>
		<g id="shape16-3" v:mID="16" v:groupContext="shape" transform="translate(-232.319,298.358) rotate(-90)">
			<title>Foglio.16</title>
			<path d="M0 328.71 L224.82 328.71" class="st2"/>
		</g>
		<g id="shape17-6" v:mID="17" v:groupContext="shape" transform="translate(-80.6659,298.358) rotate(-90)">
			<title>Foglio.17</title>
			<path d="M0 328.71 L224.82 328.71" class="st2"/>
		</g>
		<g id="shape18-9" v:mID="18" v:groupContext="shape" transform="translate(64.6097,298.358) rotate(-90)">
			<title>Foglio.18</title>
			<path d="M0 328.71 L228.32 328.71" class="st2"/>
		</g>
		<g id="shape20-12" v:mID="20" v:groupContext="shape" transform="translate(211.303,298.358) rotate(-90)">
			<title>Foglio.20</title>
			<path d="M0 328.71 L228.32 328.71" class="st2"/>
		</g>
		<g id="shape29-15" v:mID="29" v:groupContext="shape" transform="translate(390.909,348.288) rotate(180)">
			<title>Foglio.29</title>
			<path d="M5.1 328.71 L0 323.61 L5.1 318.5" class="st3"/>
		</g>
		<g id="shape30-18" v:mID="30" v:groupContext="shape" transform="translate(393.318,353.39) rotate(180)">
			<title>Foglio.30</title>
			<path d="M0 328.71 L296.93 328.71" class="st4"/>
		</g>
		<g id="shape141-21" v:mID="141" v:groupContext="shape" transform="translate(70.8775,-277.231)">
			<title>Foglio.141</title>
			<desc>Work submit</desc>
			<v:textBlock v:margins="rect(4,4,4,4)" v:tabSpace="42.5197"/>
			<v:textRect cx="58.4646" cy="321.755" width="116.93" height="13.9075"/>
			<rect x="0" y="314.801" width="116.929" height="13.9075" class="st5"/>
			<text x="4" y="324.15" class="st6" v:langID="1040"><v:paragraph/><v:tabList/>Work submit</text>		</g>
		<g id="shape19-24" v:mID="19" v:groupContext="shape" transform="translate(538.311,451.318) rotate(180)">
			<title>Foglio.19</title>
			<path d="M5.1 328.71 L0 323.61 L5.1 318.5" class="st3"/>
		</g>
		<g id="shape23-27" v:mID="23" v:groupContext="shape" transform="translate(538.311,456.421) rotate(180)">
			<title>Foglio.23</title>
			<path d="M0 328.71 L435.9 328.71" class="st3"/>
		</g>
		<g id="shape1-30" v:mID="1" v:groupContext="shape" transform="translate(-232.319,81.2082) rotate(-90)">
			<title>Foglio.1</title>
			<path d="M0 328.71 L25.35 328.71" class="st7"/>
		</g>
		<g id="shape2-33" v:mID="2" v:groupContext="shape" transform="translate(-80.6659,81.3745) rotate(-90)">
			<title>Foglio.2</title>
			<path d="M0 328.71 L25.35 328.71" class="st7"/>
		</g>
		<g id="shape3-36" v:mID="3" v:groupContext="shape" transform="translate(64.6097,81.3745) rotate(-90)">
			<title>Foglio.3</title>
			<path d="M0 328.71 L25.35 328.71" class="st7"/>
		</g>
		<g id="shape4-39" v:mID="4" v:groupContext="shape" transform="translate(211.303,81.2082) rotate(-90)">
			<title>Foglio.4</title>
			<path d="M0 328.71 L25.35 328.71" class="st7"/>
		</g>
		<g id="shape5-42" v:mID="5" v:groupContext="shape" transform="translate(-232.319,34.4828) rotate(-90)">
			<title>Foglio.5</title>
			<path d="M0 328.71 L18.31 328.71" class="st7"/>
		</g>
		<g id="shape7-45" v:mID="7" v:groupContext="shape" transform="translate(64.6097,34.6029) rotate(-90)">
			<title>Foglio.7</title>
			<path d="M0 328.71 L18.31 328.71" class="st7"/>
		</g>
		<g id="shape8-48" v:mID="8" v:groupContext="shape" transform="translate(211.303,34.4828) rotate(-90)">
			<title>Foglio.8</title>
			<path d="M0 328.71 L18.31 328.71" class="st7"/>
		</g>
		<g id="shape9-51" v:mID="9" v:groupContext="shape" transform="translate(99.2239,348.288) scale(1,-1)">
			<title>Foglio.9</title>
			<path d="M5.1 328.71 L0 323.61 L5.1 318.5" class="st3"/>
		</g>
		<g id="shape6-54" v:mID="6" v:groupContext="shape" transform="translate(538.594,353.39) rotate(180)">
			<title>Foglio.6</title>
			<path d="M0 328.71 L145.28 328.71" class="st4"/>
		</g>
		<g id="shape10-57" v:mID="10" v:groupContext="shape" transform="translate(538.594,348.288) rotate(180)">
			<title>Foglio.10</title>
			<path d="M5.1 328.71 L0 323.61 L5.1 318.5" class="st3"/>
		</g>
		<g id="shape11-60" v:mID="11" v:groupContext="shape" transform="translate(394.594,348.288) scale(1,-1)">
			<title>Foglio.11</title>
			<path d="M5.1 328.71 L0 323.61 L5.1 318.5" class="st3"/>
		</g>
		<g id="shape12-63" v:mID="12" v:groupContext="shape" transform="translate(223.24,-277.231)">
			<title>Foglio.12</title>
			<desc>Work accepted</desc>
			<v:textBlock v:margins="rect(4,4,4,4)" v:tabSpace="42.5197"/>
			<v:textRect cx="58.4646" cy="321.755" width="116.93" height="13.9075"/>
			<rect x="0" y="314.801" width="116.929" height="13.9075" class="st5"/>
			<text x="4" y="324.15" class="st6" v:langID="1040"><v:paragraph/><v:tabList/>Work accepted</text>		</g>
		<g id="shape13-66" v:mID="13" v:groupContext="shape" transform="translate(365.681,-277.231)">
			<title>Foglio.13</title>
			<desc>Work started</desc>
			<v:textBlock v:margins="rect(4,4,4,4)" v:tabSpace="42.5197"/>
			<v:textRect cx="58.4646" cy="321.755" width="116.93" height="13.9075"/>
			<rect x="0" y="314.801" width="116.929" height="13.9075" class="st5"/>
			<text x="4" y="324.15" class="st6" v:langID="1040"><v:paragraph/><v:tabList/>Work started</text>		</g>
		<g id="shape14-69" v:mID="14" v:groupContext="shape" transform="translate(504.578,-277.231)">
			<title>Foglio.14</title>
			<desc>Work completed</desc>
			<v:textBlock v:margins="rect(4,4,4,4)" v:tabSpace="42.5197"/>
			<v:textRect cx="58.4646" cy="321.755" width="116.93" height="13.9075"/>
			<rect x="0" y="314.801" width="116.929" height="13.9075" class="st5"/>
			<text x="4" y="324.15" class="st6" v:langID="1040"><v:paragraph/><v:tabList/>Work completed</text>		</g>
		<g id="shape15-72" v:mID="15" v:groupContext="shape" transform="translate(540.011,395.91) rotate(180)">
			<title>Foglio.15</title>
			<path d="M0 328.71 L443.62 328.71" class="st7"/>
		</g>
		<g id="shape21-75" v:mID="21" v:groupContext="shape" transform="translate(175.759,-311.247)">
			<title>Foglio.21</title>
			<desc>WorkRejectedException</desc>
			<v:textBlock v:margins="rect(4,4,4,4)" v:tabSpace="42.5197"/>
			<v:textRect cx="58.4646" cy="321.755" width="116.93" height="13.9075"/>
			<rect x="0" y="314.801" width="116.929" height="13.9075" class="st5"/>
			<text x="4" y="324.15" class="st6" v:langID="1040"><v:paragraph/><v:tabList/>WorkRejectedException</text>		</g>
		<g id="shape22-78" v:mID="22" v:groupContext="shape" transform="translate(394.027,-311.247)">
			<title>Foglio.22</title>
			<desc>WorkCompleted-Exception</desc>
			<v:textBlock v:margins="rect(4,4,4,4)" v:tabSpace="42.5197"/>
			<v:textRect cx="58.4646" cy="321.755" width="116.93" height="13.9075"/>
			<rect x="0" y="314.801" width="116.929" height="13.9075" class="st5"/>
			<text x="4" y="324.15" class="st6" v:langID="1040"><v:paragraph/><v:tabList/>WorkCompleted-Exception</text>		</g>
		<g id="shape24-81" v:mID="24" v:groupContext="shape" transform="translate(99.7909,451.318) scale(1,-1)">
			<title>Foglio.24</title>
			<path d="M5.1 328.71 L0 323.61 L5.1 318.5" class="st3"/>
		</g>
		<g id="shape25-84" v:mID="25" v:groupContext="shape" transform="translate(388.358,520.634) rotate(180)">
			<title>Foglio.25</title>
			<path d="M0 328.71 L288.5 328.71" class="st3"/>
		</g>
		<g id="shape31-87" v:mID="31" v:groupContext="shape" transform="translate(99.7909,515.532) scale(1,-1)">
			<title>Foglio.31</title>
			<path d="M5.1 328.71 L0 323.61 L5.1 318.5" class="st3"/>
		</g>
		<g id="shape40-90" v:mID="40" v:groupContext="shape" transform="translate(390.626,515.532) rotate(180)">
			<title>Foglio.40</title>
			<path d="M5.1 328.71 L0 323.61 L5.1 318.5" class="st3"/>
		</g>
		<g id="shape26-93" v:mID="26" v:groupContext="shape" transform="translate(245.35,584.547) rotate(180)">
			<title>Foglio.26</title>
			<path d="M0 328.71 L146.76 328.71" class="st3"/>
		</g>
		<g id="shape27-96" v:mID="27" v:groupContext="shape" transform="translate(98.5153,579.444) scale(1,-1)">
			<title>Foglio.27</title>
			<path d="M5.1 328.71 L0 323.61 L5.1 318.5" class="st3"/>
		</g>
		<g id="shape28-99" v:mID="28" v:groupContext="shape" transform="translate(245.35,579.444) rotate(180)">
			<title>Foglio.28</title>
			<path d="M5.1 328.71 L0 323.61 L5.1 318.5" class="st3"/>
		</g>
		<g id="shape32-102" v:mID="32" v:groupContext="shape" transform="translate(6.38929,-193.476)">
			<title>Foglio.32</title>
			<desc>doWork()</desc>
			<v:textBlock v:margins="rect(4,4,4,4)" v:tabSpace="42.5197"/>
			<v:textRect cx="58.4646" cy="321.755" width="116.93" height="13.9075"/>
			<rect x="0" y="314.801" width="116.929" height="13.9075" class="st5"/>
			<text x="4" y="324.15" class="st6" v:langID="1040"><v:paragraph/><v:tabList/>doWork()</text>		</g>
		<g id="shape33-105" v:mID="33" v:groupContext="shape" transform="translate(6.38929,-129.564)">
			<title>Foglio.33</title>
			<desc>startWork()</desc>
			<v:textBlock v:margins="rect(4,4,4,4)" v:tabSpace="42.5197"/>
			<v:textRect cx="58.4646" cy="321.755" width="116.93" height="13.9075"/>
			<rect x="0" y="314.801" width="116.929" height="13.9075" class="st5"/>
			<text x="4" y="324.15" class="st6" v:langID="1040"><v:paragraph/><v:tabList/>startWork()</text>		</g>
		<g id="shape34-108" v:mID="34" v:groupContext="shape" transform="translate(6.38929,-64.6324)">
			<title>Foglio.34</title>
			<desc>scheduleWork()</desc>
			<v:textBlock v:margins="rect(4,4,4,4)" v:tabSpace="42.5197"/>
			<v:textRect cx="58.4646" cy="321.755" width="116.93" height="13.9075"/>
			<rect x="0" y="314.801" width="116.929" height="13.9075" class="st5"/>
			<text x="4" y="324.15" class="st6" v:langID="1040"><v:paragraph/><v:tabList/>scheduleWork()</text>		</g>
	</g>
</svg>
