<?xml version="1.0" encoding="UTF-8" standalone="no"?>
<!DOCTYPE svg PUBLIC "-//W3C//DTD SVG 1.0//EN" "http://www.w3.org/TR/2001/REC-SVG-20010904/DTD/svg10.dtd">
<!-- Generato da Microsoft Visio 11.0, SVG Export, v1.0 conn-83.svg Pagina 1 -->
<svg xmlns="http://www.w3.org/2000/svg" xmlns:v="http://schemas.microsoft.com/visio/2003/SVGExtensions/" width="8.01213in"
		height="10.9649in" viewBox="0 0 576.873 789.471" xml:space="preserve" color-interpolation-filters="sRGB" class="st12">
	<v:documentProperties v:langID="1040" v:metric="true" v:viewMarkup="false">
		<v:userDefs>
			<v:ud v:nameU="MBSAAddinOutlineVisible" v:prompt="" v:val="VT0(1):26"/>
		</v:userDefs>
	</v:documentProperties>

	<style type="text/css">
	<![CDATA[
		.st1 {fill:#ffffff;stroke:none;stroke-linecap:round;stroke-linejoin:round;stroke-width:0.72}
		.st2 {fill:#173660;stroke:none;stroke-linecap:round;stroke-linejoin:round;stroke-width:0.72}
		.st3 {fill:none;stroke:none;stroke-linecap:round;stroke-linejoin:round;stroke-width:0.72}
		.st4 {fill:#ffffff;font-family:Arial;font-size:0.666664em}
		.st5 {font-size:1em}
		.st6 {stroke:#8c8c8c;stroke-dasharray:0,6.48;stroke-linecap:round;stroke-linejoin:round;stroke-width:2.16}
		.st7 {stroke:#f28226;stroke-linecap:round;stroke-linejoin:round;stroke-width:2.16}
		.st8 {stroke:#f28226;stroke-dasharray:0,6.48;stroke-linecap:round;stroke-linejoin:round;stroke-width:2.16}
		.st9 {fill:#facca7;stroke:none;stroke-linecap:round;stroke-linejoin:round;stroke-width:0.72}
		.st10 {fill:#000000;font-family:Arial;font-size:0.666664em}
		.st11 {fill:#ffffff;fill-opacity:0;stroke:#8c8c8c;stroke-dasharray:0,6.48;stroke-linecap:round;stroke-linejoin:round;stroke-width:2.16}
		.st12 {fill:none;fill-rule:evenodd;font-size:12;overflow:visible;stroke-linecap:square;stroke-miterlimit:3}
	]]>
	</style>

	<g v:mID="0" v:index="1" v:groupContext="foregroundPage">
		<title>Pagina 1</title>
		<v:pageProperties v:drawingScale="0.0393701" v:pageScale="0.0393701" v:drawingUnits="24" v:shadowOffsetX="8.50394"
				v:shadowOffsetY="-8.50394"/>
		<g id="shape139-1" v:mID="139" v:groupContext="shape" transform="translate(0.72,-0.72)">
			<title>Foglio.139</title>
			<rect x="0" y="1.44" width="575.433" height="788.031" class="st1"/>
		</g>
		<g id="shape11-3" v:mID="11" v:groupContext="shape" transform="translate(160.169,-733.002)">
			<title>Foglio.11</title>
			<rect x="0" y="744.471" width="114.803" height="45" rx="8.50394" ry="8.50394" class="st2"/>
		</g>
		<g id="shape12-5" v:mID="12" v:groupContext="shape" transform="translate(169.216,-748.176)">
			<title>Foglio.12</title>
			<desc>Work Manager (from app server)</desc>
			<v:textBlock v:margins="rect(4,4,4,4)" v:tabSpace="42.5197"/>
			<v:textRect cx="39.7677" cy="779.683" width="79.54" height="19.5768"/>
			<rect x="0" y="769.895" width="79.5354" height="19.5768" class="st3"/>
			<text x="4" y="777.28" class="st4" v:langID="1040"><v:paragraph/><v:tabList/>Work Manager <tspan x="4" dy="1.2em"
						class="st5">(</tspan>from app server)</text>		</g>
		<g id="shape16-9" v:mID="16" v:groupContext="shape" transform="translate(-723.555,777.413) rotate(-90)">
			<title>Foglio.16</title>
			<path d="M0 789.47 L717.33 789.47" class="st6"/>
		</g>
		<g id="shape17-12" v:mID="17" v:groupContext="shape" transform="translate(-571.901,777.413) rotate(-90)">
			<title>Foglio.17</title>
			<path d="M0 789.47 L717.33 789.47" class="st6"/>
		</g>
		<g id="shape18-15" v:mID="18" v:groupContext="shape" transform="translate(-426.626,777.413) rotate(-90)">
			<title>Foglio.18</title>
			<path d="M0 789.47 L728.5 789.47" class="st6"/>
		</g>
		<g id="shape20-18" v:mID="20" v:groupContext="shape" transform="translate(-279.933,777.413) rotate(-90)">
			<title>Foglio.20</title>
			<path d="M0 789.47 L728.5 789.47" class="st6"/>
		</g>
		<g id="shape29-21" v:mID="29" v:groupContext="shape" transform="translate(507.555,901.168) rotate(180)">
			<title>Foglio.29</title>
			<path d="M5.1 789.47 L0 784.37 L5.1 779.27" class="st7"/>
		</g>
		<g id="shape30-24" v:mID="30" v:groupContext="shape" transform="translate(502.452,906.27) rotate(180)">
			<title>Foglio.30</title>
			<path d="M0 789.47 L430.87 789.47" class="st8"/>
		</g>
		<g id="shape31-27" v:mID="31" v:groupContext="shape" transform="translate(60.2476,-661.192)">
			<title>Foglio.31</title>
			<rect x="0" y="749.786" width="11.3386" height="39.685" class="st9"/>
		</g>
		<g id="shape141-29" v:mID="141" v:groupContext="shape" transform="translate(240.956,-676.207)">
			<title>Foglio.141</title>
			<desc>1. create an instance</desc>
			<v:textBlock v:margins="rect(4,4,4,4)" v:tabSpace="42.5197"/>
			<v:textRect cx="58.4646" cy="782.518" width="116.93" height="13.9075"/>
			<rect x="0" y="775.564" width="116.929" height="13.9075" class="st3"/>
			<text x="4" y="784.92" class="st10" v:langID="1040"><v:paragraph/><v:tabList/>1. create an instance</text>		</g>
		<g id="shape1-32" v:mID="1" v:groupContext="shape" transform="translate(10.6413,-734.893)">
			<title>Foglio.1</title>
			<rect x="0" y="744.471" width="110.551" height="45" rx="8.50394" ry="8.50394" class="st2"/>
		</g>
		<g id="shape4-34" v:mID="4" v:groupContext="shape" transform="translate(21.9798,-750.222)">
			<title>Foglio.4</title>
			<desc>Resource Adapter (from adapter)</desc>
			<v:textBlock v:margins="rect(4,4,4,4)" v:tabSpace="42.5197"/>
			<v:textRect cx="41.4567" cy="779.683" width="82.92" height="19.5768"/>
			<rect x="0" y="769.895" width="82.9134" height="19.5768" class="st3"/>
			<text x="4" y="777.28" class="st4" v:langID="1040"><v:paragraph/><v:tabList/>Resource Adapter <tspan x="4" dy="1.2em"
						class="st5">(</tspan>from adapter)</text>		</g>
		<g id="shape5-38" v:mID="5" v:groupContext="shape" transform="translate(311.114,-732.413)">
			<title>Foglio.5</title>
			<rect x="0" y="744.471" width="106.299" height="45" rx="8.50394" ry="8.50394" class="st2"/>
		</g>
		<g id="shape9-40" v:mID="9" v:groupContext="shape" transform="translate(316.783,-744.42)">
			<title>Foglio.9</title>
			<desc>Java thread (from app server)</desc>
			<v:textBlock v:margins="rect(4,4,4,4)" v:tabSpace="42.5197"/>
			<v:textRect cx="38.9764" cy="775.298" width="77.96" height="28.3465"/>
			<rect x="0" y="761.125" width="77.9528" height="28.3465" class="st3"/>
			<text x="4" y="772.9" class="st4" v:langID="1040"><v:paragraph/><v:tabList/>Java thread<v:newlineChar/><tspan x="4"
						dy="1.2em" class="st5">(</tspan>from app server)</text>		</g>
		<g id="shape13-44" v:mID="13" v:groupContext="shape" transform="translate(457.098,-733.002)">
			<title>Foglio.13</title>
			<rect x="0" y="744.471" width="107.717" height="45" rx="8.50394" ry="8.50394" class="st2"/>
		</g>
		<g id="shape14-46" v:mID="14" v:groupContext="shape" transform="translate(468.98,-748.176)">
			<title>Foglio.14</title>
			<desc>Work (from adapter)</desc>
			<v:textBlock v:margins="rect(4,4,4,4)" v:tabSpace="42.5197"/>
			<v:textRect cx="37.2874" cy="779.683" width="74.58" height="19.5768"/>
			<rect x="0" y="769.895" width="74.5748" height="19.5768" class="st3"/>
			<text x="4" y="777.28" class="st4" v:langID="1040"><v:paragraph/><v:tabList/>Work <v:newlineChar/><tspan x="4"
						dy="1.2em" class="st5">(</tspan>from adapter)</text>		</g>
		<g id="shape19-50" v:mID="19" v:groupContext="shape" transform="translate(210.2,945.105) rotate(180)">
			<title>Foglio.19</title>
			<path d="M5.1 789.47 L0 784.37 L5.1 779.27" class="st7"/>
		</g>
		<g id="shape23-53" v:mID="23" v:groupContext="shape" transform="translate(207.649,950.207) rotate(180)">
			<title>Foglio.23</title>
			<path d="M0 789.47 L135.71 789.47" class="st7"/>
		</g>
		<g id="shape24-56" v:mID="24" v:groupContext="shape" transform="translate(60.6019,-508.122)">
			<title>Foglio.24</title>
			<rect x="0" y="649.157" width="11.3386" height="140.315" class="st9"/>
		</g>
		<g id="shape25-58" v:mID="25" v:groupContext="shape" transform="translate(73.3578,-632.27)">
			<title>Foglio.25</title>
			<desc>2. doWork() [blocks until work completes]</desc>
			<v:textBlock v:margins="rect(4,4,4,4)" v:tabSpace="42.5197"/>
			<v:textRect cx="122.421" cy="782.518" width="244.85" height="13.9075"/>
			<rect x="0" y="775.564" width="244.843" height="13.9075" class="st3"/>
			<text x="4" y="784.92" class="st10" v:langID="1040"><v:paragraph/><v:tabList/>2. doWork() [blocks until work completes]</text>		</g>
		<g id="shape145-61" v:mID="145" v:groupContext="shape" transform="translate(43.2397,-496.783)">
			<title>Foglio.145</title>
			<rect x="0" y="571.204" width="513.071" height="218.268" rx="11.3386" ry="11.3386" class="st11"/>
		</g>
		<g id="shape26-63" v:mID="26" v:groupContext="shape" transform="translate(360.72,989.684) rotate(180)">
			<title>Foglio.26</title>
			<path d="M5.1 789.47 L0 784.37 L5.1 779.27" class="st7"/>
		</g>
		<g id="shape27-66" v:mID="27" v:groupContext="shape" transform="translate(362.846,994.786) rotate(180)">
			<title>Foglio.27</title>
			<path d="M0 789.47 L139.32 789.47" class="st8"/>
		</g>
		<g id="shape28-69" v:mID="28" v:groupContext="shape" transform="translate(212.185,-567.649)">
			<title>Foglio.28</title>
			<rect x="0" y="749.786" width="11.3386" height="39.685" class="st9"/>
		</g>
		<g id="shape32-71" v:mID="32" v:groupContext="shape" transform="translate(236.704,-587.691)">
			<title>Foglio.32</title>
			<desc>3. dispatches a Java thread</desc>
			<v:textBlock v:margins="rect(4,4,4,4)" v:tabSpace="42.5197"/>
			<v:textRect cx="58.4646" cy="782.518" width="116.93" height="13.9075"/>
			<rect x="0" y="775.564" width="116.929" height="13.9075" class="st3"/>
			<text x="4" y="784.92" class="st10" v:langID="1040"><v:paragraph/><v:tabList/>3. dispatches a Java thread</text>		</g>
		<g id="shape33-74" v:mID="33" v:groupContext="shape" transform="translate(505.996,1037.87) rotate(180)">
			<title>Foglio.33</title>
			<path d="M5.1 789.47 L0 784.37 L5.1 779.27" class="st7"/>
		</g>
		<g id="shape34-77" v:mID="34" v:groupContext="shape" transform="translate(508.122,1042.98) rotate(180)">
			<title>Foglio.34</title>
			<path d="M0 789.47 L139.32 789.47" class="st7"/>
		</g>
		<g id="shape35-80" v:mID="35" v:groupContext="shape" transform="translate(357.46,-519.46)">
			<title>Foglio.35</title>
			<rect x="0" y="749.786" width="11.3386" height="39.685" class="st9"/>
		</g>
		<g id="shape36-82" v:mID="36" v:groupContext="shape" transform="translate(381.98,-539.502)">
			<title>Foglio.36</title>
			<desc>4. setup execution context</desc>
			<v:textBlock v:margins="rect(4,4,4,4)" v:tabSpace="42.5197"/>
			<v:textRect cx="58.4646" cy="782.518" width="116.93" height="13.9075"/>
			<rect x="0" y="775.564" width="116.929" height="13.9075" class="st3"/>
			<text x="4" y="784.92" class="st10" v:langID="1040"><v:paragraph/><v:tabList/>4. setup execution context</text>		</g>
		<g id="shape37-85" v:mID="37" v:groupContext="shape" transform="translate(380.563,-518.176)">
			<title>Foglio.37</title>
			<desc>and call run()</desc>
			<v:textBlock v:margins="rect(4,4,4,4)" v:tabSpace="42.5197"/>
			<v:textRect cx="58.4646" cy="782.518" width="116.93" height="13.9075"/>
			<rect x="0" y="775.564" width="116.929" height="13.9075" class="st3"/>
			<text x="4" y="784.92" class="st10" v:langID="1040"><v:paragraph/><v:tabList/>and call run()</text>		</g>
		<g id="shape38-88" v:mID="38" v:groupContext="shape" transform="translate(507.555,1135.03) rotate(180)">
			<title>Foglio.38</title>
			<path d="M5.1 789.47 L0 784.37 L5.1 779.27" class="st7"/>
		</g>
		<g id="shape39-91" v:mID="39" v:groupContext="shape" transform="translate(502.452,1140.13) rotate(180)">
			<title>Foglio.39</title>
			<path d="M0 789.47 L430.87 789.47" class="st8"/>
		</g>
		<g id="shape40-94" v:mID="40" v:groupContext="shape" transform="translate(60.2476,-427.334)">
			<title>Foglio.40</title>
			<rect x="0" y="749.786" width="11.3386" height="39.685" class="st9"/>
		</g>
		<g id="shape41-96" v:mID="41" v:groupContext="shape" transform="translate(240.956,-442.349)">
			<title>Foglio.41</title>
			<desc>1. create an instance</desc>
			<v:textBlock v:margins="rect(4,4,4,4)" v:tabSpace="42.5197"/>
			<v:textRect cx="58.4646" cy="782.518" width="116.93" height="13.9075"/>
			<rect x="0" y="775.564" width="116.929" height="13.9075" class="st3"/>
			<text x="4" y="784.92" class="st10" v:langID="1040"><v:paragraph/><v:tabList/>1. create an instance</text>		</g>
		<g id="shape42-99" v:mID="42" v:groupContext="shape" transform="translate(210.2,1178.96) rotate(180)">
			<title>Foglio.42</title>
			<path d="M5.1 789.47 L0 784.37 L5.1 779.27" class="st7"/>
		</g>
		<g id="shape43-102" v:mID="43" v:groupContext="shape" transform="translate(207.649,1184.07) rotate(180)">
			<title>Foglio.43</title>
			<path d="M0 789.47 L135.71 789.47" class="st7"/>
		</g>
		<g id="shape44-105" v:mID="44" v:groupContext="shape" transform="translate(60.6019,-274.263)">
			<title>Foglio.44</title>
			<rect x="0" y="649.157" width="11.3386" height="140.315" class="st9"/>
		</g>
		<g id="shape45-107" v:mID="45" v:groupContext="shape" transform="translate(73.3578,-398.412)">
			<title>Foglio.45</title>
			<desc>2. startWork() [blocks until work starts (that is, a thread i...</desc>
			<v:textBlock v:margins="rect(4,4,4,4)" v:tabSpace="42.5197"/>
			<v:textRect cx="133.76" cy="782.518" width="267.52" height="13.9075"/>
			<rect x="0" y="775.564" width="267.52" height="13.9075" class="st3"/>
			<text x="4" y="784.92" class="st10" v:langID="1040"><v:paragraph/><v:tabList/>2. startWork() [blocks until work starts (that is, a thread is allocated)]</text>		</g>
		<g id="shape46-110" v:mID="46" v:groupContext="shape" transform="translate(43.2397,-262.925)">
			<title>Foglio.46</title>
			<rect x="0" y="571.204" width="513.071" height="218.268" rx="11.3386" ry="11.3386" class="st11"/>
		</g>
		<g id="shape47-112" v:mID="47" v:groupContext="shape" transform="translate(360.72,1223.54) rotate(180)">
			<title>Foglio.47</title>
			<path d="M5.1 789.47 L0 784.37 L5.1 779.27" class="st7"/>
		</g>
		<g id="shape48-115" v:mID="48" v:groupContext="shape" transform="translate(362.846,1228.64) rotate(180)">
			<title>Foglio.48</title>
			<path d="M0 789.47 L139.32 789.47" class="st8"/>
		</g>
		<g id="shape49-118" v:mID="49" v:groupContext="shape" transform="translate(212.185,-333.791)">
			<title>Foglio.49</title>
			<rect x="0" y="749.786" width="11.3386" height="39.685" class="st9"/>
		</g>
		<g id="shape50-120" v:mID="50" v:groupContext="shape" transform="translate(236.704,-353.833)">
			<title>Foglio.50</title>
			<desc>3. dispatches a Java thread</desc>
			<v:textBlock v:margins="rect(4,4,4,4)" v:tabSpace="42.5197"/>
			<v:textRect cx="58.4646" cy="782.518" width="116.93" height="13.9075"/>
			<rect x="0" y="775.564" width="116.929" height="13.9075" class="st3"/>
			<text x="4" y="784.92" class="st10" v:langID="1040"><v:paragraph/><v:tabList/>3. dispatches a Java thread</text>		</g>
		<g id="shape51-123" v:mID="51" v:groupContext="shape" transform="translate(505.996,1271.73) rotate(180)">
			<title>Foglio.51</title>
			<path d="M5.1 789.47 L0 784.37 L5.1 779.27" class="st7"/>
		</g>
		<g id="shape52-126" v:mID="52" v:groupContext="shape" transform="translate(508.122,1276.83) rotate(180)">
			<title>Foglio.52</title>
			<path d="M0 789.47 L139.32 789.47" class="st7"/>
		</g>
		<g id="shape53-129" v:mID="53" v:groupContext="shape" transform="translate(357.46,-285.602)">
			<title>Foglio.53</title>
			<rect x="0" y="749.786" width="11.3386" height="39.685" class="st9"/>
		</g>
		<g id="shape54-131" v:mID="54" v:groupContext="shape" transform="translate(381.98,-305.644)">
			<title>Foglio.54</title>
			<desc>4. setup execution context</desc>
			<v:textBlock v:margins="rect(4,4,4,4)" v:tabSpace="42.5197"/>
			<v:textRect cx="58.4646" cy="782.518" width="116.93" height="13.9075"/>
			<rect x="0" y="775.564" width="116.929" height="13.9075" class="st3"/>
			<text x="4" y="784.92" class="st10" v:langID="1040"><v:paragraph/><v:tabList/>4. setup execution context</text>		</g>
		<g id="shape55-134" v:mID="55" v:groupContext="shape" transform="translate(380.563,-284.317)">
			<title>Foglio.55</title>
			<desc>and call run()</desc>
			<v:textBlock v:margins="rect(4,4,4,4)" v:tabSpace="42.5197"/>
			<v:textRect cx="58.4646" cy="782.518" width="116.93" height="13.9075"/>
			<rect x="0" y="775.564" width="116.929" height="13.9075" class="st3"/>
			<text x="4" y="784.92" class="st10" v:langID="1040"><v:paragraph/><v:tabList/>and call run()</text>		</g>
		<g id="shape56-137" v:mID="56" v:groupContext="shape" transform="translate(507.555,1368.88) rotate(180)">
			<title>Foglio.56</title>
			<path d="M5.1 789.47 L0 784.37 L5.1 779.27" class="st7"/>
		</g>
		<g id="shape57-140" v:mID="57" v:groupContext="shape" transform="translate(502.452,1373.99) rotate(180)">
			<title>Foglio.57</title>
			<path d="M0 789.47 L430.87 789.47" class="st8"/>
		</g>
		<g id="shape58-143" v:mID="58" v:groupContext="shape" transform="translate(60.2476,-193.476)">
			<title>Foglio.58</title>
			<rect x="0" y="749.786" width="11.3386" height="39.685" class="st9"/>
		</g>
		<g id="shape59-145" v:mID="59" v:groupContext="shape" transform="translate(240.956,-208.491)">
			<title>Foglio.59</title>
			<desc>1. create an instance</desc>
			<v:textBlock v:margins="rect(4,4,4,4)" v:tabSpace="42.5197"/>
			<v:textRect cx="58.4646" cy="782.518" width="116.93" height="13.9075"/>
			<rect x="0" y="775.564" width="116.929" height="13.9075" class="st3"/>
			<text x="4" y="784.92" class="st10" v:langID="1040"><v:paragraph/><v:tabList/>1. create an instance</text>		</g>
		<g id="shape60-148" v:mID="60" v:groupContext="shape" transform="translate(210.2,1412.82) rotate(180)">
			<title>Foglio.60</title>
			<path d="M5.1 789.47 L0 784.37 L5.1 779.27" class="st7"/>
		</g>
		<g id="shape61-151" v:mID="61" v:groupContext="shape" transform="translate(207.649,1417.92) rotate(180)">
			<title>Foglio.61</title>
			<path d="M0 789.47 L135.71 789.47" class="st7"/>
		</g>
		<g id="shape62-154" v:mID="62" v:groupContext="shape" transform="translate(60.6019,-40.405)">
			<title>Foglio.62</title>
			<rect x="0" y="649.157" width="11.3386" height="140.315" class="st9"/>
		</g>
		<g id="shape63-156" v:mID="63" v:groupContext="shape" transform="translate(73.3578,-164.554)">
			<title>Foglio.63</title>
			<desc>2. scheduleWork() [blocks until work is accepted]</desc>
			<v:textBlock v:margins="rect(4,4,4,4)" v:tabSpace="42.5197"/>
			<v:textRect cx="133.76" cy="782.518" width="267.52" height="13.9075"/>
			<rect x="0" y="775.564" width="267.52" height="13.9075" class="st3"/>
			<text x="4" y="784.92" class="st10" v:langID="1040"><v:paragraph/><v:tabList/>2. scheduleWork() [blocks until work is accepted]</text>		</g>
		<g id="shape64-159" v:mID="64" v:groupContext="shape" transform="translate(43.2397,-29.0665)">
			<title>Foglio.64</title>
			<rect x="0" y="571.204" width="513.071" height="218.268" rx="11.3386" ry="11.3386" class="st11"/>
		</g>
		<g id="shape65-161" v:mID="65" v:groupContext="shape" transform="translate(360.72,1457.4) rotate(180)">
			<title>Foglio.65</title>
			<path d="M5.1 789.47 L0 784.37 L5.1 779.27" class="st7"/>
		</g>
		<g id="shape66-164" v:mID="66" v:groupContext="shape" transform="translate(362.846,1462.5) rotate(180)">
			<title>Foglio.66</title>
			<path d="M0 789.47 L139.32 789.47" class="st8"/>
		</g>
		<g id="shape67-167" v:mID="67" v:groupContext="shape" transform="translate(212.185,-99.9326)">
			<title>Foglio.67</title>
			<rect x="0" y="749.786" width="11.3386" height="39.685" class="st9"/>
		</g>
		<g id="shape68-169" v:mID="68" v:groupContext="shape" transform="translate(236.704,-119.974)">
			<title>Foglio.68</title>
			<desc>3. dispatches a Java thread</desc>
			<v:textBlock v:margins="rect(4,4,4,4)" v:tabSpace="42.5197"/>
			<v:textRect cx="58.4646" cy="782.518" width="116.93" height="13.9075"/>
			<rect x="0" y="775.564" width="116.929" height="13.9075" class="st3"/>
			<text x="4" y="784.92" class="st10" v:langID="1040"><v:paragraph/><v:tabList/>3. dispatches a Java thread</text>		</g>
		<g id="shape69-172" v:mID="69" v:groupContext="shape" transform="translate(505.996,1505.59) rotate(180)">
			<title>Foglio.69</title>
			<path d="M5.1 789.47 L0 784.37 L5.1 779.27" class="st7"/>
		</g>
		<g id="shape70-175" v:mID="70" v:groupContext="shape" transform="translate(508.122,1510.69) rotate(180)">
			<title>Foglio.70</title>
			<path d="M0 789.47 L139.32 789.47" class="st7"/>
		</g>
		<g id="shape71-178" v:mID="71" v:groupContext="shape" transform="translate(357.46,-51.7436)">
			<title>Foglio.71</title>
			<rect x="0" y="749.786" width="11.3386" height="39.685" class="st9"/>
		</g>
		<g id="shape72-180" v:mID="72" v:groupContext="shape" transform="translate(381.98,-71.7855)">
			<title>Foglio.72</title>
			<desc>4. setup execution context</desc>
			<v:textBlock v:margins="rect(4,4,4,4)" v:tabSpace="42.5197"/>
			<v:textRect cx="58.4646" cy="782.518" width="116.93" height="13.9075"/>
			<rect x="0" y="775.564" width="116.929" height="13.9075" class="st3"/>
			<text x="4" y="784.92" class="st10" v:langID="1040"><v:paragraph/><v:tabList/>4. setup execution context</text>		</g>
		<g id="shape73-183" v:mID="73" v:groupContext="shape" transform="translate(380.563,-50.4592)">
			<title>Foglio.73</title>
			<desc>and call run()</desc>
			<v:textBlock v:margins="rect(4,4,4,4)" v:tabSpace="42.5197"/>
			<v:textRect cx="58.4646" cy="782.518" width="116.93" height="13.9075"/>
			<rect x="0" y="775.564" width="116.929" height="13.9075" class="st3"/>
			<text x="4" y="784.92" class="st10" v:langID="1040"><v:paragraph/><v:tabList/>and call run()</text>		</g>
	</g>
</svg>
