<?xml version="1.0" encoding="UTF-8" standalone="no"?>
<!DOCTYPE svg PUBLIC "-//W3C//DTD SVG 1.0//EN" "http://www.w3.org/TR/2001/REC-SVG-20010904/DTD/svg10.dtd">
<!-- Generato da Microsoft Visio 11.0, SVG Export, v1.0 conn-78.svg Pagina 1 -->
<svg xmlns="http://www.w3.org/2000/svg" xmlns:v="http://schemas.microsoft.com/visio/2003/SVGExtensions/" width="9.2326in"
		height="10.0397in" viewBox="0 0 664.747 722.857" xml:space="preserve" color-interpolation-filters="sRGB" class="st8">
	<v:documentProperties v:langID="1040" v:metric="true" v:viewMarkup="false">
		<v:userDefs>
			<v:ud v:nameU="MBSAAddinOutlineVisible" v:prompt="" v:val="VT0(1):26"/>
		</v:userDefs>
	</v:documentProperties>

	<style type="text/css">
	<![CDATA[
		.st1 {fill:#ffffff;stroke:none;stroke-linecap:round;stroke-linejoin:round;stroke-width:0.72}
		.st2 {fill:#facca7;stroke:none;stroke-linecap:round;stroke-linejoin:round;stroke-width:0.72}
		.st3 {fill:#f28226;stroke:#f28226;stroke-linecap:round;stroke-linejoin:round;stroke-width:0.72}
		.st4 {fill:none;stroke:none;stroke-linecap:round;stroke-linejoin:round;stroke-width:0.72}
		.st5 {fill:#595959;font-family:Arial;font-size:0.833336em;font-weight:bold}
		.st6 {stroke:#f28226;stroke-linecap:round;stroke-linejoin:round;stroke-width:2.16}
		.st7 {font-size:1em}
		.st8 {fill:none;fill-rule:evenodd;font-size:12;overflow:visible;stroke-linecap:square;stroke-miterlimit:3}
	]]>
	</style>

	<g v:mID="0" v:index="1" v:groupContext="foregroundPage">
		<title>Pagina 1</title>
		<v:pageProperties v:drawingScale="0.0393701" v:pageScale="0.0393701" v:drawingUnits="24" v:shadowOffsetX="8.50394"
				v:shadowOffsetY="-8.50394"/>
		<g id="shape17-1" v:mID="17" v:groupContext="shape" transform="translate(0.72,-0.72)">
			<title>Foglio.17</title>
			<rect x="0" y="1.44" width="663.307" height="721.417" class="st1"/>
		</g>
		<g id="shape45-3" v:mID="45" v:groupContext="shape" transform="translate(12.2552,-14.2868)">
			<title>Foglio.45</title>
			<rect x="0" y="43.122" width="218.071" height="679.735" rx="11.3386" ry="11.3386" class="st2"/>
		</g>
		<g id="shape2-5" v:mID="2" v:groupContext="shape" transform="translate(175.159,-656.527)">
			<title>Foglio.2</title>
			<ellipse cx="17.191" cy="705.666" rx="17.191" ry="17.191" class="st3"/>
		</g>
		<g id="shape11-7" v:mID="11" v:groupContext="shape" transform="translate(175.159,-246.968)">
			<title>Foglio.11</title>
			<ellipse cx="17.191" cy="705.666" rx="17.191" ry="17.191" class="st3"/>
		</g>
		<g id="shape3-9" v:mID="3" v:groupContext="shape" transform="translate(18.4914,-665.926)">
			<title>Foglio.3</title>
			<desc>BootstrapContext</desc>
			<v:textBlock v:margins="rect(4,4,4,4)" v:tabSpace="42.5197"/>
			<v:textRect cx="50.6243" cy="714.835" width="101.25" height="16.0449"/>
			<rect x="0" y="706.812" width="101.249" height="16.0449" class="st4"/>
			<text x="4" y="717.83" class="st5" v:langID="1040"><v:paragraph/><v:tabList/>BootstrapContext</text>		</g>
		<g id="shape12-12" v:mID="12" v:groupContext="shape" transform="translate(17.5145,-254.99)">
			<title>Foglio.12</title>
			<desc>WorkEvent</desc>
			<v:textBlock v:margins="rect(4,4,4,4)" v:tabSpace="42.5197"/>
			<v:textRect cx="46.7717" cy="714.835" width="93.55" height="16.0449"/>
			<rect x="0" y="706.812" width="93.5433" height="16.0449" class="st4"/>
			<text x="4" y="717.83" class="st5" v:langID="1040"><v:paragraph/><v:tabList/>WorkEvent</text>		</g>
		<g id="shape5-15" v:mID="5" v:groupContext="shape" transform="translate(65.2608,-696.626)">
			<title>Foglio.5</title>
			<desc>Application Server</desc>
			<v:textBlock v:margins="rect(4,4,4,4)" v:tabSpace="42.5197"/>
			<v:textRect cx="57.349" cy="712.936" width="114.7" height="19.8425"/>
			<rect x="0" y="703.015" width="114.698" height="19.8425" class="st4"/>
			<text x="4" y="715.94" class="st5" v:langID="1040"><v:paragraph/><v:tabList/>Application Server</text>		</g>
		<g id="shape15-18" v:mID="15" v:groupContext="shape" transform="translate(175.417,-175.736)">
			<title>Foglio.15</title>
			<ellipse cx="17.191" cy="705.666" rx="17.191" ry="17.191" class="st3"/>
		</g>
		<g id="shape18-20" v:mID="18" v:groupContext="shape" transform="translate(17.7725,-183.758)">
			<title>Foglio.18</title>
			<desc>WorkException</desc>
			<v:textBlock v:margins="rect(4,4,4,4)" v:tabSpace="42.5197"/>
			<v:textRect cx="63.6505" cy="714.835" width="127.31" height="16.0449"/>
			<rect x="0" y="706.812" width="127.301" height="16.0449" class="st4"/>
			<text x="4" y="717.83" class="st5" v:langID="1040"><v:paragraph/><v:tabList/>WorkException</text>		</g>
		<g id="shape4-23" v:mID="4" v:groupContext="shape" transform="translate(219.672,-674.344)">
			<title>Foglio.4</title>
			<path d="M0 722.86 L226.09 722.86" class="st6"/>
		</g>
		<g id="shape7-26" v:mID="7" v:groupContext="shape" transform="translate(219.672,-669.242)">
			<title>Foglio.7</title>
			<path d="M5.1 722.86 L0 717.75 L5.1 712.65" class="st6"/>
		</g>
		<g id="shape10-29" v:mID="10" v:groupContext="shape" transform="translate(256.237,-674.911)">
			<title>Foglio.10</title>
			<desc>getWorkManager()</desc>
			<v:textBlock v:margins="rect(4,4,4,4)" v:tabSpace="42.5197"/>
			<v:textRect cx="67.8318" cy="714.835" width="135.67" height="16.0449"/>
			<rect x="0" y="706.812" width="135.664" height="16.0449" class="st4"/>
			<text x="4" y="717.83" class="st5" v:langID="1040"><v:paragraph/><v:tabList/>getWorkManager()</text>		</g>
		<g id="shape13-32" v:mID="13" v:groupContext="shape" transform="translate(397.57,-344.675) scale(-1,1)">
			<title>Foglio.13</title>
			<desc>workAccepted(), workStarted()</desc>
			<v:textBlock v:margins="rect(4,4,4,4)" v:tabSpace="42.5197"/>
			<v:textRect cx="82.1049" cy="714.835" width="164.21" height="16.0449"/>
			<rect x="0" y="706.812" width="164.21" height="16.0449" class="st4"/>
			<text x="-160.21" y="717.83" transform="scale(-1,1)" class="st5" v:langID="1040"><v:paragraph/><v:tabList/>workAccepted(), workStarted()</text>		</g>
		<g id="shape14-35" v:mID="14" v:groupContext="shape" transform="translate(434.617,-16.05)">
			<title>Foglio.14</title>
			<rect x="0" y="43.122" width="218.071" height="679.735" rx="11.3386" ry="11.3386" class="st2"/>
		</g>
		<g id="shape16-37" v:mID="16" v:groupContext="shape" transform="translate(452.995,-513.106)">
			<title>Foglio.16</title>
			<ellipse cx="17.191" cy="705.666" rx="17.191" ry="17.191" class="st3"/>
		</g>
		<g id="shape19-39" v:mID="19" v:groupContext="shape" transform="translate(467.321,-696.626)">
			<title>Foglio.19</title>
			<desc>Resource Adapter</desc>
			<v:textBlock v:margins="rect(4,4,4,4)" v:tabSpace="42.5197"/>
			<v:textRect cx="57.349" cy="712.936" width="114.7" height="19.8425"/>
			<rect x="0" y="703.015" width="114.698" height="19.8425" class="st4"/>
			<text x="4" y="715.94" class="st5" v:langID="1040"><v:paragraph/><v:tabList/>Resource Adapter</text>		</g>
		<g id="shape8-42" v:mID="8" v:groupContext="shape" transform="translate(498.962,-523.003)">
			<title>Foglio.8</title>
			<desc>Work</desc>
			<v:textBlock v:margins="rect(4,4,4,4)" v:tabSpace="42.5197"/>
			<v:textRect cx="57.349" cy="712.936" width="114.7" height="19.8425"/>
			<rect x="0" y="703.015" width="114.698" height="19.8425" class="st4"/>
			<text x="4" y="715.94" class="st5" v:langID="1040"><v:paragraph/><v:tabList/>Work</text>		</g>
		<g id="shape24-45" v:mID="24" v:groupContext="shape" transform="translate(175.159,-591.33)">
			<title>Foglio.24</title>
			<ellipse cx="17.191" cy="705.666" rx="17.191" ry="17.191" class="st3"/>
		</g>
		<g id="shape25-47" v:mID="25" v:groupContext="shape" transform="translate(18.4914,-600.729)">
			<title>Foglio.25</title>
			<desc>WorkManager</desc>
			<v:textBlock v:margins="rect(4,4,4,4)" v:tabSpace="42.5197"/>
			<v:textRect cx="50.6243" cy="714.835" width="101.25" height="16.0449"/>
			<rect x="0" y="706.812" width="101.249" height="16.0449" class="st4"/>
			<text x="4" y="717.83" class="st5" v:langID="1040"><v:paragraph/><v:tabList/>WorkManager</text>		</g>
		<g id="shape26-50" v:mID="26" v:groupContext="shape" transform="translate(219.1,-609.147) rotate(-0.0453679)">
			<title>Foglio.26</title>
			<path d="M0 722.86 L215.82 722.86" class="st6"/>
		</g>
		<g id="shape27-53" v:mID="27" v:groupContext="shape" transform="translate(219.672,-604.045)">
			<title>Foglio.27</title>
			<path d="M5.1 722.86 L0 717.75 L5.1 712.65" class="st6"/>
		</g>
		<g id="shape28-56" v:mID="28" v:groupContext="shape" transform="translate(250.169,-609.714)">
			<title>Foglio.28</title>
			<desc>doWork(), startWork()</desc>
			<v:textBlock v:margins="rect(4,4,4,4)" v:tabSpace="42.5197"/>
			<v:textRect cx="73.601" cy="714.835" width="147.21" height="16.0449"/>
			<rect x="0" y="706.812" width="147.202" height="16.0449" class="st4"/>
			<text x="4" y="717.83" class="st5" v:langID="1040"><v:paragraph/><v:tabList/>doWork(), startWork()</text>		</g>
		<g id="shape29-59" v:mID="29" v:groupContext="shape" transform="translate(267.476,-589.39)">
			<title>Foglio.29</title>
			<desc>scheduleWork()</desc>
			<v:textBlock v:margins="rect(4,4,4,4)" v:tabSpace="42.5197"/>
			<v:textRect cx="67.8318" cy="714.835" width="135.67" height="16.0449"/>
			<rect x="0" y="706.812" width="135.664" height="16.0449" class="st4"/>
			<text x="4" y="717.83" class="st5" v:langID="1040"><v:paragraph/><v:tabList/>scheduleWork()</text>		</g>
		<g id="shape30-62" v:mID="30" v:groupContext="shape" transform="translate(453.897,-512.356)">
			<title>Foglio.30</title>
			<ellipse cx="17.191" cy="705.666" rx="17.191" ry="17.191" class="st3"/>
		</g>
		<g id="shape31-64" v:mID="31" v:groupContext="shape" transform="translate(453.897,-444.324)">
			<title>Foglio.31</title>
			<ellipse cx="17.191" cy="705.666" rx="17.191" ry="17.191" class="st3"/>
		</g>
		<g id="shape33-66" v:mID="33" v:groupContext="shape" transform="translate(446.521,-523.749) scale(-1,1)">
			<title>Foglio.33</title>
			<path d="M5.1 722.86 L0 717.75 L5.1 712.65" class="st6"/>
		</g>
		<g id="shape34-69" v:mID="34" v:groupContext="shape" transform="translate(374.893,-530.114) scale(-1,1)">
			<title>Foglio.34</title>
			<desc>run(), release()</desc>
			<v:textBlock v:margins="rect(4,4,4,4)" v:tabSpace="42.5197"/>
			<v:textRect cx="67.8318" cy="714.835" width="135.67" height="16.0449"/>
			<rect x="0" y="706.812" width="135.664" height="16.0449" class="st4"/>
			<text x="-102.56" y="717.83" transform="scale(-1,1)" class="st5" v:langID="1040"><v:paragraph v:horizAlign="1"/><v:tabList/>run(), release()</text>		</g>
		<g id="shape36-72" v:mID="36" v:groupContext="shape" transform="translate(447.093,-460.82) rotate(0.0453679) scale(-1,1)">
			<title>Foglio.36</title>
			<path d="M0 722.86 L215.82 722.86" class="st6"/>
		</g>
		<g id="shape37-75" v:mID="37" v:groupContext="shape" transform="translate(446.521,-455.718) scale(-1,1)">
			<title>Foglio.37</title>
			<path d="M5.1 722.86 L0 717.75 L5.1 712.65" class="st6"/>
		</g>
		<g id="shape38-78" v:mID="38" v:groupContext="shape" transform="translate(392.144,-462.082) scale(-1,1)">
			<title>Foglio.38</title>
			<desc>getXid(), setXid()</desc>
			<v:textBlock v:margins="rect(4,4,4,4)" v:tabSpace="42.5197"/>
			<v:textRect cx="79.6126" cy="714.835" width="159.23" height="16.0449"/>
			<rect x="0" y="706.812" width="159.225" height="16.0449" class="st4"/>
			<text x="-119.33" y="717.83" transform="scale(-1,1)" class="st5" v:langID="1040"><v:paragraph v:horizAlign="1"/><v:tabList/>getXid(), setXid()</text>		</g>
		<g id="shape32-81" v:mID="32" v:groupContext="shape" transform="translate(447.093,-528.98) rotate(0.0453679) scale(-1,1)">
			<title>Foglio.32</title>
			<path d="M0 722.86 L215.82 722.86" class="st6"/>
		</g>
		<g id="shape40-84" v:mID="40" v:groupContext="shape" transform="translate(499.717,-451.707)">
			<title>Foglio.40</title>
			<desc>ExecutionContext</desc>
			<v:textBlock v:margins="rect(4,4,4,4)" v:tabSpace="42.5197"/>
			<v:textRect cx="73.601" cy="714.835" width="147.21" height="16.0449"/>
			<rect x="0" y="706.812" width="147.202" height="16.0449" class="st4"/>
			<text x="4" y="717.83" class="st5" v:langID="1040"><v:paragraph/><v:tabList/>ExecutionContext</text>		</g>
		<g id="shape20-87" v:mID="20" v:groupContext="shape" transform="translate(175.373,-175.736)">
			<title>Foglio.20</title>
			<ellipse cx="17.191" cy="705.666" rx="17.191" ry="17.191" class="st3"/>
		</g>
		<g id="shape21-89" v:mID="21" v:groupContext="shape" transform="translate(176.146,-104.503)">
			<title>Foglio.21</title>
			<ellipse cx="17.191" cy="705.666" rx="17.191" ry="17.191" class="st3"/>
		</g>
		<g id="shape22-91" v:mID="22" v:groupContext="shape" transform="translate(18.5018,-112.526)">
			<title>Foglio.22</title>
			<desc>WorkRejectedException</desc>
			<v:textBlock v:margins="rect(4,4,4,4)" v:tabSpace="42.5197"/>
			<v:textRect cx="63.6505" cy="714.835" width="127.31" height="16.0449"/>
			<rect x="0" y="706.812" width="127.301" height="16.0449" class="st4"/>
			<text x="4" y="717.83" class="st5" v:langID="1040"><v:paragraph/><v:tabList/>WorkRejectedException</text>		</g>
		<g id="shape41-94" v:mID="41" v:groupContext="shape" transform="translate(454.263,-320.669)">
			<title>Foglio.41</title>
			<ellipse cx="17.191" cy="705.666" rx="17.191" ry="17.191" class="st3"/>
		</g>
		<g id="shape42-96" v:mID="42" v:groupContext="shape" transform="translate(500.084,-328.051)">
			<title>Foglio.42</title>
			<desc>WorkListener</desc>
			<v:textBlock v:margins="rect(4,4,4,4)" v:tabSpace="42.5197"/>
			<v:textRect cx="73.601" cy="714.835" width="147.21" height="16.0449"/>
			<rect x="0" y="706.812" width="147.202" height="16.0449" class="st4"/>
			<text x="4" y="717.83" class="st5" v:langID="1040"><v:paragraph/><v:tabList/>WorkListener</text>		</g>
		<g id="shape9-99" v:mID="9" v:groupContext="shape" transform="translate(445.759,-338.043) scale(-1,1)">
			<title>Foglio.9</title>
			<path d="M5.1 722.86 L0 717.75 L5.1 712.65" class="st6"/>
		</g>
		<g id="shape6-102" v:mID="6" v:groupContext="shape" transform="translate(446.332,-342.749) rotate(0.0453679) scale(-1,1)">
			<title>Foglio.6</title>
			<path d="M0 722.86 L215.82 722.86" class="st6"/>
		</g>
		<g id="shape39-105" v:mID="39" v:groupContext="shape" transform="translate(218.988,-259.807)">
			<title>Foglio.39</title>
			<path d="M5.1 722.86 L0 717.75 L5.1 712.65" class="st6"/>
		</g>
		<g id="shape43-108" v:mID="43" v:groupContext="shape" transform="translate(218.415,-264.513) rotate(-0.0453679)">
			<title>Foglio.43</title>
			<path d="M0 722.86 L215.82 722.86" class="st6"/>
		</g>
		<g id="shape23-111" v:mID="23" v:groupContext="shape" transform="translate(392.386,-431.827) scale(-1,1)">
			<title>Foglio.23</title>
			<desc>getTransactionTimeout() setTransactionTimeout()</desc>
			<v:textBlock v:margins="rect(4,4,4,4)" v:tabSpace="42.5197"/>
			<v:textRect cx="79.6126" cy="710.342" width="159.23" height="25.0303"/>
			<rect x="0" y="697.827" width="159.225" height="25.0303" class="st4"/>
			<text x="-138.23" y="707.34" transform="scale(-1,1)" class="st5" v:langID="1040"><v:paragraph v:horizAlign="1"/><v:tabList/>getTransactionTimeout()<v:newlineChar/><tspan
						x="-137.95" dy="1.2em" class="st7">setTransactionTimeout</tspan>()</text>		</g>
		<g id="shape48-115" v:mID="48" v:groupContext="shape" transform="translate(178.936,-32.9522)">
			<title>Foglio.48</title>
			<ellipse cx="17.191" cy="705.666" rx="17.191" ry="17.191" class="st3"/>
		</g>
		<g id="shape49-117" v:mID="49" v:groupContext="shape" transform="translate(21.2918,-35.1291)">
			<title>Foglio.49</title>
			<desc>WorkCompleted Exception</desc>
			<v:textBlock v:margins="rect(4,4,4,4)" v:tabSpace="42.5197"/>
			<v:textRect cx="63.6505" cy="710.298" width="127.31" height="25.1185"/>
			<rect x="0" y="697.739" width="127.301" height="25.1185" class="st4"/>
			<text x="4" y="707.3" class="st5" v:langID="1040"><v:paragraph/><v:tabList/>WorkCompleted<v:newlineChar/><tspan x="4"
						dy="1.2em" class="st7">Exception</tspan></text>		</g>
		<g id="shape44-121" v:mID="44" v:groupContext="shape" transform="translate(264.741,-125.926)">
			<title>Foglio.44</title>
			<desc>getErrorCode()</desc>
			<v:textBlock v:margins="rect(4,4,4,4)" v:tabSpace="42.5197"/>
			<v:textRect cx="67.8318" cy="714.835" width="135.67" height="16.0449"/>
			<rect x="0" y="706.812" width="135.664" height="16.0449" class="st4"/>
			<text x="4" y="717.83" class="st5" v:langID="1040"><v:paragraph/><v:tabList/>getErrorCode()</text>		</g>
		<g id="shape46-124" v:mID="46" v:groupContext="shape" transform="translate(218.598,-117.153)">
			<title>Foglio.46</title>
			<path d="M5.1 722.86 L0 717.75 L5.1 712.65" class="st6"/>
		</g>
		<g id="shape47-127" v:mID="47" v:groupContext="shape" transform="translate(218.026,-121.86) rotate(-0.0453679)">
			<title>Foglio.47</title>
			<path d="M0 722.86 L215.82 722.86" class="st6"/>
		</g>
		<g id="shape50-130" v:mID="50" v:groupContext="shape" transform="translate(400.405,-312.531) scale(-1,1)">
			<title>Foglio.50</title>
			<desc>workRejected(), workCompleted()</desc>
			<v:textBlock v:margins="rect(4,4,4,4)" v:tabSpace="42.5197"/>
			<v:textRect cx="82.1049" cy="708.925" width="164.21" height="27.865"/>
			<rect x="0" y="694.992" width="164.21" height="27.865" class="st4"/>
			<text x="-119.34" y="705.92" transform="scale(-1,1)" class="st5" v:langID="1040"><v:paragraph v:horizAlign="1"/><v:tabList/>workRejected(), <v:newlineChar/><tspan
						x="-122.94" dy="1.2em" class="st7">workCompleted</tspan>()</text>		</g>
		<g id="shape35-134" v:mID="35" v:groupContext="shape" transform="translate(420.248,-268.14) scale(-1,1)">
			<title>Foglio.35</title>
			<desc>getType(), getWork()</desc>
			<v:textBlock v:margins="rect(4,4,4,4)" v:tabSpace="42.5197"/>
			<v:textRect cx="82.1049" cy="714.835" width="164.21" height="16.0449"/>
			<rect x="0" y="706.812" width="164.21" height="16.0449" class="st4"/>
			<text x="-160.21" y="717.83" transform="scale(-1,1)" class="st5" v:langID="1040"><v:paragraph/><v:tabList/>getType(), getWork()</text>		</g>
		<g id="shape51-137" v:mID="51" v:groupContext="shape" transform="translate(400.405,-233.642) scale(-1,1)">
			<title>Foglio.51</title>
			<desc>getStartTime(), getException()</desc>
			<v:textBlock v:margins="rect(4,4,4,4)" v:tabSpace="42.5197"/>
			<v:textRect cx="82.1049" cy="708.925" width="164.21" height="27.865"/>
			<rect x="0" y="694.992" width="164.21" height="27.865" class="st4"/>
			<text x="-117.39" y="705.92" transform="scale(-1,1)" class="st5" v:langID="1040"><v:paragraph v:horizAlign="1"/><v:tabList/>getStartTime(), <v:newlineChar/><tspan
						x="-116.83" dy="1.2em" class="st7">getException</tspan>()</text>		</g>
	</g>
</svg>
