<?xml version="1.0" encoding="UTF-8" standalone="no"?>
<!DOCTYPE svg PUBLIC "-//W3C//DTD SVG 1.0//EN" "http://www.w3.org/TR/2001/REC-SVG-20010904/DTD/svg10.dtd">
<!-- Generato da Microsoft Visio 11.0, SVG Export, v1.0 conn-32.svg Pagina 1 -->
<svg xmlns="http://www.w3.org/2000/svg" xmlns:v="http://schemas.microsoft.com/visio/2003/SVGExtensions/" width="8.40583in"
		height="9.6263in" viewBox="0 0 605.22 693.094" xml:space="preserve" color-interpolation-filters="sRGB" class="st11">
	<v:documentProperties v:langID="1040" v:metric="true" v:viewMarkup="false">
		<v:userDefs>
			<v:ud v:nameU="MBSAAddinOutlineVisible" v:prompt="" v:val="VT0(1):26"/>
		</v:userDefs>
	</v:documentProperties>

	<style type="text/css">
	<![CDATA[
		.st1 {fill:#ffffff;stroke:none;stroke-linecap:round;stroke-linejoin:round;stroke-width:0.72}
		.st2 {fill:#173660;stroke:none;stroke-linecap:round;stroke-linejoin:round;stroke-width:0.72}
		.st3 {fill:none;stroke:none;stroke-linecap:round;stroke-linejoin:round;stroke-width:0.72}
		.st4 {fill:#ffffff;font-family:Arial;font-size:0.666664em}
		.st5 {font-size:1em}
		.st6 {fill:#000000;font-family:Arial;font-size:0.666664em}
		.st7 {stroke:#f28226;stroke-linecap:round;stroke-linejoin:round;stroke-width:2.16}
		.st8 {stroke:#f28226;stroke-dasharray:0,6.48;stroke-linecap:round;stroke-linejoin:round;stroke-width:2.16}
		.st9 {stroke:#8c8c8c;stroke-dasharray:0,6.48;stroke-linecap:round;stroke-linejoin:round;stroke-width:2.16}
		.st10 {fill:#facca7;stroke:none;stroke-linecap:round;stroke-linejoin:round;stroke-width:0.72}
		.st11 {fill:none;fill-rule:evenodd;font-size:12;overflow:visible;stroke-linecap:square;stroke-miterlimit:3}
	]]>
	</style>

	<g v:mID="0" v:index="1" v:groupContext="foregroundPage">
		<title>Pagina 1</title>
		<v:pageProperties v:drawingScale="0.0393701" v:pageScale="0.0393701" v:drawingUnits="24" v:shadowOffsetX="8.50394"
				v:shadowOffsetY="-8.50394"/>
		<g id="shape139-1" v:mID="139" v:groupContext="shape" transform="translate(0.72,-0.72)">
			<title>Foglio.139</title>
			<rect x="0" y="1.44" width="603.78" height="691.654" class="st1"/>
		</g>
		<g id="shape2-3" v:mID="2" v:groupContext="shape" transform="translate(12.0586,-643.396)">
			<title>Foglio.2</title>
			<rect x="0" y="655.454" width="85.0394" height="37.6393" rx="8.50394" ry="8.50394" class="st2"/>
		</g>
		<g id="shape3-5" v:mID="3" v:groupContext="shape" transform="translate(17.7279,-652.165)">
			<title>Foglio.3</title>
			<desc>Jakarta EE app server</desc>
			<v:textBlock v:margins="rect(4,4,4,4)" v:tabSpace="42.5197"/>
			<v:textRect cx="27.2835" cy="683.305" width="54.57" height="19.5768"/>
			<rect x="0" y="673.517" width="54.5669" height="19.5768" class="st3"/>
			<text x="4" y="680.91" class="st4" v:langID="1040"><v:paragraph/><v:tabList/>Jakarta EE <tspan x="4" dy="1.2em"
						class="st5">app server</tspan></text>		</g>
		<g id="shape19-9" v:mID="19" v:groupContext="shape" transform="translate(62.3735,-545.238)">
			<title>Foglio.19</title>
			<desc>1. create an instance</desc>
			<v:textBlock v:margins="rect(4,4,4,4)" v:tabSpace="42.5197"/>
			<v:textRect cx="58.4646" cy="686.14" width="116.93" height="13.9075"/>
			<rect x="0" y="679.186" width="116.929" height="13.9075" class="st3"/>
			<text x="4" y="688.54" class="st6" v:langID="1040"><v:paragraph/><v:tabList/>1. create an instance</text>		</g>
		<g id="shape10-12" v:mID="10" v:groupContext="shape" transform="translate(165.129,839.514) rotate(180)">
			<title>Foglio.10</title>
			<path d="M5.1 693.09 L0 687.99 L5.1 682.89" class="st7"/>
		</g>
		<g id="shape23-15" v:mID="23" v:groupContext="shape" transform="translate(162.295,844.617) rotate(180)">
			<title>Foglio.23</title>
			<path d="M0 693.09 L102.05 693.09" class="st8"/>
		</g>
		<g id="shape24-18" v:mID="24" v:groupContext="shape" transform="translate(420.248,1053.81) rotate(180)">
			<title>Foglio.24</title>
			<path d="M0 693.09 L357.17 693.09" class="st7"/>
		</g>
		<g id="shape25-21" v:mID="25" v:groupContext="shape" transform="translate(421.381,1048.71) rotate(180)">
			<title>Foglio.25</title>
			<path d="M5.1 693.09 L0 687.99 L5.1 682.89" class="st7"/>
		</g>
		<g id="shape1-24" v:mID="1" v:groupContext="shape" transform="translate(110.563,-643.396)">
			<title>Foglio.1</title>
			<rect x="0" y="655.454" width="116.22" height="37.6393" rx="8.50394" ry="8.50394" class="st2"/>
		</g>
		<g id="shape4-26" v:mID="4" v:groupContext="shape" transform="translate(113.94,-652.165)">
			<title>Foglio.4</title>
			<desc>WorkManager (from app server)</desc>
			<v:textBlock v:margins="rect(4,4,4,4)" v:tabSpace="42.5197"/>
			<v:textRect cx="37.2874" cy="683.305" width="74.58" height="19.5768"/>
			<rect x="0" y="673.517" width="74.5748" height="19.5768" class="st3"/>
			<text x="4" y="680.91" class="st4" v:langID="1040"><v:paragraph/><v:tabList/>WorkManager <tspan x="4" dy="1.2em"
						class="st5">(</tspan>from app server)</text>		</g>
		<g id="shape5-30" v:mID="5" v:groupContext="shape" transform="translate(238.83,-643.396)">
			<title>Foglio.5</title>
			<rect x="0" y="655.454" width="116.22" height="37.6393" rx="8.50394" ry="8.50394" class="st2"/>
		</g>
		<g id="shape9-32" v:mID="9" v:groupContext="shape" transform="translate(242.208,-652.165)">
			<title>Foglio.9</title>
			<desc>BootstrapContext (from app server)</desc>
			<v:textBlock v:margins="rect(4,4,4,4)" v:tabSpace="42.5197"/>
			<v:textRect cx="37.2874" cy="683.305" width="74.58" height="19.5768"/>
			<rect x="0" y="673.517" width="74.5748" height="19.5768" class="st3"/>
			<text x="4" y="680.91" class="st4" v:langID="1040"><v:paragraph/><v:tabList/>BootstrapContext <tspan x="4" dy="1.2em"
						class="st5">(</tspan>from app server)</text>		</g>
		<g id="shape11-36" v:mID="11" v:groupContext="shape" transform="translate(367.807,-644.185)">
			<title>Foglio.11</title>
			<rect x="0" y="655.454" width="116.22" height="37.6393" rx="8.50394" ry="8.50394" class="st2"/>
		</g>
		<g id="shape12-38" v:mID="12" v:groupContext="shape" transform="translate(371.185,-652.954)">
			<title>Foglio.12</title>
			<desc>ResourceAdapter (from adapter)</desc>
			<v:textBlock v:margins="rect(4,4,4,4)" v:tabSpace="42.5197"/>
			<v:textRect cx="37.2874" cy="683.305" width="74.58" height="19.5768"/>
			<rect x="0" y="673.517" width="74.5748" height="19.5768" class="st3"/>
			<text x="4" y="680.91" class="st4" v:langID="1040"><v:paragraph/><v:tabList/>ResourceAdapter <tspan x="4" dy="1.2em"
						class="st5">(</tspan>from adapter)</text>		</g>
		<g id="shape13-42" v:mID="13" v:groupContext="shape" transform="translate(498.2,-644.185)">
			<title>Foglio.13</title>
			<rect x="0" y="655.454" width="97.7953" height="37.6393" rx="8.50394" ry="8.50394" class="st2"/>
		</g>
		<g id="shape14-44" v:mID="14" v:groupContext="shape" transform="translate(501.578,-652.954)">
			<title>Foglio.14</title>
			<desc>Work (from adapter)</desc>
			<v:textBlock v:margins="rect(4,4,4,4)" v:tabSpace="42.5197"/>
			<v:textRect cx="37.2874" cy="683.305" width="74.58" height="19.5768"/>
			<rect x="0" y="673.517" width="74.5748" height="19.5768" class="st3"/>
			<text x="4" y="680.91" class="st4" v:langID="1040"><v:paragraph/><v:tabList/>Work<v:newlineChar/><tspan x="4"
						dy="1.2em" class="st5">(</tspan>from adapter)</text>		</g>
		<g id="shape6-48" v:mID="6" v:groupContext="shape" transform="translate(-638.515,678.2) rotate(-90)">
			<title>Foglio.6</title>
			<path d="M0 693.09 L619.64 693.09" class="st9"/>
		</g>
		<g id="shape16-51" v:mID="16" v:groupContext="shape" transform="translate(-525.129,678.2) rotate(-90)">
			<title>Foglio.16</title>
			<path d="M0 693.09 L619.64 693.09" class="st9"/>
		</g>
		<g id="shape17-54" v:mID="17" v:groupContext="shape" transform="translate(-394.736,678.2) rotate(-90)">
			<title>Foglio.17</title>
			<path d="M0 693.09 L619.64 693.09" class="st9"/>
		</g>
		<g id="shape18-57" v:mID="18" v:groupContext="shape" transform="translate(-264.342,678.2) rotate(-90)">
			<title>Foglio.18</title>
			<path d="M0 693.09 L629.29 693.09" class="st9"/>
		</g>
		<g id="shape20-60" v:mID="20" v:groupContext="shape" transform="translate(-153.791,678.2) rotate(-90)">
			<title>Foglio.20</title>
			<path d="M0 693.09 L629.29 693.09" class="st9"/>
		</g>
		<g id="shape7-63" v:mID="7" v:groupContext="shape" transform="translate(48.909,-525.129)">
			<title>Foglio.7</title>
			<rect x="0" y="661.912" width="11.3386" height="31.1811" class="st10"/>
		</g>
		<g id="shape8-65" v:mID="8" v:groupContext="shape" transform="translate(109.854,-578.988)">
			<title>Foglio.8</title>
			<rect x="0" y="655.454" width="372.756" height="37.6393" rx="8.50394" ry="8.50394" class="st2"/>
		</g>
		<g id="shape15-67" v:mID="15" v:groupContext="shape" transform="translate(210.484,-587.757)">
			<title>Foglio.15</title>
			<desc>Application Server Startup</desc>
			<v:textBlock v:margins="rect(4,4,4,4)" v:tabSpace="42.5197"/>
			<v:textRect cx="53.3606" cy="683.305" width="106.73" height="19.5768"/>
			<rect x="0" y="673.517" width="106.721" height="19.5768" class="st3"/>
			<text x="4" y="685.71" class="st4" v:langID="1040"><v:paragraph/><v:tabList/>Application Server Startup</text>		</g>
		<g id="shape21-70" v:mID="21" v:groupContext="shape" transform="translate(295.523,899.042) rotate(180)">
			<title>Foglio.21</title>
			<path d="M5.1 693.09 L0 687.99 L5.1 682.89" class="st7"/>
		</g>
		<g id="shape22-73" v:mID="22" v:groupContext="shape" transform="translate(292.018,904.144) rotate(180)">
			<title>Foglio.22</title>
			<path d="M0 693.09 L231.77 693.09" class="st8"/>
		</g>
		<g id="shape26-76" v:mID="26" v:groupContext="shape" transform="translate(48.909,-465.602)">
			<title>Foglio.26</title>
			<rect x="0" y="661.912" width="11.3386" height="31.1811" class="st10"/>
		</g>
		<g id="shape27-78" v:mID="27" v:groupContext="shape" transform="translate(80.7987,-400.405)">
			<title>Foglio.27</title>
			<rect x="0" y="642.07" width="430.157" height="51.0236" rx="8.50394" ry="8.50394" class="st2"/>
		</g>
		<g id="shape28-80" v:mID="28" v:groupContext="shape" transform="translate(88.9862,-403.24)">
			<title>Foglio.28</title>
			<desc>Resource adapter startup and bootstrap procedure. This may be...</desc>
			<v:textBlock v:margins="rect(4,4,4,4)" v:tabSpace="42.5197"/>
			<v:textRect cx="149.844" cy="669.132" width="299.69" height="47.9232"/>
			<rect x="0" y="645.17" width="299.688" height="47.9232" class="st3"/>
			<text x="4" y="661.93" class="st4" v:langID="1040"><v:paragraph/><v:tabList/>Resource adapter startup and bootstrap procedure. This may be when a resource <tspan
						x="4" dy="1.2em" class="st5">adapter is deployed or during server startup for those resource adapter instances </tspan><tspan
						x="4" dy="1.2em" class="st5">which had previously been deployed</tspan>.</text>		</g>
		<g id="shape29-85" v:mID="29" v:groupContext="shape" transform="translate(425.917,1002.51) rotate(180)">
			<title>Foglio.29</title>
			<path d="M5.1 693.09 L0 687.99 L5.1 682.89" class="st7"/>
		</g>
		<g id="shape30-88" v:mID="30" v:groupContext="shape" transform="translate(420.248,1007.61) rotate(180)">
			<title>Foglio.30</title>
			<path d="M0 693.09 L360 693.09" class="st8"/>
		</g>
		<g id="shape31-91" v:mID="31" v:groupContext="shape" transform="translate(48.909,-362.137)">
			<title>Foglio.31</title>
			<rect x="0" y="661.912" width="11.3386" height="31.1811" class="st10"/>
		</g>
		<g id="shape32-93" v:mID="32" v:groupContext="shape" transform="translate(48.909,-199.145)">
			<title>Foglio.32</title>
			<rect x="0" y="552.779" width="11.3386" height="140.315" class="st10"/>
		</g>
		<g id="shape33-95" v:mID="33" v:groupContext="shape" transform="translate(48.909,-33.3184)">
			<title>Foglio.33</title>
			<rect x="0" y="661.912" width="11.3386" height="31.1811" class="st10"/>
		</g>
		<g id="shape34-97" v:mID="34" v:groupContext="shape" transform="translate(423.082,-288.437)">
			<title>Foglio.34</title>
			<rect x="0" y="661.912" width="11.3386" height="31.1811" class="st10"/>
		</g>
		<g id="shape35-99" v:mID="35" v:groupContext="shape" transform="translate(423.082,-250.169)">
			<title>Foglio.35</title>
			<rect x="0" y="661.912" width="11.3386" height="31.1811" class="st10"/>
		</g>
		<g id="shape36-101" v:mID="36" v:groupContext="shape" transform="translate(423.082,-211.901)">
			<title>Foglio.36</title>
			<rect x="0" y="661.912" width="11.3386" height="31.1811" class="st10"/>
		</g>
		<g id="shape37-103" v:mID="37" v:groupContext="shape" transform="translate(162.295,-162.295)">
			<title>Foglio.37</title>
			<rect x="0" y="661.912" width="11.3386" height="31.1811" class="st2"/>
		</g>
		<g id="shape38-105" v:mID="38" v:groupContext="shape" transform="translate(533.633,1207.45) rotate(180)">
			<title>Foglio.38</title>
			<path d="M0 693.09 L357.17 693.09" class="st7"/>
		</g>
		<g id="shape39-108" v:mID="39" v:groupContext="shape" transform="translate(534.767,1202.35) rotate(180)">
			<title>Foglio.39</title>
			<path d="M5.1 693.09 L0 687.99 L5.1 682.89" class="st7"/>
		</g>
		<g id="shape40-111" v:mID="40" v:groupContext="shape" transform="translate(420.248,1337.85) rotate(180)">
			<title>Foglio.40</title>
			<path d="M0 693.09 L357.17 693.09" class="st7"/>
		</g>
		<g id="shape41-114" v:mID="41" v:groupContext="shape" transform="translate(421.381,1332.74) rotate(180)">
			<title>Foglio.41</title>
			<path d="M5.1 693.09 L0 687.99 L5.1 682.89" class="st7"/>
		</g>
		<g id="shape42-117" v:mID="42" v:groupContext="shape" transform="translate(80.4444,-116.94)">
			<title>Foglio.42</title>
			<rect x="0" y="660.495" width="430.157" height="32.5984" rx="8.50394" ry="8.50394" class="st2"/>
		</g>
		<g id="shape43-119" v:mID="43" v:groupContext="shape" transform="translate(88.8091,-119.775)">
			<title>Foglio.43</title>
			<desc>During runtime, the Resource adapter may submit more Work ins...</desc>
			<v:textBlock v:margins="rect(4,4,4,4)" v:tabSpace="42.5197"/>
			<v:textRect cx="150.021" cy="678.294" width="300.05" height="29.5996"/>
			<rect x="0" y="663.494" width="300.042" height="29.5996" class="st3"/>
			<text x="4" y="675.89" class="st4" v:langID="1040"><v:paragraph/><v:tabList/>During runtime, the Resource adapter may submit more Work instances and use <tspan
						x="4" dy="1.2em" class="st5">dispatch contract to dispatch calls to application components</tspan>, etc.</text>		</g>
		<g id="shape44-123" v:mID="44" v:groupContext="shape" transform="translate(80.4444,-82.9247)">
			<title>Foglio.44</title>
			<rect x="0" y="669.708" width="430.157" height="23.3858" rx="8.50394" ry="8.50394" class="st2"/>
		</g>
		<g id="shape45-125" v:mID="45" v:groupContext="shape" transform="translate(88.8091,-85.7594)">
			<title>Foglio.45</title>
			<desc>Resource adapter undeployment / app server shutdown</desc>
			<v:textBlock v:margins="rect(4,4,4,4)" v:tabSpace="42.5197"/>
			<v:textRect cx="135.848" cy="684.284" width="271.7" height="17.6188"/>
			<rect x="0" y="675.475" width="271.696" height="17.6188" class="st3"/>
			<text x="4" y="686.68" class="st4" v:langID="1040"><v:paragraph/><v:tabList/>Resource adapter undeployment / app server shutdown</text>		</g>
		<g id="shape46-128" v:mID="46" v:groupContext="shape" transform="translate(535.051,1114.47) rotate(180)">
			<title>Foglio.46</title>
			<path d="M5.1 693.09 L0 687.99 L5.1 682.89" class="st7"/>
		</g>
		<g id="shape47-131" v:mID="47" v:groupContext="shape" transform="translate(529.381,1119.58) rotate(180)">
			<title>Foglio.47</title>
			<path d="M0 693.09 L89.29 693.09" class="st8"/>
		</g>
		<g id="shape140-134" v:mID="140" v:groupContext="shape" transform="translate(62.3735,-485.71)">
			<title>Foglio.140</title>
			<desc>2. create an instance (pass handle to WorkManager, etc.)</desc>
			<v:textBlock v:margins="rect(4,4,4,4)" v:tabSpace="42.5197"/>
			<v:textRect cx="137.835" cy="686.14" width="275.67" height="13.9075"/>
			<rect x="0" y="679.186" width="275.669" height="13.9075" class="st3"/>
			<text x="4" y="688.54" class="st6" v:langID="1040"><v:paragraph/><v:tabList/>2. create an instance (pass handle to WorkManager, etc.)</text>		</g>
		<g id="shape141-137" v:mID="141" v:groupContext="shape" transform="translate(172.925,-382.113)">
			<title>Foglio.141</title>
			<desc>3. create an instance</desc>
			<v:textBlock v:margins="rect(4,4,4,4)" v:tabSpace="42.5197"/>
			<v:textRect cx="58.4646" cy="686.14" width="116.93" height="13.9075"/>
			<rect x="0" y="679.186" width="116.929" height="13.9075" class="st3"/>
			<text x="4" y="688.54" class="st6" v:langID="1040"><v:paragraph/><v:tabList/>3. create an instance</text>		</g>
		<g id="shape142-140" v:mID="142" v:groupContext="shape" transform="translate(172.925,-335.208)">
			<title>Foglio.142</title>
			<desc>4. start(BootstrapContext)</desc>
			<v:textBlock v:margins="rect(4,4,4,4)" v:tabSpace="42.5197"/>
			<v:textRect cx="137.835" cy="686.14" width="275.67" height="13.9075"/>
			<rect x="0" y="679.186" width="275.669" height="13.9075" class="st3"/>
			<text x="4" y="688.54" class="st6" v:langID="1040"><v:paragraph/><v:tabList/>4. start(BootstrapContext)</text>		</g>
		<g id="shape143-143" v:mID="143" v:groupContext="shape" transform="translate(304.027,1082.31) scale(1,-1)">
			<title>Foglio.143</title>
			<path d="M0 693.09 L116.22 693.09" class="st7"/>
		</g>
		<g id="shape144-146" v:mID="144" v:groupContext="shape" transform="translate(301.476,1077.06) scale(1,-1)">
			<title>Foglio.144</title>
			<path d="M5.1 693.09 L0 687.99 L5.1 682.89" class="st7"/>
		</g>
		<g id="shape145-149" v:mID="145" v:groupContext="shape" transform="translate(424.158,-306.711) scale(-1,1)">
			<title>Foglio.145</title>
			<desc>5. getWorkManager()</desc>
			<v:textBlock v:margins="rect(4,4,4,4)" v:tabSpace="42.5197"/>
			<v:textRect cx="57.7689" cy="686.14" width="115.54" height="13.9075"/>
			<rect x="0" y="679.186" width="115.538" height="13.9075" class="st3"/>
			<text x="-111.54" y="688.54" transform="scale(-1,1)" class="st6" v:langID="1040"><v:paragraph/><v:tabList/>5. getWorkManager()</text>		</g>
		<g id="shape146-152" v:mID="146" v:groupContext="shape" transform="translate(553.476,-270.011) scale(-1,1)">
			<title>Foglio.146</title>
			<desc>6. create Work instances</desc>
			<v:textBlock v:margins="rect(4,4,4,4)" v:tabSpace="42.5197"/>
			<v:textRect cx="57.7689" cy="686.14" width="115.54" height="13.9075"/>
			<rect x="0" y="679.186" width="115.538" height="13.9075" class="st3"/>
			<text x="-111.54" y="688.54" transform="scale(-1,1)" class="st6" v:langID="1040"><v:paragraph/><v:tabList/>6. create Work instances</text>		</g>
		<g id="shape147-155" v:mID="147" v:groupContext="shape" transform="translate(173.633,1158.92) scale(1,-1)">
			<title>Foglio.147</title>
			<path d="M0 693.09 L244.5 693.09" class="st7"/>
		</g>
		<g id="shape148-158" v:mID="148" v:groupContext="shape" transform="translate(171.366,1153.67) scale(1,-1)">
			<title>Foglio.148</title>
			<path d="M5.1 693.09 L0 687.99 L5.1 682.89" class="st7"/>
		</g>
		<g id="shape149-161" v:mID="149" v:groupContext="shape" transform="translate(424.896,-230.1) scale(-1,1)">
			<title>Foglio.149</title>
			<desc>7. submit Work instances for execution</desc>
			<v:textBlock v:margins="rect(4,4,4,4)" v:tabSpace="42.5197"/>
			<v:textRect cx="102.954" cy="686.14" width="205.91" height="13.9075"/>
			<rect x="0" y="679.186" width="205.908" height="13.9075" class="st3"/>
			<text x="-201.91" y="688.54" transform="scale(-1,1)" class="st6" v:langID="1040"><v:paragraph/><v:tabList/>7. submit Work instances for execution</text>		</g>
		<g id="shape150-164" v:mID="150" v:groupContext="shape" transform="translate(172.925,-50.4592)">
			<title>Foglio.150</title>
			<desc>9. stop()</desc>
			<v:textBlock v:margins="rect(4,4,4,4)" v:tabSpace="42.5197"/>
			<v:textRect cx="137.835" cy="686.14" width="275.67" height="13.9075"/>
			<rect x="0" y="679.186" width="275.669" height="13.9075" class="st3"/>
			<text x="4" y="688.54" class="st6" v:langID="1040"><v:paragraph/><v:tabList/>9. stop()</text>		</g>
	</g>
</svg>
