<?xml version="1.0" encoding="UTF-8" standalone="no"?>
<!DOCTYPE svg PUBLIC "-//W3C//DTD SVG 1.0//EN" "http://www.w3.org/TR/2001/REC-SVG-20010904/DTD/svg10.dtd">
<!-- Generato da Microsoft Visio 11.0, SVG Export, v1.0 conn-141.svg Pagina 1 -->
<svg xmlns="http://www.w3.org/2000/svg" xmlns:v="http://schemas.microsoft.com/visio/2003/SVGExtensions/" width="7.02787in"
		height="3.4652in" viewBox="0 0 506.007 249.494" xml:space="preserve" color-interpolation-filters="sRGB" class="st11">
	<v:documentProperties v:langID="1040" v:metric="true" v:viewMarkup="false">
		<v:userDefs>
			<v:ud v:nameU="MBSAAddinOutlineVisible" v:prompt="" v:val="VT0(1):26"/>
		</v:userDefs>
	</v:documentProperties>

	<style type="text/css">
	<![CDATA[
		.st1 {fill:#ffffff;stroke:none;stroke-linecap:round;stroke-linejoin:round;stroke-width:0.72}
		.st2 {stroke:#f28226;stroke-dasharray:0,6.48;stroke-linecap:round;stroke-linejoin:round;stroke-opacity:0.5;stroke-width:2.16}
		.st3 {stroke:#f28226;stroke-linecap:round;stroke-linejoin:round;stroke-width:2.16}
		.st4 {fill:#173660;stroke:none;stroke-linecap:round;stroke-linejoin:round;stroke-width:0.72}
		.st5 {fill:none;stroke:none;stroke-linecap:round;stroke-linejoin:round;stroke-width:0.72}
		.st6 {fill:#ffffff;font-family:Arial;font-size:0.666664em;font-weight:bold}
		.st7 {fill:#000000;font-family:Arial;font-size:0.666664em}
		.st8 {font-size:1em}
		.st9 {stroke:#f28226;stroke-dasharray:0,6.48;stroke-linecap:round;stroke-linejoin:round;stroke-width:2.16}
		.st10 {fill:#bfbfbf;stroke:none;stroke-linecap:round;stroke-linejoin:round;stroke-width:0.72}
		.st11 {fill:none;fill-rule:evenodd;font-size:12;overflow:visible;stroke-linecap:square;stroke-miterlimit:3}
	]]>
	</style>

	<g v:mID="0" v:index="1" v:groupContext="foregroundPage">
		<title>Pagina 1</title>
		<v:pageProperties v:drawingScale="0.0393701" v:pageScale="0.0393701" v:drawingUnits="24" v:shadowOffsetX="8.50394"
				v:shadowOffsetY="-8.50394"/>
		<g id="shape1-1" v:mID="1" v:groupContext="shape" transform="translate(0.72,-0.72)">
			<title>Foglio.1</title>
			<rect x="0" y="18.4706" width="504.567" height="231.024" class="st1"/>
		</g>
		<g id="shape26-3" v:mID="26" v:groupContext="shape" transform="translate(499.663,2.16) rotate(90)">
			<title>Foglio.26</title>
			<path d="M0 249.49 L235.28 249.49" class="st2"/>
		</g>
		<g id="shape12-6" v:mID="12" v:groupContext="shape" transform="translate(366.106,287.938) rotate(180)">
			<title>Foglio.12</title>
			<path d="M0 249.49 L217.98 249.49" class="st3"/>
		</g>
		<g id="shape13-9" v:mID="13" v:groupContext="shape" transform="translate(366.106,282.835) rotate(180)">
			<title>Foglio.13</title>
			<path d="M5.1 249.49 L0 244.39 L5.1 239.29" class="st3"/>
		</g>
		<g id="shape6-12" v:mID="6" v:groupContext="shape" transform="translate(366.46,-20.5625)">
			<title>Foglio.6</title>
			<rect x="0" y="204.184" width="104.811" height="45.3099" rx="5.66929" ry="5.66929" class="st4"/>
		</g>
		<g id="shape7-14" v:mID="7" v:groupContext="shape" transform="translate(369.224,-20.5625)">
			<title>Foglio.7</title>
			<desc>Resource Adapter</desc>
			<v:textBlock v:margins="rect(4,4,4,4)" v:tabSpace="42.5197"/>
			<v:textRect cx="54.2126" cy="227.264" width="108.43" height="44.46"/>
			<rect x="0" y="205.034" width="108.425" height="44.46" class="st5"/>
			<text x="4" y="229.66" class="st6" v:langID="1040"><v:paragraph/><v:tabList/>Resource Adapter</text>		</g>
		<g id="shape4-17" v:mID="4" v:groupContext="shape" transform="translate(133.948,-119.775)">
			<title>Foglio.4</title>
			<rect x="0" y="224.027" width="96.7795" height="25.4674" rx="5.66929" ry="5.66929" class="st4"/>
		</g>
		<g id="shape5-19" v:mID="5" v:groupContext="shape" transform="translate(147.98,-122.61)">
			<title>Foglio.5</title>
			<desc>Generator</desc>
			<v:textBlock v:margins="rect(4,4,4,4)" v:tabSpace="42.5197"/>
			<v:textRect cx="35.7874" cy="238.603" width="71.58" height="21.7829"/>
			<rect x="0" y="227.711" width="71.5748" height="21.7829" class="st5"/>
			<text x="4" y="241" class="st6" v:langID="1040"><v:paragraph/><v:tabList/>Generator</text>		</g>
		<g id="shape10-22" v:mID="10" v:groupContext="shape" transform="translate(186.637,-156.059)">
			<title>Foglio.10</title>
			<desc>start</desc>
			<v:textBlock v:margins="rect(4,4,4,4)" v:tabSpace="42.5197"/>
			<v:textRect cx="12.9331" cy="240.99" width="25.87" height="17.0079"/>
			<rect x="0" y="232.486" width="25.8661" height="17.0079" class="st5"/>
			<text x="4" y="243.39" class="st6" v:langID="1040"><v:paragraph/><v:tabList/>start</text>		</g>
		<g id="shape15-25" v:mID="15" v:groupContext="shape" transform="translate(186.531,-96.531)">
			<title>Foglio.15</title>
			<desc>reject</desc>
			<v:textBlock v:margins="rect(4,4,4,4)" v:tabSpace="42.5197"/>
			<v:textRect cx="14.7402" cy="240.99" width="29.49" height="17.0079"/>
			<rect x="0" y="232.486" width="29.4803" height="17.0079" class="st5"/>
			<text x="4" y="243.39" class="st6" v:langID="1040"><v:paragraph/><v:tabList/>reject</text>		</g>
		<g id="shape18-28" v:mID="18" v:groupContext="shape" transform="translate(126.885,367.117) rotate(-179.68)">
			<title>Foglio.18</title>
			<path d="M0 249.49 L68.03 249.49" class="st3"/>
		</g>
		<g id="shape19-31" v:mID="19" v:groupContext="shape" transform="translate(131.114,362.205) rotate(180)">
			<title>Foglio.19</title>
			<path d="M5.1 249.49 L0 244.39 L5.1 239.29" class="st3"/>
		</g>
		<g id="shape17-34" v:mID="17" v:groupContext="shape" transform="translate(368.276,367.306) rotate(179.762)">
			<title>Foglio.17</title>
			<path d="M0 249.49 L136.51 249.49" class="st3"/>
		</g>
		<g id="shape21-37" v:mID="21" v:groupContext="shape" transform="translate(367.24,362.205) rotate(180)">
			<title>Foglio.21</title>
			<path d="M5.1 249.49 L0 244.39 L5.1 239.29" class="st3"/>
		</g>
		<g id="shape22-40" v:mID="22" v:groupContext="shape" transform="translate(311.114,-112.405)">
			<title>Foglio.22</title>
			<desc>reject</desc>
			<v:textBlock v:margins="rect(4,4,4,4)" v:tabSpace="42.5197"/>
			<v:textRect cx="29.7638" cy="240.99" width="59.53" height="17.0079"/>
			<rect x="0" y="232.486" width="59.5276" height="17.0079" class="st5"/>
			<text x="4" y="243.39" class="st6" v:langID="1040"><v:paragraph/><v:tabList/>reject</text>		</g>
		<g id="shape31-43" v:mID="31" v:groupContext="shape" transform="translate(166.501,106.71) rotate(-90)">
			<title>Foglio.31</title>
			<path d="M0 249.49 L58.11 249.49" class="st3"/>
		</g>
		<g id="shape33-46" v:mID="33" v:groupContext="shape" transform="translate(666.34,129.055) rotate(90)">
			<title>Foglio.33</title>
			<path d="M0 249.49 L54.57 249.49" class="st3"/>
		</g>
		<g id="shape29-49" v:mID="29" v:groupContext="shape" transform="translate(369.224,-201.98)">
			<title>Foglio.29</title>
			<rect x="0" y="224.027" width="96.7795" height="25.4674" rx="5.66929" ry="5.66929" class="st4"/>
		</g>
		<g id="shape30-51" v:mID="30" v:groupContext="shape" transform="translate(386.374,-204.814)">
			<title>Foglio.30</title>
			<desc>Component</desc>
			<v:textBlock v:margins="rect(4,4,4,4)" v:tabSpace="42.5197"/>
			<v:textRect cx="41.0315" cy="238.603" width="82.07" height="21.7829"/>
			<rect x="0" y="227.711" width="82.063" height="21.7829" class="st5"/>
			<text x="4" y="241" class="st6" v:langID="1040"><v:paragraph/><v:tabList/>Component</text>		</g>
		<g id="shape27-54" v:mID="27" v:groupContext="shape" transform="translate(344.577,-77.2554)">
			<title>Foglio.27</title>
			<desc>Resource Adapter-view Contract</desc>
			<v:textBlock v:margins="rect(4,4,4,4)" v:tabSpace="42.5197"/>
			<v:textRect cx="30.3165" cy="233.503" width="60.64" height="31.9814"/>
			<rect x="0" y="217.513" width="60.6331" height="31.9814" class="st5"/>
			<text x="4" y="226.3" class="st7" v:langID="1040"><v:paragraph/><v:tabList/>Resource <tspan x="4" dy="1.2em"
						class="st8">Adapter</tspan>-view <tspan x="4" dy="1.2em" class="st8">Contract</tspan></text>		</g>
		<g id="shape28-59" v:mID="28" v:groupContext="shape" transform="translate(418.022,-164.044)">
			<title>Foglio.28</title>
			<desc>Component-view Contract</desc>
			<v:textBlock v:margins="rect(4,4,4,4)" v:tabSpace="42.5197"/>
			<v:textRect cx="36.5457" cy="241.499" width="73.1" height="15.9907"/>
			<rect x="0" y="233.503" width="73.0913" height="15.9907" class="st5"/>
			<text x="4" y="239.1" class="st7" v:langID="1040"><v:paragraph/><v:tabList/>Component-view <tspan x="4" dy="1.2em"
						class="st8">Contract</tspan></text>		</g>
		<g id="shape34-63" v:mID="34" v:groupContext="shape" transform="translate(279.694,50.9159) rotate(90)">
			<title>Foglio.34</title>
			<path d="M5.1 249.49 L0 244.39 L5.1 239.29" class="st3"/>
		</g>
		<g id="shape35-66" v:mID="35" v:groupContext="shape" transform="translate(284.797,47.4699) rotate(90)">
			<title>Foglio.35</title>
			<path d="M0 249.49 L41.77 249.49" class="st9"/>
		</g>
		<g id="shape16-69" v:mID="16" v:groupContext="shape" transform="translate(60.2476,340.095) scale(1,-1)">
			<title>Foglio.16</title>
			<path d="M0 249.49 L337.32 249.49" class="st3"/>
		</g>
		<g id="shape23-72" v:mID="23" v:groupContext="shape" transform="translate(60.2476,334.993) scale(1,-1)">
			<title>Foglio.23</title>
			<path d="M5.1 249.49 L0 244.39 L5.1 239.29" class="st3"/>
		</g>
		<g id="shape25-75" v:mID="25" v:groupContext="shape" transform="translate(148.076,104.747) rotate(-90)">
			<title>Foglio.25</title>
			<path d="M0 249.49 L14.15 249.49" class="st3"/>
		</g>
		<g id="shape14-78" v:mID="14" v:groupContext="shape" transform="translate(372.059,-120.129)">
			<title>Foglio.14</title>
			<rect x="0" y="224.027" width="96.7795" height="25.4674" rx="5.66929" ry="5.66929" class="st4"/>
		</g>
		<g id="shape24-80" v:mID="24" v:groupContext="shape" transform="translate(394.807,-122.964)">
			<title>Foglio.24</title>
			<desc>Record</desc>
			<v:textBlock v:margins="rect(4,4,4,4)" v:tabSpace="42.5197"/>
			<v:textRect cx="39.6142" cy="238.603" width="79.23" height="21.7829"/>
			<rect x="0" y="227.711" width="79.2283" height="21.7829" class="st5"/>
			<text x="4" y="241" class="st6" v:langID="1040"><v:paragraph/><v:tabList/>Record</text>		</g>
		<g id="shape8-83" v:mID="8" v:groupContext="shape" transform="translate(231.744,-132.131)">
			<title>Foglio.8</title>
			<desc>generates custom Record</desc>
			<v:textBlock v:margins="rect(4,4,4,4)" v:tabSpace="42.5197"/>
			<v:textRect cx="52.4409" cy="241.499" width="104.89" height="15.9907"/>
			<rect x="0" y="233.503" width="104.882" height="15.9907" class="st5"/>
			<text x="4" y="243.9" class="st7" v:langID="1040"><v:paragraph/><v:tabList/>generates custom Record</text>		</g>
		<g id="shape2-86" v:mID="2" v:groupContext="shape" transform="translate(9.36567,-199.19)">
			<title>Foglio.2</title>
			<rect x="0" y="224.027" width="138.756" height="25.4674" rx="5.66929" ry="5.66929" class="st4"/>
		</g>
		<g id="shape3-88" v:mID="3" v:groupContext="shape" transform="translate(11.3499,-202.024)">
			<title>Foglio.3</title>
			<desc>Component Builder Tool</desc>
			<v:textBlock v:margins="rect(4,4,4,4)" v:tabSpace="42.5197"/>
			<v:textRect cx="54.2126" cy="238.603" width="108.43" height="21.7829"/>
			<rect x="0" y="227.711" width="108.425" height="21.7829" class="st5"/>
			<text x="4" y="241" class="st6" v:langID="1040"><v:paragraph/><v:tabList/>Component Builder Tool</text>		</g>
		<g id="shape32-91" v:mID="32" v:groupContext="shape" transform="translate(10.8262,-125.444)">
			<title>Foglio.32</title>
			<rect x="0" y="206.974" width="46.5867" height="42.5197" rx="8.50394" ry="8.50394" class="st10"/>
		</g>
		<g id="shape9-93" v:mID="9" v:groupContext="shape" transform="translate(6.99874,-103.784)">
			<title>Foglio.9</title>
			<desc>Metadata Repository</desc>
			<v:textBlock v:margins="rect(4,4,4,4)" v:tabSpace="42.5197"/>
			<v:textRect cx="36.5457" cy="241.499" width="73.1" height="15.9907"/>
			<rect x="0" y="233.503" width="73.0913" height="15.9907" class="st5"/>
			<text x="4" y="239.1" class="st7" v:langID="1040"><v:paragraph/><v:tabList/>Metadata <tspan x="4" dy="1.2em"
						class="st8">Repository</tspan></text>		</g>
		<g id="shape11-97" v:mID="11" v:groupContext="shape" transform="translate(104.44,-160.477)">
			<title>Foglio.11</title>
			<desc>generic Record driven by metadata</desc>
			<v:textBlock v:margins="rect(4,4,4,4)" v:tabSpace="42.5197"/>
			<v:textRect cx="68.6126" cy="241.499" width="137.23" height="15.9907"/>
			<rect x="0" y="233.503" width="137.225" height="15.9907" class="st5"/>
			<text x="4" y="243.9" class="st7" v:langID="1040"><v:paragraph/><v:tabList/>generic Record driven by metadata</text>		</g>
		<g id="shape36-100" v:mID="36" v:groupContext="shape" transform="translate(150.956,-6.38929)">
			<title>Foglio.36</title>
			<desc>Development Time</desc>
			<v:textBlock v:margins="rect(4,4,4,4)" v:tabSpace="42.5197"/>
			<v:textRect cx="40.9252" cy="241.499" width="81.86" height="15.9907"/>
			<rect x="0" y="233.503" width="81.8504" height="15.9907" class="st5"/>
			<text x="4" y="243.9" class="st7" v:langID="1040"><v:paragraph/><v:tabList/>Development Time</text>		</g>
		<g id="shape37-103" v:mID="37" v:groupContext="shape" transform="translate(257.433,-6.89787)">
			<title>Foglio.37</title>
			<desc>Run Time</desc>
			<v:textBlock v:margins="rect(4,4,4,4)" v:tabSpace="42.5197"/>
			<v:textRect cx="40.9252" cy="241.499" width="81.86" height="15.9907"/>
			<rect x="0" y="233.503" width="81.8504" height="15.9907" class="st5"/>
			<text x="4" y="243.9" class="st7" v:langID="1040"><v:paragraph/><v:tabList/>Run Time</text>		</g>
	</g>
</svg>
