<?xml version="1.0" encoding="UTF-8" standalone="no"?>
<!DOCTYPE svg PUBLIC "-//W3C//DTD SVG 1.0//EN" "http://www.w3.org/TR/2001/REC-SVG-20010904/DTD/svg10.dtd">
<!-- Generato da Microsoft Visio 11.0, SVG Export, v1.0 conn-102.svg Pagina 1 -->
<svg xmlns="http://www.w3.org/2000/svg" xmlns:v="http://schemas.microsoft.com/visio/2003/SVGExtensions/" width="9.2326in"
		height="7.10661in" viewBox="0 0 664.747 511.676" xml:space="preserve" color-interpolation-filters="sRGB" class="st8">
	<v:documentProperties v:langID="1040" v:metric="true" v:viewMarkup="false">
		<v:userDefs>
			<v:ud v:nameU="MBSAAddinOutlineVisible" v:prompt="" v:val="VT0(1):26"/>
		</v:userDefs>
	</v:documentProperties>

	<style type="text/css">
	<![CDATA[
		.st1 {fill:#ffffff;stroke:none;stroke-linecap:round;stroke-linejoin:round;stroke-width:0.72}
		.st2 {fill:#facca7;stroke:none;stroke-linecap:round;stroke-linejoin:round;stroke-width:0.72}
		.st3 {fill:#f28226;stroke:#f28226;stroke-linecap:round;stroke-linejoin:round;stroke-width:0.72}
		.st4 {fill:none;stroke:none;stroke-linecap:round;stroke-linejoin:round;stroke-width:0.72}
		.st5 {fill:#595959;font-family:Arial;font-size:0.833336em;font-weight:bold}
		.st6 {font-size:1em}
		.st7 {stroke:#f28226;stroke-linecap:round;stroke-linejoin:round;stroke-width:2.16}
		.st8 {fill:none;fill-rule:evenodd;font-size:12;overflow:visible;stroke-linecap:square;stroke-miterlimit:3}
	]]>
	</style>

	<g v:mID="0" v:index="1" v:groupContext="foregroundPage">
		<title>Pagina 1</title>
		<v:pageProperties v:drawingScale="0.0393701" v:pageScale="0.0393701" v:drawingUnits="24" v:shadowOffsetX="8.50394"
				v:shadowOffsetY="-8.50394"/>
		<g id="shape17-1" v:mID="17" v:groupContext="shape" transform="translate(0.72,-0.72)">
			<title>Foglio.17</title>
			<rect x="0" y="1.44" width="663.307" height="510.236" class="st1"/>
		</g>
		<g id="shape45-3" v:mID="45" v:groupContext="shape" transform="translate(12.2552,-9.90819)">
			<title>Foglio.45</title>
			<rect x="0" y="51.3216" width="218.071" height="460.355" rx="11.3386" ry="11.3386" class="st2"/>
		</g>
		<g id="shape11-5" v:mID="11" v:groupContext="shape" transform="translate(175.159,-105.602)">
			<title>Foglio.11</title>
			<ellipse cx="17.191" cy="494.485" rx="17.191" ry="17.191" class="st3"/>
		</g>
		<g id="shape12-7" v:mID="12" v:groupContext="shape" transform="translate(17.5145,-113.624)">
			<title>Foglio.12</title>
			<desc>UnavailableException</desc>
			<v:textBlock v:margins="rect(4,4,4,4)" v:tabSpace="42.5197"/>
			<v:textRect cx="59.6342" cy="503.654" width="119.27" height="16.0449"/>
			<rect x="0" y="495.631" width="119.268" height="16.0449" class="st4"/>
			<text x="4" y="506.65" class="st5" v:langID="1040"><v:paragraph/><v:tabList/>UnavailableException</text>		</g>
		<g id="shape5-10" v:mID="5" v:groupContext="shape" transform="translate(65.2608,-488.279)">
			<title>Foglio.5</title>
			<desc>Application Server</desc>
			<v:textBlock v:margins="rect(4,4,4,4)" v:tabSpace="42.5197"/>
			<v:textRect cx="57.349" cy="501.755" width="114.7" height="19.8425"/>
			<rect x="0" y="491.834" width="114.698" height="19.8425" class="st4"/>
			<text x="4" y="504.75" class="st5" v:langID="1040"><v:paragraph/><v:tabList/>Application Server</text>		</g>
		<g id="shape14-13" v:mID="14" v:groupContext="shape" transform="translate(434.617,-11.1023)">
			<title>Foglio.14</title>
			<rect x="0" y="51.3216" width="218.071" height="460.355" rx="11.3386" ry="11.3386" class="st2"/>
		</g>
		<g id="shape16-15" v:mID="16" v:groupContext="shape" transform="translate(452.995,-273.578)">
			<title>Foglio.16</title>
			<ellipse cx="17.191" cy="494.485" rx="17.191" ry="17.191" class="st3"/>
		</g>
		<g id="shape19-17" v:mID="19" v:groupContext="shape" transform="translate(467.321,-488.279)">
			<title>Foglio.19</title>
			<desc>Resource Adapter</desc>
			<v:textBlock v:margins="rect(4,4,4,4)" v:tabSpace="42.5197"/>
			<v:textRect cx="57.349" cy="501.755" width="114.7" height="19.8425"/>
			<rect x="0" y="491.834" width="114.698" height="19.8425" class="st4"/>
			<text x="4" y="504.75" class="st5" v:langID="1040"><v:paragraph/><v:tabList/>Resource Adapter</text>		</g>
		<g id="shape8-20" v:mID="8" v:groupContext="shape" transform="translate(498.962,-283.476)">
			<title>Foglio.8</title>
			<desc>Message object</desc>
			<v:textBlock v:margins="rect(4,4,4,4)" v:tabSpace="42.5197"/>
			<v:textRect cx="57.349" cy="501.755" width="114.7" height="19.8425"/>
			<rect x="0" y="491.834" width="114.698" height="19.8425" class="st4"/>
			<text x="4" y="504.75" class="st5" v:langID="1040"><v:paragraph/><v:tabList/>Message object</text>		</g>
		<g id="shape24-23" v:mID="24" v:groupContext="shape" transform="translate(175.159,-351.802)">
			<title>Foglio.24</title>
			<ellipse cx="17.191" cy="494.485" rx="17.191" ry="17.191" class="st3"/>
		</g>
		<g id="shape25-25" v:mID="25" v:groupContext="shape" transform="translate(18.4914,-356.709)">
			<title>Foglio.25</title>
			<desc>MessageEndpoint-Factory</desc>
			<v:textBlock v:margins="rect(4,4,4,4)" v:tabSpace="42.5197"/>
			<v:textRect cx="66.2324" cy="499.161" width="132.47" height="25.0303"/>
			<rect x="0" y="486.646" width="132.465" height="25.0303" class="st4"/>
			<text x="4" y="496.16" class="st5" v:langID="1040"><v:paragraph/><v:tabList/>MessageEndpoint-<tspan x="4" dy="1.2em"
						class="st6">Factory</tspan></text>		</g>
		<g id="shape26-29" v:mID="26" v:groupContext="shape" transform="translate(219.267,-369.62) rotate(-0.0453679)">
			<title>Foglio.26</title>
			<path d="M0 511.68 L215.82 511.68" class="st7"/>
		</g>
		<g id="shape27-32" v:mID="27" v:groupContext="shape" transform="translate(219.672,-364.518)">
			<title>Foglio.27</title>
			<path d="M5.1 511.68 L0 506.57 L5.1 501.47" class="st7"/>
		</g>
		<g id="shape28-35" v:mID="28" v:groupContext="shape" transform="translate(235.996,-370.187)">
			<title>Foglio.28</title>
			<desc>createEndpoint(XAResource)</desc>
			<v:textBlock v:margins="rect(4,4,4,4)" v:tabSpace="42.5197"/>
			<v:textRect cx="73.601" cy="503.654" width="147.21" height="16.0449"/>
			<rect x="0" y="495.631" width="147.202" height="16.0449" class="st4"/>
			<text x="4" y="506.65" class="st5" v:langID="1040"><v:paragraph/><v:tabList/>createEndpoint(XAResource)</text>		</g>
		<g id="shape29-38" v:mID="29" v:groupContext="shape" transform="translate(236.195,-349.863)">
			<title>Foglio.29</title>
			<desc>isDeliveryTransacted()</desc>
			<v:textBlock v:margins="rect(4,4,4,4)" v:tabSpace="42.5197"/>
			<v:textRect cx="67.8318" cy="503.654" width="135.67" height="16.0449"/>
			<rect x="0" y="495.631" width="135.664" height="16.0449" class="st4"/>
			<text x="4" y="506.65" class="st5" v:langID="1040"><v:paragraph/><v:tabList/>isDeliveryTransacted()</text>		</g>
		<g id="shape30-41" v:mID="30" v:groupContext="shape" transform="translate(453.897,-272.828)">
			<title>Foglio.30</title>
			<ellipse cx="17.191" cy="494.485" rx="17.191" ry="17.191" class="st3"/>
		</g>
		<g id="shape31-43" v:mID="31" v:groupContext="shape" transform="translate(453.897,-204.797)">
			<title>Foglio.31</title>
			<ellipse cx="17.191" cy="494.485" rx="17.191" ry="17.191" class="st3"/>
		</g>
		<g id="shape33-45" v:mID="33" v:groupContext="shape" transform="translate(218.988,-284.222)">
			<title>Foglio.33</title>
			<path d="M5.1 511.68 L0 506.57 L5.1 501.47" class="st7"/>
		</g>
		<g id="shape34-48" v:mID="34" v:groupContext="shape" transform="translate(233.56,-290.586)">
			<title>Foglio.34</title>
			<desc>message delivery calls</desc>
			<v:textBlock v:margins="rect(4,4,4,4)" v:tabSpace="42.5197"/>
			<v:textRect cx="67.8318" cy="503.654" width="135.67" height="16.0449"/>
			<rect x="0" y="495.631" width="135.664" height="16.0449" class="st4"/>
			<text x="4" y="506.65" class="st5" v:langID="1040"><v:paragraph/><v:tabList/>message delivery calls</text>		</g>
		<g id="shape36-51" v:mID="36" v:groupContext="shape" transform="translate(446.926,-221.293) rotate(0.0453679) scale(-1,1)">
			<title>Foglio.36</title>
			<path d="M0 511.68 L215.82 511.68" class="st7"/>
		</g>
		<g id="shape37-54" v:mID="37" v:groupContext="shape" transform="translate(446.521,-216.19) scale(-1,1)">
			<title>Foglio.37</title>
			<path d="M5.1 511.68 L0 506.57 L5.1 501.47" class="st7"/>
		</g>
		<g id="shape38-57" v:mID="38" v:groupContext="shape" transform="translate(391.901,-222.555) scale(-1,1)">
			<title>Foglio.38</title>
			<desc>workAccepted(), workStarted()</desc>
			<v:textBlock v:margins="rect(4,4,4,4)" v:tabSpace="42.5197"/>
			<v:textRect cx="79.6126" cy="503.654" width="159.23" height="16.0449"/>
			<rect x="0" y="495.631" width="159.225" height="16.0449" class="st4"/>
			<text x="-155.23" y="506.65" transform="scale(-1,1)" class="st5" v:langID="1040"><v:paragraph/><v:tabList/>workAccepted(), workStarted()</text>		</g>
		<g id="shape32-60" v:mID="32" v:groupContext="shape" transform="translate(218.583,-289.452) rotate(-0.0453679)">
			<title>Foglio.32</title>
			<path d="M0 511.68 L215.82 511.68" class="st7"/>
		</g>
		<g id="shape40-63" v:mID="40" v:groupContext="shape" transform="translate(499.717,-212.179)">
			<title>Foglio.40</title>
			<desc>XAResource</desc>
			<v:textBlock v:margins="rect(4,4,4,4)" v:tabSpace="42.5197"/>
			<v:textRect cx="73.601" cy="503.654" width="147.21" height="16.0449"/>
			<rect x="0" y="495.631" width="147.202" height="16.0449" class="st4"/>
			<text x="4" y="506.65" class="st5" v:langID="1040"><v:paragraph/><v:tabList/>XAResource</text>		</g>
		<g id="shape41-66" v:mID="41" v:groupContext="shape" transform="translate(454.263,-108.07)">
			<title>Foglio.41</title>
			<ellipse cx="17.191" cy="494.485" rx="17.191" ry="17.191" class="st3"/>
		</g>
		<g id="shape42-68" v:mID="42" v:groupContext="shape" transform="translate(500.084,-112.497)">
			<title>Foglio.42</title>
			<desc>NotSupported-Exception</desc>
			<v:textBlock v:margins="rect(4,4,4,4)" v:tabSpace="42.5197"/>
			<v:textRect cx="43.704" cy="498.728" width="87.41" height="25.8956"/>
			<rect x="0" y="485.781" width="87.408" height="25.8956" class="st4"/>
			<text x="4" y="495.73" class="st5" v:langID="1040"><v:paragraph/><v:tabList/>NotSupported-<tspan x="4" dy="1.2em"
						class="st6">Exception</tspan></text>		</g>
		<g id="shape44-72" v:mID="44" v:groupContext="shape" transform="translate(496.127,-425.917)">
			<title>Foglio.44</title>
			<desc>Resource Adapter</desc>
			<v:textBlock v:margins="rect(4,4,4,4)" v:tabSpace="42.5197"/>
			<v:textRect cx="57.349" cy="501.755" width="114.7" height="19.8425"/>
			<rect x="0" y="491.834" width="114.698" height="19.8425" class="st4"/>
			<text x="4" y="504.75" class="st5" v:langID="1040"><v:paragraph/><v:tabList/>Resource Adapter</text>		</g>
		<g id="shape2-75" v:mID="2" v:groupContext="shape" transform="translate(453.897,-416.999)">
			<title>Foglio.2</title>
			<ellipse cx="17.191" cy="494.485" rx="17.191" ry="17.191" class="st3"/>
		</g>
		<g id="shape4-77" v:mID="4" v:groupContext="shape" transform="translate(444.819,-434.816) rotate(-0.105328) scale(-1,1)">
			<title>Foglio.4</title>
			<path d="M0 511.68 L215.43 511.68" class="st7"/>
		</g>
		<g id="shape7-80" v:mID="7" v:groupContext="shape" transform="translate(445.759,-429.714) scale(-1,1)">
			<title>Foglio.7</title>
			<path d="M5.1 511.68 L0 506.57 L5.1 501.47" class="st7"/>
		</g>
		<g id="shape10-83" v:mID="10" v:groupContext="shape" transform="translate(374.893,-435.384) scale(-1,1)">
			<title>Foglio.10</title>
			<desc>endpointActivation()</desc>
			<v:textBlock v:margins="rect(4,4,4,4)" v:tabSpace="42.5197"/>
			<v:textRect cx="67.8318" cy="503.654" width="135.67" height="16.0449"/>
			<rect x="0" y="495.631" width="135.664" height="16.0449" class="st4"/>
			<text x="-131.66" y="506.65" transform="scale(-1,1)" class="st5" v:langID="1040"><v:paragraph/><v:tabList/>endpointActivation()</text>		</g>
		<g id="shape23-86" v:mID="23" v:groupContext="shape" transform="translate(374.694,-415.06) scale(-1,1)">
			<title>Foglio.23</title>
			<desc>endpointDeactivation()</desc>
			<v:textBlock v:margins="rect(4,4,4,4)" v:tabSpace="42.5197"/>
			<v:textRect cx="67.8318" cy="503.654" width="135.67" height="16.0449"/>
			<rect x="0" y="495.631" width="135.664" height="16.0449" class="st4"/>
			<text x="-131.66" y="506.65" transform="scale(-1,1)" class="st5" v:langID="1040"><v:paragraph/><v:tabList/>endpointDeactivation()</text>		</g>
		<g id="shape3-89" v:mID="3" v:groupContext="shape" transform="translate(175.249,-272.48)">
			<title>Foglio.3</title>
			<ellipse cx="17.191" cy="494.485" rx="17.191" ry="17.191" class="st3"/>
		</g>
		<g id="shape46-91" v:mID="46" v:groupContext="shape" transform="translate(18.5809,-281.879)">
			<title>Foglio.46</title>
			<desc>MessageEndpoint</desc>
			<v:textBlock v:margins="rect(4,4,4,4)" v:tabSpace="42.5197"/>
			<v:textRect cx="66.2324" cy="503.654" width="132.47" height="16.0449"/>
			<rect x="0" y="495.631" width="132.465" height="16.0449" class="st4"/>
			<text x="4" y="506.65" class="st5" v:langID="1040"><v:paragraph/><v:tabList/>MessageEndpoint</text>		</g>
		<g id="shape6-94" v:mID="6" v:groupContext="shape" transform="translate(454.263,-37.2042)">
			<title>Foglio.6</title>
			<ellipse cx="17.191" cy="494.485" rx="17.191" ry="17.191" class="st3"/>
		</g>
		<g id="shape9-96" v:mID="9" v:groupContext="shape" transform="translate(500.084,-44.5865)">
			<title>Foglio.9</title>
			<desc>ActivationSpec</desc>
			<v:textBlock v:margins="rect(4,4,4,4)" v:tabSpace="42.5197"/>
			<v:textRect cx="73.601" cy="503.654" width="147.21" height="16.0449"/>
			<rect x="0" y="495.631" width="147.202" height="16.0449" class="st4"/>
			<text x="4" y="506.65" class="st5" v:langID="1040"><v:paragraph/><v:tabList/>ActivationSpec</text>		</g>
	</g>
</svg>
