<?xml version="1.0" encoding="UTF-8" standalone="no"?>
<!DOCTYPE svg PUBLIC "-//W3C//DTD SVG 1.0//EN" "http://www.w3.org/TR/2001/REC-SVG-20010904/DTD/svg10.dtd">
<!-- Generato da Microsoft Visio 11.0, SVG Export, v1.0 conn-44.svg Pagina 1 -->
<svg xmlns="http://www.w3.org/2000/svg" xmlns:v="http://schemas.microsoft.com/visio/2003/SVGExtensions/" width="7.81528in"
		height="6.31921in" viewBox="0 0 562.7 454.983" xml:space="preserve" color-interpolation-filters="sRGB" class="st12">
	<v:documentProperties v:langID="1040" v:metric="true" v:viewMarkup="false">
		<v:userDefs>
			<v:ud v:nameU="MBSAAddinOutlineVisible" v:prompt="" v:val="VT0(1):26"/>
		</v:userDefs>
	</v:documentProperties>

	<style type="text/css">
	<![CDATA[
		.st1 {fill:#ffffff;stroke:none;stroke-linecap:round;stroke-linejoin:round;stroke-width:0.72}
		.st2 {fill:#729fdc;stroke:none;stroke-linecap:round;stroke-linejoin:round;stroke-width:0.72}
		.st3 {fill:#173660;stroke:none;stroke-linecap:round;stroke-linejoin:round;stroke-width:0.72}
		.st4 {fill:none;stroke:none;stroke-linecap:round;stroke-linejoin:round;stroke-width:0.72}
		.st5 {fill:#ffffff;font-family:Arial;font-size:0.666664em;font-weight:bold}
		.st6 {stroke:#f28226;stroke-linecap:round;stroke-linejoin:round;stroke-width:2.16}
		.st7 {stroke:#f28226;stroke-dasharray:0,6.48;stroke-linecap:round;stroke-linejoin:round;stroke-width:2.16}
		.st8 {fill:#f28226;stroke:none;stroke-linecap:round;stroke-linejoin:round;stroke-width:0.72}
		.st9 {fill:#f2f2f2;stroke:none;stroke-linecap:round;stroke-linejoin:round;stroke-width:0.72}
		.st10 {fill:#000000;font-family:Arial;font-size:0.666664em}
		.st11 {fill:#ffffff;font-family:Arial;font-size:0.916672em;font-weight:bold}
		.st12 {fill:none;fill-rule:evenodd;font-size:12;overflow:visible;stroke-linecap:square;stroke-miterlimit:3}
	]]>
	</style>

	<g v:mID="0" v:index="1" v:groupContext="foregroundPage">
		<title>Pagina 1</title>
		<v:pageProperties v:drawingScale="0.0393701" v:pageScale="0.0393701" v:drawingUnits="24" v:shadowOffsetX="8.50394"
				v:shadowOffsetY="-8.50394"/>
		<g id="shape36-1" v:mID="36" v:groupContext="shape" transform="translate(0.72,-0.72)">
			<title>Foglio.36</title>
			<rect x="0" y="1.44" width="561.26" height="453.543" class="st1"/>
		</g>
		<g id="shape2-3" v:mID="2" v:groupContext="shape" transform="translate(204.814,-82.9247)">
			<title>Foglio.2</title>
			<rect x="0" y="165.849" width="351.496" height="289.134" rx="22.6772" ry="22.6772" class="st2"/>
		</g>
		<g id="shape8-5" v:mID="8" v:groupContext="shape" transform="translate(211.901,-207.472)">
			<title>Foglio.8</title>
			<rect x="0" y="434.964" width="162.992" height="20.0197" rx="5.66929" ry="5.66929" class="st3"/>
		</g>
		<g id="shape9-7" v:mID="9" v:groupContext="shape" transform="translate(242.006,-211.264)">
			<title>Foglio.9</title>
			<desc>ConnectionManager</desc>
			<v:textBlock v:margins="rect(4,4,4,4)" v:tabSpace="42.5197"/>
			<v:textRect cx="50.3695" cy="448.624" width="100.74" height="12.7187"/>
			<rect x="0" y="442.265" width="100.739" height="12.7187" class="st4"/>
			<text x="4" y="451.02" class="st5" v:langID="1040"><v:paragraph/><v:tabList/>ConnectionManager</text>		</g>
		<g id="shape10-10" v:mID="10" v:groupContext="shape" transform="translate(211.192,-301.192)">
			<title>Foglio.10</title>
			<rect x="0" y="434.964" width="169.37" height="20.0197" rx="5.66929" ry="5.66929" class="st3"/>
		</g>
		<g id="shape11-12" v:mID="11" v:groupContext="shape" transform="translate(247.988,-304.985)">
			<title>Foglio.11</title>
			<desc>ConnectionFactory</desc>
			<v:textBlock v:margins="rect(4,4,4,4)" v:tabSpace="42.5197"/>
			<v:textRect cx="50.3695" cy="448.624" width="100.74" height="12.7187"/>
			<rect x="0" y="442.265" width="100.739" height="12.7187" class="st4"/>
			<text x="4" y="451.02" class="st5" v:langID="1040"><v:paragraph/><v:tabList/>ConnectionFactory</text>		</g>
		<g id="shape12-15" v:mID="12" v:groupContext="shape" transform="translate(213.318,-145.287)">
			<title>Foglio.12</title>
			<rect x="0" y="434.964" width="169.37" height="20.0197" rx="5.66929" ry="5.66929" class="st3"/>
		</g>
		<g id="shape13-17" v:mID="13" v:groupContext="shape" transform="translate(223.24,-149.079)">
			<title>Foglio.13</title>
			<desc>ManagedConnectionFactory</desc>
			<v:textBlock v:margins="rect(4,4,4,4)" v:tabSpace="42.5197"/>
			<v:textRect cx="78.3071" cy="448.624" width="156.62" height="12.7187"/>
			<rect x="0" y="442.265" width="156.614" height="12.7187" class="st4"/>
			<text x="4" y="451.02" class="st5" v:langID="1040"><v:paragraph/><v:tabList/>ManagedConnectionFactory</text>		</g>
		<g id="shape15-20" v:mID="15" v:groupContext="shape" transform="translate(15.154,331.807) rotate(-90)">
			<title>Foglio.15</title>
			<path d="M5.1 454.98 L0 449.88 L5.1 444.78" class="st6"/>
		</g>
		<g id="shape18-23" v:mID="18" v:groupContext="shape" transform="translate(735.766,224.657) rotate(90) scale(-1,1)">
			<title>Foglio.18</title>
			<path d="M0 454.98 L70.3 454.98" class="st6"/>
		</g>
		<g id="shape19-26" v:mID="19" v:groupContext="shape" transform="translate(730.664,224.657) rotate(90) scale(-1,1)">
			<title>Foglio.19</title>
			<path d="M5.1 454.98 L0 449.88 L5.1 444.78" class="st6"/>
		</g>
		<g id="shape1-29" v:mID="1" v:groupContext="shape" transform="translate(735.766,287.019) rotate(90) scale(-1,1)">
			<title>Foglio.1</title>
			<path d="M0 454.98 L36.85 454.98" class="st6"/>
		</g>
		<g id="shape3-32" v:mID="3" v:groupContext="shape" transform="translate(730.664,287.019) rotate(90) scale(-1,1)">
			<title>Foglio.3</title>
			<path d="M5.1 454.98 L0 449.88 L5.1 444.78" class="st6"/>
		</g>
		<g id="shape4-35" v:mID="4" v:groupContext="shape" transform="translate(392.255,-301.015)">
			<title>Foglio.4</title>
			<rect x="0" y="434.964" width="152.717" height="20.0197" rx="5.66929" ry="5.66929" class="st3"/>
		</g>
		<g id="shape5-37" v:mID="5" v:groupContext="shape" transform="translate(437.255,-304.808)">
			<title>Foglio.5</title>
			<desc>Connection</desc>
			<v:textBlock v:margins="rect(4,4,4,4)" v:tabSpace="42.5197"/>
			<v:textRect cx="28.5236" cy="448.624" width="57.05" height="12.7187"/>
			<rect x="0" y="442.265" width="57.0472" height="12.7187" class="st4"/>
			<text x="4" y="451.02" class="st5" v:langID="1040"><v:paragraph/><v:tabList/>Connection</text>		</g>
		<g id="shape6-40" v:mID="6" v:groupContext="shape" transform="translate(397.57,-101.261)">
			<title>Foglio.6</title>
			<rect x="0" y="434.964" width="147.402" height="20.0197" rx="5.66929" ry="5.66929" class="st3"/>
		</g>
		<g id="shape7-42" v:mID="7" v:groupContext="shape" transform="translate(414.341,-105.054)">
			<title>Foglio.7</title>
			<desc>ManagedConnection</desc>
			<v:textBlock v:margins="rect(4,4,4,4)" v:tabSpace="42.5197"/>
			<v:textRect cx="68.1501" cy="448.624" width="136.31" height="12.7187"/>
			<rect x="0" y="442.265" width="136.3" height="12.7187" class="st4"/>
			<text x="4" y="451.02" class="st5" v:langID="1040"><v:paragraph/><v:tabList/>ManagedConnection</text>		</g>
		<g id="shape14-45" v:mID="14" v:groupContext="shape" transform="translate(10.0517,331.807) rotate(-90)">
			<title>Foglio.14</title>
			<path d="M0 454.98 L178.02 454.98" class="st7"/>
		</g>
		<g id="shape16-48" v:mID="16" v:groupContext="shape" transform="translate(204.814,-9.22394)">
			<title>Foglio.16</title>
			<rect x="0" y="415.298" width="351.496" height="39.685" rx="5.66929" ry="5.66929" class="st3"/>
		</g>
		<g id="shape17-50" v:mID="17" v:groupContext="shape" transform="translate(274.263,-22.7071)">
			<title>Foglio.17</title>
			<desc>Enterprise Information System (EIS)</desc>
			<v:textBlock v:margins="rect(4,4,4,4)" v:tabSpace="42.5197"/>
			<v:textRect cx="75.1181" cy="448.624" width="150.24" height="12.7187"/>
			<rect x="0" y="442.265" width="150.236" height="12.7187" class="st4"/>
			<text x="4" y="451.02" class="st5" v:langID="1040"><v:paragraph/><v:tabList/>Enterprise Information System (EIS)</text>		</g>
		<g id="shape20-53" v:mID="20" v:groupContext="shape" transform="translate(15.7209,404.374) rotate(-90)">
			<title>Foglio.20</title>
			<path d="M5.1 454.98 L0 449.88 L5.1 444.78" class="st6"/>
		</g>
		<g id="shape21-56" v:mID="21" v:groupContext="shape" transform="translate(10.6186,404.374) rotate(-90)">
			<title>Foglio.21</title>
			<path d="M0 454.98 L50.65 454.98" class="st7"/>
		</g>
		<g id="shape22-59" v:mID="22" v:groupContext="shape" transform="translate(-167.964,80.0901) rotate(-90)">
			<title>Foglio.22</title>
			<path d="M5.1 454.98 L0 449.88 L5.1 444.78" class="st6"/>
		</g>
		<g id="shape23-62" v:mID="23" v:groupContext="shape" transform="translate(-173.066,80.0901) rotate(-90)">
			<title>Foglio.23</title>
			<path d="M0 454.98 L50.65 454.98" class="st7"/>
		</g>
		<g id="shape24-65" v:mID="24" v:groupContext="shape" transform="translate(15.7209,80.0901) rotate(-90)">
			<title>Foglio.24</title>
			<path d="M5.1 454.98 L0 449.88 L5.1 444.78" class="st6"/>
		</g>
		<g id="shape25-68" v:mID="25" v:groupContext="shape" transform="translate(10.6186,80.0901) rotate(-90)">
			<title>Foglio.25</title>
			<path d="M0 454.98 L50.65 454.98" class="st7"/>
		</g>
		<g id="shape26-71" v:mID="26" v:groupContext="shape" transform="translate(10.6186,130.742) rotate(-90)">
			<title>Foglio.26</title>
			<path d="M0 454.98 L50.65 454.98" class="st7"/>
		</g>
		<g id="shape27-74" v:mID="27" v:groupContext="shape" transform="translate(-173.633,131.114) rotate(-90)">
			<title>Foglio.27</title>
			<path d="M0 454.98 L50.65 454.98" class="st7"/>
		</g>
		<g id="shape28-77" v:mID="28" v:groupContext="shape" transform="translate(201.98,-400.405)">
			<title>Foglio.28</title>
			<rect x="0" y="412.464" width="354.331" height="42.5197" rx="8.50394" ry="8.50394" class="st8"/>
		</g>
		<g id="shape29-79" v:mID="29" v:groupContext="shape" transform="translate(-267.177,58.8302) rotate(-90)">
			<title>Foglio.29</title>
			<rect x="0" y="273.566" width="48.189" height="181.417" rx="11.3386" ry="11.3386" class="st9"/>
		</g>
		<g id="shape32-81" v:mID="32" v:groupContext="shape" transform="translate(54.5783,-421.023)">
			<title>Foglio.32</title>
			<desc>Architected contract</desc>
			<v:textBlock v:margins="rect(4,4,4,4)" v:tabSpace="42.5197"/>
			<v:textRect cx="39.685" cy="445.837" width="79.38" height="18.2923"/>
			<rect x="0" y="436.691" width="79.3701" height="18.2923" class="st4"/>
			<text x="4.34" y="448.24" class="st10" v:langID="1040"><v:paragraph v:horizAlign="1"/><v:tabList/>Architected contract</text>		</g>
		<g id="shape33-84" v:mID="33" v:groupContext="shape" transform="translate(46.0743,-401.18)">
			<title>Foglio.33</title>
			<desc>Implementation specific</desc>
			<v:textBlock v:margins="rect(4,4,4,4)" v:tabSpace="42.5197"/>
			<v:textRect cx="52.4409" cy="445.837" width="104.89" height="18.2923"/>
			<rect x="0" y="436.691" width="104.882" height="18.2923" class="st4"/>
			<text x="10.64" y="448.24" class="st10" v:langID="1040"><v:paragraph v:horizAlign="1"/><v:tabList/>Implementation specific</text>		</g>
		<g id="shape30-87" v:mID="30" v:groupContext="shape" transform="translate(307.516,-345.857)">
			<title>Foglio.30</title>
			<desc>Resource Adapter</desc>
			<v:textBlock v:margins="rect(4,4,4,4)" v:tabSpace="42.5197"/>
			<v:textRect cx="64.5427" cy="448.624" width="129.09" height="12.7187"/>
			<rect x="0" y="442.265" width="129.085" height="12.7187" class="st4"/>
			<text x="4" y="451.92" class="st11" v:langID="1040"><v:paragraph/><v:tabList/>Resource Adapter</text>		</g>
		<g id="shape31-90" v:mID="31" v:groupContext="shape" transform="translate(304.027,-414.578)">
			<title>Foglio.31</title>
			<desc>Application Component</desc>
			<v:textBlock v:margins="rect(4,4,4,4)" v:tabSpace="42.5197"/>
			<v:textRect cx="50.3695" cy="448.624" width="100.74" height="12.7187"/>
			<rect x="0" y="442.265" width="100.739" height="12.7187" class="st4"/>
			<text x="4" y="451.02" class="st5" v:langID="1040"><v:paragraph/><v:tabList/>Application Component</text>		</g>
		<g id="shape34-93" v:mID="34" v:groupContext="shape" transform="translate(17.7279,499.64) scale(1,-1)">
			<title>Foglio.34</title>
			<path d="M0 454.98 L25.51 454.98" class="st6"/>
		</g>
		<g id="shape35-96" v:mID="35" v:groupContext="shape" transform="translate(46.0743,479.798) rotate(180)">
			<title>Foglio.35</title>
			<path d="M0 454.98 L28.35 454.98" class="st7"/>
		</g>
	</g>
</svg>
