<?xml version="1.0" encoding="UTF-8" standalone="no"?>
<!DOCTYPE svg PUBLIC "-//W3C//DTD SVG 1.0//EN" "http://www.w3.org/TR/2001/REC-SVG-20010904/DTD/svg10.dtd">
<!-- Generato da Microsoft Visio 11.0, SVG Export, v1.0 conn-52.svg Pagina 1 -->
<svg xmlns="http://www.w3.org/2000/svg" xmlns:v="http://schemas.microsoft.com/visio/2003/SVGExtensions/" width="8.66173in"
		height="7.18535in" viewBox="0 0 623.645 517.346" xml:space="preserve" color-interpolation-filters="sRGB" class="st19">
	<v:documentProperties v:langID="1040" v:metric="true" v:viewMarkup="false">
		<v:userDefs>
			<v:ud v:nameU="MBSAAddinOutlineVisible" v:prompt="" v:val="VT0(1):26"/>
		</v:userDefs>
	</v:documentProperties>

	<style type="text/css">
	<![CDATA[
		.st1 {fill:#ffffff;stroke:none;stroke-linecap:round;stroke-linejoin:round;stroke-width:0.72}
		.st2 {fill:#3475cd;stroke:none;stroke-linecap:round;stroke-linejoin:round;stroke-width:0.72}
		.st3 {fill:#173660;stroke:none;stroke-linecap:round;stroke-linejoin:round;stroke-width:0.72}
		.st4 {fill:none;stroke:none;stroke-linecap:round;stroke-linejoin:round;stroke-width:0.72}
		.st5 {fill:#ffffff;font-family:Arial;font-size:0.666664em;font-weight:bold}
		.st6 {stroke:#facca7;stroke-linecap:round;stroke-linejoin:round;stroke-width:2.16}
		.st7 {stroke:#facca7;stroke-dasharray:0,6.48;stroke-linecap:round;stroke-linejoin:round;stroke-width:2.16}
		.st8 {stroke:#f28226;stroke-dasharray:0,6.48;stroke-linecap:round;stroke-linejoin:round;stroke-width:2.16}
		.st9 {fill:#f28226;stroke:none;stroke-linecap:round;stroke-linejoin:round;stroke-width:0.72}
		.st10 {fill:#f2f2f2;stroke:none;stroke-linecap:round;stroke-linejoin:round;stroke-width:0.72}
		.st11 {fill:#000000;font-family:Arial;font-size:0.666664em}
		.st12 {stroke:#f28226;stroke-linecap:round;stroke-linejoin:round;stroke-width:2.16}
		.st13 {fill:#f8b57e;stroke:none;stroke-linecap:round;stroke-linejoin:round;stroke-width:0.72}
		.st14 {fill:#facca7;stroke:none;stroke-linecap:round;stroke-linejoin:round;stroke-width:0.72}
		.st15 {fill:#000000;font-family:Arial;font-size:0.666664em;font-weight:bold}
		.st16 {font-size:1em}
		.st17 {stroke:#f8b57e;stroke-linecap:round;stroke-linejoin:round;stroke-width:2.16}
		.st18 {stroke:#f8b57e;stroke-dasharray:0,6.48;stroke-linecap:round;stroke-linejoin:round;stroke-width:2.16}
		.st19 {fill:none;fill-rule:evenodd;font-size:12;overflow:visible;stroke-linecap:square;stroke-miterlimit:3}
	]]>
	</style>

	<g v:mID="0" v:index="1" v:groupContext="foregroundPage">
		<title>Pagina 1</title>
		<v:pageProperties v:drawingScale="0.0393701" v:pageScale="0.0393701" v:drawingUnits="24" v:shadowOffsetX="8.50394"
				v:shadowOffsetY="-8.50394"/>
		<g id="shape22-1" v:mID="22" v:groupContext="shape" transform="translate(0.72,-0.72)">
			<title>Foglio.22</title>
			<rect x="0" y="1.44" width="622.205" height="515.906" class="st1"/>
		</g>
		<g id="shape23-3" v:mID="23" v:groupContext="shape" transform="translate(271.429,-85.7594)">
			<title>Foglio.23</title>
			<rect x="0" y="168.684" width="340.157" height="348.661" rx="22.6772" ry="22.6772" class="st2"/>
		</g>
		<g id="shape26-5" v:mID="26" v:groupContext="shape" transform="translate(288.437,-365.061)">
			<title>Foglio.26</title>
			<rect x="0" y="497.326" width="132.52" height="20.0197" rx="5.66929" ry="5.66929" class="st3"/>
		</g>
		<g id="shape27-7" v:mID="27" v:groupContext="shape" transform="translate(296.886,-368.853)">
			<title>Foglio.27</title>
			<desc>ConnectionFactory</desc>
			<v:textBlock v:margins="rect(4,4,4,4)" v:tabSpace="42.5197"/>
			<v:textRect cx="50.3695" cy="510.986" width="100.74" height="12.7187"/>
			<rect x="0" y="504.627" width="100.739" height="12.7187" class="st4"/>
			<text x="4" y="513.39" class="st5" v:langID="1040"><v:paragraph/><v:tabList/>ConnectionFactory</text>		</g>
		<g id="shape30-10" v:mID="30" v:groupContext="shape" transform="translate(25.0753,270.773) rotate(-90)">
			<title>Foglio.30</title>
			<path d="M5.1 517.35 L0 512.24 L5.1 507.14" class="st6"/>
		</g>
		<g id="shape35-13" v:mID="35" v:groupContext="shape" transform="translate(475.169,-364.883)">
			<title>Foglio.35</title>
			<rect x="0" y="497.326" width="84.685" height="20.0197" rx="5.66929" ry="5.66929" class="st3"/>
		</g>
		<g id="shape36-15" v:mID="36" v:groupContext="shape" transform="translate(483.141,-368.676)">
			<title>Foglio.36</title>
			<desc>Connection</desc>
			<v:textBlock v:margins="rect(4,4,4,4)" v:tabSpace="42.5197"/>
			<v:textRect cx="28.5236" cy="510.986" width="57.05" height="12.7187"/>
			<rect x="0" y="504.627" width="57.0472" height="12.7187" class="st4"/>
			<text x="4" y="513.39" class="st5" v:langID="1040"><v:paragraph/><v:tabList/>Connection</text>		</g>
		<g id="shape39-18" v:mID="39" v:groupContext="shape" transform="translate(19.9729,455.681) rotate(-90)">
			<title>Foglio.39</title>
			<path d="M0 517.35 L301.89 517.35" class="st7"/>
		</g>
		<g id="shape40-21" v:mID="40" v:groupContext="shape" transform="translate(271.429,-14.3263)">
			<title>Foglio.40</title>
			<rect x="0" y="477.66" width="351.496" height="39.685" rx="5.66929" ry="5.66929" class="st3"/>
		</g>
		<g id="shape41-23" v:mID="41" v:groupContext="shape" transform="translate(340.877,-27.8095)">
			<title>Foglio.41</title>
			<desc>Enterprise Information System (EIS)</desc>
			<v:textBlock v:margins="rect(4,4,4,4)" v:tabSpace="42.5197"/>
			<v:textRect cx="75.1181" cy="510.986" width="150.24" height="12.7187"/>
			<rect x="0" y="504.627" width="150.236" height="12.7187" class="st4"/>
			<text x="4" y="513.39" class="st5" v:langID="1040"><v:paragraph/><v:tabList/>Enterprise Information System (EIS)</text>		</g>
		<g id="shape42-26" v:mID="42" v:groupContext="shape" transform="translate(25.6422,461.633) rotate(-90)">
			<title>Foglio.42</title>
			<path d="M5.1 517.35 L0 512.24 L5.1 507.14" class="st6"/>
		</g>
		<g id="shape46-29" v:mID="46" v:groupContext="shape" transform="translate(25.6422,131.876) rotate(-90)">
			<title>Foglio.46</title>
			<path d="M5.1 517.35 L0 512.24 L5.1 507.14" class="st6"/>
		</g>
		<g id="shape47-32" v:mID="47" v:groupContext="shape" transform="translate(20.5398,80.0901) rotate(-90)">
			<title>Foglio.47</title>
			<path d="M0 517.35 L50.65 517.35" class="st8"/>
		</g>
		<g id="shape48-35" v:mID="48" v:groupContext="shape" transform="translate(20.5398,130.742) rotate(-90)">
			<title>Foglio.48</title>
			<path d="M0 517.35 L50.65 517.35" class="st7"/>
		</g>
		<g id="shape50-38" v:mID="50" v:groupContext="shape" transform="translate(268.594,-462.767)">
			<title>Foglio.50</title>
			<rect x="0" y="474.826" width="354.331" height="42.5197" rx="8.50394" ry="8.50394" class="st9"/>
		</g>
		<g id="shape51-40" v:mID="51" v:groupContext="shape" transform="translate(-262.925,58.8302) rotate(-90)">
			<title>Foglio.51</title>
			<rect x="0" y="335.928" width="48.189" height="181.417" rx="11.3386" ry="11.3386" class="st10"/>
		</g>
		<g id="shape52-42" v:mID="52" v:groupContext="shape" transform="translate(119.775,-482.732)">
			<title>Foglio.52</title>
			<desc>Architected Contract</desc>
			<v:textBlock v:margins="rect(4,4,4,4)" v:tabSpace="42.5197"/>
			<v:textRect cx="41.1024" cy="507.873" width="82.21" height="18.9456"/>
			<rect x="0" y="498.4" width="82.2047" height="18.9456" class="st4"/>
			<text x="4.86" y="510.27" class="st11" v:langID="1040"><v:paragraph v:horizAlign="1"/><v:tabList/>Architected Contract</text>		</g>
		<g id="shape53-45" v:mID="53" v:groupContext="shape" transform="translate(112.689,-463.542)">
			<title>Foglio.53</title>
			<desc>Implementation Specific</desc>
			<v:textBlock v:margins="rect(4,4,4,4)" v:tabSpace="42.5197"/>
			<v:textRect cx="52.4409" cy="508.199" width="104.89" height="18.2923"/>
			<rect x="0" y="499.053" width="104.882" height="18.2923" class="st4"/>
			<text x="9.98" y="510.6" class="st11" v:langID="1040"><v:paragraph v:horizAlign="1"/><v:tabList/>Implementation Specific</text>		</g>
		<g id="shape54-48" v:mID="54" v:groupContext="shape" transform="translate(374.13,-408.219)">
			<title>Foglio.54</title>
			<desc>Resource Adapter</desc>
			<v:textBlock v:margins="rect(4,4,4,4)" v:tabSpace="42.5197"/>
			<v:textRect cx="64.5427" cy="510.986" width="129.09" height="12.7187"/>
			<rect x="0" y="504.627" width="129.085" height="12.7187" class="st4"/>
			<text x="30.09" y="513.39" class="st5" v:langID="1040"><v:paragraph v:horizAlign="1"/><v:tabList/>Resource Adapter</text>		</g>
		<g id="shape56-51" v:mID="56" v:groupContext="shape" transform="translate(84.342,562.003) scale(1,-1)">
			<title>Foglio.56</title>
			<path d="M0 517.35 L25.51 517.35" class="st12"/>
		</g>
		<g id="shape57-54" v:mID="57" v:groupContext="shape" transform="translate(112.689,542.16) rotate(180)">
			<title>Foglio.57</title>
			<path d="M0 517.35 L28.35 517.35" class="st8"/>
		</g>
		<g id="shape20-57" v:mID="20" v:groupContext="shape" transform="translate(12.0586,-85.7594)">
			<title>Foglio.20</title>
			<rect x="0" y="170.101" width="240.945" height="347.244" rx="8.50394" ry="8.50394" class="st9"/>
		</g>
		<g id="shape21-59" v:mID="21" v:groupContext="shape" transform="translate(18.9293,-413.161)">
			<title>Foglio.21</title>
			<desc>Resource Adapter</desc>
			<v:textBlock v:margins="rect(4,4,4,4)" v:tabSpace="42.5197"/>
			<v:textRect cx="80.4964" cy="511.204" width="161" height="12.2835"/>
			<rect x="0" y="505.062" width="160.993" height="12.2835" class="st4"/>
			<text x="46.04" y="513.6" class="st5" v:langID="1040"><v:paragraph v:horizAlign="1"/><v:tabList/>Resource Adapter</text>		</g>
		<g id="shape2-62" v:mID="2" v:groupContext="shape" transform="translate(23.3972,-139.618)">
			<title>Foglio.2</title>
			<rect x="0" y="296.243" width="218.268" height="221.102" rx="8.50394" ry="8.50394" class="st13"/>
		</g>
		<g id="shape6-64" v:mID="6" v:groupContext="shape" transform="translate(119.066,-170.799)">
			<title>Foglio.6</title>
			<rect x="0" y="468.979" width="90.7087" height="48.3661" rx="5.66929" ry="5.66929" class="st14"/>
		</g>
		<g id="shape7-66" v:mID="7" v:groupContext="shape" transform="translate(129.833,-185.393)">
			<title>Foglio.7</title>
			<desc>Transaction Manager</desc>
			<v:textBlock v:margins="rect(4,4,4,4)" v:tabSpace="42.5197"/>
			<v:textRect cx="29.3409" cy="506.428" width="58.69" height="21.8356"/>
			<rect x="0" y="495.51" width="58.6819" height="21.8356" class="st4"/>
			<text x="4" y="504.03" class="st15" v:langID="1040"><v:paragraph/><v:tabList/>Transaction <tspan x="4" dy="1.2em"
						class="st16">Manager</tspan></text>		</g>
		<g id="shape8-70" v:mID="8" v:groupContext="shape" transform="translate(53.1609,-376.222)">
			<title>Foglio.8</title>
			<rect x="0" y="497.326" width="162.992" height="20.0197" rx="5.66929" ry="5.66929" class="st14"/>
		</g>
		<g id="shape9-72" v:mID="9" v:groupContext="shape" transform="translate(75.1294,-380.014)">
			<title>Foglio.9</title>
			<desc>ConnectionManager</desc>
			<v:textBlock v:margins="rect(4,4,4,4)" v:tabSpace="42.5197"/>
			<v:textRect cx="50.3695" cy="510.986" width="100.74" height="12.7187"/>
			<rect x="0" y="504.627" width="100.739" height="12.7187" class="st4"/>
			<text x="4" y="513.39" class="st15" v:langID="1040"><v:paragraph/><v:tabList/>ConnectionManager</text>		</g>
		<g id="shape58-75" v:mID="58" v:groupContext="shape" transform="translate(54.5783,-105.425)">
			<title>Foglio.58</title>
			<rect x="0" y="497.326" width="162.992" height="20.0197" rx="5.66929" ry="5.66929" class="st14"/>
		</g>
		<g id="shape59-77" v:mID="59" v:groupContext="shape" transform="translate(65.508,-109.217)">
			<title>Foglio.59</title>
			<desc>ConnectionEventListener</desc>
			<v:textBlock v:margins="rect(4,4,4,4)" v:tabSpace="42.5197"/>
			<v:textRect cx="55.6844" cy="510.986" width="111.37" height="12.7187"/>
			<rect x="0" y="504.627" width="111.369" height="12.7187" class="st4"/>
			<text x="4" y="513.39" class="st15" v:langID="1040"><v:paragraph/><v:tabList/>ConnectionEventListener</text>		</g>
		<g id="shape12-80" v:mID="12" v:groupContext="shape" transform="translate(468.108,800.961) rotate(179.848)">
			<title>Foglio.12</title>
			<path d="M0 517.35 L213.73 517.35" class="st17"/>
		</g>
		<g id="shape13-83" v:mID="13" v:groupContext="shape" transform="translate(466.736,795.861) rotate(180)">
			<title>Foglio.13</title>
			<path d="M5.1 517.35 L0 512.24 L5.1 507.14" class="st17"/>
		</g>
		<g id="shape25-86" v:mID="25" v:groupContext="shape" transform="translate(296.374,-206.143)">
			<title>Foglio.25</title>
			<rect x="0" y="497.326" width="115.654" height="20.0197" rx="5.66929" ry="5.66929" class="st3"/>
		</g>
		<g id="shape28-88" v:mID="28" v:groupContext="shape" transform="translate(299.09,-209.936)">
			<title>Foglio.28</title>
			<desc>LocalTransaction</desc>
			<v:textBlock v:margins="rect(4,4,4,4)" v:tabSpace="42.5197"/>
			<v:textRect cx="38.0436" cy="510.986" width="76.09" height="12.7187"/>
			<rect x="0" y="504.627" width="76.0871" height="12.7187" class="st4"/>
			<text x="4" y="513.39" class="st5" v:langID="1040"><v:paragraph/><v:tabList/>LocalTransaction</text>		</g>
		<g id="shape24-91" v:mID="24" v:groupContext="shape" transform="translate(297.507,-180.887)">
			<title>Foglio.24</title>
			<rect x="0" y="497.326" width="92.9764" height="20.0197" rx="5.66929" ry="5.66929" class="st3"/>
		</g>
		<g id="shape29-93" v:mID="29" v:groupContext="shape" transform="translate(300.223,-184.679)">
			<title>Foglio.29</title>
			<desc>XAResource</desc>
			<v:textBlock v:margins="rect(4,4,4,4)" v:tabSpace="42.5197"/>
			<v:textRect cx="38.0436" cy="510.986" width="76.09" height="12.7187"/>
			<rect x="0" y="504.627" width="76.0871" height="12.7187" class="st4"/>
			<text x="4" y="513.39" class="st5" v:langID="1040"><v:paragraph/><v:tabList/>XAResource</text>		</g>
		<g id="shape31-96" v:mID="31" v:groupContext="shape" transform="translate(275.148,819.021) rotate(-178.968)">
			<title>Foglio.31</title>
			<path d="M0 517.35 L31.47 517.35" class="st17"/>
		</g>
		<g id="shape32-99" v:mID="32" v:groupContext="shape" transform="translate(287.019,814.003) rotate(180)">
			<title>Foglio.32</title>
			<path d="M5.1 517.35 L0 512.24 L5.1 507.14" class="st17"/>
		</g>
		<g id="shape33-102" v:mID="33" v:groupContext="shape" transform="translate(284.468,844.362) rotate(180)">
			<title>Foglio.33</title>
			<path d="M0 517.35 L69.73 517.35" class="st17"/>
		</g>
		<g id="shape34-105" v:mID="34" v:groupContext="shape" transform="translate(287.019,839.259) rotate(180)">
			<title>Foglio.34</title>
			<path d="M5.1 517.35 L0 512.24 L5.1 507.14" class="st17"/>
		</g>
		<g id="shape63-108" v:mID="63" v:groupContext="shape" transform="translate(221.822,914.066) scale(1,-1)">
			<title>Foglio.63</title>
			<path d="M5.1 517.35 L0 512.24 L5.1 507.14" class="st17"/>
		</g>
		<g id="shape64-111" v:mID="64" v:groupContext="shape" transform="translate(-13.4759,296.94) rotate(-90) scale(-1,1)">
			<title>Foglio.64</title>
			<path d="M0 517.35 L104.88 517.35" class="st6"/>
		</g>
		<g id="shape37-114" v:mID="37" v:groupContext="shape" transform="translate(469.854,-224.657)">
			<title>Foglio.37</title>
			<rect x="0" y="497.326" width="121.89" height="20.0197" rx="5.66929" ry="5.66929" class="st3"/>
		</g>
		<g id="shape38-116" v:mID="38" v:groupContext="shape" transform="translate(469.854,-228.449)">
			<title>Foglio.38</title>
			<desc>ManagedConnection</desc>
			<v:textBlock v:margins="rect(4,4,4,4)" v:tabSpace="42.5197"/>
			<v:textRect cx="68.1501" cy="510.986" width="136.31" height="12.7187"/>
			<rect x="0" y="504.627" width="136.3" height="12.7187" class="st4"/>
			<text x="4" y="513.39" class="st5" v:langID="1040"><v:paragraph/><v:tabList/>ManagedConnection</text>		</g>
		<g id="shape43-119" v:mID="43" v:groupContext="shape" transform="translate(-155.208,462.2) rotate(-90)">
			<title>Foglio.43</title>
			<path d="M5.1 517.35 L0 512.24 L5.1 507.14" class="st17"/>
		</g>
		<g id="shape65-122" v:mID="65" v:groupContext="shape" transform="translate(-160.311,387.111) rotate(-90)">
			<title>Foglio.65</title>
			<path d="M0 517.35 L50.65 517.35" class="st18"/>
		</g>
		<g id="shape66-125" v:mID="66" v:groupContext="shape" transform="translate(-160.311,458.544) rotate(-90)">
			<title>Foglio.66</title>
			<path d="M0 517.35 L71.43 517.35" class="st18"/>
		</g>
		<g id="shape1-128" v:mID="1" v:groupContext="shape" transform="translate(-112.689,371.624) rotate(-90)">
			<title>Foglio.1</title>
			<path d="M0 517.35 L60.61 517.35" class="st18"/>
		</g>
		<g id="shape3-131" v:mID="3" v:groupContext="shape" transform="translate(-112.689,457.098) rotate(-90)">
			<title>Foglio.3</title>
			<path d="M0 517.35 L85.47 517.35" class="st18"/>
		</g>
		<g id="shape4-134" v:mID="4" v:groupContext="shape" transform="translate(-107.586,462.484) rotate(-90)">
			<title>Foglio.4</title>
			<path d="M5.1 517.35 L0 512.24 L5.1 507.14" class="st17"/>
		</g>
		<g id="shape62-137" v:mID="62" v:groupContext="shape" transform="translate(223.24,919.168) scale(1,-1)">
			<title>Foglio.62</title>
			<path d="M0 517.35 L280.63 517.35" class="st6"/>
		</g>
	</g>
</svg>
