<?xml version="1.0" encoding="UTF-8" standalone="no"?>
<!DOCTYPE svg PUBLIC "-//W3C//DTD SVG 1.0//EN" "http://www.w3.org/TR/2001/REC-SVG-20010904/DTD/svg10.dtd">
<!-- Generato da Microsoft Visio 11.0, SVG Export, v1.0 conn-186.svg Pagina 1 -->
<svg xmlns="http://www.w3.org/2000/svg" xmlns:v="http://schemas.microsoft.com/visio/2003/SVGExtensions/" width="8.56331in"
		height="2.77591in" viewBox="0 0 616.558 199.865" xml:space="preserve" color-interpolation-filters="sRGB" class="st7">
	<v:documentProperties v:langID="1040" v:metric="true" v:viewMarkup="false">
		<v:userDefs>
			<v:ud v:nameU="MBSAAddinOutlineVisible" v:prompt="" v:val="VT0(1):26"/>
		</v:userDefs>
	</v:documentProperties>

	<style type="text/css">
	<![CDATA[
		.st1 {fill:#ffffff;stroke:none;stroke-linecap:round;stroke-linejoin:round;stroke-width:0.72}
		.st2 {fill:none;stroke:none;stroke-linecap:round;stroke-linejoin:round;stroke-width:0.72}
		.st3 {fill:#000000;font-family:Arial;font-size:0.666664em;font-weight:bold}
		.st4 {stroke:#173660;stroke-linecap:round;stroke-linejoin:round;stroke-width:4.08}
		.st5 {stroke:#f28226;stroke-linecap:round;stroke-linejoin:round;stroke-width:2.16}
		.st6 {font-size:1em;font-weight:normal}
		.st7 {fill:none;fill-rule:evenodd;font-size:12;overflow:visible;stroke-linecap:square;stroke-miterlimit:3}
	]]>
	</style>

	<g v:mID="0" v:index="1" v:groupContext="foregroundPage">
		<title>Pagina 1</title>
		<v:pageProperties v:drawingScale="0.0393701" v:pageScale="0.0393701" v:drawingUnits="24" v:shadowOffsetX="8.50394"
				v:shadowOffsetY="-8.50394"/>
		<g id="shape139-1" v:mID="139" v:groupContext="shape" transform="translate(0.72,-0.72)">
			<title>Foglio.139</title>
			<rect x="0" y="1.44" width="615.118" height="198.425" class="st1"/>
		</g>
		<g id="shape5-3" v:mID="5" v:groupContext="shape" transform="translate(24.8145,-95.0384)">
			<title>Foglio.5</title>
			<desc>Initiating Principal: Employee</desc>
			<v:textBlock v:margins="rect(4,4,4,4)" v:tabSpace="42.5197"/>
			<v:textRect cx="61.6535" cy="190.077" width="123.31" height="19.5768"/>
			<rect x="0" y="180.288" width="123.307" height="19.5768" class="st2"/>
			<text x="4" y="192.48" class="st3" v:langID="1040"><v:paragraph/><v:tabList/>Initiating Principal: Employee</text>		</g>
		<g id="shape9-6" v:mID="9" v:groupContext="shape" transform="translate(-189.224,109.212) rotate(-90)">
			<title>Foglio.9</title>
			<path d="M0 199.87 L28.35 199.87" class="st4"/>
		</g>
		<g id="shape10-9" v:mID="10" v:groupContext="shape" transform="translate(26.2318,-63.8573)">
			<title>Foglio.10</title>
			<desc>Application Security domain</desc>
			<v:textBlock v:margins="rect(4,4,4,4)" v:tabSpace="42.5197"/>
			<v:textRect cx="58.8189" cy="190.077" width="117.64" height="19.5768"/>
			<rect x="0" y="180.288" width="117.638" height="19.5768" class="st2"/>
			<text x="4" y="192.48" class="st3" v:langID="1040"><v:paragraph/><v:tabList/>Application Security domain</text>		</g>
		<g id="shape15-12" v:mID="15" v:groupContext="shape" transform="translate(214.654,-144.356) rotate(-30) scale(-1,1)">
			<title>Foglio.15</title>
			<path d="M5.1 199.87 L0 194.76 L5.1 189.66" class="st5"/>
		</g>
		<g id="shape1-15" v:mID="1" v:groupContext="shape" transform="translate(24.8145,280.73) rotate(180)">
			<title>Foglio.1</title>
			<path d="M0 199.87 L14.17 199.87" class="st4"/>
		</g>
		<g id="shape2-18" v:mID="2" v:groupContext="shape" transform="translate(24.8145,309.077) rotate(180)">
			<title>Foglio.2</title>
			<path d="M0 199.87 L14.17 199.87" class="st4"/>
		</g>
		<g id="shape3-21" v:mID="3" v:groupContext="shape" transform="translate(389.089,109.212) rotate(90) scale(-1,1)">
			<title>Foglio.3</title>
			<path d="M0 199.87 L28.35 199.87" class="st4"/>
		</g>
		<g id="shape4-24" v:mID="4" v:groupContext="shape" transform="translate(175.051,280.73) scale(1,-1)">
			<title>Foglio.4</title>
			<path d="M0 199.87 L14.17 199.87" class="st4"/>
		</g>
		<g id="shape6-27" v:mID="6" v:groupContext="shape" transform="translate(175.051,309.077) scale(1,-1)">
			<title>Foglio.6</title>
			<path d="M0 199.87 L14.17 199.87" class="st4"/>
		</g>
		<g id="shape7-30" v:mID="7" v:groupContext="shape" transform="translate(99.4244,-83.7192) rotate(-30)">
			<title>Foglio.7</title>
			<path d="M0 199.87 L129.05 199.87" class="st5"/>
		</g>
		<g id="shape8-33" v:mID="8" v:groupContext="shape" transform="translate(332.374,-162.295)">
			<title>Foglio.8</title>
			<desc>Resource Principal: ERP System Account LogisticsAppUser</desc>
			<v:textBlock v:margins="rect(4,4,4,4)" v:tabSpace="42.5197"/>
			<v:textRect cx="83.622" cy="190.077" width="167.25" height="19.5768"/>
			<rect x="0" y="180.288" width="167.244" height="19.5768" class="st2"/>
			<text x="9.41" y="187.68" class="st3" v:langID="1040"><v:paragraph v:horizAlign="2"/><v:tabList/>Resource Principal: <tspan
						class="st6">ERP System Account </tspan><tspan x="100.99" dy="1.2em" class="st6">LogisticsAppUser</tspan></text>		</g>
		<g id="shape11-38" v:mID="11" v:groupContext="shape" transform="translate(126.13,38.3455) rotate(-90)">
			<title>Foglio.11</title>
			<path d="M0 199.87 L28.35 199.87" class="st4"/>
		</g>
		<g id="shape12-41" v:mID="12" v:groupContext="shape" transform="translate(340.169,209.864) rotate(180)">
			<title>Foglio.12</title>
			<path d="M0 199.87 L14.17 199.87" class="st4"/>
		</g>
		<g id="shape13-44" v:mID="13" v:groupContext="shape" transform="translate(340.169,238.211) rotate(180)">
			<title>Foglio.13</title>
			<path d="M0 199.87 L14.17 199.87" class="st4"/>
		</g>
		<g id="shape14-47" v:mID="14" v:groupContext="shape" transform="translate(788.774,38.3455) rotate(90) scale(-1,1)">
			<title>Foglio.14</title>
			<path d="M0 199.87 L28.35 199.87" class="st4"/>
		</g>
		<g id="shape16-50" v:mID="16" v:groupContext="shape" transform="translate(574.736,209.864) scale(1,-1)">
			<title>Foglio.16</title>
			<path d="M0 199.87 L14.17 199.87" class="st4"/>
		</g>
		<g id="shape17-53" v:mID="17" v:groupContext="shape" transform="translate(574.736,238.211) scale(1,-1)">
			<title>Foglio.17</title>
			<path d="M0 199.87 L14.17 199.87" class="st4"/>
		</g>
		<g id="shape18-56" v:mID="18" v:groupContext="shape" transform="translate(403.24,-134.723)">
			<title>Foglio.18</title>
			<desc>ERP System Security domain</desc>
			<v:textBlock v:margins="rect(4,4,4,4)" v:tabSpace="42.5197"/>
			<v:textRect cx="64.4882" cy="190.077" width="128.98" height="19.5768"/>
			<rect x="0" y="180.288" width="128.976" height="19.5768" class="st2"/>
			<text x="4" y="192.48" class="st3" v:langID="1040"><v:paragraph/><v:tabList/>ERP System Security domain</text>		</g>
		<g id="shape140-59" v:mID="140" v:groupContext="shape" transform="translate(409.205,-14.2453) rotate(30) scale(-1,1)">
			<title>Foglio.140</title>
			<path d="M5.1 199.87 L0 194.76 L5.1 189.66" class="st5"/>
		</g>
		<g id="shape141-62" v:mID="141" v:groupContext="shape" transform="translate(299.078,-83.7192) rotate(30)">
			<title>Foglio.141</title>
			<path d="M0 199.87 L129.05 199.87" class="st5"/>
		</g>
		<g id="shape142-65" v:mID="142" v:groupContext="shape" transform="translate(329.539,-32.1669)">
			<title>Foglio.142</title>
			<desc>Resource Principal: Legacy System Account FinancialAppUser</desc>
			<v:textBlock v:margins="rect(4,4,4,4)" v:tabSpace="42.5197"/>
			<v:textRect cx="90.7087" cy="190.077" width="181.42" height="19.5768"/>
			<rect x="0" y="180.288" width="181.417" height="19.5768" class="st2"/>
			<text x="14.24" y="187.68" class="st3" v:langID="1040"><v:paragraph v:horizAlign="2"/><v:tabList/>Resource Principal: <tspan
						class="st6">Legacy System Account </tspan><tspan x="114.28" dy="1.2em" class="st6">FinancialAppUser</tspan></text>		</g>
		<g id="shape143-70" v:mID="143" v:groupContext="shape" transform="translate(126.13,166.68) rotate(-90)">
			<title>Foglio.143</title>
			<path d="M0 199.87 L28.35 199.87" class="st4"/>
		</g>
		<g id="shape144-73" v:mID="144" v:groupContext="shape" transform="translate(340.169,338.198) rotate(180)">
			<title>Foglio.144</title>
			<path d="M0 199.87 L14.17 199.87" class="st4"/>
		</g>
		<g id="shape145-76" v:mID="145" v:groupContext="shape" transform="translate(340.169,366.545) rotate(180)">
			<title>Foglio.145</title>
			<path d="M0 199.87 L14.17 199.87" class="st4"/>
		</g>
		<g id="shape146-79" v:mID="146" v:groupContext="shape" transform="translate(788.774,166.68) rotate(90) scale(-1,1)">
			<title>Foglio.146</title>
			<path d="M0 199.87 L28.35 199.87" class="st4"/>
		</g>
		<g id="shape147-82" v:mID="147" v:groupContext="shape" transform="translate(574.736,338.198) scale(1,-1)">
			<title>Foglio.147</title>
			<path d="M0 199.87 L14.17 199.87" class="st4"/>
		</g>
		<g id="shape148-85" v:mID="148" v:groupContext="shape" transform="translate(574.736,366.545) scale(1,-1)">
			<title>Foglio.148</title>
			<path d="M0 199.87 L14.17 199.87" class="st4"/>
		</g>
		<g id="shape149-88" v:mID="149" v:groupContext="shape" transform="translate(420.248,-6.38929)">
			<title>Foglio.149</title>
			<desc>Legacy System Security domain</desc>
			<v:textBlock v:margins="rect(4,4,4,4)" v:tabSpace="42.5197"/>
			<v:textRect cx="70.8661" cy="190.077" width="141.74" height="19.5768"/>
			<rect x="0" y="180.288" width="141.732" height="19.5768" class="st2"/>
			<text x="4" y="192.48" class="st3" v:langID="1040"><v:paragraph/><v:tabList/>Legacy System Security domain</text>		</g>
	</g>
</svg>
