<?xml version="1.0" encoding="UTF-8" standalone="no"?>
<!DOCTYPE svg PUBLIC "-//W3C//DTD SVG 1.0//EN" "http://www.w3.org/TR/2001/REC-SVG-20010904/DTD/svg10.dtd">
<!-- Generato da Microsoft Visio 11.0, SVG Export, v1.0 conn-109.svg Pagina 1 -->
<svg xmlns="http://www.w3.org/2000/svg" xmlns:v="http://schemas.microsoft.com/visio/2003/SVGExtensions/" width="8.87827in"
		height="7.26409in" viewBox="0 0 639.235 523.015" xml:space="preserve" color-interpolation-filters="sRGB" class="st11">
	<v:documentProperties v:langID="1040" v:metric="true" v:viewMarkup="false">
		<v:userDefs>
			<v:ud v:nameU="MBSAAddinOutlineVisible" v:prompt="" v:val="VT0(1):26"/>
		</v:userDefs>
	</v:documentProperties>

	<style type="text/css">
	<![CDATA[
		.st1 {fill:#ffffff;stroke:none;stroke-linecap:round;stroke-linejoin:round;stroke-width:0.72}
		.st2 {fill:#173660;stroke:none;stroke-linecap:round;stroke-linejoin:round;stroke-width:0.72}
		.st3 {fill:none;stroke:none;stroke-linecap:round;stroke-linejoin:round;stroke-width:0.72}
		.st4 {fill:#ffffff;font-family:Arial;font-size:0.666664em}
		.st5 {fill:#000000;font-family:Arial;font-size:0.666664em}
		.st6 {stroke:#f28226;stroke-linecap:round;stroke-linejoin:round;stroke-width:2.16}
		.st7 {stroke:#f28226;stroke-dasharray:0,6.48;stroke-linecap:round;stroke-linejoin:round;stroke-width:2.16}
		.st8 {font-size:1em}
		.st9 {stroke:#8c8c8c;stroke-dasharray:0,6.48;stroke-linecap:round;stroke-linejoin:round;stroke-width:2.16}
		.st10 {fill:#facca7;stroke:none;stroke-linecap:round;stroke-linejoin:round;stroke-width:0.72}
		.st11 {fill:none;fill-rule:evenodd;font-size:12;overflow:visible;stroke-linecap:square;stroke-miterlimit:3}
	]]>
	</style>

	<g v:mID="0" v:index="1" v:groupContext="foregroundPage">
		<title>Pagina 1</title>
		<v:pageProperties v:drawingScale="0.0393701" v:pageScale="0.0393701" v:drawingUnits="24" v:shadowOffsetX="8.50394"
				v:shadowOffsetY="-8.50394"/>
		<g id="shape139-1" v:mID="139" v:groupContext="shape" transform="translate(0.72,-0.72)">
			<title>Foglio.139</title>
			<rect x="0" y="1.44" width="637.795" height="521.575" class="st1"/>
		</g>
		<g id="shape2-3" v:mID="2" v:groupContext="shape" transform="translate(9.22394,-473.317)">
			<title>Foglio.2</title>
			<rect x="0" y="485.376" width="85.0394" height="37.6393" rx="8.50394" ry="8.50394" class="st2"/>
		</g>
		<g id="shape3-5" v:mID="3" v:groupContext="shape" transform="translate(23.3972,-482.087)">
			<title>Foglio.3</title>
			<desc>Deployer</desc>
			<v:textBlock v:margins="rect(4,4,4,4)" v:tabSpace="42.5197"/>
			<v:textRect cx="27.2835" cy="513.226" width="54.57" height="19.5768"/>
			<rect x="0" y="503.438" width="54.5669" height="19.5768" class="st3"/>
			<text x="4" y="515.63" class="st4" v:langID="1040"><v:paragraph/><v:tabList/>Deployer</text>		</g>
		<g id="shape19-8" v:mID="19" v:groupContext="shape" transform="translate(171.933,-388.624) scale(-1,1)">
			<title>Foglio.19</title>
			<desc>1. pushes a message (private contract)</desc>
			<v:textBlock v:margins="rect(4,4,4,4)" v:tabSpace="42.5197"/>
			<v:textRect cx="73.7008" cy="516.061" width="147.41" height="13.9075"/>
			<rect x="0" y="509.107" width="147.402" height="13.9075" class="st3"/>
			<text x="-143.4" y="518.46" transform="scale(-1,1)" class="st5" v:langID="1040"><v:paragraph/><v:tabList/>1. pushes a message (private contract)</text>		</g>
		<g id="shape10-11" v:mID="10" v:groupContext="shape" transform="translate(30.2003,670.853) scale(1,-1)">
			<title>Foglio.10</title>
			<path d="M5.1 523.01 L0 517.91 L5.1 512.81" class="st6"/>
		</g>
		<g id="shape23-14" v:mID="23" v:groupContext="shape" transform="translate(38.7043,675.955) scale(1,-1)">
			<title>Foglio.23</title>
			<path d="M0 523.01 L121.89 523.01" class="st7"/>
		</g>
		<g id="shape11-17" v:mID="11" v:groupContext="shape" transform="translate(237.413,-466.545)">
			<title>Foglio.11</title>
			<rect x="0" y="478.015" width="144.567" height="45" rx="8.50394" ry="8.50394" class="st2"/>
		</g>
		<g id="shape12-19" v:mID="12" v:groupContext="shape" transform="translate(246.46,-481.72)">
			<title>Foglio.12</title>
			<desc>MessageEndpointFactory (from app server)</desc>
			<v:textBlock v:margins="rect(4,4,4,4)" v:tabSpace="42.5197"/>
			<v:textRect cx="50.752" cy="513.226" width="101.51" height="19.5768"/>
			<rect x="0" y="503.438" width="101.504" height="19.5768" class="st3"/>
			<text x="4" y="510.83" class="st4" v:langID="1040"><v:paragraph/><v:tabList/>MessageEndpointFactory <tspan x="4"
						dy="1.2em" class="st8">(</tspan>from app server)</text>		</g>
		<g id="shape6-23" v:mID="6" v:groupContext="shape" transform="translate(-498.2,510.956) rotate(-90)">
			<title>Foglio.6</title>
			<path d="M0 523.01 L454.96 523.01" class="st9"/>
		</g>
		<g id="shape16-26" v:mID="16" v:groupContext="shape" transform="translate(-355.051,510.956) rotate(-90)">
			<title>Foglio.16</title>
			<path d="M0 523.01 L454.96 523.01" class="st9"/>
		</g>
		<g id="shape17-29" v:mID="17" v:groupContext="shape" transform="translate(-224.657,510.956) rotate(-90)">
			<title>Foglio.17</title>
			<path d="M0 523.01 L454.96 523.01" class="st9"/>
		</g>
		<g id="shape18-32" v:mID="18" v:groupContext="shape" transform="translate(-94.2633,510.956) rotate(-90)">
			<title>Foglio.18</title>
			<path d="M0 523.01 L462.05 523.01" class="st9"/>
		</g>
		<g id="shape20-35" v:mID="20" v:groupContext="shape" transform="translate(37.5477,510.956) rotate(-90)">
			<title>Foglio.20</title>
			<path d="M0 523.01 L462.05 523.01" class="st9"/>
		</g>
		<g id="shape7-38" v:mID="7" v:groupContext="shape" transform="translate(171.933,-353.633) scale(-1,1)">
			<title>Foglio.7</title>
			<rect x="0" y="491.834" width="11.3386" height="31.1811" class="st10"/>
		</g>
		<g id="shape21-40" v:mID="21" v:groupContext="shape" transform="translate(290.988,730.38) rotate(180)">
			<title>Foglio.21</title>
			<path d="M5.1 523.01 L0 517.91 L5.1 512.81" class="st6"/>
		</g>
		<g id="shape22-43" v:mID="22" v:groupContext="shape" transform="translate(288.153,735.483) rotate(180)">
			<title>Foglio.22</title>
			<path d="M0 523.01 L259.09 523.01" class="st6"/>
		</g>
		<g id="shape26-46" v:mID="26" v:groupContext="shape" transform="translate(17.7279,-198.437)">
			<title>Foglio.26</title>
			<rect x="0" y="396.164" width="11.3386" height="126.85" class="st10"/>
		</g>
		<g id="shape29-48" v:mID="29" v:groupContext="shape" transform="translate(416.846,798.412) rotate(180)">
			<title>Foglio.29</title>
			<path d="M5.1 523.01 L0 517.91 L5.1 512.81" class="st6"/>
		</g>
		<g id="shape30-51" v:mID="30" v:groupContext="shape" transform="translate(408.626,803.514) rotate(180)">
			<title>Foglio.30</title>
			<path d="M0 523.01 L106.3 523.01" class="st7"/>
		</g>
		<g id="shape31-54" v:mID="31" v:groupContext="shape" transform="translate(290.988,-231.035)">
			<title>Foglio.31</title>
			<rect x="0" y="491.834" width="11.3386" height="31.1811" class="st10"/>
		</g>
		<g id="shape140-56" v:mID="140" v:groupContext="shape" transform="translate(30.2003,-314.214)">
			<title>Foglio.140</title>
			<desc>2. createEndpoint(null)</desc>
			<v:textBlock v:margins="rect(4,4,4,4)" v:tabSpace="42.5197"/>
			<v:textRect cx="44.2913" cy="516.061" width="88.59" height="13.9075"/>
			<rect x="0" y="509.107" width="88.5827" height="13.9075" class="st3"/>
			<text x="4" y="518.46" class="st5" v:langID="1040"><v:paragraph/><v:tabList/>2. createEndpoint(null)</text>		</g>
		<g id="shape141-59" v:mID="141" v:groupContext="shape" transform="translate(303.744,-246.05)">
			<title>Foglio.141</title>
			<desc>3. create proxy endpoint</desc>
			<v:textBlock v:margins="rect(4,4,4,4)" v:tabSpace="42.5197"/>
			<v:textRect cx="58.4646" cy="516.061" width="116.93" height="13.9075"/>
			<rect x="0" y="509.107" width="116.929" height="13.9075" class="st3"/>
			<text x="4" y="518.46" class="st5" v:langID="1040"><v:paragraph/><v:tabList/>3. create proxy endpoint</text>		</g>
		<g id="shape1-62" v:mID="1" v:groupContext="shape" transform="translate(139.618,-465.602)">
			<title>Foglio.1</title>
			<rect x="0" y="478.015" width="85.0394" height="45" rx="8.50394" ry="8.50394" class="st2"/>
		</g>
		<g id="shape4-64" v:mID="4" v:groupContext="shape" transform="translate(153.791,-480.931)">
			<title>Foglio.4</title>
			<desc>Message Provider</desc>
			<v:textBlock v:margins="rect(4,4,4,4)" v:tabSpace="42.5197"/>
			<v:textRect cx="27.2835" cy="513.226" width="54.57" height="19.5768"/>
			<rect x="0" y="503.438" width="54.5669" height="19.5768" class="st3"/>
			<text x="4" y="510.83" class="st4" v:langID="1040"><v:paragraph/><v:tabList/>Message <tspan x="4" dy="1.2em"
						class="st8">Provider</tspan></text>		</g>
		<g id="shape142-68" v:mID="142" v:groupContext="shape" transform="translate(9.22394,-465.602)">
			<title>Foglio.142</title>
			<rect x="0" y="478.015" width="116.22" height="45" rx="8.50394" ry="8.50394" class="st2"/>
		</g>
		<g id="shape143-70" v:mID="143" v:groupContext="shape" transform="translate(21.1058,-480.931)">
			<title>Foglio.143</title>
			<desc>ResourceAdapter (from adapter)</desc>
			<v:textBlock v:margins="rect(4,4,4,4)" v:tabSpace="42.5197"/>
			<v:textRect cx="37.2874" cy="513.226" width="74.58" height="19.5768"/>
			<rect x="0" y="503.438" width="74.5748" height="19.5768" class="st3"/>
			<text x="4" y="510.83" class="st4" v:langID="1040"><v:paragraph/><v:tabList/>ResourceAdapter <tspan x="4" dy="1.2em"
						class="st8">(</tspan>from adapter)</text>		</g>
		<g id="shape27-74" v:mID="27" v:groupContext="shape" transform="translate(417.413,891.247) rotate(180)">
			<title>Foglio.27</title>
			<path d="M5.1 523.01 L0 517.91 L5.1 512.81" class="st6"/>
		</g>
		<g id="shape28-77" v:mID="28" v:groupContext="shape" transform="translate(417.413,896.349) rotate(180)">
			<title>Foglio.28</title>
			<path d="M0 523.01 L388.35 523.01" class="st6"/>
		</g>
		<g id="shape32-80" v:mID="32" v:groupContext="shape" transform="translate(17.7279,-37.5704)">
			<title>Foglio.32</title>
			<rect x="0" y="396.164" width="11.3386" height="126.85" class="st10"/>
		</g>
		<g id="shape33-82" v:mID="33" v:groupContext="shape" transform="translate(549.295,948.648) rotate(180)">
			<title>Foglio.33</title>
			<path d="M5.1 523.01 L0 517.91 L5.1 512.81" class="st6"/>
		</g>
		<g id="shape34-85" v:mID="34" v:groupContext="shape" transform="translate(541.074,953.751) rotate(180)">
			<title>Foglio.34</title>
			<path d="M0 523.01 L106.3 523.01" class="st7"/>
		</g>
		<g id="shape35-88" v:mID="35" v:groupContext="shape" transform="translate(423.437,-80.7987)">
			<title>Foglio.35</title>
			<rect x="0" y="491.834" width="11.3386" height="31.1811" class="st10"/>
		</g>
		<g id="shape36-90" v:mID="36" v:groupContext="shape" transform="translate(30.2003,-153.348)">
			<title>Foglio.36</title>
			<desc>4. deliver message</desc>
			<v:textBlock v:margins="rect(4,4,4,4)" v:tabSpace="42.5197"/>
			<v:textRect cx="44.2913" cy="516.061" width="88.59" height="13.9075"/>
			<rect x="0" y="509.107" width="88.5827" height="13.9075" class="st3"/>
			<text x="4" y="518.46" class="st5" v:langID="1040"><v:paragraph/><v:tabList/>4. deliver message</text>		</g>
		<g id="shape37-93" v:mID="37" v:groupContext="shape" transform="translate(436.192,-95.8135)">
			<title>Foglio.37</title>
			<desc>5. deliver message</desc>
			<v:textBlock v:margins="rect(4,4,4,4)" v:tabSpace="42.5197"/>
			<v:textRect cx="58.4646" cy="516.061" width="116.93" height="13.9075"/>
			<rect x="0" y="509.107" width="116.929" height="13.9075" class="st3"/>
			<text x="4" y="518.46" class="st5" v:langID="1040"><v:paragraph/><v:tabList/>5. deliver message</text>		</g>
		<g id="shape5-96" v:mID="5" v:groupContext="shape" transform="translate(394.736,-467.768)">
			<title>Foglio.5</title>
			<rect x="0" y="478.015" width="99.2126" height="45" rx="8.50394" ry="8.50394" class="st2"/>
		</g>
		<g id="shape9-98" v:mID="9" v:groupContext="shape" transform="translate(406.074,-479.208)">
			<title>Foglio.9</title>
			<desc>Proxy endpoint instance (from app server)</desc>
			<v:textBlock v:margins="rect(4,4,4,4)" v:tabSpace="42.5197"/>
			<v:textRect cx="32.5984" cy="508.842" width="65.2" height="28.3465"/>
			<rect x="0" y="494.668" width="65.1969" height="28.3465" class="st3"/>
			<text x="4" y="501.64" class="st4" v:langID="1040"><v:paragraph/><v:tabList/>Proxy endpoint <tspan x="4" dy="1.2em"
						class="st8">instance </tspan>(from <tspan x="4" dy="1.2em" class="st8">app server</tspan>)</text>		</g>
		<g id="shape13-103" v:mID="13" v:groupContext="shape" transform="translate(508.122,-466.545)">
			<title>Foglio.13</title>
			<rect x="0" y="478.015" width="107.717" height="45" rx="8.50394" ry="8.50394" class="st2"/>
		</g>
		<g id="shape14-105" v:mID="14" v:groupContext="shape" transform="translate(520.003,-481.72)">
			<title>Foglio.14</title>
			<desc>actual endpoint instance</desc>
			<v:textBlock v:margins="rect(4,4,4,4)" v:tabSpace="42.5197"/>
			<v:textRect cx="37.2874" cy="513.226" width="74.58" height="19.5768"/>
			<rect x="0" y="503.438" width="74.5748" height="19.5768" class="st3"/>
			<text x="4" y="510.83" class="st4" v:langID="1040"><v:paragraph/><v:tabList/>actual endpoint <tspan x="4" dy="1.2em"
						class="st8">instance</tspan></text>		</g>
	</g>
</svg>
