<?xml version="1.0" encoding="UTF-8" standalone="no"?>
<!DOCTYPE svg PUBLIC "-//W3C//DTD SVG 1.0//EN" "http://www.w3.org/TR/2001/REC-SVG-20010904/DTD/svg10.dtd">
<!-- Generato da Microsoft Visio 11.0, SVG Export, v1.0 conn-43.svg Pagina 1 -->
<svg xmlns="http://www.w3.org/2000/svg" xmlns:v="http://schemas.microsoft.com/visio/2003/SVGExtensions/" width="9.15386in"
		height="9.74441in" viewBox="0 0 659.078 701.597" xml:space="preserve" color-interpolation-filters="sRGB" class="st18">
	<v:documentProperties v:langID="1040" v:metric="true" v:viewMarkup="false">
		<v:userDefs>
			<v:ud v:nameU="MBSAAddinOutlineVisible" v:prompt="" v:val="VT0(1):26"/>
		</v:userDefs>
	</v:documentProperties>

	<style type="text/css">
	<![CDATA[
		.st1 {fill:#ffffff;stroke:none;stroke-linecap:round;stroke-linejoin:round;stroke-width:0.72}
		.st2 {stroke:#8c8c8c;stroke-dasharray:0,6.48;stroke-linecap:round;stroke-linejoin:round;stroke-opacity:0.5;stroke-width:2.16}
		.st3 {fill:none;stroke:none;stroke-linecap:round;stroke-linejoin:round;stroke-width:0.72}
		.st4 {fill:#000000;font-family:Arial;font-size:0.666664em}
		.st5 {font-size:1em}
		.st6 {fill:#000000;font-family:Arial;font-size:0.666664em;font-weight:bold}
		.st7 {stroke:#f28226;stroke-linecap:round;stroke-linejoin:round;stroke-width:2.16}
		.st8 {fill:#173660;stroke:none;stroke-linecap:round;stroke-linejoin:round;stroke-width:0.72}
		.st9 {fill:#ffffff;font-family:Arial;font-size:0.666664em}
		.st10 {fill:#f28226;stroke:none;stroke-linecap:round;stroke-linejoin:round;stroke-width:0.72}
		.st11 {fill:#facca7;stroke:none;stroke-linecap:round;stroke-linejoin:round;stroke-width:0.72}
		.st12 {font-size:1em;font-weight:normal}
		.st13 {fill:#3475cd;stroke:none;stroke-linecap:round;stroke-linejoin:round;stroke-width:0.72}
		.st14 {fill:#729fdc;stroke:none;stroke-linecap:round;stroke-linejoin:round;stroke-width:0.72}
		.st15 {stroke:#f28226;stroke-dasharray:0,6.48;stroke-linecap:round;stroke-linejoin:round;stroke-width:2.16}
		.st16 {fill:#ffffff;fill-opacity:0;stroke:#8c8c8c;stroke-dasharray:0,6.48;stroke-linecap:round;stroke-linejoin:round;stroke-width:2.16}
		.st17 {fill:#ffffff;fill-opacity:0;stroke:#d9680d;stroke-dasharray:0,6.48;stroke-linecap:round;stroke-linejoin:round;stroke-width:2.16}
		.st18 {fill:none;fill-rule:evenodd;font-size:12;overflow:visible;stroke-linecap:square;stroke-miterlimit:3}
	]]>
	</style>

	<g v:mID="0" v:index="1" v:groupContext="foregroundPage">
		<title>Pagina 1</title>
		<v:pageProperties v:drawingScale="0.0393701" v:pageScale="0.0393701" v:drawingUnits="24" v:shadowOffsetX="8.50394"
				v:shadowOffsetY="-8.50394"/>
		<g id="shape139-1" v:mID="139" v:groupContext="shape" transform="translate(0.72,-0.72)">
			<title>Foglio.139</title>
			<rect x="0" y="1.44" width="651.969" height="700.157" class="st1"/>
		</g>
		<g id="shape6-3" v:mID="6" v:groupContext="shape" transform="translate(-669.696,544.972) rotate(-90)">
			<title>Foglio.6</title>
			<path d="M0 701.6 L480.08 701.6" class="st2"/>
		</g>
		<g id="shape16-6" v:mID="16" v:groupContext="shape" transform="translate(-556.311,587.492) rotate(-90)">
			<title>Foglio.16</title>
			<path d="M0 701.6 L521.95 701.6" class="st2"/>
		</g>
		<g id="shape17-9" v:mID="17" v:groupContext="shape" transform="translate(-425.917,587.492) rotate(-90)">
			<title>Foglio.17</title>
			<path d="M0 701.6 L521.95 701.6" class="st2"/>
		</g>
		<g id="shape18-12" v:mID="18" v:groupContext="shape" transform="translate(-295.523,587.492) rotate(-90)">
			<title>Foglio.18</title>
			<path d="M0 701.6 L530.08 701.6" class="st2"/>
		</g>
		<g id="shape20-15" v:mID="20" v:groupContext="shape" transform="translate(-207.649,587.492) rotate(-90)">
			<title>Foglio.20</title>
			<path d="M0 701.6 L530.08 701.6" class="st2"/>
		</g>
		<g id="shape8-18" v:mID="8" v:groupContext="shape" transform="translate(-108.437,587.492) rotate(-90)">
			<title>Foglio.8</title>
			<path d="M0 701.6 L530.08 701.6" class="st2"/>
		</g>
		<g id="shape15-21" v:mID="15" v:groupContext="shape" transform="translate(-77.2554,587.492) rotate(-90)">
			<title>Foglio.15</title>
			<path d="M0 701.6 L530.08 701.6" class="st2"/>
		</g>
		<g id="shape3-24" v:mID="3" v:groupContext="shape" transform="translate(3.55465,-652.165)">
			<title>Foglio.3</title>
			<desc>Application Component</desc>
			<v:textBlock v:margins="rect(4,4,4,4)" v:tabSpace="42.5197"/>
			<v:textRect cx="27.2835" cy="691.809" width="54.57" height="19.5768"/>
			<rect x="0" y="682.021" width="54.5669" height="19.5768" class="st3"/>
			<text x="4" y="689.41" class="st4" v:langID="1040"><v:paragraph/><v:tabList/>Application <tspan x="4" dy="1.2em"
						class="st5">Component</tspan></text>		</g>
		<g id="shape19-28" v:mID="19" v:groupContext="shape" transform="translate(39.6964,-599.096)">
			<title>Foglio.19</title>
			<desc>dose()</desc>
			<v:textBlock v:margins="rect(4,4,4,4)" v:tabSpace="42.5197"/>
			<v:textRect cx="32.9528" cy="694.644" width="65.91" height="13.9075"/>
			<rect x="0" y="687.69" width="65.9055" height="13.9075" class="st3"/>
			<text x="4" y="697.04" class="st6" v:langID="1040"><v:paragraph/><v:tabList/>dose()</text>		</g>
		<g id="shape10-31" v:mID="10" v:groupContext="shape" transform="translate(136.783,802.664) rotate(180)">
			<title>Foglio.10</title>
			<path d="M5.1 701.6 L0 696.5 L5.1 691.39" class="st7"/>
		</g>
		<g id="shape23-34" v:mID="23" v:groupContext="shape" transform="translate(133.948,807.766) rotate(180)">
			<title>Foglio.23</title>
			<path d="M0 701.6 L96.38 701.6" class="st7"/>
		</g>
		<g id="shape1-37" v:mID="1" v:groupContext="shape" transform="translate(87.8854,-635.681)">
			<title>Foglio.1</title>
			<rect x="0" y="654.398" width="116.22" height="47.1997" rx="8.50394" ry="8.50394" class="st8"/>
		</g>
		<g id="shape4-39" v:mID="4" v:groupContext="shape" transform="translate(93.5546,-648.593)">
			<title>Foglio.4</title>
			<desc>jakarta.resource.cci.ConnectionFactory</desc>
			<v:textBlock v:margins="rect(4,4,4,4)" v:tabSpace="42.5197"/>
			<v:textRect cx="40.3937" cy="690.706" width="80.79" height="21.7829"/>
			<rect x="0" y="679.815" width="80.7874" height="21.7829" class="st3"/>
			<text x="4" y="688.31" class="st9" v:langID="1040"><v:paragraph/><v:tabList/>jakarta.resource.cci.<tspan x="4"
						dy="1.2em" class="st5">ConnectionFactory</tspan></text>		</g>
		<g id="shape5-43" v:mID="5" v:groupContext="shape" transform="translate(216.153,-635.681)">
			<title>Foglio.5</title>
			<rect x="0" y="654.398" width="116.22" height="47.1997" rx="8.50394" ry="8.50394" class="st10"/>
		</g>
		<g id="shape9-45" v:mID="9" v:groupContext="shape" transform="translate(240.519,-648.593)">
			<title>Foglio.9</title>
			<desc>Application Server</desc>
			<v:textBlock v:margins="rect(4,4,4,4)" v:tabSpace="42.5197"/>
			<v:textRect cx="26.6575" cy="690.706" width="53.32" height="21.7829"/>
			<rect x="0" y="679.815" width="53.315" height="21.7829" class="st3"/>
			<text x="4" y="688.31" class="st9" v:langID="1040"><v:paragraph/><v:tabList/>Application <tspan x="4" dy="1.2em"
						class="st5">Server</tspan></text>		</g>
		<g id="shape21-49" v:mID="21" v:groupContext="shape" transform="translate(584.657,802.664) rotate(180)">
			<title>Foglio.21</title>
			<path d="M5.1 701.6 L0 696.5 L5.1 691.39" class="st7"/>
		</g>
		<g id="shape22-52" v:mID="22" v:groupContext="shape" transform="translate(584.657,807.766) rotate(180)">
			<title>Foglio.22</title>
			<path d="M0 701.6 L433.7 701.6" class="st7"/>
		</g>
		<g id="shape32-55" v:mID="32" v:groupContext="shape" transform="translate(26.2318,-99.9326)">
			<title>Foglio.32</title>
			<rect x="0" y="185.692" width="11.3386" height="515.906" class="st11"/>
		</g>
		<g id="shape34-57" v:mID="34" v:groupContext="shape" transform="translate(139.618,-147.071)">
			<title>Foglio.34</title>
			<rect x="0" y="251.162" width="11.3386" height="450.435" class="st11"/>
		</g>
		<g id="shape140-59" v:mID="140" v:groupContext="shape" transform="translate(150.956,-600.38)">
			<title>Foglio.140</title>
			<desc>Internal: Resource Adapter implementation specific</desc>
			<v:textBlock v:margins="rect(4,4,4,4)" v:tabSpace="42.5197"/>
			<v:textRect cx="128.976" cy="694.644" width="257.96" height="13.9075"/>
			<rect x="0" y="687.69" width="257.953" height="13.9075" class="st3"/>
			<text x="4" y="697.04" class="st6" v:langID="1040"><v:paragraph/><v:tabList/>Internal:<tspan class="st12"> </tspan><tspan
						class="st12">Resource Adapter implementation specific</tspan></text>		</g>
		<g id="shape143-64" v:mID="143" v:groupContext="shape" transform="translate(581.822,1120.73) rotate(180)">
			<title>Foglio.143</title>
			<path d="M0 701.6 L297.64 701.6" class="st7"/>
		</g>
		<g id="shape144-67" v:mID="144" v:groupContext="shape" transform="translate(584.657,1115.48) rotate(180)">
			<title>Foglio.144</title>
			<path d="M5.1 701.6 L0 696.5 L5.1 691.39" class="st7"/>
		</g>
		<g id="shape145-70" v:mID="145" v:groupContext="shape" transform="translate(475.182,-285.301) scale(-1,1)">
			<title>Foglio.145</title>
			<desc>ManagedConnection.cleanup</desc>
			<v:textBlock v:margins="rect(4,4,4,4)" v:tabSpace="42.5197"/>
			<v:textRect cx="94.0813" cy="694.644" width="188.17" height="13.9075"/>
			<rect x="0" y="687.69" width="188.163" height="13.9075" class="st3"/>
			<text x="-184.16" y="697.04" transform="scale(-1,1)" class="st4" v:langID="1040"><v:paragraph/><v:tabList/>ManagedConnection.cleanup</text>		</g>
		<g id="shape2-73" v:mID="2" v:groupContext="shape" transform="translate(92.846,-686.704)">
			<title>Foglio.2</title>
			<desc>Resource Adapter</desc>
			<v:textBlock v:margins="rect(4,4,4,4)" v:tabSpace="42.5197"/>
			<v:textRect cx="38.3953" cy="695.928" width="76.8" height="11.3386"/>
			<rect x="0" y="690.259" width="76.7906" height="11.3386" class="st3"/>
			<text x="4" y="698.33" class="st4" v:langID="1040"><v:paragraph/><v:tabList/>Resource Adapter</text>		</g>
		<g id="shape48-76" v:mID="48" v:groupContext="shape" transform="translate(482.61,-686.704)">
			<title>Foglio.48</title>
			<desc>Resource Adapter</desc>
			<v:textBlock v:margins="rect(4,4,4,4)" v:tabSpace="42.5197"/>
			<v:textRect cx="38.3953" cy="695.928" width="76.8" height="11.3386"/>
			<rect x="0" y="690.259" width="76.7906" height="11.3386" class="st3"/>
			<text x="4" y="698.33" class="st4" v:langID="1040"><v:paragraph/><v:tabList/>Resource Adapter</text>		</g>
		<g id="shape7-79" v:mID="7" v:groupContext="shape" transform="translate(587.492,-468.437)">
			<title>Foglio.7</title>
			<rect x="0" y="568.369" width="11.3386" height="133.228" class="st11"/>
		</g>
		<g id="shape11-81" v:mID="11" v:groupContext="shape" transform="translate(345.129,-636.67)">
			<title>Foglio.11</title>
			<rect x="0" y="654.398" width="116.22" height="47.1997" rx="8.50394" ry="8.50394" class="st8"/>
		</g>
		<g id="shape12-83" v:mID="12" v:groupContext="shape" transform="translate(371.622,-649.47)">
			<title>Foglio.12</title>
			<desc>Transaction Manager</desc>
			<v:textBlock v:margins="rect(4,4,4,4)" v:tabSpace="42.5197"/>
			<v:textRect cx="37.2874" cy="690.706" width="74.58" height="21.7829"/>
			<rect x="0" y="679.815" width="74.5748" height="21.7829" class="st3"/>
			<text x="4" y="688.31" class="st9" v:langID="1040"><v:paragraph/><v:tabList/>Transaction <tspan x="4" dy="1.2em"
						class="st5">Manager</tspan></text>		</g>
		<g id="shape13-87" v:mID="13" v:groupContext="shape" transform="translate(475.523,-636.67)">
			<title>Foglio.13</title>
			<rect x="0" y="654.398" width="168.661" height="47.1997" rx="8.50394" ry="8.50394" class="st8"/>
		</g>
		<g id="shape14-89" v:mID="14" v:groupContext="shape" transform="translate(487.405,-646.021)">
			<title>Foglio.14</title>
			<desc>ManagedConnectionFactory XAResources ManagedConnection</desc>
			<v:textBlock v:margins="rect(4,4,4,4)" v:tabSpace="42.5197"/>
			<v:textRect cx="59.9646" cy="685.975" width="119.93" height="31.2451"/>
			<rect x="0" y="670.352" width="119.929" height="31.2451" class="st3"/>
			<text x="4" y="678.78" class="st9" v:langID="1040"><v:paragraph/><v:tabList/>ManagedConnectionFactory<v:newlineChar/><tspan
						x="4" dy="1.2em" class="st5">XAResources<v:newlineChar/></tspan><tspan x="4" dy="1.2em" class="st5">ManagedConnection</tspan></text>		</g>
		<g id="shape27-94" v:mID="27" v:groupContext="shape" transform="translate(505.996,-515.208)">
			<title>Foglio.27</title>
			<rect x="0" y="657.66" width="152.362" height="43.937" rx="8.50394" ry="8.50394" class="st13"/>
		</g>
		<g id="shape28-96" v:mID="28" v:groupContext="shape" transform="translate(513.451,-525.395)">
			<title>Foglio.28</title>
			<desc>Application server hooks up a candidate connection set from t...</desc>
			<v:textBlock v:margins="rect(4,4,4,4)" v:tabSpace="42.5197"/>
			<v:textRect cx="55.2275" cy="687.557" width="110.46" height="28.0807"/>
			<rect x="0" y="673.517" width="110.455" height="28.0807" class="st3"/>
			<text x="4" y="680.36" class="st9" v:langID="1040"><v:paragraph/><v:tabList/>Application server hooks up <tspan x="4"
						dy="1.2em" class="st5">a candidate connection set </tspan><tspan x="4" dy="1.2em" class="st5">from the connection pool</tspan></text>		</g>
		<g id="shape31-101" v:mID="31" v:groupContext="shape" transform="translate(227.492,-217.987)">
			<title>Foglio.31</title>
			<rect x="0" y="667.582" width="291.969" height="34.0157" rx="8.50394" ry="8.50394" class="st8"/>
		</g>
		<g id="shape33-103" v:mID="33" v:groupContext="shape" transform="translate(236.245,-223.656)">
			<title>Foglio.33</title>
			<desc>Application Server returns ManagedConnection instance to the ...</desc>
			<v:textBlock v:margins="rect(4,4,4,4)" v:tabSpace="42.5197"/>
			<v:textRect cx="106.174" cy="688.974" width="212.35" height="25.2461"/>
			<rect x="0" y="676.351" width="212.349" height="25.2461" class="st3"/>
			<text x="4" y="686.57" class="st9" v:langID="1040"><v:paragraph/><v:tabList/>Application Server returns ManagedConnection instance <tspan
						x="4" dy="1.2em" class="st5">to the connection pool</tspan></text>		</g>
		<g id="shape36-107" v:mID="36" v:groupContext="shape" transform="translate(230.326,-413.994)">
			<title>Foglio.36</title>
			<rect x="0" y="673.251" width="136.063" height="28.3465" rx="8.50394" ry="8.50394" class="st14"/>
		</g>
		<g id="shape37-109" v:mID="37" v:groupContext="shape" transform="translate(235.923,-419.663)">
			<title>Foglio.37</title>
			<desc>Case: JTA transaction</desc>
			<v:textBlock v:margins="rect(4,4,4,4)" v:tabSpace="42.5197"/>
			<v:textRect cx="68.0679" cy="691.676" width="136.14" height="19.8425"/>
			<rect x="0" y="681.755" width="136.136" height="19.8425" class="st3"/>
			<text x="4" y="694.08" class="st6" v:langID="1040"><v:paragraph/><v:tabList/>Case<tspan class="st12">: </tspan><tspan
						class="st12">JTA transaction</tspan></text>		</g>
		<g id="shape50-114" v:mID="50" v:groupContext="shape" transform="translate(402.673,1030.44) rotate(180)">
			<title>Foglio.50</title>
			<path d="M5.1 701.6 L0 696.5 L5.1 691.39" class="st7"/>
		</g>
		<g id="shape51-117" v:mID="51" v:groupContext="shape" transform="translate(402.673,1035.54) rotate(180)">
			<title>Foglio.51</title>
			<path d="M0 701.6 L115.65 701.6" class="st15"/>
		</g>
		<g id="shape52-120" v:mID="52" v:groupContext="shape" transform="translate(284.185,-373.571)">
			<title>Foglio.52</title>
			<desc>Transaction.enlistResource(XAResource)</desc>
			<v:textBlock v:margins="rect(4,4,4,4)" v:tabSpace="42.5197"/>
			<v:textRect cx="80.7874" cy="694.644" width="161.58" height="13.9075"/>
			<rect x="0" y="687.69" width="161.575" height="13.9075" class="st3"/>
			<text x="4" y="697.04" class="st4" v:langID="1040"><v:paragraph/><v:tabList/>Transaction.enlistResource(XAResource)</text>		</g>
		<g id="shape53-123" v:mID="53" v:groupContext="shape" transform="translate(621.507,1069.83) rotate(180)">
			<title>Foglio.53</title>
			<path d="M5.1 701.6 L0 696.5 L5.1 691.39" class="st7"/>
		</g>
		<g id="shape54-126" v:mID="54" v:groupContext="shape" transform="translate(615.838,1074.93) rotate(180)">
			<title>Foglio.54</title>
			<path d="M0 701.6 L200.41 701.6" class="st15"/>
		</g>
		<g id="shape55-129" v:mID="55" v:groupContext="shape" transform="translate(418.83,-328.804)">
			<title>Foglio.55</title>
			<desc>XAResource.start(XID)</desc>
			<v:textBlock v:margins="rect(4,4,4,4)" v:tabSpace="42.5197"/>
			<v:textRect cx="82.9134" cy="694.644" width="165.83" height="13.9075"/>
			<rect x="0" y="687.69" width="165.827" height="13.9075" class="st3"/>
			<text x="4" y="697.04" class="st4" v:langID="1040"><v:paragraph/><v:tabList/>XAResource.start(XID)</text>		</g>
		<g id="shape56-132" v:mID="56" v:groupContext="shape" transform="translate(218.988,-308.695)">
			<title>Foglio.56</title>
			<rect x="0" y="559.865" width="419.528" height="141.732" rx="11.3386" ry="11.3386" class="st16"/>
		</g>
		<g id="shape150-134" v:mID="150" v:groupContext="shape" transform="translate(278.515,933.492) scale(1,-1)">
			<title>Foglio.150</title>
			<path d="M0 701.6 L304.72 701.6" class="st7"/>
		</g>
		<g id="shape151-137" v:mID="151" v:groupContext="shape" transform="translate(278.515,928.389) scale(1,-1)">
			<title>Foglio.151</title>
			<path d="M5.1 701.6 L0 696.5 L5.1 691.39" class="st7"/>
		</g>
		<g id="shape152-140" v:mID="152" v:groupContext="shape" transform="translate(495.366,-474.106) scale(-1,1)">
			<title>Foglio.152</title>
			<desc>connectionClosed(ConnectionEvent: CONNECTION_CLOSED)</desc>
			<v:textBlock v:margins="rect(4,4,4,4)" v:tabSpace="42.5197"/>
			<v:textRect cx="121.181" cy="694.644" width="242.37" height="13.9075"/>
			<rect x="0" y="687.69" width="242.362" height="13.9075" class="st3"/>
			<text x="-238.36" y="697.04" transform="scale(-1,1)" class="st4" v:langID="1040"><v:paragraph/><v:tabList/>connectionClosed(ConnectionEvent: CONNECTION_CLOSED)</text>		</g>
		<g id="shape29-143" v:mID="29" v:groupContext="shape" transform="translate(270.011,-331.373)">
			<title>Foglio.29</title>
			<rect x="0" y="639.235" width="11.3386" height="62.3622" rx="5.66929" ry="5.66929" class="st17"/>
		</g>
	</g>
</svg>
