<?xml version="1.0" encoding="UTF-8" standalone="no"?>
<!DOCTYPE svg PUBLIC "-//W3C//DTD SVG 1.0//EN" "http://www.w3.org/TR/2001/REC-SVG-20010904/DTD/svg10.dtd">
<!-- Generato da Microsoft Visio 11.0, SVG Export, v1.0 conn-81.svg Pagina 1 -->
<svg xmlns="http://www.w3.org/2000/svg" xmlns:v="http://schemas.microsoft.com/visio/2003/SVGExtensions/" width="7.3015in"
		height="2.44126in" viewBox="0 0 525.708 175.771" xml:space="preserve" color-interpolation-filters="sRGB" class="st8">
	<v:documentProperties v:langID="1040" v:metric="true" v:viewMarkup="false">
		<v:userDefs>
			<v:ud v:nameU="MBSAAddinOutlineVisible" v:prompt="" v:val="VT0(1):26"/>
		</v:userDefs>
	</v:documentProperties>

	<style type="text/css">
	<![CDATA[
		.st1 {fill:#ffffff;stroke:none;stroke-linecap:round;stroke-linejoin:round;stroke-width:0.72}
		.st2 {fill:#facca7;stroke:none;stroke-linecap:round;stroke-linejoin:round;stroke-width:0.72}
		.st3 {fill:none;stroke:none;stroke-linecap:round;stroke-linejoin:round;stroke-width:0.72}
		.st4 {fill:#000000;font-family:Arial;font-size:0.666664em;font-weight:bold}
		.st5 {stroke:#f28226;stroke-linecap:round;stroke-linejoin:round;stroke-width:2.16}
		.st6 {fill:#173660;stroke:#000000;stroke-linecap:round;stroke-linejoin:round;stroke-width:0.72}
		.st7 {fill:#173660;fill-opacity:0;stroke:#000000;stroke-linecap:round;stroke-linejoin:round;stroke-width:1.2}
		.st8 {fill:none;fill-rule:evenodd;font-size:12;overflow:visible;stroke-linecap:square;stroke-miterlimit:3}
	]]>
	</style>

	<g v:mID="0" v:index="1" v:groupContext="foregroundPage">
		<title>Pagina 1</title>
		<v:pageProperties v:drawingScale="0.0393701" v:pageScale="0.0393701" v:drawingUnits="24" v:shadowOffsetX="8.50394"
				v:shadowOffsetY="-8.50394"/>
		<g id="shape1-1" v:mID="1" v:groupContext="shape" transform="translate(0.72,-0.72)">
			<title>Foglio.1</title>
			<rect x="0" y="1.44" width="514.63" height="174.331" class="st1"/>
		</g>
		<g id="shape2-3" v:mID="2" v:groupContext="shape" transform="translate(207.248,-142.452)">
			<title>Foglio.2</title>
			<rect x="0" y="150.303" width="96.7795" height="25.4674" rx="5.66929" ry="5.66929" class="st2"/>
		</g>
		<g id="shape3-5" v:mID="3" v:groupContext="shape" transform="translate(212.066,-145.287)">
			<title>Foglio.3</title>
			<desc>work started</desc>
			<v:textBlock v:margins="rect(4,4,4,4)" v:tabSpace="42.5197"/>
			<v:textRect cx="54.2126" cy="164.879" width="108.43" height="21.7829"/>
			<rect x="0" y="153.988" width="108.425" height="21.7829" class="st3"/>
			<text x="4" y="167.28" class="st4" v:langID="1040"><v:paragraph/><v:tabList/>work started</text>		</g>
		<g id="shape12-8" v:mID="12" v:groupContext="shape" transform="translate(404.525,197.181) rotate(-179.68)">
			<title>Foglio.12</title>
			<path d="M0 175.77 L101.48 175.77" class="st5"/>
		</g>
		<g id="shape13-11" v:mID="13" v:groupContext="shape" transform="translate(405.507,192.081) rotate(180)">
			<title>Foglio.13</title>
			<path d="M5.1 175.77 L0 170.67 L5.1 165.57" class="st5"/>
		</g>
		<g id="shape14-14" v:mID="14" v:groupContext="shape" transform="translate(311.822,-156.626)">
			<title>Foglio.14</title>
			<desc>work completes</desc>
			<v:textBlock v:margins="rect(4,4,4,4)" v:tabSpace="42.5197"/>
			<v:textRect cx="54.2126" cy="167.267" width="108.43" height="17.0079"/>
			<rect x="0" y="158.763" width="108.425" height="17.0079" class="st3"/>
			<text x="4" y="169.67" class="st4" v:langID="1040"><v:paragraph/><v:tabList/>work completes</text>		</g>
		<g id="shape29-17" v:mID="29" v:groupContext="shape" transform="translate(411.744,-142.452)">
			<title>Foglio.29</title>
			<rect x="0" y="150.303" width="96.7795" height="25.4674" rx="5.66929" ry="5.66929" class="st2"/>
		</g>
		<g id="shape30-19" v:mID="30" v:groupContext="shape" transform="translate(416.563,-142.452)">
			<title>Foglio.30</title>
			<desc>work completed</desc>
			<v:textBlock v:margins="rect(4,4,4,4)" v:tabSpace="42.5197"/>
			<v:textRect cx="54.2126" cy="164.879" width="108.43" height="21.7829"/>
			<rect x="0" y="153.988" width="108.425" height="21.7829" class="st3"/>
			<text x="4" y="167.28" class="st4" v:langID="1040"><v:paragraph/><v:tabList/>work completed</text>		</g>
		<g id="shape6-22" v:mID="6" v:groupContext="shape" transform="translate(207.791,-9.22394)">
			<title>Foglio.6</title>
			<rect x="0" y="150.303" width="96.7795" height="25.4674" rx="5.66929" ry="5.66929" class="st2"/>
		</g>
		<g id="shape7-24" v:mID="7" v:groupContext="shape" transform="translate(212.61,-12.0586)">
			<title>Foglio.7</title>
			<desc>work rejected</desc>
			<v:textBlock v:margins="rect(4,4,4,4)" v:tabSpace="42.5197"/>
			<v:textRect cx="54.2126" cy="164.879" width="108.43" height="21.7829"/>
			<rect x="0" y="153.988" width="108.425" height="21.7829" class="st3"/>
			<text x="4" y="167.28" class="st4" v:langID="1040"><v:paragraph/><v:tabList/>work rejected</text>		</g>
		<g id="shape8-27" v:mID="8" v:groupContext="shape" transform="translate(77.8024,138.069) rotate(-89.6799)">
			<title>Foglio.8</title>
			<path d="M0 175.77 L101.48 175.77" class="st5"/>
		</g>
		<g id="shape9-30" v:mID="9" v:groupContext="shape" transform="translate(82.902,139.051) rotate(-90)">
			<title>Foglio.9</title>
			<path d="M5.1 175.77 L0 170.67 L5.1 165.57" class="st5"/>
		</g>
		<g id="shape4-33" v:mID="4" v:groupContext="shape" transform="translate(207.791,-74.4208)">
			<title>Foglio.4</title>
			<rect x="0" y="150.303" width="96.7795" height="25.4674" rx="5.66929" ry="5.66929" class="st2"/>
		</g>
		<g id="shape5-35" v:mID="5" v:groupContext="shape" transform="translate(212.61,-77.2554)">
			<title>Foglio.5</title>
			<desc>work accepted</desc>
			<v:textBlock v:margins="rect(4,4,4,4)" v:tabSpace="42.5197"/>
			<v:textRect cx="54.2126" cy="164.879" width="108.43" height="21.7829"/>
			<rect x="0" y="153.988" width="108.425" height="21.7829" class="st3"/>
			<text x="4" y="167.28" class="st4" v:langID="1040"><v:paragraph/><v:tabList/>work accepted</text>		</g>
		<g id="shape11-38" v:mID="11" v:groupContext="shape" transform="translate(424.806,35.8696) rotate(90)">
			<title>Foglio.11</title>
			<path d="M5.1 175.77 L0 170.67 L5.1 165.57" class="st5"/>
		</g>
		<g id="shape10-41" v:mID="10" v:groupContext="shape" transform="translate(260.48,-110.704)">
			<title>Foglio.10</title>
			<desc>start</desc>
			<v:textBlock v:margins="rect(4,4,4,4)" v:tabSpace="42.5197"/>
			<v:textRect cx="12.9331" cy="167.267" width="25.87" height="17.0079"/>
			<rect x="0" y="158.763" width="25.8661" height="17.0079" class="st3"/>
			<text x="4" y="169.67" class="st4" v:langID="1040"><v:paragraph/><v:tabList/>start</text>		</g>
		<g id="shape15-44" v:mID="15" v:groupContext="shape" transform="translate(260.374,-51.1767)">
			<title>Foglio.15</title>
			<desc>reject</desc>
			<v:textBlock v:margins="rect(4,4,4,4)" v:tabSpace="42.5197"/>
			<v:textRect cx="14.7402" cy="167.267" width="29.49" height="17.0079"/>
			<rect x="0" y="158.763" width="29.4803" height="17.0079" class="st3"/>
			<text x="4" y="169.67" class="st4" v:langID="1040"><v:paragraph/><v:tabList/>reject</text>		</g>
		<g id="shape18-47" v:mID="18" v:groupContext="shape" transform="translate(203.266,265.212) rotate(-179.68)">
			<title>Foglio.18</title>
			<path d="M0 175.77 L101.48 175.77" class="st5"/>
		</g>
		<g id="shape19-50" v:mID="19" v:groupContext="shape" transform="translate(204.248,260.113) rotate(180)">
			<title>Foglio.19</title>
			<path d="M5.1 175.77 L0 170.67 L5.1 165.57" class="st5"/>
		</g>
		<g id="shape20-53" v:mID="20" v:groupContext="shape" transform="translate(148.122,-88.594)">
			<title>Foglio.20</title>
			<desc>accept</desc>
			<v:textBlock v:margins="rect(4,4,4,4)" v:tabSpace="42.5197"/>
			<v:textRect cx="29.7638" cy="167.267" width="59.53" height="17.0079"/>
			<rect x="0" y="158.763" width="59.5276" height="17.0079" class="st3"/>
			<text x="4" y="169.67" class="st4" v:langID="1040"><v:paragraph/><v:tabList/>accept</text>		</g>
		<g id="shape16-56" v:mID="16" v:groupContext="shape" transform="translate(48.5074,-74.4208)">
			<title>Foglio.16</title>
			<rect x="0" y="150.303" width="96.7795" height="25.4674" rx="5.66929" ry="5.66929" class="st2"/>
		</g>
		<g id="shape17-58" v:mID="17" v:groupContext="shape" transform="translate(203.266,328.708) rotate(-179.68)">
			<title>Foglio.17</title>
			<path d="M0 175.77 L101.48 175.77" class="st5"/>
		</g>
		<g id="shape21-61" v:mID="21" v:groupContext="shape" transform="translate(204.248,323.609) rotate(180)">
			<title>Foglio.21</title>
			<path d="M5.1 175.77 L0 170.67 L5.1 165.57" class="st5"/>
		</g>
		<g id="shape22-64" v:mID="22" v:groupContext="shape" transform="translate(148.122,-3.55465)">
			<title>Foglio.22</title>
			<desc>reject</desc>
			<v:textBlock v:margins="rect(4,4,4,4)" v:tabSpace="42.5197"/>
			<v:textRect cx="29.7638" cy="167.267" width="59.53" height="17.0079"/>
			<rect x="0" y="158.763" width="59.5276" height="17.0079" class="st3"/>
			<text x="4" y="169.67" class="st4" v:langID="1040"><v:paragraph/><v:tabList/>reject</text>		</g>
		<g id="shape23-67" v:mID="23" v:groupContext="shape" transform="translate(-73.0035,152.374) rotate(-90)">
			<title>Foglio.23</title>
			<path d="M0 175.77 L51.02 175.77" class="st5"/>
		</g>
		<g id="shape25-70" v:mID="25" v:groupContext="shape" transform="translate(46.0743,265.215) rotate(180)">
			<title>Foglio.25</title>
			<path d="M0 175.77 L31.18 175.77" class="st5"/>
		</g>
		<g id="shape26-73" v:mID="26" v:groupContext="shape" transform="translate(46.0743,260.113) rotate(180)">
			<title>Foglio.26</title>
			<path d="M5.1 175.77 L0 170.67 L5.1 165.57" class="st5"/>
		</g>
		<g id="shape24-76" v:mID="24" v:groupContext="shape" transform="translate(9.22394,-75.8381)">
			<title>Foglio.24</title>
			<ellipse cx="9.92126" cy="165.849" rx="9.92126" ry="9.92126" class="st6"/>
		</g>
		<g id="shape27-78" v:mID="27" v:groupContext="shape" transform="translate(448.594,-77.9641)">
			<title>Foglio.27</title>
			<ellipse cx="9.92126" cy="165.849" rx="9.92126" ry="9.92126" class="st6"/>
		</g>
		<g id="shape28-80" v:mID="28" v:groupContext="shape" transform="translate(439.027,-68.0428)">
			<title>Foglio.28</title>
			<ellipse cx="19.4882" cy="156.283" rx="19.4882" ry="19.4882" class="st7"/>
		</g>
		<g id="shape31-82" v:mID="31" v:groupContext="shape" transform="translate(282.745,65.6334) rotate(-90)">
			<title>Foglio.31</title>
			<path d="M0 175.77 L30.9 175.77" class="st5"/>
		</g>
		<g id="shape32-85" v:mID="32" v:groupContext="shape" transform="translate(287.847,65.6334) rotate(-90)">
			<title>Foglio.32</title>
			<path d="M5.1 175.77 L0 170.67 L5.1 165.57" class="st5"/>
		</g>
		<g id="shape33-88" v:mID="33" v:groupContext="shape" transform="translate(635.136,110.563) rotate(90)">
			<title>Foglio.33</title>
			<path d="M0 175.77 L42.52 175.77" class="st5"/>
		</g>
		<g id="shape34-91" v:mID="34" v:groupContext="shape" transform="translate(630.034,110.563) rotate(90)">
			<title>Foglio.34</title>
			<path d="M5.1 175.77 L0 170.67 L5.1 165.57" class="st5"/>
		</g>
		<g id="shape35-94" v:mID="35" v:groupContext="shape" transform="translate(459.366,329.562) rotate(180)">
			<title>Foglio.35</title>
			<path d="M0 175.77 L154.8 175.77" class="st5"/>
		</g>
	</g>
</svg>
