<?xml version="1.0" encoding="UTF-8" standalone="no"?>
<!DOCTYPE svg PUBLIC "-//W3C//DTD SVG 1.0//EN" "http://www.w3.org/TR/2001/REC-SVG-20010904/DTD/svg10.dtd">
<!-- Generato da Microsoft Visio 11.0, SVG Export, v1.0 conn-58.svg Pagina 1 -->
<svg xmlns="http://www.w3.org/2000/svg" xmlns:v="http://schemas.microsoft.com/visio/2003/SVGExtensions/" width="5.29559in"
		height="2.52656in" viewBox="0 0 381.283 181.912" xml:space="preserve" color-interpolation-filters="sRGB" class="st11">
	<v:documentProperties v:langID="1040" v:metric="true" v:viewMarkup="false">
		<v:userDefs>
			<v:ud v:nameU="MBSAAddinOutlineVisible" v:prompt="" v:val="VT0(1):26"/>
		</v:userDefs>
	</v:documentProperties>

	<style type="text/css">
	<![CDATA[
		.st1 {fill:#ffffff;stroke:none;stroke-linecap:round;stroke-linejoin:round;stroke-width:0.72}
		.st2 {fill:#f8b57e;stroke:none;stroke-linecap:round;stroke-linejoin:round;stroke-width:0.72}
		.st3 {fill:none;stroke:none;stroke-linecap:round;stroke-linejoin:round;stroke-width:0.72}
		.st4 {fill:#000000;font-family:Arial;font-size:0.666664em}
		.st5 {stroke:#f28226;stroke-linecap:round;stroke-linejoin:round;stroke-width:2.16}
		.st6 {font-size:1em}
		.st7 {fill:#f28226;stroke:none;stroke-linecap:round;stroke-linejoin:round;stroke-width:0.72}
		.st8 {fill:#ffffff;font-family:Arial;font-size:0.833336em;font-weight:bold}
		.st9 {fill:#bfbfbf;stroke:none;stroke-linecap:round;stroke-linejoin:round;stroke-width:0.72}
		.st10 {stroke:#f28226;stroke-dasharray:0,6.48;stroke-linecap:round;stroke-linejoin:round;stroke-width:2.16}
		.st11 {fill:none;fill-rule:evenodd;font-size:12;overflow:visible;stroke-linecap:square;stroke-miterlimit:3}
	]]>
	</style>

	<g v:mID="0" v:index="1" v:groupContext="foregroundPage">
		<title>Pagina 1</title>
		<v:pageProperties v:drawingScale="0.0393701" v:pageScale="0.0393701" v:drawingUnits="24" v:shadowOffsetX="8.50394"
				v:shadowOffsetY="-8.50394"/>
		<g id="shape10-1" v:mID="10" v:groupContext="shape" transform="translate(0.72,-0.72)">
			<title>Foglio.10</title>
			<rect x="0" y="3.32976" width="379.843" height="178.583" class="st1"/>
		</g>
		<g id="shape28-3" v:mID="28" v:groupContext="shape" transform="translate(153.791,-82.9247)">
			<title>Foglio.28</title>
			<rect x="0" y="105.377" width="181.417" height="76.5354" rx="8.50394" ry="8.50394" class="st2"/>
		</g>
		<g id="shape31-5" v:mID="31" v:groupContext="shape" transform="translate(154.992,-156.626)">
			<title>Foglio.31</title>
			<desc>Application Server</desc>
			<v:textBlock v:margins="rect(4,4,4,4)" v:tabSpace="42.5197"/>
			<v:textRect cx="80.4964" cy="169.629" width="161" height="24.5669"/>
			<rect x="0" y="157.346" width="160.993" height="24.5669" class="st3"/>
			<text x="48.04" y="172.03" class="st4" v:langID="1040"><v:paragraph v:horizAlign="1"/><v:tabList/>Application Server</text>		</g>
		<g id="shape7-8" v:mID="7" v:groupContext="shape" transform="translate(173.633,-122.61) scale(-1,1)">
			<title>Foglio.7</title>
			<path d="M0 181.91 L127.56 181.91" class="st5"/>
		</g>
		<g id="shape3-11" v:mID="3" v:groupContext="shape" transform="translate(3.55465,-108.437)">
			<title>Foglio.3</title>
			<desc>client invocation</desc>
			<v:textBlock v:margins="rect(4,4,4,4)" v:tabSpace="42.5197"/>
			<v:textRect cx="25.5118" cy="170.574" width="51.03" height="22.6772"/>
			<rect x="0" y="159.235" width="51.0236" height="22.6772" class="st3"/>
			<text x="4" y="168.17" class="st4" v:langID="1040"><v:paragraph/><v:tabList/>client<v:newlineChar/><tspan x="4"
						dy="1.2em" class="st6">invocation</tspan></text>		</g>
		<g id="shape4-15" v:mID="4" v:groupContext="shape" transform="translate(178.07,-109.854)">
			<title>Foglio.4</title>
			<rect x="0" y="156.401" width="46.5867" height="25.5118" rx="12.7559" ry="12.7559" class="st7"/>
		</g>
		<g id="shape6-17" v:mID="6" v:groupContext="shape" transform="translate(175.524,-108.437)">
			<title>Foglio.6</title>
			<desc>JEB A</desc>
			<v:textBlock v:margins="rect(4,4,4,4)" v:tabSpace="42.5197"/>
			<v:textRect cx="20.7867" cy="168.466" width="41.58" height="26.8919"/>
			<rect x="0" y="155.021" width="41.5734" height="26.8919" class="st3"/>
			<text x="6.06" y="171.47" class="st8" v:langID="1040"><v:paragraph v:horizAlign="1"/><v:tabList/>JEB A</text>		</g>
		<g id="shape9-20" v:mID="9" v:groupContext="shape" transform="translate(176.468,-117.507) scale(-1,1)">
			<title>Foglio.9</title>
			<path d="M5.1 181.91 L0 176.81 L5.1 171.71" class="st5"/>
		</g>
		<g id="shape16-23" v:mID="16" v:groupContext="shape" transform="translate(119.026,18.937) rotate(-54.5288)">
			<title>Foglio.16</title>
			<path d="M0 181.91 L58.24 181.91" class="st5"/>
		</g>
		<g id="shape17-26" v:mID="17" v:groupContext="shape" transform="translate(130.235,12.5451) rotate(-50)">
			<title>Foglio.17</title>
			<path d="M5.1 181.91 L0 176.81 L5.1 171.71" class="st5"/>
		</g>
		<g id="shape18-29" v:mID="18" v:groupContext="shape" transform="translate(224.657,-9.22394)">
			<title>Foglio.18</title>
			<rect x="0" y="139.393" width="46.5867" height="42.5197" rx="8.50394" ry="8.50394" class="st9"/>
		</g>
		<g id="shape1-31" v:mID="1" v:groupContext="shape" transform="translate(281.35,-16.5019)">
			<title>Foglio.1</title>
			<desc>Local Transaction Contract</desc>
			<v:textBlock v:margins="rect(4,4,4,4)" v:tabSpace="42.5197"/>
			<v:textRect cx="39.685" cy="168.544" width="79.38" height="26.7378"/>
			<rect x="0" y="155.175" width="79.3701" height="26.7378" class="st3"/>
			<text x="4" y="166.14" class="st4" v:langID="1040"><v:paragraph/><v:tabList/>Local Transaction <tspan x="4" dy="1.2em"
						class="st6">Contract</tspan></text>		</g>
		<g id="shape2-35" v:mID="2" v:groupContext="shape" transform="translate(306.862,289.404) rotate(180)">
			<title>Foglio.2</title>
			<path d="M0 181.91 L59.53 181.91" class="st10"/>
		</g>
		<g id="shape8-38" v:mID="8" v:groupContext="shape" transform="translate(224.402,-90.2027)">
			<title>Foglio.8</title>
			<desc>Container</desc>
			<v:textBlock v:margins="rect(4,4,4,4)" v:tabSpace="42.5197"/>
			<v:textRect cx="25.6394" cy="174.213" width="51.28" height="15.3992"/>
			<rect x="0" y="166.513" width="51.2787" height="15.3992" class="st3"/>
			<text x="4" y="176.61" class="st4" v:langID="1040"><v:paragraph/><v:tabList/>Container</text>		</g>
		<g id="shape19-41" v:mID="19" v:groupContext="shape" transform="translate(276.338,-109.854)">
			<title>Foglio.19</title>
			<rect x="0" y="156.401" width="46.5867" height="25.5118" rx="12.7559" ry="12.7559" class="st7"/>
		</g>
		<g id="shape20-43" v:mID="20" v:groupContext="shape" transform="translate(273.791,-108.437)">
			<title>Foglio.20</title>
			<desc>JEB B</desc>
			<v:textBlock v:margins="rect(4,4,4,4)" v:tabSpace="42.5197"/>
			<v:textRect cx="20.7867" cy="168.466" width="41.58" height="26.8919"/>
			<rect x="0" y="155.021" width="41.5734" height="26.8919" class="st3"/>
			<text x="6.06" y="171.47" class="st8" v:langID="1040"><v:paragraph v:horizAlign="1"/><v:tabList/>JEB B</text>		</g>
		<g id="shape21-46" v:mID="21" v:groupContext="shape" transform="translate(270.72,-122.61) scale(-1,1)">
			<title>Foglio.21</title>
			<path d="M0 181.91 L40.39 181.91" class="st5"/>
		</g>
		<g id="shape22-49" v:mID="22" v:groupContext="shape" transform="translate(273.555,-117.507) scale(-1,1)">
			<title>Foglio.22</title>
			<path d="M5.1 181.91 L0 176.81 L5.1 171.71" class="st5"/>
		</g>
		<g id="shape5-52" v:mID="5" v:groupContext="shape" transform="translate(380.368,20.3543) rotate(54.5288) scale(-1,1)">
			<title>Foglio.5</title>
			<path d="M0 181.91 L61.88 181.91" class="st5"/>
		</g>
		<g id="shape11-55" v:mID="11" v:groupContext="shape" transform="translate(385.433,38.0465) rotate(60) scale(-1,1)">
			<title>Foglio.11</title>
			<path d="M5.1 181.91 L0 176.81 L5.1 171.71" class="st5"/>
		</g>
		<g id="shape12-58" v:mID="12" v:groupContext="shape" transform="translate(430.38,124.5) rotate(90) scale(-1,1)">
			<title>Foglio.12</title>
			<path d="M0 181.91 L25.51 181.91" class="st5"/>
		</g>
		<g id="shape13-61" v:mID="13" v:groupContext="shape" transform="translate(425.278,126.767) rotate(90) scale(-1,1)">
			<title>Foglio.13</title>
			<path d="M5.1 181.91 L0 176.81 L5.1 171.71" class="st5"/>
		</g>
		<g id="shape14-64" v:mID="14" v:groupContext="shape" transform="translate(488.774,107.492) rotate(90)">
			<title>Foglio.14</title>
			<path d="M0 181.91 L31.18 181.91" class="st10"/>
		</g>
		<g id="shape15-67" v:mID="15" v:groupContext="shape" transform="translate(483.672,138.389) rotate(90) scale(-1,1)">
			<title>Foglio.15</title>
			<path d="M5.1 181.91 L0 176.81 L5.1 171.71" class="st5"/>
		</g>
	</g>
</svg>
