<?xml version="1.0" encoding="UTF-8" standalone="no"?>
<!DOCTYPE svg PUBLIC "-//W3C//DTD SVG 1.0//EN" "http://www.w3.org/TR/2001/REC-SVG-20010904/DTD/svg10.dtd">
<!-- Generato da Microsoft Visio 11.0, SVG Export, v1.0 conn-50.svg Pagina 1 -->
<svg xmlns="http://www.w3.org/2000/svg" xmlns:v="http://schemas.microsoft.com/visio/2003/SVGExtensions/" width="5.33496in"
		height="3.31396in" viewBox="0 0 384.117 238.605" xml:space="preserve" color-interpolation-filters="sRGB" class="st12">
	<v:documentProperties v:langID="1040" v:metric="true" v:viewMarkup="false">
		<v:userDefs>
			<v:ud v:nameU="MBSAAddinOutlineVisible" v:prompt="" v:val="VT0(1):26"/>
		</v:userDefs>
	</v:documentProperties>

	<style type="text/css">
	<![CDATA[
		.st1 {fill:#ffffff;stroke:none;stroke-linecap:round;stroke-linejoin:round;stroke-width:0.72}
		.st2 {fill:#729fdc;stroke:none;stroke-linecap:round;stroke-linejoin:round;stroke-width:0.72}
		.st3 {fill:#f8b57e;stroke:none;stroke-linecap:round;stroke-linejoin:round;stroke-width:0.72}
		.st4 {fill:none;stroke:none;stroke-linecap:round;stroke-linejoin:round;stroke-width:0.72}
		.st5 {fill:#000000;font-family:Arial;font-size:0.666664em}
		.st6 {fill:#f28226;stroke:none;stroke-linecap:round;stroke-linejoin:round;stroke-width:0.72}
		.st7 {fill:#ffffff;font-family:Arial;font-size:0.666664em;font-weight:bold}
		.st8 {stroke:#f28226;stroke-linecap:round;stroke-linejoin:round;stroke-width:2.16}
		.st9 {fill:#ffffff;font-family:Arial;font-size:0.833336em;font-weight:bold}
		.st10 {fill:#bfbfbf;stroke:none;stroke-linecap:round;stroke-linejoin:round;stroke-width:0.72}
		.st11 {font-size:1em}
		.st12 {fill:none;fill-rule:evenodd;font-size:12;overflow:visible;stroke-linecap:square;stroke-miterlimit:3}
	]]>
	</style>

	<g v:mID="0" v:index="1" v:groupContext="foregroundPage">
		<title>Pagina 1</title>
		<v:pageProperties v:drawingScale="0.0393701" v:pageScale="0.0393701" v:drawingUnits="24" v:shadowOffsetX="8.50394"
				v:shadowOffsetY="-8.50394"/>
		<g id="shape10-1" v:mID="10" v:groupContext="shape" transform="translate(0.72,-0.72)">
			<title>Foglio.10</title>
			<rect x="0" y="3.32976" width="382.677" height="235.276" class="st1"/>
		</g>
		<g id="shape2-3" v:mID="2" v:groupContext="shape" transform="translate(170.799,-105.602)">
			<title>Foglio.2</title>
			<rect x="0" y="201.188" width="181.417" height="37.4173" rx="8.50394" ry="8.50394" class="st2"/>
		</g>
		<g id="shape28-5" v:mID="28" v:groupContext="shape" transform="translate(170.799,-139.618)">
			<title>Foglio.28</title>
			<rect x="0" y="162.07" width="181.417" height="76.5354" rx="8.50394" ry="8.50394" class="st3"/>
		</g>
		<g id="shape31-7" v:mID="31" v:groupContext="shape" transform="translate(172,-213.318)">
			<title>Foglio.31</title>
			<desc>Application Server</desc>
			<v:textBlock v:margins="rect(4,4,4,4)" v:tabSpace="42.5197"/>
			<v:textRect cx="80.4964" cy="226.322" width="161" height="24.5669"/>
			<rect x="0" y="214.038" width="160.993" height="24.5669" class="st4"/>
			<text x="48.04" y="228.72" class="st5" v:langID="1040"><v:paragraph v:horizAlign="1"/><v:tabList/>Application Server</text>		</g>
		<g id="shape1-10" v:mID="1" v:groupContext="shape" transform="translate(170.799,-122.61)">
			<title>Foglio.1</title>
			<rect x="0" y="213.094" width="181.417" height="25.5118" class="st2"/>
		</g>
		<g id="shape34-12" v:mID="34" v:groupContext="shape" transform="translate(10.8262,-159.46)">
			<title>Foglio.34</title>
			<rect x="0" y="196.086" width="46.5867" height="42.5197" rx="8.50394" ry="8.50394" class="st6"/>
		</g>
		<g id="shape11-14" v:mID="11" v:groupContext="shape" transform="translate(172,-112.726)">
			<title>Foglio.11</title>
			<desc>Transaction Manager</desc>
			<v:textBlock v:margins="rect(4,4,4,4)" v:tabSpace="42.5197"/>
			<v:textRect cx="79.295" cy="225.159" width="158.59" height="26.8919"/>
			<rect x="0" y="211.713" width="158.59" height="26.8919" class="st4"/>
			<text x="39.06" y="227.56" class="st7" v:langID="1040"><v:paragraph v:horizAlign="1"/><v:tabList/>Transaction Manager</text>		</g>
		<g id="shape7-17" v:mID="7" v:groupContext="shape" transform="translate(184.972,-179.303) scale(-1,1)">
			<title>Foglio.7</title>
			<path d="M0 238.61 L121.89 238.61" class="st8"/>
		</g>
		<g id="shape3-20" v:mID="3" v:groupContext="shape" transform="translate(20.5625,-201.852)">
			<title>Foglio.3</title>
			<desc>client</desc>
			<v:textBlock v:margins="rect(4,4,4,4)" v:tabSpace="42.5197"/>
			<v:textRect cx="15.7181" cy="229.974" width="31.44" height="17.263"/>
			<rect x="0" y="221.342" width="31.4362" height="17.263" class="st4"/>
			<text x="4" y="232.37" class="st5" v:langID="1040"><v:paragraph/><v:tabList/>client</text>		</g>
		<g id="shape4-23" v:mID="4" v:groupContext="shape" transform="translate(189.409,-166.547)">
			<title>Foglio.4</title>
			<rect x="0" y="213.094" width="46.5867" height="25.5118" rx="12.7559" ry="12.7559" class="st6"/>
		</g>
		<g id="shape5-25" v:mID="5" v:groupContext="shape" transform="translate(297.742,-166.547)">
			<title>Foglio.5</title>
			<rect x="0" y="213.094" width="46.5867" height="25.5118" rx="12.7559" ry="12.7559" class="st6"/>
		</g>
		<g id="shape6-27" v:mID="6" v:groupContext="shape" transform="translate(189.225,-165.129)">
			<title>Foglio.6</title>
			<desc>X</desc>
			<v:textBlock v:margins="rect(4,4,4,4)" v:tabSpace="42.5197"/>
			<v:textRect cx="20.7867" cy="225.159" width="41.58" height="26.8919"/>
			<rect x="0" y="211.713" width="41.5734" height="26.8919" class="st4"/>
			<text x="17.45" y="228.16" class="st9" v:langID="1040"><v:paragraph v:horizAlign="1"/><v:tabList/>X</text>		</g>
		<g id="shape8-30" v:mID="8" v:groupContext="shape" transform="translate(297.886,-165.129)">
			<title>Foglio.8</title>
			<desc>Y</desc>
			<v:textBlock v:margins="rect(4,4,4,4)" v:tabSpace="42.5197"/>
			<v:textRect cx="20.7867" cy="225.159" width="41.58" height="26.8919"/>
			<rect x="0" y="211.713" width="41.5734" height="26.8919" class="st4"/>
			<text x="17.45" y="228.16" class="st9" v:langID="1040"><v:paragraph v:horizAlign="1"/><v:tabList/>Y</text>		</g>
		<g id="shape9-33" v:mID="9" v:groupContext="shape" transform="translate(186.106,-174.2) scale(-1,1)">
			<title>Foglio.9</title>
			<path d="M5.1 238.61 L0 233.5 L5.1 228.4" class="st8"/>
		</g>
		<g id="shape12-36" v:mID="12" v:groupContext="shape" transform="translate(291.555,-179.303) scale(-1,1)">
			<title>Foglio.12</title>
			<path d="M0 238.61 L49.89 238.61" class="st8"/>
		</g>
		<g id="shape13-39" v:mID="13" v:groupContext="shape" transform="translate(292.689,-174.2) scale(-1,1)">
			<title>Foglio.13</title>
			<path d="M5.1 238.61 L0 233.5 L5.1 228.4" class="st8"/>
		</g>
		<g id="shape14-42" v:mID="14" v:groupContext="shape" transform="translate(300.643,380.765) rotate(-22.2011) scale(1,-1)">
			<title>Foglio.14</title>
			<path d="M0 238.61 L66.02 238.61" class="st8"/>
		</g>
		<g id="shape15-45" v:mID="15" v:groupContext="shape" transform="translate(324.884,363.286) rotate(-30) scale(1,-1)">
			<title>Foglio.15</title>
			<path d="M5.1 238.61 L0 233.5 L5.1 228.4" class="st8"/>
		</g>
		<g id="shape16-48" v:mID="16" v:groupContext="shape" transform="translate(242.215,380.765) rotate(-157.799)">
			<title>Foglio.16</title>
			<path d="M0 238.61 L66.02 238.61" class="st8"/>
		</g>
		<g id="shape17-51" v:mID="17" v:groupContext="shape" transform="translate(217.49,363.403) rotate(-150)">
			<title>Foglio.17</title>
			<path d="M5.1 238.61 L0 233.5 L5.1 228.4" class="st8"/>
		</g>
		<g id="shape18-54" v:mID="18" v:groupContext="shape" transform="translate(173.506,-26.3594)">
			<title>Foglio.18</title>
			<rect x="0" y="196.086" width="46.5867" height="42.5197" rx="8.50394" ry="8.50394" class="st10"/>
		</g>
		<g id="shape19-56" v:mID="19" v:groupContext="shape" transform="translate(167.837,-6.38929)">
			<title>Foglio.19</title>
			<desc>TP System</desc>
			<v:textBlock v:margins="rect(4,4,4,4)" v:tabSpace="42.5197"/>
			<v:textRect cx="25.6394" cy="229.974" width="51.28" height="17.263"/>
			<rect x="0" y="221.342" width="51.2787" height="17.263" class="st4"/>
			<text x="4" y="232.37" class="st5" v:langID="1040"><v:paragraph/><v:tabList/>TP System</text>		</g>
		<g id="shape20-59" v:mID="20" v:groupContext="shape" transform="translate(314.076,-26.2956)">
			<title>Foglio.20</title>
			<rect x="0" y="196.086" width="46.5867" height="42.5197" rx="8.50394" ry="8.50394" class="st10"/>
		</g>
		<g id="shape21-61" v:mID="21" v:groupContext="shape" transform="translate(306.862,-6.32551)">
			<title>Foglio.21</title>
			<desc>ERP System</desc>
			<v:textBlock v:margins="rect(4,4,4,4)" v:tabSpace="42.5197"/>
			<v:textRect cx="29.7638" cy="229.974" width="59.53" height="17.263"/>
			<rect x="0" y="221.342" width="59.5276" height="17.263" class="st4"/>
			<text x="4" y="232.37" class="st5" v:langID="1040"><v:paragraph/><v:tabList/>ERP System</text>		</g>
		<g id="shape22-64" v:mID="22" v:groupContext="shape" transform="translate(221.822,-58.5751)">
			<title>Foglio.22</title>
			<desc>XAResource based contract</desc>
			<v:textBlock v:margins="rect(4,4,4,4)" v:tabSpace="42.5197"/>
			<v:textRect cx="41.2937" cy="228.429" width="82.59" height="20.3528"/>
			<rect x="0" y="218.253" width="82.5874" height="20.3528" class="st4"/>
			<text x="4" y="226.03" class="st5" v:langID="1040"><v:paragraph/><v:tabList/>XAResource based <tspan x="4" dy="1.2em"
						class="st11">contract</tspan></text>		</g>
	</g>
</svg>
