<?xml version="1.0" encoding="UTF-8" standalone="no"?>
<!DOCTYPE svg PUBLIC "-//W3C//DTD SVG 1.0//EN" "http://www.w3.org/TR/2001/REC-SVG-20010904/DTD/svg10.dtd">
<!-- Generato da Microsoft Visio 11.0, SVG Export, v1.0 conn-143.svg Pagina 1 -->
<svg xmlns="http://www.w3.org/2000/svg" xmlns:v="http://schemas.microsoft.com/visio/2003/SVGExtensions/" width="8.0515in"
		height="2.85465in" viewBox="0 0 579.708 205.534" xml:space="preserve" color-interpolation-filters="sRGB" class="st11">
	<v:documentProperties v:langID="1040" v:metric="true" v:viewMarkup="false">
		<v:userDefs>
			<v:ud v:nameU="MBSAAddinOutlineVisible" v:prompt="" v:val="VT0(1):26"/>
		</v:userDefs>
	</v:documentProperties>

	<style type="text/css">
	<![CDATA[
		.st1 {fill:#ffffff;stroke:none;stroke-linecap:round;stroke-linejoin:round;stroke-width:0.72}
		.st2 {stroke:#173660;stroke-dasharray:0,6.48;stroke-linecap:round;stroke-linejoin:round;stroke-width:2.16}
		.st3 {fill:#f28226;stroke:none;stroke-linecap:round;stroke-linejoin:round;stroke-width:0.72}
		.st4 {fill:none;stroke:none;stroke-linecap:round;stroke-linejoin:round;stroke-width:0.72}
		.st5 {fill:#ffffff;font-family:Arial;font-size:0.666664em}
		.st6 {stroke:#f28226;stroke-linecap:round;stroke-linejoin:round;stroke-width:2.16}
		.st7 {fill:#ffffff;font-family:Arial;font-size:0.666664em;font-weight:bold}
		.st8 {fill:#000000;font-family:Arial;font-size:0.666664em}
		.st9 {fill:#f2f2f2;stroke:none;stroke-linecap:round;stroke-linejoin:round;stroke-width:0.72}
		.st10 {stroke:#f28226;stroke-dasharray:0,6.48;stroke-linecap:round;stroke-linejoin:round;stroke-width:2.16}
		.st11 {fill:none;fill-rule:evenodd;font-size:12;overflow:visible;stroke-linecap:square;stroke-miterlimit:3}
	]]>
	</style>

	<g v:mID="0" v:index="1" v:groupContext="foregroundPage">
		<title>Pagina 1</title>
		<v:pageProperties v:drawingScale="0.0393701" v:pageScale="0.0393701" v:drawingUnits="24" v:shadowOffsetX="8.50394"
				v:shadowOffsetY="-8.50394"/>
		<g id="shape139-1" v:mID="139" v:groupContext="shape" transform="translate(0.72,-0.72)">
			<title>Foglio.139</title>
			<rect x="0" y="1.44" width="578.268" height="204.094" class="st1"/>
		</g>
		<g id="shape17-3" v:mID="17" v:groupContext="shape" transform="translate(573.318,311.136) rotate(180)">
			<title>Foglio.17</title>
			<path d="M0 205.53 L566.93 205.53" class="st2"/>
		</g>
		<g id="shape1-6" v:mID="1" v:groupContext="shape" transform="translate(222.531,-162.295)">
			<title>Foglio.1</title>
			<rect x="0" y="168.684" width="150.236" height="36.8504" rx="8.50394" ry="8.50394" class="st3"/>
		</g>
		<g id="shape20-8" v:mID="20" v:groupContext="shape" transform="translate(216.862,-182.137)">
			<title>Foglio.20</title>
			<desc>&#60;interface&#62;</desc>
			<v:textBlock v:margins="rect(4,4,4,4)" v:tabSpace="42.5197"/>
			<v:textRect cx="32.3031" cy="198.581" width="64.61" height="13.9075"/>
			<rect x="0" y="191.627" width="64.6063" height="13.9075" class="st4"/>
			<text x="12.29" y="200.98" class="st5" v:langID="1040"><v:paragraph v:horizAlign="1"/><v:tabList/>&#60;interface&#62;</text>		</g>
		<g id="shape15-11" v:mID="15" v:groupContext="shape" transform="translate(96.3666,46.6413) rotate(-90) scale(-1,1)">
			<title>Foglio.15</title>
			<path d="M5.1 205.53 L0 200.43 L5.1 195.33" class="st6"/>
		</g>
		<g id="shape2-14" v:mID="2" v:groupContext="shape" transform="translate(262.216,-169.514)">
			<title>Foglio.2</title>
			<desc>Record</desc>
			<v:textBlock v:margins="rect(4,4,4,4)" v:tabSpace="42.5197"/>
			<v:textRect cx="32.3031" cy="198.581" width="64.61" height="13.9075"/>
			<rect x="0" y="191.627" width="64.6063" height="13.9075" class="st4"/>
			<text x="18.52" y="200.98" class="st7" v:langID="1040"><v:paragraph v:horizAlign="1"/><v:tabList/>Record</text>		</g>
		<g id="shape14-17" v:mID="14" v:groupContext="shape" transform="translate(3.55465,-111.271)">
			<title>Foglio.14</title>
			<desc>Component View</desc>
			<v:textBlock v:margins="rect(4,4,4,4)" v:tabSpace="42.5197"/>
			<v:textRect cx="65.1969" cy="199.998" width="130.4" height="11.0728"/>
			<rect x="0" y="194.462" width="130.394" height="11.0728" class="st4"/>
			<text x="4" y="202.4" class="st8" v:langID="1040"><v:paragraph/><v:tabList/>Component View</text>		</g>
		<g id="shape4-20" v:mID="4" v:groupContext="shape" transform="translate(223.948,-82.9247)">
			<title>Foglio.4</title>
			<rect x="0" y="168.684" width="150.236" height="36.8504" rx="8.50394" ry="8.50394" class="st3"/>
		</g>
		<g id="shape5-22" v:mID="5" v:groupContext="shape" transform="translate(218.574,-101.483)">
			<title>Foglio.5</title>
			<desc>&#60;Impl Class&#62;</desc>
			<v:textBlock v:margins="rect(4,4,4,4)" v:tabSpace="42.5197"/>
			<v:textRect cx="32.3031" cy="198.581" width="64.61" height="13.9075"/>
			<rect x="0" y="191.627" width="64.6063" height="13.9075" class="st4"/>
			<text x="8.96" y="200.98" class="st5" v:langID="1040"><v:paragraph v:horizAlign="1"/><v:tabList/>&#60;Impl Class&#62;</text>		</g>
		<g id="shape6-25" v:mID="6" v:groupContext="shape" transform="translate(263.929,-88.8598)">
			<title>Foglio.6</title>
			<desc>Record</desc>
			<v:textBlock v:margins="rect(4,4,4,4)" v:tabSpace="42.5197"/>
			<v:textRect cx="32.3031" cy="198.581" width="64.61" height="13.9075"/>
			<rect x="0" y="191.627" width="64.6063" height="13.9075" class="st4"/>
			<text x="18.52" y="200.98" class="st7" v:langID="1040"><v:paragraph v:horizAlign="1"/><v:tabList/>Record</text>		</g>
		<g id="shape7-28" v:mID="7" v:groupContext="shape" transform="translate(226.783,-6.38929)">
			<title>Foglio.7</title>
			<rect x="0" y="171.519" width="150.236" height="34.0157" rx="8.50394" ry="8.50394" class="st3"/>
		</g>
		<g id="shape8-30" v:mID="8" v:groupContext="shape" transform="translate(221.114,-23.6629)">
			<title>Foglio.8</title>
			<desc>&#60;interface&#62;</desc>
			<v:textBlock v:margins="rect(4,4,4,4)" v:tabSpace="42.5197"/>
			<v:textRect cx="32.3031" cy="198.581" width="64.61" height="13.9075"/>
			<rect x="0" y="191.627" width="64.6063" height="13.9075" class="st4"/>
			<text x="12.29" y="200.98" class="st5" v:langID="1040"><v:paragraph v:horizAlign="1"/><v:tabList/>&#60;interface&#62;</text>		</g>
		<g id="shape10-33" v:mID="10" v:groupContext="shape" transform="translate(249.46,-9.48969)">
			<title>Foglio.10</title>
			<desc>Streamable</desc>
			<v:textBlock v:margins="rect(4,4,4,4)" v:tabSpace="42.5197"/>
			<v:textRect cx="40.3937" cy="198.581" width="80.79" height="13.9075"/>
			<rect x="0" y="191.627" width="80.7874" height="13.9075" class="st4"/>
			<text x="18.83" y="200.98" class="st7" v:langID="1040"><v:paragraph v:horizAlign="1"/><v:tabList/>Streamable</text>		</g>
		<g id="shape12-36" v:mID="12" v:groupContext="shape" transform="translate(498.223,162.011) rotate(90) scale(-1,1)">
			<title>Foglio.12</title>
			<path d="M5.1 205.53 L0 200.43 L5.1 195.33" class="st6"/>
		</g>
		<g id="shape16-39" v:mID="16" v:groupContext="shape" transform="translate(-85.7594,195.602) rotate(-90)">
			<title>Foglio.16</title>
			<rect x="0" y="92.1487" width="26.9291" height="113.386" rx="8.50394" ry="8.50394" class="st9"/>
		</g>
		<g id="shape18-41" v:mID="18" v:groupContext="shape" transform="translate(46.0743,-14.9597)">
			<title>Foglio.18</title>
			<desc>Implements</desc>
			<v:textBlock v:margins="rect(4,4,4,4)" v:tabSpace="42.5197"/>
			<v:textRect cx="26.9291" cy="196.388" width="53.86" height="18.2923"/>
			<rect x="0" y="187.242" width="53.8583" height="18.2923" class="st4"/>
			<text x="6.26" y="198.79" class="st8" v:langID="1040"><v:paragraph v:horizAlign="1"/><v:tabList/>Implements</text>		</g>
		<g id="shape21-44" v:mID="21" v:groupContext="shape" transform="translate(46.0743,387.53) rotate(180)">
			<title>Foglio.21</title>
			<path d="M0 205.53 L28.35 205.53" class="st10"/>
		</g>
		<g id="shape22-47" v:mID="22" v:groupContext="shape" transform="translate(14.8932,-18.1531)">
			<title>Foglio.22</title>
			<path d="M5.1 205.53 L0 200.43 L5.1 195.33" class="st6"/>
		</g>
		<g id="shape19-50" v:mID="19" v:groupContext="shape" transform="translate(3.55465,-80.223)">
			<title>Foglio.19</title>
			<desc>Resource Adapter View</desc>
			<v:textBlock v:margins="rect(4,4,4,4)" v:tabSpace="42.5197"/>
			<v:textRect cx="65.1969" cy="199.998" width="130.4" height="11.0728"/>
			<rect x="0" y="194.462" width="130.394" height="11.0728" class="st4"/>
			<text x="4" y="202.4" class="st8" v:langID="1040"><v:paragraph/><v:tabList/>Resource Adapter View</text>		</g>
		<g id="shape23-53" v:mID="23" v:groupContext="shape" transform="translate(51.035,-162.295)">
			<title>Foglio.23</title>
			<rect x="0" y="168.684" width="150.236" height="36.8504" rx="8.50394" ry="8.50394" class="st3"/>
		</g>
		<g id="shape24-55" v:mID="24" v:groupContext="shape" transform="translate(45.3657,-182.137)">
			<title>Foglio.24</title>
			<desc>&#60;interface&#62;</desc>
			<v:textBlock v:margins="rect(4,4,4,4)" v:tabSpace="42.5197"/>
			<v:textRect cx="32.3031" cy="198.581" width="64.61" height="13.9075"/>
			<rect x="0" y="191.627" width="64.6063" height="13.9075" class="st4"/>
			<text x="12.29" y="200.98" class="st5" v:langID="1040"><v:paragraph v:horizAlign="1"/><v:tabList/>&#60;interface&#62;</text>		</g>
		<g id="shape25-58" v:mID="25" v:groupContext="shape" transform="translate(86.468,-169.514)">
			<title>Foglio.25</title>
			<desc>Mapped Record</desc>
			<v:textBlock v:margins="rect(4,4,4,4)" v:tabSpace="42.5197"/>
			<v:textRect cx="38.6811" cy="198.581" width="77.37" height="13.9075"/>
			<rect x="0" y="191.627" width="77.3622" height="13.9075" class="st4"/>
			<text x="8.68" y="200.98" class="st7" v:langID="1040"><v:paragraph v:horizAlign="1"/><v:tabList/>Mapped Record</text>		</g>
		<g id="shape26-61" v:mID="26" v:groupContext="shape" transform="translate(394.736,-162.295)">
			<title>Foglio.26</title>
			<rect x="0" y="168.684" width="150.236" height="36.8504" rx="8.50394" ry="8.50394" class="st3"/>
		</g>
		<g id="shape27-63" v:mID="27" v:groupContext="shape" transform="translate(389.066,-182.137)">
			<title>Foglio.27</title>
			<desc>&#60;interface&#62;</desc>
			<v:textBlock v:margins="rect(4,4,4,4)" v:tabSpace="42.5197"/>
			<v:textRect cx="32.3031" cy="198.581" width="64.61" height="13.9075"/>
			<rect x="0" y="191.627" width="64.6063" height="13.9075" class="st4"/>
			<text x="12.29" y="200.98" class="st5" v:langID="1040"><v:paragraph v:horizAlign="1"/><v:tabList/>&#60;interface&#62;</text>		</g>
		<g id="shape28-66" v:mID="28" v:groupContext="shape" transform="translate(430.169,-169.514)">
			<title>Foglio.28</title>
			<desc>Indexed Record</desc>
			<v:textBlock v:margins="rect(4,4,4,4)" v:tabSpace="42.5197"/>
			<v:textRect cx="38.6811" cy="198.581" width="77.37" height="13.9075"/>
			<rect x="0" y="191.627" width="77.3622" height="13.9075" class="st4"/>
			<text x="8.67" y="200.98" class="st7" v:langID="1040"><v:paragraph v:horizAlign="1"/><v:tabList/>Indexed Record</text>		</g>
		<g id="shape29-69" v:mID="29" v:groupContext="shape" transform="translate(400.405,-6.38929)">
			<title>Foglio.29</title>
			<rect x="0" y="171.519" width="172.913" height="34.0157" rx="8.50394" ry="8.50394" class="st3"/>
		</g>
		<g id="shape30-71" v:mID="30" v:groupContext="shape" transform="translate(394.736,-23.6629)">
			<title>Foglio.30</title>
			<desc>&#60;interface&#62;</desc>
			<v:textBlock v:margins="rect(4,4,4,4)" v:tabSpace="42.5197"/>
			<v:textRect cx="32.3031" cy="198.581" width="64.61" height="13.9075"/>
			<rect x="0" y="191.627" width="64.6063" height="13.9075" class="st4"/>
			<text x="12.29" y="200.98" class="st5" v:langID="1040"><v:paragraph v:horizAlign="1"/><v:tabList/>&#60;interface&#62;</text>		</g>
		<g id="shape31-74" v:mID="31" v:groupContext="shape" transform="translate(414.578,-9.48969)">
			<title>Foglio.31</title>
			<desc>Resource Adapter specific</desc>
			<v:textBlock v:margins="rect(4,4,4,4)" v:tabSpace="42.5197"/>
			<v:textRect cx="59.5276" cy="198.581" width="119.06" height="13.9075"/>
			<rect x="0" y="191.627" width="119.055" height="13.9075" class="st4"/>
			<text x="9.06" y="200.98" class="st7" v:langID="1040"><v:paragraph v:horizAlign="1"/><v:tabList/>Resource Adapter specific</text>		</g>
		<g id="shape9-77" v:mID="9" v:groupContext="shape" transform="translate(91.406,82.9247) rotate(-90)">
			<title>Foglio.9</title>
			<path d="M0 205.53 L35.43 205.53" class="st10"/>
		</g>
		<g id="shape11-80" v:mID="11" v:groupContext="shape" transform="translate(92.2564,162.011) rotate(-90)">
			<title>Foglio.11</title>
			<path d="M0 205.53 L35.43 205.53" class="st10"/>
		</g>
		<g id="shape32-83" v:mID="32" v:groupContext="shape" transform="translate(89.7749,227.307) rotate(30) scale(1,-1)">
			<title>Foglio.32</title>
			<path d="M5.1 205.53 L0 200.43 L5.1 195.33" class="st6"/>
		</g>
		<g id="shape33-86" v:mID="33" v:groupContext="shape" transform="translate(168.473,270.162) rotate(-155.64)">
			<title>Foglio.33</title>
			<path d="M0 205.53 L68.73 205.53" class="st10"/>
		</g>
		<g id="shape34-89" v:mID="34" v:groupContext="shape" transform="translate(509.573,227.307) rotate(150)">
			<title>Foglio.34</title>
			<path d="M5.1 205.53 L0 200.43 L5.1 195.33" class="st6"/>
		</g>
		<g id="shape35-92" v:mID="35" v:groupContext="shape" transform="translate(430.874,270.162) rotate(-24.3595) scale(1,-1)">
			<title>Foglio.35</title>
			<path d="M0 205.53 L68.73 205.53" class="st10"/>
		</g>
		<g id="shape3-95" v:mID="3" v:groupContext="shape" transform="translate(315.89,330.938) rotate(-150)">
			<title>Foglio.3</title>
			<path d="M5.1 205.53 L0 200.43 L5.1 195.33" class="st6"/>
		</g>
		<g id="shape13-98" v:mID="13" v:groupContext="shape" transform="translate(263.265,314.768) rotate(23.9033) scale(1,-1)">
			<title>Foglio.13</title>
			<path d="M0 205.53 L74.92 205.53" class="st10"/>
		</g>
	</g>
</svg>
