<?xml version="1.0" encoding="UTF-8" standalone="no"?>
<!DOCTYPE svg PUBLIC "-//W3C//DTD SVG 1.0//EN" "http://www.w3.org/TR/2001/REC-SVG-20010904/DTD/svg10.dtd">
<!-- Generato da Microsoft Visio 11.0, SVG Export, v1.0 conn-127.svg Pagina 1 -->
<svg xmlns="http://www.w3.org/2000/svg" xmlns:v="http://schemas.microsoft.com/visio/2003/SVGExtensions/" width="9.2326in"
		height="7.93339in" viewBox="0 0 664.747 571.204" xml:space="preserve" color-interpolation-filters="sRGB" class="st7">
	<v:documentProperties v:langID="1040" v:metric="true" v:viewMarkup="false">
		<v:userDefs>
			<v:ud v:nameU="MBSAAddinOutlineVisible" v:prompt="" v:val="VT0(1):26"/>
		</v:userDefs>
	</v:documentProperties>

	<style type="text/css">
	<![CDATA[
		.st1 {fill:#ffffff;stroke:none;stroke-linecap:round;stroke-linejoin:round;stroke-width:0.72}
		.st2 {fill:#facca7;stroke:none;stroke-linecap:round;stroke-linejoin:round;stroke-width:0.72}
		.st3 {fill:#f28226;stroke:#f28226;stroke-linecap:round;stroke-linejoin:round;stroke-width:0.72}
		.st4 {fill:none;stroke:none;stroke-linecap:round;stroke-linejoin:round;stroke-width:0.72}
		.st5 {fill:#595959;font-family:Arial;font-size:0.833336em;font-weight:bold}
		.st6 {stroke:#f28226;stroke-linecap:round;stroke-linejoin:round;stroke-width:2.16}
		.st7 {fill:none;fill-rule:evenodd;font-size:12;overflow:visible;stroke-linecap:square;stroke-miterlimit:3}
	]]>
	</style>

	<g v:mID="0" v:index="1" v:groupContext="foregroundPage">
		<title>Pagina 1</title>
		<v:pageProperties v:drawingScale="0.0393701" v:pageScale="0.0393701" v:drawingUnits="24" v:shadowOffsetX="8.50394"
				v:shadowOffsetY="-8.50394"/>
		<g id="shape17-1" v:mID="17" v:groupContext="shape" transform="translate(0.72,-0.72)">
			<title>Foglio.17</title>
			<rect x="0" y="7.10929" width="663.307" height="564.094" class="st1"/>
		</g>
		<g id="shape45-3" v:mID="45" v:groupContext="shape" transform="translate(12.2552,-11.0312)">
			<title>Foglio.45</title>
			<rect x="0" y="54.5836" width="218.071" height="516.62" rx="11.3386" ry="11.3386" class="st2"/>
		</g>
		<g id="shape2-5" v:mID="2" v:groupContext="shape" transform="translate(175.159,-479.361)">
			<title>Foglio.2</title>
			<ellipse cx="17.191" cy="554.013" rx="17.191" ry="17.191" class="st3"/>
		</g>
		<g id="shape11-7" v:mID="11" v:groupContext="shape" transform="translate(175.159,-167.964)">
			<title>Foglio.11</title>
			<ellipse cx="17.191" cy="554.013" rx="17.191" ry="17.191" class="st3"/>
		</g>
		<g id="shape3-9" v:mID="3" v:groupContext="shape" transform="translate(18.4914,-488.761)">
			<title>Foglio.3</title>
			<desc>BootstrapContext</desc>
			<v:textBlock v:margins="rect(4,4,4,4)" v:tabSpace="42.5197"/>
			<v:textRect cx="50.6243" cy="563.181" width="101.25" height="16.0449"/>
			<rect x="0" y="555.159" width="101.249" height="16.0449" class="st4"/>
			<text x="4" y="566.18" class="st5" v:langID="1040"><v:paragraph/><v:tabList/>BootstrapContext</text>		</g>
		<g id="shape12-12" v:mID="12" v:groupContext="shape" transform="translate(17.5145,-175.987)">
			<title>Foglio.12</title>
			<desc>CallbackHandler</desc>
			<v:textBlock v:margins="rect(4,4,4,4)" v:tabSpace="42.5197"/>
			<v:textRect cx="46.7717" cy="563.181" width="93.55" height="16.0449"/>
			<rect x="0" y="555.159" width="93.5433" height="16.0449" class="st4"/>
			<text x="4" y="566.18" class="st5" v:langID="1040"><v:paragraph/><v:tabList/>CallbackHandler</text>		</g>
		<g id="shape5-15" v:mID="5" v:groupContext="shape" transform="translate(65.2608,-550.641)">
			<title>Foglio.5</title>
			<desc>Application Server</desc>
			<v:textBlock v:margins="rect(4,4,4,4)" v:tabSpace="42.5197"/>
			<v:textRect cx="57.349" cy="561.283" width="114.7" height="19.8425"/>
			<rect x="0" y="551.361" width="114.698" height="19.8425" class="st4"/>
			<text x="4" y="564.28" class="st5" v:langID="1040"><v:paragraph/><v:tabList/>Application Server</text>		</g>
		<g id="shape15-18" v:mID="15" v:groupContext="shape" transform="translate(175.417,-96.7318)">
			<title>Foglio.15</title>
			<ellipse cx="17.191" cy="554.013" rx="17.191" ry="17.191" class="st3"/>
		</g>
		<g id="shape18-20" v:mID="18" v:groupContext="shape" transform="translate(17.7725,-104.754)">
			<title>Foglio.18</title>
			<desc>CallerPrincipalCallback</desc>
			<v:textBlock v:margins="rect(4,4,4,4)" v:tabSpace="42.5197"/>
			<v:textRect cx="63.6505" cy="563.181" width="127.31" height="16.0449"/>
			<rect x="0" y="555.159" width="127.301" height="16.0449" class="st4"/>
			<text x="4" y="566.18" class="st5" v:langID="1040"><v:paragraph/><v:tabList/>CallerPrincipalCallback</text>		</g>
		<g id="shape4-23" v:mID="4" v:groupContext="shape" transform="translate(219.672,-497.179)">
			<title>Foglio.4</title>
			<path d="M0 571.2 L226.09 571.2" class="st6"/>
		</g>
		<g id="shape7-26" v:mID="7" v:groupContext="shape" transform="translate(219.672,-492.077)">
			<title>Foglio.7</title>
			<path d="M5.1 571.2 L0 566.1 L5.1 561" class="st6"/>
		</g>
		<g id="shape10-29" v:mID="10" v:groupContext="shape" transform="translate(233.118,-497.746)">
			<title>Foglio.10</title>
			<desc>endpointActivation()</desc>
			<v:textBlock v:margins="rect(4,4,4,4)" v:tabSpace="42.5197"/>
			<v:textRect cx="67.8318" cy="563.181" width="135.67" height="16.0449"/>
			<rect x="0" y="555.159" width="135.664" height="16.0449" class="st4"/>
			<text x="4" y="566.18" class="st5" v:langID="1040"><v:paragraph/><v:tabList/>endpointActivation()</text>		</g>
		<g id="shape13-32" v:mID="13" v:groupContext="shape" transform="translate(369.024,-194.439) scale(-1,1)">
			<title>Foglio.13</title>
			<desc>setupSecurityContext()</desc>
			<v:textBlock v:margins="rect(4,4,4,4)" v:tabSpace="42.5197"/>
			<v:textRect cx="67.8318" cy="563.181" width="135.67" height="16.0449"/>
			<rect x="0" y="555.159" width="135.664" height="16.0449" class="st4"/>
			<text x="-131.66" y="566.18" transform="scale(-1,1)" class="st5" v:langID="1040"><v:paragraph/><v:tabList/>setupSecurityContext()</text>		</g>
		<g id="shape14-35" v:mID="14" v:groupContext="shape" transform="translate(434.617,-12.3713)">
			<title>Foglio.14</title>
			<rect x="0" y="54.5836" width="218.071" height="516.62" rx="11.3386" ry="11.3386" class="st2"/>
		</g>
		<g id="shape16-37" v:mID="16" v:groupContext="shape" transform="translate(452.995,-335.941)">
			<title>Foglio.16</title>
			<ellipse cx="17.191" cy="554.013" rx="17.191" ry="17.191" class="st3"/>
		</g>
		<g id="shape19-39" v:mID="19" v:groupContext="shape" transform="translate(467.321,-550.641)">
			<title>Foglio.19</title>
			<desc>Resource Adapter</desc>
			<v:textBlock v:margins="rect(4,4,4,4)" v:tabSpace="42.5197"/>
			<v:textRect cx="57.349" cy="561.283" width="114.7" height="19.8425"/>
			<rect x="0" y="551.361" width="114.698" height="19.8425" class="st4"/>
			<text x="4" y="564.28" class="st5" v:langID="1040"><v:paragraph/><v:tabList/>Resource Adapter</text>		</g>
		<g id="shape8-42" v:mID="8" v:groupContext="shape" transform="translate(498.962,-345.838)">
			<title>Foglio.8</title>
			<desc>Message object</desc>
			<v:textBlock v:margins="rect(4,4,4,4)" v:tabSpace="42.5197"/>
			<v:textRect cx="57.349" cy="561.283" width="114.7" height="19.8425"/>
			<rect x="0" y="551.361" width="114.698" height="19.8425" class="st4"/>
			<text x="4" y="564.28" class="st5" v:langID="1040"><v:paragraph/><v:tabList/>Message object</text>		</g>
		<g id="shape23-45" v:mID="23" v:groupContext="shape" transform="translate(233.318,-477.422)">
			<title>Foglio.23</title>
			<desc>endpointDeactivation()</desc>
			<v:textBlock v:margins="rect(4,4,4,4)" v:tabSpace="42.5197"/>
			<v:textRect cx="67.8318" cy="563.181" width="135.67" height="16.0449"/>
			<rect x="0" y="555.159" width="135.664" height="16.0449" class="st4"/>
			<text x="4" y="566.18" class="st5" v:langID="1040"><v:paragraph/><v:tabList/>endpointDeactivation()</text>		</g>
		<g id="shape24-48" v:mID="24" v:groupContext="shape" transform="translate(175.159,-414.165)">
			<title>Foglio.24</title>
			<ellipse cx="17.191" cy="554.013" rx="17.191" ry="17.191" class="st3"/>
		</g>
		<g id="shape25-50" v:mID="25" v:groupContext="shape" transform="translate(18.4914,-423.564)">
			<title>Foglio.25</title>
			<desc>WorkManager</desc>
			<v:textBlock v:margins="rect(4,4,4,4)" v:tabSpace="42.5197"/>
			<v:textRect cx="50.6243" cy="563.181" width="101.25" height="16.0449"/>
			<rect x="0" y="555.159" width="101.249" height="16.0449" class="st4"/>
			<text x="4" y="566.18" class="st5" v:langID="1040"><v:paragraph/><v:tabList/>WorkManager</text>		</g>
		<g id="shape26-53" v:mID="26" v:groupContext="shape" transform="translate(219.22,-431.982) rotate(-0.0453679)">
			<title>Foglio.26</title>
			<path d="M0 571.2 L215.82 571.2" class="st6"/>
		</g>
		<g id="shape27-56" v:mID="27" v:groupContext="shape" transform="translate(219.672,-426.88)">
			<title>Foglio.27</title>
			<path d="M5.1 571.2 L0 566.1 L5.1 561" class="st6"/>
		</g>
		<g id="shape28-59" v:mID="28" v:groupContext="shape" transform="translate(233.118,-432.549)">
			<title>Foglio.28</title>
			<desc>createEndpoint(XAResource)</desc>
			<v:textBlock v:margins="rect(4,4,4,4)" v:tabSpace="42.5197"/>
			<v:textRect cx="73.601" cy="563.181" width="147.21" height="16.0449"/>
			<rect x="0" y="555.159" width="147.202" height="16.0449" class="st4"/>
			<text x="4" y="566.18" class="st5" v:langID="1040"><v:paragraph/><v:tabList/>createEndpoint(XAResource)</text>		</g>
		<g id="shape29-62" v:mID="29" v:groupContext="shape" transform="translate(233.318,-412.225)">
			<title>Foglio.29</title>
			<desc>isDeliveryTransacted()</desc>
			<v:textBlock v:margins="rect(4,4,4,4)" v:tabSpace="42.5197"/>
			<v:textRect cx="67.8318" cy="563.181" width="135.67" height="16.0449"/>
			<rect x="0" y="555.159" width="135.664" height="16.0449" class="st4"/>
			<text x="4" y="566.18" class="st5" v:langID="1040"><v:paragraph/><v:tabList/>isDeliveryTransacted()</text>		</g>
		<g id="shape30-65" v:mID="30" v:groupContext="shape" transform="translate(453.897,-335.191)">
			<title>Foglio.30</title>
			<ellipse cx="17.191" cy="554.013" rx="17.191" ry="17.191" class="st3"/>
		</g>
		<g id="shape31-67" v:mID="31" v:groupContext="shape" transform="translate(453.897,-267.159)">
			<title>Foglio.31</title>
			<ellipse cx="17.191" cy="554.013" rx="17.191" ry="17.191" class="st3"/>
		</g>
		<g id="shape33-69" v:mID="33" v:groupContext="shape" transform="translate(446.521,-346.584) scale(-1,1)">
			<title>Foglio.33</title>
			<path d="M5.1 571.2 L0 566.1 L5.1 561" class="st6"/>
		</g>
		<g id="shape34-72" v:mID="34" v:groupContext="shape" transform="translate(369.224,-352.948) scale(-1,1)">
			<title>Foglio.34</title>
			<desc>message delivery calls</desc>
			<v:textBlock v:margins="rect(4,4,4,4)" v:tabSpace="42.5197"/>
			<v:textRect cx="67.8318" cy="563.181" width="135.67" height="16.0449"/>
			<rect x="0" y="555.159" width="135.664" height="16.0449" class="st4"/>
			<text x="-131.66" y="566.18" transform="scale(-1,1)" class="st5" v:langID="1040"><v:paragraph/><v:tabList/>message delivery calls</text>		</g>
		<g id="shape36-75" v:mID="36" v:groupContext="shape" transform="translate(446.973,-283.655) rotate(0.0453679) scale(-1,1)">
			<title>Foglio.36</title>
			<path d="M0 571.2 L215.82 571.2" class="st6"/>
		</g>
		<g id="shape37-78" v:mID="37" v:groupContext="shape" transform="translate(446.521,-278.553) scale(-1,1)">
			<title>Foglio.37</title>
			<path d="M5.1 571.2 L0 566.1 L5.1 561" class="st6"/>
		</g>
		<g id="shape38-81" v:mID="38" v:groupContext="shape" transform="translate(392.144,-284.917) scale(-1,1)">
			<title>Foglio.38</title>
			<desc>workAccepted(), workStarted()</desc>
			<v:textBlock v:margins="rect(4,4,4,4)" v:tabSpace="42.5197"/>
			<v:textRect cx="79.6126" cy="563.181" width="159.23" height="16.0449"/>
			<rect x="0" y="555.159" width="159.225" height="16.0449" class="st4"/>
			<text x="-155.23" y="566.18" transform="scale(-1,1)" class="st5" v:langID="1040"><v:paragraph/><v:tabList/>workAccepted(), workStarted()</text>		</g>
		<g id="shape32-84" v:mID="32" v:groupContext="shape" transform="translate(446.973,-351.814) rotate(0.0453679) scale(-1,1)">
			<title>Foglio.32</title>
			<path d="M0 571.2 L215.82 571.2" class="st6"/>
		</g>
		<g id="shape40-87" v:mID="40" v:groupContext="shape" transform="translate(499.717,-274.541)">
			<title>Foglio.40</title>
			<desc>XAResource</desc>
			<v:textBlock v:margins="rect(4,4,4,4)" v:tabSpace="42.5197"/>
			<v:textRect cx="73.601" cy="563.181" width="147.21" height="16.0449"/>
			<rect x="0" y="555.159" width="147.202" height="16.0449" class="st4"/>
			<text x="4" y="566.18" class="st5" v:langID="1040"><v:paragraph/><v:tabList/>XAResource</text>		</g>
		<g id="shape20-90" v:mID="20" v:groupContext="shape" transform="translate(175.373,-96.7318)">
			<title>Foglio.20</title>
			<ellipse cx="17.191" cy="554.013" rx="17.191" ry="17.191" class="st3"/>
		</g>
		<g id="shape21-92" v:mID="21" v:groupContext="shape" transform="translate(175.631,-25.4994)">
			<title>Foglio.21</title>
			<ellipse cx="17.191" cy="554.013" rx="17.191" ry="17.191" class="st3"/>
		</g>
		<g id="shape22-94" v:mID="22" v:groupContext="shape" transform="translate(17.9859,-33.5219)">
			<title>Foglio.22</title>
			<desc>GroupPrincipalCallback</desc>
			<v:textBlock v:margins="rect(4,4,4,4)" v:tabSpace="42.5197"/>
			<v:textRect cx="63.6505" cy="563.181" width="127.31" height="16.0449"/>
			<rect x="0" y="555.159" width="127.301" height="16.0449" class="st4"/>
			<text x="4" y="566.18" class="st5" v:langID="1040"><v:paragraph/><v:tabList/>GroupPrincipalCallback</text>		</g>
		<g id="shape41-97" v:mID="41" v:groupContext="shape" transform="translate(454.263,-170.433)">
			<title>Foglio.41</title>
			<ellipse cx="17.191" cy="554.013" rx="17.191" ry="17.191" class="st3"/>
		</g>
		<g id="shape42-99" v:mID="42" v:groupContext="shape" transform="translate(500.084,-177.815)">
			<title>Foglio.42</title>
			<desc>Security Context</desc>
			<v:textBlock v:margins="rect(4,4,4,4)" v:tabSpace="42.5197"/>
			<v:textRect cx="73.601" cy="563.181" width="147.21" height="16.0449"/>
			<rect x="0" y="555.159" width="147.202" height="16.0449" class="st4"/>
			<text x="4" y="566.18" class="st5" v:langID="1040"><v:paragraph/><v:tabList/>Security Context</text>		</g>
		<g id="shape9-102" v:mID="9" v:groupContext="shape" transform="translate(445.759,-187.807) scale(-1,1)">
			<title>Foglio.9</title>
			<path d="M5.1 571.2 L0 566.1 L5.1 561" class="st6"/>
		</g>
		<g id="shape6-105" v:mID="6" v:groupContext="shape" transform="translate(446.212,-192.513) rotate(0.0453679) scale(-1,1)">
			<title>Foglio.6</title>
			<path d="M0 571.2 L215.82 571.2" class="st6"/>
		</g>
		<g id="shape35-108" v:mID="35" v:groupContext="shape" transform="translate(233.56,-156.626)">
			<title>Foglio.35</title>
			<desc>handle()</desc>
			<v:textBlock v:margins="rect(4,4,4,4)" v:tabSpace="42.5197"/>
			<v:textRect cx="67.8318" cy="563.181" width="135.67" height="16.0449"/>
			<rect x="0" y="555.159" width="135.664" height="16.0449" class="st4"/>
			<text x="4" y="566.18" class="st5" v:langID="1040"><v:paragraph/><v:tabList/>handle()</text>		</g>
		<g id="shape39-111" v:mID="39" v:groupContext="shape" transform="translate(218.988,-172.926)">
			<title>Foglio.39</title>
			<path d="M5.1 571.2 L0 566.1 L5.1 561" class="st6"/>
		</g>
		<g id="shape43-114" v:mID="43" v:groupContext="shape" transform="translate(218.535,-177.632) rotate(-0.0453679)">
			<title>Foglio.43</title>
			<path d="M0 571.2 L215.82 571.2" class="st6"/>
		</g>
		<g id="shape44-117" v:mID="44" v:groupContext="shape" transform="translate(496.127,-493.948)">
			<title>Foglio.44</title>
			<desc>Resource Adapter</desc>
			<v:textBlock v:margins="rect(4,4,4,4)" v:tabSpace="42.5197"/>
			<v:textRect cx="57.349" cy="561.283" width="114.7" height="19.8425"/>
			<rect x="0" y="551.361" width="114.698" height="19.8425" class="st4"/>
			<text x="4" y="564.28" class="st5" v:langID="1040"><v:paragraph/><v:tabList/>Resource Adapter</text>		</g>
	</g>
</svg>
