<?xml version="1.0" encoding="UTF-8" standalone="no"?>
<!DOCTYPE svg PUBLIC "-//W3C//DTD SVG 1.0//EN" "http://www.w3.org/TR/2001/REC-SVG-20010904/DTD/svg10.dtd">
<!-- Generato da Microsoft Visio 11.0, SVG Export, v1.0 conn-54.svg Pagina 1 -->
<svg xmlns="http://www.w3.org/2000/svg" xmlns:v="http://schemas.microsoft.com/visio/2003/SVGExtensions/" width="8.99638in"
		height="8.99638in" viewBox="0 0 647.739 647.739" xml:space="preserve" color-interpolation-filters="sRGB" class="st18">
	<v:documentProperties v:langID="1040" v:metric="true" v:viewMarkup="false">
		<v:userDefs>
			<v:ud v:nameU="MBSAAddinOutlineVisible" v:prompt="" v:val="VT0(1):26"/>
		</v:userDefs>
	</v:documentProperties>

	<style type="text/css">
	<![CDATA[
		.st1 {fill:#ffffff;stroke:none;stroke-linecap:round;stroke-linejoin:round;stroke-width:0.72}
		.st2 {fill:none;stroke:none;stroke-linecap:round;stroke-linejoin:round;stroke-width:0.72}
		.st3 {fill:#000000;font-family:Arial;font-size:0.666664em;font-weight:bold}
		.st4 {stroke:#f28226;stroke-linecap:round;stroke-linejoin:round;stroke-width:2.16}
		.st5 {stroke:#f28226;stroke-dasharray:0,6.48;stroke-linecap:round;stroke-linejoin:round;stroke-width:2.16}
		.st6 {fill:#f2f2f2;stroke:none;stroke-linecap:round;stroke-linejoin:round;stroke-width:0.72}
		.st7 {fill:#000000;font-family:Arial;font-size:0.666664em}
		.st8 {fill:#ffffff;font-family:Arial;font-size:0.916672em;font-weight:bold}
		.st9 {fill:#facca7;stroke:none;stroke-linecap:round;stroke-linejoin:round;stroke-width:0.72}
		.st10 {fill:#f28226;stroke:none;stroke-linecap:round;stroke-linejoin:round;stroke-width:0.72}
		.st11 {fill:#ffffff;font-family:Arial;font-size:0.666664em;font-weight:bold}
		.st12 {font-size:1em}
		.st13 {fill:#ffffff;fill-opacity:0;stroke:#8c8c8c;stroke-dasharray:0,6.48;stroke-linecap:round;stroke-linejoin:round;stroke-width:2.16}
		.st14 {stroke:#f28226;stroke-dasharray:2.16,4.32;stroke-linecap:round;stroke-linejoin:round;stroke-width:2.16}
		.st15 {fill:#285ea6;stroke:#3475cd;stroke-linecap:round;stroke-linejoin:round;stroke-width:0.72}
		.st16 {fill:#404040;font-family:Arial;font-size:0.666664em;font-style:italic}
		.st17 {fill:#173660;stroke:none;stroke-linecap:round;stroke-linejoin:round;stroke-width:0.72}
		.st18 {fill:none;fill-rule:evenodd;font-size:12;overflow:visible;stroke-linecap:square;stroke-miterlimit:3}
	]]>
	</style>

	<g v:mID="0" v:index="1" v:groupContext="foregroundPage">
		<title>Pagina 1</title>
		<v:pageProperties v:drawingScale="0.0393701" v:pageScale="0.0393701" v:drawingUnits="24" v:shadowOffsetX="8.50394"
				v:shadowOffsetY="-8.50394"/>
		<g id="shape22-1" v:mID="22" v:groupContext="shape" transform="translate(0.72,-0.72)">
			<title>Foglio.22</title>
			<rect x="0" y="1.44" width="646.299" height="646.299" class="st1"/>
		</g>
		<g id="shape36-3" v:mID="36" v:groupContext="shape" transform="translate(529.027,-544.972)">
			<title>Foglio.36</title>
			<desc>Connection</desc>
			<v:textBlock v:margins="rect(4,4,4,4)" v:tabSpace="42.5197"/>
			<v:textRect cx="28.5236" cy="641.38" width="57.05" height="12.7187"/>
			<rect x="0" y="635.021" width="57.0472" height="12.7187" class="st2"/>
			<text x="4" y="643.78" class="st3" v:langID="1040"><v:paragraph/><v:tabList/>Connection</text>		</g>
		<g id="shape42-6" v:mID="42" v:groupContext="shape" transform="translate(-87.7436,573.035) rotate(-90)">
			<title>Foglio.42</title>
			<path d="M5.1 647.74 L0 642.64 L5.1 637.53" class="st4"/>
		</g>
		<g id="shape48-9" v:mID="48" v:groupContext="shape" transform="translate(-92.846,572.185) rotate(-90)">
			<title>Foglio.48</title>
			<path d="M0 647.74 L432.57 647.74" class="st5"/>
		</g>
		<g id="shape51-12" v:mID="51" v:groupContext="shape" transform="translate(-450.011,634.263) rotate(-90)">
			<title>Foglio.51</title>
			<rect x="0" y="466.322" width="58.1102" height="181.417" rx="11.3386" ry="11.3386" class="st6"/>
		</g>
		<g id="shape52-14" v:mID="52" v:groupContext="shape" transform="translate(63.0822,-47.6135)">
			<title>Foglio.52</title>
			<desc>Architected Interface</desc>
			<v:textBlock v:margins="rect(4,4,4,4)" v:tabSpace="42.5197"/>
			<v:textRect cx="41.1024" cy="638.266" width="82.21" height="18.9456"/>
			<rect x="0" y="628.794" width="82.2047" height="18.9456" class="st2"/>
			<text x="4.42" y="640.67" class="st7" v:langID="1040"><v:paragraph v:horizAlign="1"/><v:tabList/>Architected Interface</text>		</g>
		<g id="shape53-17" v:mID="53" v:groupContext="shape" transform="translate(55.9956,-18.503)">
			<title>Foglio.53</title>
			<desc>Implementation Specific</desc>
			<v:textBlock v:margins="rect(4,4,4,4)" v:tabSpace="42.5197"/>
			<v:textRect cx="52.4409" cy="638.593" width="104.89" height="18.2923"/>
			<rect x="0" y="629.447" width="104.882" height="18.2923" class="st2"/>
			<text x="9.98" y="640.99" class="st7" v:langID="1040"><v:paragraph v:horizAlign="1"/><v:tabList/>Implementation Specific</text>		</g>
		<g id="shape54-20" v:mID="54" v:groupContext="shape" transform="translate(391.138,-479.085)">
			<title>Foglio.54</title>
			<desc>Resource Adapter</desc>
			<v:textBlock v:margins="rect(4,4,4,4)" v:tabSpace="42.5197"/>
			<v:textRect cx="64.5427" cy="641.38" width="129.09" height="12.7187"/>
			<rect x="0" y="635.021" width="129.085" height="12.7187" class="st2"/>
			<text x="4" y="644.68" class="st8" v:langID="1040"><v:paragraph/><v:tabList/>Resource Adapter</text>		</g>
		<g id="shape55-23" v:mID="55" v:groupContext="shape" transform="translate(387.649,-628.631)">
			<title>Foglio.55</title>
			<desc>Application Component</desc>
			<v:textBlock v:margins="rect(4,4,4,4)" v:tabSpace="42.5197"/>
			<v:textRect cx="50.3695" cy="641.38" width="100.74" height="12.7187"/>
			<rect x="0" y="635.021" width="100.739" height="12.7187" class="st2"/>
			<text x="4" y="643.78" class="st3" v:langID="1040"><v:paragraph/><v:tabList/>Application Component</text>		</g>
		<g id="shape56-26" v:mID="56" v:groupContext="shape" transform="translate(29.0665,1238.07) scale(1,-1)">
			<title>Foglio.56</title>
			<path d="M0 647.74 L25.51 647.74" class="st4"/>
		</g>
		<g id="shape57-29" v:mID="57" v:groupContext="shape" transform="translate(55.9956,1266.41) rotate(180)">
			<title>Foglio.57</title>
			<path d="M0 647.74 L28.35 647.74" class="st5"/>
		</g>
		<g id="shape20-32" v:mID="20" v:groupContext="shape" transform="translate(29.0665,-182.137)">
			<title>Foglio.20</title>
			<rect x="0" y="367.109" width="240.945" height="280.63" rx="8.50394" ry="8.50394" class="st9"/>
		</g>
		<g id="shape21-34" v:mID="21" v:groupContext="shape" transform="translate(13.7669,-570.484)">
			<title>Foglio.21</title>
			<desc>Application Server</desc>
			<v:textBlock v:margins="rect(4,4,4,4)" v:tabSpace="42.5197"/>
			<v:textRect cx="42.2287" cy="641.597" width="84.46" height="12.2835"/>
			<rect x="0" y="635.456" width="84.4574" height="12.2835" class="st2"/>
			<text x="6.89" y="644" class="st3" v:langID="1040"><v:paragraph v:horizAlign="1"/><v:tabList/>Application Server</text>		</g>
		<g id="shape4-37" v:mID="4" v:groupContext="shape" transform="translate(95.6806,-301.104)">
			<title>Foglio.4</title>
			<rect x="0" y="619.216" width="94.9606" height="28.5236" rx="5.66929" ry="5.66929" class="st10"/>
		</g>
		<g id="shape5-39" v:mID="5" v:groupContext="shape" transform="translate(98.3773,-306.862)">
			<title>Foglio.5</title>
			<desc>Pool Manager</desc>
			<v:textBlock v:margins="rect(4,4,4,4)" v:tabSpace="42.5197"/>
			<v:textRect cx="32.6674" cy="636.821" width="65.34" height="21.8356"/>
			<rect x="0" y="625.904" width="65.3348" height="21.8356" class="st2"/>
			<text x="4" y="639.22" class="st11" v:langID="1040"><v:paragraph/><v:tabList/>Pool Manager</text>		</g>
		<g id="shape6-42" v:mID="6" v:groupContext="shape" transform="translate(172.216,-190.464)">
			<title>Foglio.6</title>
			<rect x="0" y="613.369" width="90.7087" height="34.3701" rx="5.66929" ry="5.66929" class="st10"/>
		</g>
		<g id="shape7-44" v:mID="7" v:groupContext="shape" transform="translate(182.983,-196.975)">
			<title>Foglio.7</title>
			<desc>Transaction Manager</desc>
			<v:textBlock v:margins="rect(4,4,4,4)" v:tabSpace="42.5197"/>
			<v:textRect cx="29.3409" cy="636.821" width="58.69" height="21.8356"/>
			<rect x="0" y="625.904" width="58.6819" height="21.8356" class="st2"/>
			<text x="4" y="634.42" class="st11" v:langID="1040"><v:paragraph/><v:tabList/>Transaction <tspan x="4" dy="1.2em"
						class="st12">Manager</tspan></text>		</g>
		<g id="shape9-48" v:mID="9" v:groupContext="shape" transform="translate(92.1373,-547.117)">
			<title>Foglio.9</title>
			<desc>ConnectionManager</desc>
			<v:textBlock v:margins="rect(4,4,4,4)" v:tabSpace="42.5197"/>
			<v:textRect cx="50.3695" cy="641.38" width="100.74" height="12.7187"/>
			<rect x="0" y="635.021" width="100.739" height="12.7187" class="st2"/>
			<text x="4" y="643.78" class="st3" v:langID="1040"><v:paragraph/><v:tabList/>ConnectionManager</text>		</g>
		<g id="shape59-51" v:mID="59" v:groupContext="shape" transform="translate(22.9883,-97.098)">
			<title>Foglio.59</title>
			<desc>ConnectionEventListener</desc>
			<v:textBlock v:margins="rect(4,4,4,4)" v:tabSpace="42.5197"/>
			<v:textRect cx="55.6844" cy="641.38" width="111.37" height="12.7187"/>
			<rect x="0" y="635.021" width="111.369" height="12.7187" class="st2"/>
			<text x="4" y="643.78" class="st3" v:langID="1040"><v:paragraph/><v:tabList/>ConnectionEventListener</text>		</g>
		<g id="shape11-54" v:mID="11" v:groupContext="shape" transform="translate(359.184,-430.896)">
			<title>Foglio.11</title>
			<desc>LocalTransaction</desc>
			<v:textBlock v:margins="rect(4,4,4,4)" v:tabSpace="42.5197"/>
			<v:textRect cx="68.1501" cy="641.38" width="136.31" height="12.7187"/>
			<rect x="0" y="635.021" width="136.3" height="12.7187" class="st2"/>
			<text x="4" y="643.78" class="st3" v:langID="1040"><v:paragraph/><v:tabList/>LocalTransaction</text>		</g>
		<g id="shape62-57" v:mID="62" v:groupContext="shape" transform="translate(175.051,1167.2) scale(1,-1)">
			<title>Foglio.62</title>
			<path d="M0 647.74 L280.63 647.74" class="st4"/>
		</g>
		<g id="shape64-60" v:mID="64" v:groupContext="shape" transform="translate(-42.2442,54.829) rotate(-64.9716) scale(-1,1)">
			<title>Foglio.64</title>
			<path d="M0 647.74 L210.35 647.74" class="st4"/>
		</g>
		<g id="shape38-63" v:mID="38" v:groupContext="shape" transform="translate(557.728,-293.185)">
			<title>Foglio.38</title>
			<desc>Managed Connection</desc>
			<v:textBlock v:margins="rect(4,4,4,4)" v:tabSpace="42.5197"/>
			<v:textRect cx="29.8824" cy="638.066" width="59.77" height="19.3457"/>
			<rect x="0" y="628.393" width="59.7648" height="19.3457" class="st2"/>
			<text x="4" y="635.67" class="st3" v:langID="1040"><v:paragraph/><v:tabList/>Managed<v:newlineChar/><tspan x="4"
						dy="1.2em" class="st12">Connection</tspan></text>		</g>
		<g id="shape67-67" v:mID="67" v:groupContext="shape" transform="translate(16.1334,-91.4287)">
			<title>Foglio.67</title>
			<rect x="0" y="174.353" width="263.799" height="473.386" rx="11.3386" ry="11.3386" class="st13"/>
		</g>
		<g id="shape68-69" v:mID="68" v:groupContext="shape" transform="translate(61.6649,-32.6762)">
			<title>Foglio.68</title>
			<desc>Instantiation</desc>
			<v:textBlock v:margins="rect(4,4,4,4)" v:tabSpace="42.5197"/>
			<v:textRect cx="52.4409" cy="638.593" width="104.89" height="18.2923"/>
			<rect x="0" y="629.447" width="104.882" height="18.2923" class="st2"/>
			<text x="4" y="640.99" class="st7" v:langID="1040"><v:paragraph/><v:tabList/>Instantiation</text>		</g>
		<g id="shape69-72" v:mID="69" v:groupContext="shape" transform="translate(55.9956,1252.24) rotate(180)">
			<title>Foglio.69</title>
			<path d="M0 647.74 L28.35 647.74" class="st14"/>
		</g>
		<g id="shape2-75" v:mID="2" v:groupContext="shape" transform="translate(134.999,-504.921)">
			<title>Foglio.2</title>
			<ellipse cx="17.191" cy="630.548" rx="17.191" ry="17.191" class="st15"/>
		</g>
		<g id="shape23-77" v:mID="23" v:groupContext="shape" transform="translate(291.094,-91.4287)">
			<title>Foglio.23</title>
			<rect x="0" y="174.353" width="348.839" height="473.386" rx="11.3386" ry="11.3386" class="st13"/>
		</g>
		<g id="shape43-79" v:mID="43" v:groupContext="shape" transform="translate(803.089,465.821) rotate(90)">
			<title>Foglio.43</title>
			<path d="M0 647.74 L61.78 647.74" class="st5"/>
		</g>
		<g id="shape58-82" v:mID="58" v:groupContext="shape" transform="translate(172.582,1149.83) rotate(180)">
			<title>Foglio.58</title>
			<ellipse cx="17.191" cy="630.548" rx="17.191" ry="17.191" class="st15"/>
		</g>
		<g id="shape26-84" v:mID="26" v:groupContext="shape" transform="translate(433.003,-590.143)">
			<title>Foglio.26</title>
			<ellipse cx="17.191" cy="630.548" rx="17.191" ry="17.191" class="st15"/>
		</g>
		<g id="shape44-86" v:mID="44" v:groupContext="shape" transform="translate(537.885,-505.287)">
			<title>Foglio.44</title>
			<ellipse cx="17.191" cy="630.548" rx="17.191" ry="17.191" class="st15"/>
		</g>
		<g id="shape49-88" v:mID="49" v:groupContext="shape" transform="translate(993.716,-339.006) rotate(45) scale(-1,1)">
			<title>Foglio.49</title>
			<path d="M5.1 647.74 L0 642.64 L5.1 637.53" class="st4"/>
		</g>
		<g id="shape61-91" v:mID="61" v:groupContext="shape" transform="translate(898.209,-424.075) rotate(33.7334) scale(-1,1)">
			<title>Foglio.61</title>
			<path d="M0 647.74 L97.88 647.74" class="st5"/>
		</g>
		<g id="shape63-94" v:mID="63" v:groupContext="shape" transform="translate(519.351,-569.104)">
			<title>Foglio.63</title>
			<desc>Resource Adapter</desc>
			<v:textBlock v:margins="rect(4,4,4,4)" v:tabSpace="42.5197"/>
			<v:textRect cx="50.3695" cy="641.38" width="100.74" height="12.7187"/>
			<rect x="0" y="635.021" width="100.739" height="12.7187" class="st2"/>
			<text x="4" y="643.78" class="st3" v:langID="1040"><v:paragraph/><v:tabList/>Resource Adapter</text>		</g>
		<g id="shape10-97" v:mID="10" v:groupContext="shape" transform="translate(421.665,898.475) rotate(180)">
			<title>Foglio.10</title>
			<path d="M0 647.74 L149.67 647.74" class="st4"/>
		</g>
		<g id="shape24-100" v:mID="24" v:groupContext="shape" transform="translate(421.665,893.373) rotate(180)">
			<title>Foglio.24</title>
			<path d="M5.1 647.74 L0 642.64 L5.1 637.53" class="st4"/>
		</g>
		<g id="shape12-103" v:mID="12" v:groupContext="shape" transform="translate(537.885,-315.366)">
			<title>Foglio.12</title>
			<ellipse cx="17.191" cy="630.548" rx="17.191" ry="17.191" class="st15"/>
		</g>
		<g id="shape13-105" v:mID="13" v:groupContext="shape" transform="translate(538.263,966.506) rotate(180)">
			<title>Foglio.13</title>
			<path d="M0 647.74 L266.83 647.74" class="st4"/>
		</g>
		<g id="shape16-108" v:mID="16" v:groupContext="shape" transform="translate(537.602,961.404) rotate(180)">
			<title>Foglio.16</title>
			<path d="M5.1 647.74 L0 642.64 L5.1 637.53" class="st4"/>
		</g>
		<g id="shape17-111" v:mID="17" v:groupContext="shape" transform="translate(425.263,-309.696) scale(-1,1)">
			<title>Foglio.17</title>
			<desc>getXAResource</desc>
			<v:textBlock v:margins="rect(4,4,4,4)" v:tabSpace="42.5197"/>
			<v:textRect cx="63.1254" cy="640.653" width="126.26" height="14.1732"/>
			<rect x="0" y="633.566" width="126.251" height="14.1732" class="st2"/>
			<text x="-122.25" y="643.05" transform="scale(-1,1)" class="st3" v:langID="1040"><v:paragraph/><v:tabList/>getXAResource</text>		</g>
		<g id="shape25-114" v:mID="25" v:groupContext="shape" transform="translate(461.35,-330.956) scale(-1,1)">
			<title>Foglio.25</title>
			<desc>getLocalTransaction</desc>
			<v:textBlock v:margins="rect(4,4,4,4)" v:tabSpace="42.5197"/>
			<v:textRect cx="82.2047" cy="640.653" width="164.41" height="14.1732"/>
			<rect x="0" y="633.566" width="164.409" height="14.1732" class="st2"/>
			<text x="-160.41" y="643.05" transform="scale(-1,1)" class="st3" v:langID="1040"><v:paragraph/><v:tabList/>getLocalTransaction</text>		</g>
		<g id="shape28-117" v:mID="28" v:groupContext="shape" transform="translate(424.5,-386.049)">
			<title>Foglio.28</title>
			<ellipse cx="17.191" cy="630.548" rx="17.191" ry="17.191" class="st15"/>
		</g>
		<g id="shape30-119" v:mID="30" v:groupContext="shape" transform="translate(28.1475,508.99) rotate(-116.317)">
			<title>Foglio.30</title>
			<path d="M0 647.74 L94 647.74" class="st14"/>
		</g>
		<g id="shape31-122" v:mID="31" v:groupContext="shape" transform="translate(0.0695916,-17.481) rotate(-60.5824)">
			<title>Foglio.31</title>
			<path d="M0 647.74 L90.52 647.74" class="st14"/>
		</g>
		<g id="shape32-125" v:mID="32" v:groupContext="shape" transform="translate(236.19,874.166) rotate(-151.776)">
			<title>Foglio.32</title>
			<path d="M0 647.74 L100.06 647.74" class="st14"/>
		</g>
		<g id="shape34-128" v:mID="34" v:groupContext="shape" transform="translate(206.232,-132.659)">
			<title>Foglio.34</title>
			<desc>Connection Event notifications</desc>
			<v:textBlock v:margins="rect(4,4,4,4)" v:tabSpace="42.5197"/>
			<v:textRect cx="94.9606" cy="637.946" width="189.93" height="19.5874"/>
			<rect x="0" y="628.152" width="189.921" height="19.5874" class="st2"/>
			<text x="4" y="640.35" class="st3" v:langID="1040"><v:paragraph/><v:tabList/>Connection Event notifications</text>		</g>
		<g id="shape37-131" v:mID="37" v:groupContext="shape" transform="translate(527.201,-156.626)">
			<title>Foglio.37</title>
			<desc>EIS specific</desc>
			<v:textBlock v:margins="rect(4,4,4,4)" v:tabSpace="42.5197"/>
			<v:textRect cx="50.3695" cy="637.946" width="100.74" height="19.5874"/>
			<rect x="0" y="628.152" width="100.739" height="19.5874" class="st2"/>
			<text x="4" y="640.35" class="st7" v:langID="1040"><v:paragraph/><v:tabList/>EIS specific</text>		</g>
		<g id="shape39-134" v:mID="39" v:groupContext="shape" transform="translate(172.783,1161.53) scale(1,-1)">
			<title>Foglio.39</title>
			<path d="M5.1 647.74 L0 642.64 L5.1 637.53" class="st4"/>
		</g>
		<g id="shape46-137" v:mID="46" v:groupContext="shape" transform="translate(11.226,460.286) rotate(60) scale(1,-1)">
			<title>Foglio.46</title>
			<path d="M5.1 647.74 L0 642.64 L5.1 637.53" class="st4"/>
		</g>
		<g id="shape70-140" v:mID="70" v:groupContext="shape" transform="translate(133.062,812.661) rotate(30) scale(1,-1)">
			<title>Foglio.70</title>
			<path d="M5.1 647.74 L0 642.64 L5.1 637.53" class="st4"/>
		</g>
		<g id="shape74-143" v:mID="74" v:groupContext="shape" transform="translate(591.744,-371.931)">
			<title>Foglio.74</title>
			<desc>create new instance</desc>
			<v:textBlock v:margins="rect(4,4,4,4)" v:tabSpace="42.5197"/>
			<v:textRect cx="19.643" cy="636.273" width="39.29" height="22.9323"/>
			<rect x="0" y="624.807" width="39.286" height="22.9323" class="st2"/>
			<text x="4" y="629.07" class="st16" v:langID="1040"><v:paragraph/><v:tabList/>create <v:newlineChar/><tspan x="4"
						dy="1.2em" class="st12">new </tspan><tspan x="4" dy="1.2em" class="st12">instance</tspan></text>		</g>
		<g id="shape75-148" v:mID="75" v:groupContext="shape" transform="translate(505.178,-409.981)">
			<title>Foglio.75</title>
			<desc>ResourceAdapter specific</desc>
			<v:textBlock v:margins="rect(4,4,4,4)" v:tabSpace="42.5197"/>
			<v:textRect cx="36.1962" cy="634.638" width="72.4" height="26.2019"/>
			<rect x="0" y="621.537" width="72.3925" height="26.2019" class="st2"/>
			<text x="5.07" y="632.24" class="st7" v:langID="1040"><v:paragraph v:horizAlign="1"/><v:tabList/>ResourceAdapter<v:newlineChar/><tspan
						x="22.86" dy="1.2em" class="st12">specific</tspan></text>		</g>
		<g id="shape1-152" v:mID="1" v:groupContext="shape" transform="translate(333.028,-235.996)">
			<title>Foglio.1</title>
			<desc>XAResource</desc>
			<v:textBlock v:margins="rect(4,4,4,4)" v:tabSpace="42.5197"/>
			<v:textRect cx="63.1254" cy="640.653" width="126.26" height="14.1732"/>
			<rect x="0" y="633.566" width="126.251" height="14.1732" class="st2"/>
			<text x="4" y="643.05" class="st3" v:langID="1040"><v:paragraph/><v:tabList/>XAResource</text>		</g>
		<g id="shape3-155" v:mID="3" v:groupContext="shape" transform="translate(-205.425,570.484) rotate(-90)">
			<title>Foglio.3</title>
			<path d="M0 647.74 L308.8 647.74" class="st5"/>
		</g>
		<g id="shape8-158" v:mID="8" v:groupContext="shape" transform="translate(-282.741,570.371) rotate(-89.4885)">
			<title>Foglio.8</title>
			<path d="M0 647.74 L126.57 647.74" class="st5"/>
		</g>
		<g id="shape14-161" v:mID="14" v:groupContext="shape" transform="translate(-200.279,575.586) rotate(-90)">
			<title>Foglio.14</title>
			<path d="M5.1 647.74 L0 642.64 L5.1 637.53" class="st4"/>
		</g>
		<g id="shape15-164" v:mID="15" v:groupContext="shape" transform="translate(-277.665,576.153) rotate(-90)">
			<title>Foglio.15</title>
			<path d="M5.1 647.74 L0 642.64 L5.1 637.53" class="st4"/>
		</g>
		<g id="shape40-167" v:mID="40" v:groupContext="shape" transform="translate(291.271,-27.0822)">
			<title>Foglio.40</title>
			<rect x="0" y="608.054" width="351.496" height="39.685" rx="5.66929" ry="5.66929" class="st17"/>
		</g>
		<g id="shape41-169" v:mID="41" v:groupContext="shape" transform="translate(360.72,-40.5654)">
			<title>Foglio.41</title>
			<desc>Enterprise Information System (EIS)</desc>
			<v:textBlock v:margins="rect(4,4,4,4)" v:tabSpace="42.5197"/>
			<v:textRect cx="75.1181" cy="641.38" width="150.24" height="12.7187"/>
			<rect x="0" y="635.021" width="150.236" height="12.7187" class="st2"/>
			<text x="4" y="643.78" class="st11" v:langID="1040"><v:paragraph/><v:tabList/>Enterprise Information System (EIS)</text>		</g>
		<g id="shape35-172" v:mID="35" v:groupContext="shape" transform="translate(347.781,-193.293)">
			<title>Foglio.35</title>
			<ellipse cx="17.191" cy="630.548" rx="17.191" ry="17.191" class="st15"/>
		</g>
		<g id="shape18-174" v:mID="18" v:groupContext="shape" transform="translate(453.555,-364.972)">
			<title>Foglio.18</title>
			<desc>create new instance</desc>
			<v:textBlock v:margins="rect(4,4,4,4)" v:tabSpace="42.5197"/>
			<v:textRect cx="46.063" cy="640.716" width="92.13" height="14.0457"/>
			<rect x="0" y="633.694" width="92.126" height="14.0457" class="st2"/>
			<text x="4" y="643.12" class="st16" v:langID="1040"><v:paragraph/><v:tabList/>create new instance</text>		</g>
		<g id="shape19-177" v:mID="19" v:groupContext="shape" transform="translate(901.609,861.925) rotate(146.112)">
			<title>Foglio.19</title>
			<path d="M0 647.74 L187.48 647.74" class="st14"/>
		</g>
		<g id="shape27-180" v:mID="27" v:groupContext="shape" transform="translate(62.8457,-127.905) rotate(-30)">
			<title>Foglio.27</title>
			<path d="M5.1 647.74 L0 642.64 L5.1 637.53" class="st4"/>
		</g>
		<g id="shape29-183" v:mID="29" v:groupContext="shape" transform="translate(465.801,-278.388)">
			<title>Foglio.29</title>
			<desc>create new instance</desc>
			<v:textBlock v:margins="rect(4,4,4,4)" v:tabSpace="42.5197"/>
			<v:textRect cx="19.643" cy="636.273" width="39.29" height="22.9323"/>
			<rect x="0" y="624.807" width="39.286" height="22.9323" class="st2"/>
			<text x="4" y="629.07" class="st16" v:langID="1040"><v:paragraph/><v:tabList/>create <v:newlineChar/><tspan x="4"
						dy="1.2em" class="st12">new </tspan><tspan x="4" dy="1.2em" class="st12">instance</tspan></text>		</g>
		<g id="shape33-188" v:mID="33" v:groupContext="shape" transform="translate(347.79,1085.56) rotate(180)">
			<title>Foglio.33</title>
			<path d="M0 647.74 L75.79 647.74" class="st4"/>
		</g>
		<g id="shape45-191" v:mID="45" v:groupContext="shape" transform="translate(347.397,1080.46) rotate(180)">
			<title>Foglio.45</title>
			<path d="M5.1 647.74 L0 642.64 L5.1 637.53" class="st4"/>
		</g>
		<g id="shape47-194" v:mID="47" v:groupContext="shape" transform="translate(342.186,-158.17)">
			<title>Foglio.47</title>
			<desc>EIS specific</desc>
			<v:textBlock v:margins="rect(4,4,4,4)" v:tabSpace="42.5197"/>
			<v:textRect cx="50.3695" cy="637.946" width="100.74" height="19.5874"/>
			<rect x="0" y="628.152" width="100.739" height="19.5874" class="st2"/>
			<text x="4" y="640.35" class="st7" v:langID="1040"><v:paragraph/><v:tabList/>EIS specific</text>		</g>
	</g>
</svg>
