<?xml version="1.0" encoding="UTF-8" standalone="no"?>
<!DOCTYPE svg PUBLIC "-//W3C//DTD SVG 1.0//EN" "http://www.w3.org/TR/2001/REC-SVG-20010904/DTD/svg10.dtd">
<!-- Generato da Microsoft Visio 11.0, SVG Export, v1.0 conn-40.svg Pagina 1 -->
<svg xmlns="http://www.w3.org/2000/svg" xmlns:v="http://schemas.microsoft.com/visio/2003/SVGExtensions/" width="8.99638in"
		height="8.99638in" viewBox="0 0 647.739 647.739" xml:space="preserve" color-interpolation-filters="sRGB" class="st18">
	<v:documentProperties v:langID="1040" v:metric="true" v:viewMarkup="false">
		<v:userDefs>
			<v:ud v:nameU="MBSAAddinOutlineVisible" v:prompt="" v:val="VT0(1):26"/>
		</v:userDefs>
	</v:documentProperties>

	<style type="text/css">
	<![CDATA[
		.st1 {fill:#ffffff;stroke:none;stroke-linecap:round;stroke-linejoin:round;stroke-width:0.72}
		.st2 {fill:none;stroke:none;stroke-linecap:round;stroke-linejoin:round;stroke-width:0.72}
		.st3 {fill:#000000;font-family:Arial;font-size:0.666664em;font-weight:bold}
		.st4 {fill:#173660;stroke:none;stroke-linecap:round;stroke-linejoin:round;stroke-width:0.72}
		.st5 {fill:#ffffff;font-family:Arial;font-size:0.666664em;font-weight:bold}
		.st6 {stroke:#f28226;stroke-linecap:round;stroke-linejoin:round;stroke-width:2.16}
		.st7 {stroke:#f28226;stroke-dasharray:0,6.48;stroke-linecap:round;stroke-linejoin:round;stroke-width:2.16}
		.st8 {fill:#f2f2f2;stroke:none;stroke-linecap:round;stroke-linejoin:round;stroke-width:0.72}
		.st9 {fill:#000000;font-family:Arial;font-size:0.666664em}
		.st10 {fill:#ffffff;font-family:Arial;font-size:0.916672em;font-weight:bold}
		.st11 {fill:#facca7;stroke:none;stroke-linecap:round;stroke-linejoin:round;stroke-width:0.72}
		.st12 {fill:#f28226;stroke:none;stroke-linecap:round;stroke-linejoin:round;stroke-width:0.72}
		.st13 {font-size:1em}
		.st14 {fill:#ffffff;fill-opacity:0;stroke:#8c8c8c;stroke-dasharray:0,6.48;stroke-linecap:round;stroke-linejoin:round;stroke-width:2.16}
		.st15 {stroke:#f28226;stroke-dasharray:2.16,4.32;stroke-linecap:round;stroke-linejoin:round;stroke-width:2.16}
		.st16 {fill:#285ea6;stroke:#3475cd;stroke-linecap:round;stroke-linejoin:round;stroke-width:0.72}
		.st17 {fill:#404040;font-family:Arial;font-size:0.666664em;font-style:italic}
		.st18 {fill:none;fill-rule:evenodd;font-size:12;overflow:visible;stroke-linecap:square;stroke-miterlimit:3}
	]]>
	</style>

	<g v:mID="0" v:index="1" v:groupContext="foregroundPage">
		<title>Pagina 1</title>
		<v:pageProperties v:drawingScale="0.0393701" v:pageScale="0.0393701" v:drawingUnits="24" v:shadowOffsetX="8.50394"
				v:shadowOffsetY="-8.50394"/>
		<g id="shape22-1" v:mID="22" v:groupContext="shape" transform="translate(0.72,-0.72)">
			<title>Foglio.22</title>
			<rect x="0" y="1.44" width="646.299" height="646.299" class="st1"/>
		</g>
		<g id="shape27-3" v:mID="27" v:groupContext="shape" transform="translate(306.862,-544.972)">
			<title>Foglio.27</title>
			<desc>ConnectionFactory</desc>
			<v:textBlock v:margins="rect(4,4,4,4)" v:tabSpace="42.5197"/>
			<v:textRect cx="50.3695" cy="641.38" width="100.74" height="12.7187"/>
			<rect x="0" y="635.021" width="100.739" height="12.7187" class="st2"/>
			<text x="4" y="643.78" class="st3" v:langID="1040"><v:paragraph/><v:tabList/>ConnectionFactory</text>		</g>
		<g id="shape36-6" v:mID="36" v:groupContext="shape" transform="translate(527.61,-544.972)">
			<title>Foglio.36</title>
			<desc>Connection</desc>
			<v:textBlock v:margins="rect(4,4,4,4)" v:tabSpace="42.5197"/>
			<v:textRect cx="28.5236" cy="641.38" width="57.05" height="12.7187"/>
			<rect x="0" y="635.021" width="57.0472" height="12.7187" class="st2"/>
			<text x="4" y="643.78" class="st3" v:langID="1040"><v:paragraph/><v:tabList/>Connection</text>		</g>
		<g id="shape40-9" v:mID="40" v:groupContext="shape" transform="translate(289.854,-27.0822)">
			<title>Foglio.40</title>
			<rect x="0" y="608.054" width="351.496" height="39.685" rx="5.66929" ry="5.66929" class="st4"/>
		</g>
		<g id="shape41-11" v:mID="41" v:groupContext="shape" transform="translate(359.303,-40.5654)">
			<title>Foglio.41</title>
			<desc>Enterprise Information System (EIS)</desc>
			<v:textBlock v:margins="rect(4,4,4,4)" v:tabSpace="42.5197"/>
			<v:textRect cx="75.1181" cy="641.38" width="150.24" height="12.7187"/>
			<rect x="0" y="635.021" width="150.236" height="12.7187" class="st2"/>
			<text x="4" y="643.78" class="st5" v:langID="1040"><v:paragraph/><v:tabList/>Enterprise Information System (EIS)</text>		</g>
		<g id="shape42-14" v:mID="42" v:groupContext="shape" transform="translate(-89.1609,573.035) rotate(-90)">
			<title>Foglio.42</title>
			<path d="M5.1 647.74 L0 642.64 L5.1 637.53" class="st6"/>
		</g>
		<g id="shape48-17" v:mID="48" v:groupContext="shape" transform="translate(-94.2633,572.185) rotate(-90)">
			<title>Foglio.48</title>
			<path d="M0 647.74 L432.57 647.74" class="st7"/>
		</g>
		<g id="shape51-20" v:mID="51" v:groupContext="shape" transform="translate(-451.429,634.263) rotate(-90)">
			<title>Foglio.51</title>
			<rect x="0" y="466.322" width="58.1102" height="181.417" rx="11.3386" ry="11.3386" class="st8"/>
		</g>
		<g id="shape52-22" v:mID="52" v:groupContext="shape" transform="translate(61.6649,-47.6135)">
			<title>Foglio.52</title>
			<desc>Architected Interface</desc>
			<v:textBlock v:margins="rect(4,4,4,4)" v:tabSpace="42.5197"/>
			<v:textRect cx="41.1024" cy="638.266" width="82.21" height="18.9456"/>
			<rect x="0" y="628.794" width="82.2047" height="18.9456" class="st2"/>
			<text x="4.42" y="640.67" class="st9" v:langID="1040"><v:paragraph v:horizAlign="1"/><v:tabList/>Architected Interface</text>		</g>
		<g id="shape53-25" v:mID="53" v:groupContext="shape" transform="translate(54.5783,-18.503)">
			<title>Foglio.53</title>
			<desc>Implementation Specific</desc>
			<v:textBlock v:margins="rect(4,4,4,4)" v:tabSpace="42.5197"/>
			<v:textRect cx="52.4409" cy="638.593" width="104.89" height="18.2923"/>
			<rect x="0" y="629.447" width="104.882" height="18.2923" class="st2"/>
			<text x="9.98" y="640.99" class="st9" v:langID="1040"><v:paragraph v:horizAlign="1"/><v:tabList/>Implementation Specific</text>		</g>
		<g id="shape54-28" v:mID="54" v:groupContext="shape" transform="translate(389.721,-479.085)">
			<title>Foglio.54</title>
			<desc>Resource Adapter</desc>
			<v:textBlock v:margins="rect(4,4,4,4)" v:tabSpace="42.5197"/>
			<v:textRect cx="64.5427" cy="641.38" width="129.09" height="12.7187"/>
			<rect x="0" y="635.021" width="129.085" height="12.7187" class="st2"/>
			<text x="4" y="644.68" class="st10" v:langID="1040"><v:paragraph/><v:tabList/>Resource Adapter</text>		</g>
		<g id="shape55-31" v:mID="55" v:groupContext="shape" transform="translate(386.232,-628.631)">
			<title>Foglio.55</title>
			<desc>Application Component</desc>
			<v:textBlock v:margins="rect(4,4,4,4)" v:tabSpace="42.5197"/>
			<v:textRect cx="50.3695" cy="641.38" width="100.74" height="12.7187"/>
			<rect x="0" y="635.021" width="100.739" height="12.7187" class="st2"/>
			<text x="4" y="643.78" class="st3" v:langID="1040"><v:paragraph/><v:tabList/>Application Component</text>		</g>
		<g id="shape56-34" v:mID="56" v:groupContext="shape" transform="translate(27.6491,1238.07) scale(1,-1)">
			<title>Foglio.56</title>
			<path d="M0 647.74 L25.51 647.74" class="st6"/>
		</g>
		<g id="shape57-37" v:mID="57" v:groupContext="shape" transform="translate(54.5783,1266.41) rotate(180)">
			<title>Foglio.57</title>
			<path d="M0 647.74 L28.35 647.74" class="st7"/>
		</g>
		<g id="shape20-40" v:mID="20" v:groupContext="shape" transform="translate(27.6491,-182.137)">
			<title>Foglio.20</title>
			<rect x="0" y="367.109" width="240.945" height="280.63" rx="8.50394" ry="8.50394" class="st11"/>
		</g>
		<g id="shape21-42" v:mID="21" v:groupContext="shape" transform="translate(12.3496,-570.484)">
			<title>Foglio.21</title>
			<desc>Application Server</desc>
			<v:textBlock v:margins="rect(4,4,4,4)" v:tabSpace="42.5197"/>
			<v:textRect cx="42.2287" cy="641.597" width="84.46" height="12.2835"/>
			<rect x="0" y="635.456" width="84.4574" height="12.2835" class="st2"/>
			<text x="6.89" y="644" class="st3" v:langID="1040"><v:paragraph v:horizAlign="1"/><v:tabList/>Application Server</text>		</g>
		<g id="shape14-45" v:mID="14" v:groupContext="shape" transform="translate(-496.925,184.387) rotate(-90)">
			<title>Foglio.14</title>
			<path d="M0 647.74 L61.78 647.74" class="st7"/>
		</g>
		<g id="shape1-48" v:mID="1" v:groupContext="shape" transform="translate(34.7357,-419.893)">
			<title>Foglio.1</title>
			<rect x="0" y="613.369" width="110.551" height="34.3701" rx="5.66929" ry="5.66929" class="st12"/>
		</g>
		<g id="shape3-50" v:mID="3" v:groupContext="shape" transform="translate(43.2397,-426.404)">
			<title>Foglio.3</title>
			<desc>SecurityService Manager</desc>
			<v:textBlock v:margins="rect(4,4,4,4)" v:tabSpace="42.5197"/>
			<v:textRect cx="39.685" cy="636.821" width="79.38" height="21.8356"/>
			<rect x="0" y="625.904" width="79.3701" height="21.8356" class="st2"/>
			<text x="4" y="634.42" class="st5" v:langID="1040"><v:paragraph/><v:tabList/>SecurityService<v:newlineChar/><tspan
						x="4" dy="1.2em" class="st13">Manager</tspan></text>		</g>
		<g id="shape4-54" v:mID="4" v:groupContext="shape" transform="translate(94.2633,-301.104)">
			<title>Foglio.4</title>
			<rect x="0" y="619.216" width="94.9606" height="28.5236" rx="5.66929" ry="5.66929" class="st12"/>
		</g>
		<g id="shape5-56" v:mID="5" v:groupContext="shape" transform="translate(96.96,-306.862)">
			<title>Foglio.5</title>
			<desc>Pool Manager</desc>
			<v:textBlock v:margins="rect(4,4,4,4)" v:tabSpace="42.5197"/>
			<v:textRect cx="32.6674" cy="636.821" width="65.34" height="21.8356"/>
			<rect x="0" y="625.904" width="65.3348" height="21.8356" class="st2"/>
			<text x="4" y="639.22" class="st5" v:langID="1040"><v:paragraph/><v:tabList/>Pool Manager</text>		</g>
		<g id="shape6-59" v:mID="6" v:groupContext="shape" transform="translate(170.799,-190.464)">
			<title>Foglio.6</title>
			<rect x="0" y="613.369" width="90.7087" height="34.3701" rx="5.66929" ry="5.66929" class="st12"/>
		</g>
		<g id="shape7-61" v:mID="7" v:groupContext="shape" transform="translate(181.566,-196.975)">
			<title>Foglio.7</title>
			<desc>Transaction Manager</desc>
			<v:textBlock v:margins="rect(4,4,4,4)" v:tabSpace="42.5197"/>
			<v:textRect cx="29.3409" cy="636.821" width="58.69" height="21.8356"/>
			<rect x="0" y="625.904" width="58.6819" height="21.8356" class="st2"/>
			<text x="4" y="634.42" class="st5" v:langID="1040"><v:paragraph/><v:tabList/>Transaction <tspan x="4" dy="1.2em"
						class="st13">Manager</tspan></text>		</g>
		<g id="shape9-65" v:mID="9" v:groupContext="shape" transform="translate(90.72,-547.117)">
			<title>Foglio.9</title>
			<desc>ConnectionManager</desc>
			<v:textBlock v:margins="rect(4,4,4,4)" v:tabSpace="42.5197"/>
			<v:textRect cx="50.3695" cy="641.38" width="100.74" height="12.7187"/>
			<rect x="0" y="635.021" width="100.739" height="12.7187" class="st2"/>
			<text x="4" y="643.78" class="st3" v:langID="1040"><v:paragraph/><v:tabList/>ConnectionManager</text>		</g>
		<g id="shape15-68" v:mID="15" v:groupContext="shape" transform="translate(-491.822,184.387) rotate(-90)">
			<title>Foglio.15</title>
			<path d="M5.1 647.74 L0 642.64 L5.1 637.53" class="st6"/>
		</g>
		<g id="shape18-71" v:mID="18" v:groupContext="shape" transform="translate(171.366,773.751) scale(1,-1)">
			<title>Foglio.18</title>
			<path d="M0 647.74 L149.67 647.74" class="st6"/>
		</g>
		<g id="shape19-74" v:mID="19" v:groupContext="shape" transform="translate(171.366,768.648) scale(1,-1)">
			<title>Foglio.19</title>
			<path d="M5.1 647.74 L0 642.64 L5.1 637.53" class="st6"/>
		</g>
		<g id="shape59-77" v:mID="59" v:groupContext="shape" transform="translate(21.571,-97.098)">
			<title>Foglio.59</title>
			<desc>ConnectionEventListener</desc>
			<v:textBlock v:margins="rect(4,4,4,4)" v:tabSpace="42.5197"/>
			<v:textRect cx="55.6844" cy="641.38" width="111.37" height="12.7187"/>
			<rect x="0" y="635.021" width="111.369" height="12.7187" class="st2"/>
			<text x="4" y="643.78" class="st3" v:langID="1040"><v:paragraph/><v:tabList/>ConnectionEventListener</text>		</g>
		<g id="shape11-80" v:mID="11" v:groupContext="shape" transform="translate(357.767,-438.71)">
			<title>Foglio.11</title>
			<desc>ManagedConnectionFactory</desc>
			<v:textBlock v:margins="rect(4,4,4,4)" v:tabSpace="42.5197"/>
			<v:textRect cx="68.1501" cy="641.38" width="136.31" height="12.7187"/>
			<rect x="0" y="635.021" width="136.3" height="12.7187" class="st2"/>
			<text x="4" y="643.78" class="st3" v:langID="1040"><v:paragraph/><v:tabList/>ManagedConnectionFactory</text>		</g>
		<g id="shape62-83" v:mID="62" v:groupContext="shape" transform="translate(173.633,1167.2) scale(1,-1)">
			<title>Foglio.62</title>
			<path d="M0 647.74 L280.63 647.74" class="st6"/>
		</g>
		<g id="shape64-86" v:mID="64" v:groupContext="shape" transform="translate(-43.6615,54.829) rotate(-64.9716) scale(-1,1)">
			<title>Foglio.64</title>
			<path d="M0 647.74 L210.35 647.74" class="st6"/>
		</g>
		<g id="shape38-89" v:mID="38" v:groupContext="shape" transform="translate(556.311,-293.185)">
			<title>Foglio.38</title>
			<desc>Managed Connection</desc>
			<v:textBlock v:margins="rect(4,4,4,4)" v:tabSpace="42.5197"/>
			<v:textRect cx="29.8824" cy="638.066" width="59.77" height="19.3457"/>
			<rect x="0" y="628.393" width="59.7648" height="19.3457" class="st2"/>
			<text x="4" y="635.67" class="st3" v:langID="1040"><v:paragraph/><v:tabList/>Managed<v:newlineChar/><tspan x="4"
						dy="1.2em" class="st13">Connection</tspan></text>		</g>
		<g id="shape67-93" v:mID="67" v:groupContext="shape" transform="translate(14.7161,-91.4287)">
			<title>Foglio.67</title>
			<rect x="0" y="174.353" width="263.799" height="473.386" rx="11.3386" ry="11.3386" class="st14"/>
		</g>
		<g id="shape68-95" v:mID="68" v:groupContext="shape" transform="translate(60.2476,-32.6762)">
			<title>Foglio.68</title>
			<desc>Instantiation</desc>
			<v:textBlock v:margins="rect(4,4,4,4)" v:tabSpace="42.5197"/>
			<v:textRect cx="52.4409" cy="638.593" width="104.89" height="18.2923"/>
			<rect x="0" y="629.447" width="104.882" height="18.2923" class="st2"/>
			<text x="4" y="640.99" class="st9" v:langID="1040"><v:paragraph/><v:tabList/>Instantiation</text>		</g>
		<g id="shape69-98" v:mID="69" v:groupContext="shape" transform="translate(54.5783,1252.24) rotate(180)">
			<title>Foglio.69</title>
			<path d="M0 647.74 L28.35 647.74" class="st15"/>
		</g>
		<g id="shape2-101" v:mID="2" v:groupContext="shape" transform="translate(133.582,-504.921)">
			<title>Foglio.2</title>
			<ellipse cx="17.191" cy="630.548" rx="17.191" ry="17.191" class="st16"/>
		</g>
		<g id="shape8-103" v:mID="8" v:groupContext="shape" transform="translate(89.9023,-474.106)">
			<title>Foglio.8</title>
			<desc>application server specific</desc>
			<v:textBlock v:margins="rect(4,4,4,4)" v:tabSpace="42.5197"/>
			<v:textRect cx="50.3695" cy="641.38" width="100.74" height="12.7187"/>
			<rect x="0" y="635.021" width="100.739" height="12.7187" class="st2"/>
			<text x="4" y="643.78" class="st9" v:langID="1040"><v:paragraph/><v:tabList/>application server specific</text>		</g>
		<g id="shape23-106" v:mID="23" v:groupContext="shape" transform="translate(289.677,-91.4287)">
			<title>Foglio.23</title>
			<rect x="0" y="174.353" width="348.839" height="473.386" rx="11.3386" ry="11.3386" class="st14"/>
		</g>
		<g id="shape43-108" v:mID="43" v:groupContext="shape" transform="translate(801.672,465.821) rotate(90)">
			<title>Foglio.43</title>
			<path d="M0 647.74 L61.78 647.74" class="st7"/>
		</g>
		<g id="shape50-111" v:mID="50" v:groupContext="shape" transform="translate(796.569,465.821) rotate(90)">
			<title>Foglio.50</title>
			<path d="M5.1 647.74 L0 642.64 L5.1 637.53" class="st6"/>
		</g>
		<g id="shape58-114" v:mID="58" v:groupContext="shape" transform="translate(171.165,1149.83) rotate(180)">
			<title>Foglio.58</title>
			<ellipse cx="17.191" cy="630.548" rx="17.191" ry="17.191" class="st16"/>
		</g>
		<g id="shape60-116" v:mID="60" v:groupContext="shape" transform="translate(92.0828,-156.626)">
			<title>Foglio.60</title>
			<desc>application server specific</desc>
			<v:textBlock v:margins="rect(4,4,4,4)" v:tabSpace="42.5197"/>
			<v:textRect cx="50.3695" cy="641.38" width="100.74" height="12.7187"/>
			<rect x="0" y="635.021" width="100.739" height="12.7187" class="st2"/>
			<text x="4" y="643.78" class="st9" v:langID="1040"><v:paragraph/><v:tabList/>application server specific</text>		</g>
		<g id="shape26-119" v:mID="26" v:groupContext="shape" transform="translate(431.586,-590.143)">
			<title>Foglio.26</title>
			<ellipse cx="17.191" cy="630.548" rx="17.191" ry="17.191" class="st16"/>
		</g>
		<g id="shape35-121" v:mID="35" v:groupContext="shape" transform="translate(329.173,-504.921)">
			<title>Foglio.35</title>
			<ellipse cx="17.191" cy="630.548" rx="17.191" ry="17.191" class="st16"/>
		</g>
		<g id="shape44-123" v:mID="44" v:groupContext="shape" transform="translate(536.468,-505.287)">
			<title>Foglio.44</title>
			<ellipse cx="17.191" cy="630.548" rx="17.191" ry="17.191" class="st16"/>
		</g>
		<g id="shape45-125" v:mID="45" v:groupContext="shape" transform="translate(-93.6929,-339.006) rotate(-45)">
			<title>Foglio.45</title>
			<path d="M5.1 647.74 L0 642.64 L5.1 637.53" class="st6"/>
		</g>
		<g id="shape47-128" v:mID="47" v:groupContext="shape" transform="translate(1.81348,-424.075) rotate(-33.7334)">
			<title>Foglio.47</title>
			<path d="M0 647.74 L97.88 647.74" class="st7"/>
		</g>
		<g id="shape49-131" v:mID="49" v:groupContext="shape" transform="translate(992.298,-339.006) rotate(45) scale(-1,1)">
			<title>Foglio.49</title>
			<path d="M5.1 647.74 L0 642.64 L5.1 637.53" class="st6"/>
		</g>
		<g id="shape61-134" v:mID="61" v:groupContext="shape" transform="translate(896.792,-424.075) rotate(33.7334) scale(-1,1)">
			<title>Foglio.61</title>
			<path d="M0 647.74 L97.88 647.74" class="st7"/>
		</g>
		<g id="shape63-137" v:mID="63" v:groupContext="shape" transform="translate(517.934,-569.104)">
			<title>Foglio.63</title>
			<desc>Resource Adapter</desc>
			<v:textBlock v:margins="rect(4,4,4,4)" v:tabSpace="42.5197"/>
			<v:textRect cx="50.3695" cy="641.38" width="100.74" height="12.7187"/>
			<rect x="0" y="635.021" width="100.739" height="12.7187" class="st2"/>
			<text x="4" y="643.78" class="st3" v:langID="1040"><v:paragraph/><v:tabList/>Resource Adapter</text>		</g>
		<g id="shape65-140" v:mID="65" v:groupContext="shape" transform="translate(179.303,-526.584)">
			<title>Foglio.65</title>
			<desc>allocation connection</desc>
			<v:textBlock v:margins="rect(4,4,4,4)" v:tabSpace="42.5197"/>
			<v:textRect cx="50.3695" cy="641.38" width="100.74" height="12.7187"/>
			<rect x="0" y="635.021" width="100.739" height="12.7187" class="st2"/>
			<text x="4" y="643.78" class="st9" v:langID="1040"><v:paragraph/><v:tabList/>allocation connection</text>		</g>
		<g id="shape10-143" v:mID="10" v:groupContext="shape" transform="translate(420.248,898.475) rotate(180)">
			<title>Foglio.10</title>
			<path d="M0 647.74 L149.67 647.74" class="st6"/>
		</g>
		<g id="shape24-146" v:mID="24" v:groupContext="shape" transform="translate(420.248,893.373) rotate(180)">
			<title>Foglio.24</title>
			<path d="M5.1 647.74 L0 642.64 L5.1 637.53" class="st6"/>
		</g>
		<g id="shape29-149" v:mID="29" v:groupContext="shape" transform="translate(397.57,-363.555) scale(-1,1)">
			<title>Foglio.29</title>
			<desc>createManagedConnection matchManagedConnections createConnect...</desc>
			<v:textBlock v:margins="rect(4,4,4,4)" v:tabSpace="42.5197"/>
			<v:textRect cx="63.1254" cy="633.566" width="126.26" height="28.3465"/>
			<rect x="0" y="619.393" width="126.251" height="28.3465" class="st2"/>
			<text x="-122.25" y="626.37" transform="scale(-1,1)" class="st3" v:langID="1040"><v:paragraph/><v:tabList/>createManagedConnection<v:newlineChar/><tspan
						x="-122.25" dy="1.2em" class="st13">matchManagedConnections<v:newlineChar/></tspan><tspan x="-122.25"
						dy="1.2em" class="st13">createConnectionFactory</tspan></text>		</g>
		<g id="shape12-154" v:mID="12" v:groupContext="shape" transform="translate(536.468,-315.366)">
			<title>Foglio.12</title>
			<ellipse cx="17.191" cy="630.548" rx="17.191" ry="17.191" class="st16"/>
		</g>
		<g id="shape13-156" v:mID="13" v:groupContext="shape" transform="translate(536.846,966.506) rotate(180)">
			<title>Foglio.13</title>
			<path d="M0 647.74 L266.83 647.74" class="st6"/>
		</g>
		<g id="shape16-159" v:mID="16" v:groupContext="shape" transform="translate(536.185,961.404) rotate(180)">
			<title>Foglio.16</title>
			<path d="M5.1 647.74 L0 642.64 L5.1 637.53" class="st6"/>
		</g>
		<g id="shape17-162" v:mID="17" v:groupContext="shape" transform="translate(423.845,-309.696) scale(-1,1)">
			<title>Foglio.17</title>
			<desc>getConnection</desc>
			<v:textBlock v:margins="rect(4,4,4,4)" v:tabSpace="42.5197"/>
			<v:textRect cx="63.1254" cy="640.653" width="126.26" height="14.1732"/>
			<rect x="0" y="633.566" width="126.251" height="14.1732" class="st2"/>
			<text x="-122.25" y="643.05" transform="scale(-1,1)" class="st3" v:langID="1040"><v:paragraph/><v:tabList/>getConnection</text>		</g>
		<g id="shape25-165" v:mID="25" v:groupContext="shape" transform="translate(440.09,-330.956) scale(-1,1)">
			<title>Foglio.25</title>
			<desc>add/removeConnectionEventListener</desc>
			<v:textBlock v:margins="rect(4,4,4,4)" v:tabSpace="42.5197"/>
			<v:textRect cx="82.2047" cy="640.653" width="164.41" height="14.1732"/>
			<rect x="0" y="633.566" width="164.409" height="14.1732" class="st2"/>
			<text x="-160.41" y="643.05" transform="scale(-1,1)" class="st3" v:langID="1040"><v:paragraph/><v:tabList/>add/removeConnectionEventListener</text>		</g>
		<g id="shape28-168" v:mID="28" v:groupContext="shape" transform="translate(423.082,-386.049)">
			<title>Foglio.28</title>
			<ellipse cx="17.191" cy="630.548" rx="17.191" ry="17.191" class="st16"/>
		</g>
		<g id="shape30-170" v:mID="30" v:groupContext="shape" transform="translate(26.7302,508.99) rotate(-116.317)">
			<title>Foglio.30</title>
			<path d="M0 647.74 L94 647.74" class="st15"/>
		</g>
		<g id="shape31-173" v:mID="31" v:groupContext="shape" transform="translate(-1.34773,-17.481) rotate(-60.5824)">
			<title>Foglio.31</title>
			<path d="M0 647.74 L90.52 647.74" class="st15"/>
		</g>
		<g id="shape32-176" v:mID="32" v:groupContext="shape" transform="translate(234.773,874.166) rotate(-151.776)">
			<title>Foglio.32</title>
			<path d="M0 647.74 L100.06 647.74" class="st15"/>
		</g>
		<g id="shape33-179" v:mID="33" v:groupContext="shape" transform="translate(-60.6703,657.562) rotate(-131.021)">
			<title>Foglio.33</title>
			<path d="M0 647.74 L119.23 647.74" class="st15"/>
		</g>
		<g id="shape34-182" v:mID="34" v:groupContext="shape" transform="translate(347.855,-132.659)">
			<title>Foglio.34</title>
			<desc>Connection Event notifications</desc>
			<v:textBlock v:margins="rect(4,4,4,4)" v:tabSpace="42.5197"/>
			<v:textRect cx="50.3695" cy="637.946" width="100.74" height="19.5874"/>
			<rect x="0" y="628.152" width="100.739" height="19.5874" class="st2"/>
			<text x="4" y="635.55" class="st9" v:langID="1040"><v:paragraph/><v:tabList/>Connection Event <tspan x="4" dy="1.2em"
						class="st13">notifications</tspan></text>		</g>
		<g id="shape37-186" v:mID="37" v:groupContext="shape" transform="translate(525.784,-156.626)">
			<title>Foglio.37</title>
			<desc>EIS specific</desc>
			<v:textBlock v:margins="rect(4,4,4,4)" v:tabSpace="42.5197"/>
			<v:textRect cx="50.3695" cy="637.946" width="100.74" height="19.5874"/>
			<rect x="0" y="628.152" width="100.739" height="19.5874" class="st2"/>
			<text x="4" y="640.35" class="st9" v:langID="1040"><v:paragraph/><v:tabList/>EIS specific</text>		</g>
		<g id="shape39-189" v:mID="39" v:groupContext="shape" transform="translate(171.366,1161.53) scale(1,-1)">
			<title>Foglio.39</title>
			<path d="M5.1 647.74 L0 642.64 L5.1 637.53" class="st6"/>
		</g>
		<g id="shape46-192" v:mID="46" v:groupContext="shape" transform="translate(9.80863,460.286) rotate(60) scale(1,-1)">
			<title>Foglio.46</title>
			<path d="M5.1 647.74 L0 642.64 L5.1 637.53" class="st6"/>
		</g>
		<g id="shape66-195" v:mID="66" v:groupContext="shape" transform="translate(-105.276,597.271) rotate(45) scale(1,-1)">
			<title>Foglio.66</title>
			<path d="M5.1 647.74 L0 642.64 L5.1 637.53" class="st6"/>
		</g>
		<g id="shape70-198" v:mID="70" v:groupContext="shape" transform="translate(862.395,-253.506) rotate(30) scale(-1,1)">
			<title>Foglio.70</title>
			<path d="M5.1 647.74 L0 642.64 L5.1 637.53" class="st6"/>
		</g>
		<g id="shape71-201" v:mID="71" v:groupContext="shape" transform="translate(417.413,883.735) rotate(180)">
			<title>Foglio.71</title>
			<path d="M0 647.74 L147.4 647.74" class="st15"/>
		</g>
		<g id="shape72-204" v:mID="72" v:groupContext="shape" transform="translate(292.689,-416.033)">
			<title>Foglio.72</title>
			<desc>create new instance</desc>
			<v:textBlock v:margins="rect(4,4,4,4)" v:tabSpace="42.5197"/>
			<v:textRect cx="50.3695" cy="641.38" width="100.74" height="12.7187"/>
			<rect x="0" y="635.021" width="100.739" height="12.7187" class="st2"/>
			<text x="4" y="643.78" class="st17" v:langID="1040"><v:paragraph/><v:tabList/>create new instance</text>		</g>
		<g id="shape73-207" v:mID="73" v:groupContext="shape" transform="translate(313.185,-475.56)">
			<title>Foglio.73</title>
			<desc>create new instance</desc>
			<v:textBlock v:margins="rect(4,4,4,4)" v:tabSpace="42.5197"/>
			<v:textRect cx="29.4367" cy="641.38" width="58.88" height="12.7187"/>
			<rect x="0" y="635.021" width="58.8734" height="12.7187" class="st2"/>
			<text x="4" y="638.98" class="st17" v:langID="1040"><v:paragraph/><v:tabList/>create <v:newlineChar/><tspan x="4"
						dy="1.2em" class="st13">new instance</tspan></text>		</g>
		<g id="shape74-211" v:mID="74" v:groupContext="shape" transform="translate(590.326,-371.931)">
			<title>Foglio.74</title>
			<desc>create new instance</desc>
			<v:textBlock v:margins="rect(4,4,4,4)" v:tabSpace="42.5197"/>
			<v:textRect cx="19.643" cy="636.273" width="39.29" height="22.9323"/>
			<rect x="0" y="624.807" width="39.286" height="22.9323" class="st2"/>
			<text x="4" y="629.07" class="st17" v:langID="1040"><v:paragraph/><v:tabList/>create <v:newlineChar/><tspan x="4"
						dy="1.2em" class="st13">new </tspan><tspan x="4" dy="1.2em" class="st13">instance</tspan></text>		</g>
		<g id="shape75-216" v:mID="75" v:groupContext="shape" transform="translate(503.761,-409.981)">
			<title>Foglio.75</title>
			<desc>ResourceAdapter specific</desc>
			<v:textBlock v:margins="rect(4,4,4,4)" v:tabSpace="42.5197"/>
			<v:textRect cx="36.1962" cy="634.638" width="72.4" height="26.2019"/>
			<rect x="0" y="621.537" width="72.3925" height="26.2019" class="st2"/>
			<text x="5.07" y="632.24" class="st9" v:langID="1040"><v:paragraph v:horizAlign="1"/><v:tabList/>ResourceAdapter<v:newlineChar/><tspan
						x="22.86" dy="1.2em" class="st13">specific</tspan></text>		</g>
	</g>
</svg>
