<?xml version="1.0" encoding="UTF-8" standalone="no"?>
<!DOCTYPE svg PUBLIC "-//W3C//DTD SVG 1.0//EN" "http://www.w3.org/TR/2001/REC-SVG-20010904/DTD/svg10.dtd">
<!-- Generato da Microsoft Visio 11.0, SVG Export, v1.0 conn-194.svg Pagina 1 -->
<svg xmlns="http://www.w3.org/2000/svg" xmlns:v="http://schemas.microsoft.com/visio/2003/SVGExtensions/" width="5.8074in"
		height="2.67748in" viewBox="0 0 418.133 192.779" xml:space="preserve" color-interpolation-filters="sRGB" class="st11">
	<v:documentProperties v:langID="1040" v:metric="true" v:viewMarkup="false">
		<v:userDefs>
			<v:ud v:nameU="MBSAAddinOutlineVisible" v:prompt="" v:val="VT0(1):26"/>
		</v:userDefs>
	</v:documentProperties>

	<style type="text/css">
	<![CDATA[
		.st1 {fill:#ffffff;stroke:none;stroke-linecap:round;stroke-linejoin:round;stroke-width:0.72}
		.st2 {stroke:#f28226;stroke-linecap:round;stroke-linejoin:round;stroke-width:2.16}
		.st3 {fill:#173660;stroke:none;stroke-linecap:round;stroke-linejoin:round;stroke-width:0.72}
		.st4 {fill:none;stroke:none;stroke-linecap:round;stroke-linejoin:round;stroke-width:0.72}
		.st5 {fill:#ffffff;font-family:Arial;font-size:0.666664em;font-weight:bold}
		.st6 {fill:#a6a6a6;stroke:none;stroke-linecap:round;stroke-linejoin:round;stroke-width:0.72}
		.st7 {fill:#000000;font-family:Arial;font-size:0.666664em}
		.st8 {stroke:#000000;stroke-linecap:round;stroke-linejoin:round;stroke-width:3.12}
		.st9 {fill:#729fdc;stroke:none;stroke-linecap:round;stroke-linejoin:round;stroke-width:0.72}
		.st10 {font-size:1em}
		.st11 {fill:none;fill-rule:evenodd;font-size:12;overflow:visible;stroke-linecap:square;stroke-miterlimit:3}
	]]>
	</style>

	<g v:mID="0" v:index="1" v:groupContext="foregroundPage">
		<title>Pagina 1</title>
		<v:pageProperties v:drawingScale="0.0393701" v:pageScale="0.0393701" v:drawingUnits="24" v:shadowOffsetX="8.50394"
				v:shadowOffsetY="-8.50394"/>
		<g id="shape139-1" v:mID="139" v:groupContext="shape" transform="translate(0.72,-0.72)">
			<title>Foglio.139</title>
			<rect x="0" y="2.85732" width="416.693" height="189.921" class="st1"/>
		</g>
		<g id="shape15-3" v:mID="15" v:groupContext="shape" transform="translate(347.964,234.317) rotate(180)">
			<title>Foglio.15</title>
			<path d="M5.1 192.78 L0 187.68 L5.1 182.57" class="st2"/>
		</g>
		<g id="shape7-6" v:mID="7" v:groupContext="shape" transform="translate(347.759,91.4287) rotate(90) scale(-1,1)">
			<title>Foglio.7</title>
			<rect x="0" y="79.8736" width="83.7815" height="112.905" rx="8.50394" ry="8.50394" class="st3"/>
		</g>
		<g id="shape10-8" v:mID="10" v:groupContext="shape" transform="translate(238.805,-160.877) scale(-1,1)">
			<title>Foglio.10</title>
			<desc>Resource Adapter</desc>
			<v:textBlock v:margins="rect(4,4,4,4)" v:tabSpace="42.5197"/>
			<v:textRect cx="40.4033" cy="187.885" width="80.81" height="9.78739"/>
			<rect x="0" y="182.991" width="80.8065" height="9.78739" class="st4"/>
			<text x="-74.86" y="190.29" transform="scale(-1,1)" class="st5" v:langID="1040"><v:paragraph v:horizAlign="1"/><v:tabList/>Resource Adapter</text>		</g>
		<g id="shape12-11" v:mID="12" v:groupContext="shape" transform="translate(347.964,-146.137) scale(-1,1)">
			<title>Foglio.12</title>
			<path d="M0 192.78 L75.12 192.78" class="st2"/>
		</g>
		<g id="shape13-14" v:mID="13" v:groupContext="shape" transform="translate(202.666,73.0035) rotate(-90)">
			<title>Foglio.13</title>
			<rect x="0" y="150.259" width="53.8583" height="42.5197" rx="8.50394" ry="8.50394" class="st6"/>
		</g>
		<g id="shape14-16" v:mID="14" v:groupContext="shape" transform="translate(352.15,-175.316)">
			<title>Foglio.14</title>
			<desc>EIS B</desc>
			<v:textBlock v:margins="rect(4,4,4,4)" v:tabSpace="42.5197"/>
			<v:textRect cx="17.0079" cy="184.408" width="34.02" height="16.7421"/>
			<rect x="0" y="176.036" width="34.0157" height="16.7421" class="st4"/>
			<text x="6.78" y="186.81" class="st7" v:langID="1040"><v:paragraph v:horizAlign="1"/><v:tabList/>EIS B</text>		</g>
		<g id="shape2-19" v:mID="2" v:groupContext="shape" transform="translate(14.8932,-150.531)">
			<title>Foglio.2</title>
			<path d="M0 192.78 L139.04 192.78" class="st2"/>
		</g>
		<g id="shape3-22" v:mID="3" v:groupContext="shape" transform="translate(45.72,-128.279)">
			<title>Foglio.3</title>
			<desc>Security Contract</desc>
			<v:textBlock v:margins="rect(4,4,4,4)" v:tabSpace="42.5197"/>
			<v:textRect cx="37.2047" cy="181.573" width="74.41" height="22.4114"/>
			<rect x="0" y="170.367" width="74.4094" height="22.4114" class="st4"/>
			<text x="4" y="183.97" class="st7" v:langID="1040"><v:paragraph/><v:tabList/>Security Contract</text>		</g>
		<g id="shape9-25" v:mID="9" v:groupContext="shape" transform="translate(485.467,35.3027) rotate(90)">
			<title>Foglio.9</title>
			<path d="M0 192.78 L23.53 192.78" class="st8"/>
		</g>
		<g id="shape24-28" v:mID="24" v:groupContext="shape" transform="translate(516.648,35.3027) rotate(90)">
			<title>Foglio.24</title>
			<path d="M0 192.78 L23.53 192.78" class="st8"/>
		</g>
		<g id="shape25-31" v:mID="25" v:groupContext="shape" transform="translate(272.846,-116.94)">
			<title>Foglio.25</title>
			<desc>GSS</desc>
			<v:textBlock v:margins="rect(4,4,4,4)" v:tabSpace="42.5197"/>
			<v:textRect cx="17.0079" cy="184.408" width="34.02" height="16.7421"/>
			<rect x="0" y="176.036" width="34.0157" height="16.7421" class="st4"/>
			<text x="8.56" y="186.81" class="st7" v:langID="1040"><v:paragraph v:horizAlign="1"/><v:tabList/>GSS</text>		</g>
		<g id="shape26-34" v:mID="26" v:groupContext="shape" transform="translate(306.862,-116.94)">
			<title>Foglio.26</title>
			<desc>GSS</desc>
			<v:textBlock v:margins="rect(4,4,4,4)" v:tabSpace="42.5197"/>
			<v:textRect cx="17.0079" cy="184.408" width="34.02" height="16.7421"/>
			<rect x="0" y="176.036" width="34.0157" height="16.7421" class="st4"/>
			<text x="8.56" y="186.81" class="st7" v:langID="1040"><v:paragraph v:horizAlign="1"/><v:tabList/>GSS</text>		</g>
		<g id="shape29-37" v:mID="29" v:groupContext="shape" transform="translate(440.113,183.874) rotate(90) scale(-1,1)">
			<title>Foglio.29</title>
			<rect x="0" y="31.2038" width="59.8465" height="161.575" rx="8.50394" ry="8.50394" class="st9"/>
		</g>
		<g id="shape32-39" v:mID="32" v:groupContext="shape" transform="translate(284.893,-49.5645)">
			<title>Foglio.32</title>
			<desc>GSS-API</desc>
			<v:textBlock v:margins="rect(4,4,4,4)" v:tabSpace="42.5197"/>
			<v:textRect cx="44.6457" cy="185.825" width="89.3" height="13.9075"/>
			<rect x="0" y="178.871" width="89.2913" height="13.9075" class="st4"/>
			<text x="28.2" y="188.22" class="st5" v:langID="1040"><v:paragraph v:horizAlign="1"/><v:tabList/>GSS-API</text>		</g>
		<g id="shape35-42" v:mID="35" v:groupContext="shape" transform="translate(292.689,-13.5113)">
			<title>Foglio.35</title>
			<rect x="0" y="162.66" width="75.1181" height="30.1181" class="st1"/>
		</g>
		<g id="shape36-44" v:mID="36" v:groupContext="shape" transform="translate(293.144,-17.0546)">
			<title>Foglio.36</title>
			<desc>GSS-Provider &#60;Kerberos&#62;</desc>
			<v:textBlock v:margins="rect(4,4,4,4)" v:tabSpace="42.5197"/>
			<v:textRect cx="29.2913" cy="181.573" width="58.59" height="22.4114"/>
			<rect x="0" y="170.367" width="58.5827" height="22.4114" class="st4"/>
			<text x="4" y="179.17" class="st7" v:langID="1040"><v:paragraph/><v:tabList/>GSS-Provider <tspan x="4" dy="1.2em"
						class="st10">&#60;</tspan>Kerberos&#62;</text>		</g>
		<g id="shape30-48" v:mID="30" v:groupContext="shape" transform="translate(73.2643,120.98) rotate(-90)">
			<title>Foglio.30</title>
			<path d="M5.1 192.78 L0 187.68 L5.1 182.57" class="st2"/>
		</g>
		<g id="shape31-51" v:mID="31" v:groupContext="shape" transform="translate(453.718,120.383) rotate(89.8227) scale(-1,1)">
			<title>Foglio.31</title>
			<path d="M0 192.78 L29.68 192.78" class="st2"/>
		</g>
		<g id="shape33-54" v:mID="33" v:groupContext="shape" transform="translate(188.634,121.192) rotate(-90)">
			<title>Foglio.33</title>
			<path d="M5.1 192.78 L0 187.68 L5.1 182.57" class="st2"/>
		</g>
		<g id="shape34-57" v:mID="34" v:groupContext="shape" transform="translate(569.089,120.824) rotate(89.8906) scale(-1,1)">
			<title>Foglio.34</title>
			<path d="M0 192.78 L48.1 192.78" class="st2"/>
		</g>
		<g id="shape1-60" v:mID="1" v:groupContext="shape" transform="translate(216.176,13.4759) rotate(90)">
			<title>Foglio.1</title>
			<path d="M0 192.78 L23.53 192.78" class="st8"/>
		</g>
		<g id="shape4-63" v:mID="4" v:groupContext="shape" transform="translate(23.3972,-179.303)">
			<title>Foglio.4</title>
			<path d="M0 192.78 L10.87 192.78" class="st8"/>
		</g>
		<g id="shape5-66" v:mID="5" v:groupContext="shape" transform="translate(23.3972,-155.775)">
			<title>Foglio.5</title>
			<path d="M0 192.78 L10.87 192.78" class="st8"/>
		</g>
		<g id="shape6-69" v:mID="6" v:groupContext="shape" transform="translate(-59.0665,13.4759) rotate(-90) scale(-1,1)">
			<title>Foglio.6</title>
			<path d="M0 192.78 L23.53 192.78" class="st8"/>
		</g>
		<g id="shape8-72" v:mID="8" v:groupContext="shape" transform="translate(133.712,-179.303) scale(-1,1)">
			<title>Foglio.8</title>
			<path d="M0 192.78 L10.87 192.78" class="st8"/>
		</g>
		<g id="shape11-75" v:mID="11" v:groupContext="shape" transform="translate(133.712,-155.775) scale(-1,1)">
			<title>Foglio.11</title>
			<path d="M0 192.78 L10.87 192.78" class="st8"/>
		</g>
		<g id="shape16-78" v:mID="16" v:groupContext="shape" transform="translate(28.7617,-159.726)">
			<title>Foglio.16</title>
			<desc>Resource Principal</desc>
			<v:textBlock v:margins="rect(4,4,4,4)" v:tabSpace="42.5197"/>
			<v:textRect cx="42.8244" cy="185.825" width="85.65" height="13.9075"/>
			<rect x="0" y="178.871" width="85.6488" height="13.9075" class="st4"/>
			<text x="4" y="188.22" class="st7" v:langID="1040"><v:paragraph/><v:tabList/>Resource Principal</text>		</g>
	</g>
</svg>
