<?xml version="1.0" encoding="UTF-8" standalone="no"?>
<!DOCTYPE svg PUBLIC "-//W3C//DTD SVG 1.0//EN" "http://www.w3.org/TR/2001/REC-SVG-20010904/DTD/svg10.dtd">
<!-- Generato da Microsoft Visio 11.0, SVG Export, v1.0 conn-107.svg Pagina 1 -->
<svg xmlns="http://www.w3.org/2000/svg" xmlns:v="http://schemas.microsoft.com/visio/2003/SVGExtensions/" width="8.87827in"
		height="9.19323in" viewBox="0 0 639.235 661.912" xml:space="preserve" color-interpolation-filters="sRGB" class="st11">
	<v:documentProperties v:langID="1040" v:metric="true" v:viewMarkup="false">
		<v:userDefs>
			<v:ud v:nameU="MBSAAddinOutlineVisible" v:prompt="" v:val="VT0(1):26"/>
		</v:userDefs>
	</v:documentProperties>

	<style type="text/css">
	<![CDATA[
		.st1 {fill:#ffffff;stroke:none;stroke-linecap:round;stroke-linejoin:round;stroke-width:0.72}
		.st2 {fill:#173660;stroke:none;stroke-linecap:round;stroke-linejoin:round;stroke-width:0.72}
		.st3 {fill:none;stroke:none;stroke-linecap:round;stroke-linejoin:round;stroke-width:0.72}
		.st4 {fill:#ffffff;font-family:Arial;font-size:0.666664em}
		.st5 {fill:#000000;font-family:Arial;font-size:0.666664em}
		.st6 {stroke:#f28226;stroke-linecap:round;stroke-linejoin:round;stroke-width:2.16}
		.st7 {stroke:#f28226;stroke-dasharray:0,6.48;stroke-linecap:round;stroke-linejoin:round;stroke-width:2.16}
		.st8 {stroke:#8c8c8c;stroke-dasharray:0,6.48;stroke-linecap:round;stroke-linejoin:round;stroke-width:2.16}
		.st9 {fill:#facca7;stroke:none;stroke-linecap:round;stroke-linejoin:round;stroke-width:0.72}
		.st10 {font-size:1em}
		.st11 {fill:none;fill-rule:evenodd;font-size:12;overflow:visible;stroke-linecap:square;stroke-miterlimit:3}
	]]>
	</style>

	<g v:mID="0" v:index="1" v:groupContext="foregroundPage">
		<title>Pagina 1</title>
		<v:pageProperties v:drawingScale="0.0393701" v:pageScale="0.0393701" v:drawingUnits="24" v:shadowOffsetX="8.50394"
				v:shadowOffsetY="-8.50394"/>
		<g id="shape139-1" v:mID="139" v:groupContext="shape" transform="translate(0.72,-0.72)">
			<title>Foglio.139</title>
			<rect x="0" y="1.44" width="637.795" height="660.472" class="st1"/>
		</g>
		<g id="shape2-3" v:mID="2" v:groupContext="shape" transform="translate(9.22394,-612.215)">
			<title>Foglio.2</title>
			<rect x="0" y="624.273" width="85.0394" height="37.6393" rx="8.50394" ry="8.50394" class="st2"/>
		</g>
		<g id="shape3-5" v:mID="3" v:groupContext="shape" transform="translate(23.3972,-620.984)">
			<title>Foglio.3</title>
			<desc>Deployer</desc>
			<v:textBlock v:margins="rect(4,4,4,4)" v:tabSpace="42.5197"/>
			<v:textRect cx="27.2835" cy="652.124" width="54.57" height="19.5768"/>
			<rect x="0" y="642.336" width="54.5669" height="19.5768" class="st3"/>
			<text x="4" y="654.52" class="st4" v:langID="1040"><v:paragraph/><v:tabList/>Deployer</text>		</g>
		<g id="shape19-8" v:mID="19" v:groupContext="shape" transform="translate(180.72,-511.222) scale(-1,1)">
			<title>Foglio.19</title>
			<desc>1. pushes a message (private contract)</desc>
			<v:textBlock v:margins="rect(4,4,4,4)" v:tabSpace="42.5197"/>
			<v:textRect cx="73.7008" cy="654.959" width="147.41" height="13.9075"/>
			<rect x="0" y="648.005" width="147.402" height="13.9075" class="st3"/>
			<text x="-143.4" y="657.36" transform="scale(-1,1)" class="st5" v:langID="1040"><v:paragraph/><v:tabList/>1. pushes a message (private contract)</text>		</g>
		<g id="shape10-11" v:mID="10" v:groupContext="shape" transform="translate(30.2003,826.05) scale(1,-1)">
			<title>Foglio.10</title>
			<path d="M5.1 661.91 L0 656.81 L5.1 651.71" class="st6"/>
		</g>
		<g id="shape23-14" v:mID="23" v:groupContext="shape" transform="translate(38.7043,831.152) scale(1,-1)">
			<title>Foglio.23</title>
			<path d="M0 661.91 L121.89 661.91" class="st7"/>
		</g>
		<g id="shape6-17" v:mID="6" v:groupContext="shape" transform="translate(-637.098,643.233) rotate(-90)">
			<title>Foglio.6</title>
			<path d="M0 661.91 L585.21 661.91" class="st8"/>
		</g>
		<g id="shape16-20" v:mID="16" v:groupContext="shape" transform="translate(-493.948,643.233) rotate(-90)">
			<title>Foglio.16</title>
			<path d="M0 661.91 L585.21 661.91" class="st8"/>
		</g>
		<g id="shape17-23" v:mID="17" v:groupContext="shape" transform="translate(-336.626,643.233) rotate(-90)">
			<title>Foglio.17</title>
			<path d="M0 661.91 L585.21 661.91" class="st8"/>
		</g>
		<g id="shape18-26" v:mID="18" v:groupContext="shape" transform="translate(-206.232,643.233) rotate(-90)">
			<title>Foglio.18</title>
			<path d="M0 661.91 L594.32 661.91" class="st8"/>
		</g>
		<g id="shape20-29" v:mID="20" v:groupContext="shape" transform="translate(-63.0822,643.233) rotate(-90)">
			<title>Foglio.20</title>
			<path d="M0 661.91 L594.32 661.91" class="st8"/>
		</g>
		<g id="shape7-32" v:mID="7" v:groupContext="shape" transform="translate(171.933,-476.232) scale(-1,1)">
			<title>Foglio.7</title>
			<rect x="0" y="630.731" width="11.3386" height="31.1811" class="st9"/>
		</g>
		<g id="shape21-34" v:mID="21" v:groupContext="shape" transform="translate(264.059,912.506) rotate(180)">
			<title>Foglio.21</title>
			<path d="M5.1 661.91 L0 656.81 L5.1 651.71" class="st6"/>
		</g>
		<g id="shape22-37" v:mID="22" v:groupContext="shape" transform="translate(261.507,917.609) rotate(180)">
			<title>Foglio.22</title>
			<path d="M0 661.91 L232.44 661.91" class="st6"/>
		</g>
		<g id="shape26-40" v:mID="26" v:groupContext="shape" transform="translate(17.7279,-323.87)">
			<title>Foglio.26</title>
			<rect x="0" y="564.826" width="11.3386" height="97.0866" class="st9"/>
		</g>
		<g id="shape29-42" v:mID="29" v:groupContext="shape" transform="translate(323.87,980.538) rotate(180)">
			<title>Foglio.29</title>
			<path d="M5.1 661.91 L0 656.81 L5.1 651.71" class="st6"/>
		</g>
		<g id="shape30-45" v:mID="30" v:groupContext="shape" transform="translate(325.287,985.64) rotate(180)">
			<title>Foglio.30</title>
			<path d="M0 661.91 L51.73 661.91" class="st7"/>
		</g>
		<g id="shape140-48" v:mID="140" v:groupContext="shape" transform="translate(30.2003,-409.883)">
			<title>Foglio.140</title>
			<desc>3. createEndpoint(XAResource)</desc>
			<v:textBlock v:margins="rect(4,4,4,4)" v:tabSpace="42.5197"/>
			<v:textRect cx="66.0472" cy="654.959" width="132.1" height="13.9075"/>
			<rect x="0" y="648.005" width="132.094" height="13.9075" class="st3"/>
			<text x="4" y="657.36" class="st5" v:langID="1040"><v:paragraph/><v:tabList/>3. createEndpoint(XAResource)</text>		</g>
		<g id="shape141-51" v:mID="141" v:groupContext="shape" transform="translate(274.972,-342.848)">
			<title>Foglio.141</title>
			<desc>4. create proxy endpoint</desc>
			<v:textBlock v:margins="rect(4,4,4,4)" v:tabSpace="42.5197"/>
			<v:textRect cx="58.4646" cy="654.959" width="116.93" height="13.9075"/>
			<rect x="0" y="648.005" width="116.929" height="13.9075" class="st3"/>
			<text x="4" y="657.36" class="st5" v:langID="1040"><v:paragraph/><v:tabList/>4. create proxy endpoint</text>		</g>
		<g id="shape1-54" v:mID="1" v:groupContext="shape" transform="translate(139.618,-604.5)">
			<title>Foglio.1</title>
			<rect x="0" y="616.912" width="85.0394" height="45" rx="8.50394" ry="8.50394" class="st2"/>
		</g>
		<g id="shape4-56" v:mID="4" v:groupContext="shape" transform="translate(153.791,-619.829)">
			<title>Foglio.4</title>
			<desc>Message Provider</desc>
			<v:textBlock v:margins="rect(4,4,4,4)" v:tabSpace="42.5197"/>
			<v:textRect cx="27.2835" cy="652.124" width="54.57" height="19.5768"/>
			<rect x="0" y="642.336" width="54.5669" height="19.5768" class="st3"/>
			<text x="4" y="649.72" class="st4" v:langID="1040"><v:paragraph/><v:tabList/>Message <tspan x="4" dy="1.2em"
						class="st10">Provider</tspan></text>		</g>
		<g id="shape142-60" v:mID="142" v:groupContext="shape" transform="translate(9.22394,-604.5)">
			<title>Foglio.142</title>
			<rect x="0" y="616.912" width="116.22" height="45" rx="8.50394" ry="8.50394" class="st2"/>
		</g>
		<g id="shape143-62" v:mID="143" v:groupContext="shape" transform="translate(21.1058,-619.829)">
			<title>Foglio.143</title>
			<desc>ResourceAdapter (from adapter)</desc>
			<v:textBlock v:margins="rect(4,4,4,4)" v:tabSpace="42.5197"/>
			<v:textRect cx="37.2874" cy="652.124" width="74.58" height="19.5768"/>
			<rect x="0" y="642.336" width="74.5748" height="19.5768" class="st3"/>
			<text x="4" y="649.72" class="st4" v:langID="1040"><v:paragraph/><v:tabList/>ResourceAdapter <tspan x="4" dy="1.2em"
						class="st10">(</tspan>from adapter)</text>		</g>
		<g id="shape27-66" v:mID="27" v:groupContext="shape" transform="translate(321.035,1035.1) rotate(180)">
			<title>Foglio.27</title>
			<path d="M5.1 661.91 L0 656.81 L5.1 651.71" class="st6"/>
		</g>
		<g id="shape28-69" v:mID="28" v:groupContext="shape" transform="translate(318.2,1040.21) rotate(180)">
			<title>Foglio.28</title>
			<path d="M0 661.91 L289.13 661.91" class="st6"/>
		</g>
		<g id="shape32-72" v:mID="32" v:groupContext="shape" transform="translate(17.7279,-51.7436)">
			<title>Foglio.32</title>
			<rect x="0" y="415.298" width="11.3386" height="246.614" class="st9"/>
		</g>
		<g id="shape33-74" v:mID="33" v:groupContext="shape" transform="translate(595.712,1152.03) rotate(180)">
			<title>Foglio.33</title>
			<path d="M5.1 661.91 L0 656.81 L5.1 651.71" class="st6"/>
		</g>
		<g id="shape34-77" v:mID="34" v:groupContext="shape" transform="translate(593.161,1157.14) rotate(180)">
			<title>Foglio.34</title>
			<path d="M0 661.91 L260.79 661.91" class="st6"/>
		</g>
		<g id="shape35-80" v:mID="35" v:groupContext="shape" transform="translate(321.035,-155.208)">
			<title>Foglio.35</title>
			<rect x="0" y="630.731" width="11.3386" height="31.1811" class="st9"/>
		</g>
		<g id="shape36-82" v:mID="36" v:groupContext="shape" transform="translate(30.2003,-287.285)">
			<title>Foglio.36</title>
			<desc>5. deliver message</desc>
			<v:textBlock v:margins="rect(4,4,4,4)" v:tabSpace="42.5197"/>
			<v:textRect cx="44.2913" cy="654.959" width="88.59" height="13.9075"/>
			<rect x="0" y="648.005" width="88.5827" height="13.9075" class="st3"/>
			<text x="4" y="657.36" class="st5" v:langID="1040"><v:paragraph/><v:tabList/>5. deliver message</text>		</g>
		<g id="shape37-85" v:mID="37" v:groupContext="shape" transform="translate(333.791,-170.223)">
			<title>Foglio.37</title>
			<desc>8. deliver messages</desc>
			<v:textBlock v:margins="rect(4,4,4,4)" v:tabSpace="42.5197"/>
			<v:textRect cx="58.4646" cy="654.959" width="116.93" height="13.9075"/>
			<rect x="0" y="648.005" width="116.929" height="13.9075" class="st3"/>
			<text x="4" y="657.36" class="st5" v:langID="1040"><v:paragraph/><v:tabList/>8. deliver messages</text>		</g>
		<g id="shape5-88" v:mID="5" v:groupContext="shape" transform="translate(240.248,-604.854)">
			<title>Foglio.5</title>
			<rect x="0" y="616.912" width="99.2126" height="45" rx="8.50394" ry="8.50394" class="st2"/>
		</g>
		<g id="shape9-90" v:mID="9" v:groupContext="shape" transform="translate(251.586,-616.294)">
			<title>Foglio.9</title>
			<desc>Proxy endpoint instance (from app server)</desc>
			<v:textBlock v:margins="rect(4,4,4,4)" v:tabSpace="42.5197"/>
			<v:textRect cx="32.5984" cy="647.739" width="65.2" height="28.3465"/>
			<rect x="0" y="633.566" width="65.1969" height="28.3465" class="st3"/>
			<text x="4" y="640.54" class="st4" v:langID="1040"><v:paragraph/><v:tabList/>Proxy endpoint <tspan x="4" dy="1.2em"
						class="st10">instance </tspan>(from <tspan x="4" dy="1.2em" class="st10">app server</tspan>)</text>		</g>
		<g id="shape13-95" v:mID="13" v:groupContext="shape" transform="translate(508.122,-605.443)">
			<title>Foglio.13</title>
			<rect x="0" y="616.912" width="107.717" height="45" rx="8.50394" ry="8.50394" class="st2"/>
		</g>
		<g id="shape14-97" v:mID="14" v:groupContext="shape" transform="translate(520.003,-620.617)">
			<title>Foglio.14</title>
			<desc>actual endpoint instance</desc>
			<v:textBlock v:margins="rect(4,4,4,4)" v:tabSpace="42.5197"/>
			<v:textRect cx="37.2874" cy="652.124" width="74.58" height="19.5768"/>
			<rect x="0" y="642.336" width="74.5748" height="19.5768" class="st3"/>
			<text x="4" y="649.72" class="st4" v:langID="1040"><v:paragraph/><v:tabList/>actual endpoint <tspan x="4" dy="1.2em"
						class="st10">instance</tspan></text>		</g>
		<g id="shape11-101" v:mID="11" v:groupContext="shape" transform="translate(350.799,-605.443)">
			<title>Foglio.11</title>
			<rect x="0" y="616.912" width="144.567" height="45" rx="8.50394" ry="8.50394" class="st2"/>
		</g>
		<g id="shape12-103" v:mID="12" v:groupContext="shape" transform="translate(359.846,-620.617)">
			<title>Foglio.12</title>
			<desc>MessageEndpointFactory (from app server)</desc>
			<v:textBlock v:margins="rect(4,4,4,4)" v:tabSpace="42.5197"/>
			<v:textRect cx="50.752" cy="652.124" width="101.51" height="19.5768"/>
			<rect x="0" y="642.336" width="101.504" height="19.5768" class="st3"/>
			<text x="4" y="649.72" class="st4" v:langID="1040"><v:paragraph/><v:tabList/>MessageEndpointFactory <tspan x="4"
						dy="1.2em" class="st10">(</tspan>from app server)</text>		</g>
		<g id="shape146-107" v:mID="146" v:groupContext="shape" transform="translate(-394.736,647.019) rotate(-90)">
			<title>Foglio.146</title>
			<path d="M0 661.91 L555.76 661.91" class="st8"/>
		</g>
		<g id="shape144-110" v:mID="144" v:groupContext="shape" transform="translate(175.051,-545.326)">
			<title>Foglio.144</title>
			<rect x="0" y="616.912" width="144.567" height="45" rx="8.50394" ry="8.50394" class="st2"/>
		</g>
		<g id="shape145-112" v:mID="145" v:groupContext="shape" transform="translate(184.098,-560.501)">
			<title>Foglio.145</title>
			<desc>MessageEndpointFactory (from app server)</desc>
			<v:textBlock v:margins="rect(4,4,4,4)" v:tabSpace="42.5197"/>
			<v:textRect cx="50.752" cy="652.124" width="101.51" height="19.5768"/>
			<rect x="0" y="642.336" width="101.504" height="19.5768" class="st3"/>
			<text x="4" y="649.72" class="st4" v:langID="1040"><v:paragraph/><v:tabList/>MessageEndpointFactory <tspan x="4"
						dy="1.2em" class="st10">(</tspan>from app server)</text>		</g>
		<g id="shape31-116" v:mID="31" v:groupContext="shape" transform="translate(262.216,-326.704)">
			<title>Foglio.31</title>
			<rect x="0" y="630.731" width="11.3386" height="31.1811" class="st9"/>
		</g>
		<g id="shape147-118" v:mID="147" v:groupContext="shape" transform="translate(31.9011,-458.515)">
			<title>Foglio.147</title>
			<desc>2. create an instance</desc>
			<v:textBlock v:margins="rect(4,4,4,4)" v:tabSpace="42.5197"/>
			<v:textRect cx="73.7008" cy="654.959" width="147.41" height="13.9075"/>
			<rect x="0" y="648.005" width="147.402" height="13.9075" class="st3"/>
			<text x="4" y="657.36" class="st5" v:langID="1040"><v:paragraph/><v:tabList/>2. create an instance</text>		</g>
		<g id="shape148-121" v:mID="148" v:groupContext="shape" transform="translate(558.578,866.798) rotate(180)">
			<title>Foglio.148</title>
			<path d="M5.1 661.91 L0 656.81 L5.1 651.71" class="st6"/>
		</g>
		<g id="shape149-124" v:mID="149" v:groupContext="shape" transform="translate(553.476,871.9) rotate(180)">
			<title>Foglio.149</title>
			<path d="M0 661.91 L524.41 661.91" class="st7"/>
		</g>
		<g id="shape150-127" v:mID="150" v:groupContext="shape" transform="translate(17.7279,-435.484)">
			<title>Foglio.150</title>
			<rect x="0" y="630.731" width="11.3386" height="31.1811" class="st9"/>
		</g>
		<g id="shape153-129" v:mID="153" v:groupContext="shape" transform="translate(-99.9326,645.371) rotate(-90)">
			<title>Foglio.153</title>
			<path d="M0 661.91 L567.81 661.91" class="st8"/>
		</g>
		<g id="shape151-132" v:mID="151" v:groupContext="shape" transform="translate(471.271,-545.149)">
			<title>Foglio.151</title>
			<rect x="0" y="616.912" width="107.717" height="45" rx="8.50394" ry="8.50394" class="st2"/>
		</g>
		<g id="shape152-134" v:mID="152" v:groupContext="shape" transform="translate(483.153,-559.411)">
			<title>Foglio.152</title>
			<desc>XAResource (from adapter)</desc>
			<v:textBlock v:margins="rect(4,4,4,4)" v:tabSpace="42.5197"/>
			<v:textRect cx="37.2874" cy="652.124" width="74.58" height="19.5768"/>
			<rect x="0" y="642.336" width="74.5748" height="19.5768" class="st3"/>
			<text x="4" y="649.72" class="st4" v:langID="1040"><v:paragraph/><v:tabList/>XAResource<v:newlineChar/><tspan x="4"
						dy="1.2em" class="st10">(</tspan>from adapter)</text>		</g>
		<g id="shape154-138" v:mID="154" v:groupContext="shape" transform="translate(453.696,1064.16) rotate(180)">
			<title>Foglio.154</title>
			<path d="M5.1 661.91 L0 656.81 L5.1 651.71" class="st6"/>
		</g>
		<g id="shape155-141" v:mID="155" v:groupContext="shape" transform="translate(453.696,1069.26) rotate(180)">
			<title>Foglio.155</title>
			<path d="M0 661.91 L121.04 661.91" class="st6"/>
		</g>
		<g id="shape156-144" v:mID="156" v:groupContext="shape" transform="translate(321.318,-199.145)">
			<title>Foglio.156</title>
			<rect x="0" y="586.794" width="11.3386" height="75.1181" class="st9"/>
		</g>
		<g id="shape157-146" v:mID="157" v:groupContext="shape" transform="translate(334.074,-258.097)">
			<title>Foglio.157</title>
			<desc>6. start a transaction</desc>
			<v:textBlock v:margins="rect(4,4,4,4)" v:tabSpace="42.5197"/>
			<v:textRect cx="58.4646" cy="654.959" width="116.93" height="13.9075"/>
			<rect x="0" y="648.005" width="116.929" height="13.9075" class="st3"/>
			<text x="4" y="657.36" class="st5" v:langID="1040"><v:paragraph/><v:tabList/>6. start a transaction</text>		</g>
		<g id="shape158-149" v:mID="158" v:groupContext="shape" transform="translate(561.696,1108.81) rotate(180)">
			<title>Foglio.158</title>
			<path d="M5.1 661.91 L0 656.81 L5.1 651.71" class="st6"/>
		</g>
		<g id="shape159-152" v:mID="159" v:groupContext="shape" transform="translate(561.98,1113.91) rotate(180)">
			<title>Foglio.159</title>
			<path d="M0 661.91 L100.2 661.91" class="st6"/>
		</g>
		<g id="shape160-155" v:mID="160" v:groupContext="shape" transform="translate(450.437,-199.145)">
			<title>Foglio.160</title>
			<rect x="0" y="640.653" width="11.3386" height="21.2598" class="st9"/>
		</g>
		<g id="shape161-157" v:mID="161" v:groupContext="shape" transform="translate(463.192,-213.451)">
			<title>Foglio.161</title>
			<desc>7. start(Xid)</desc>
			<v:textBlock v:margins="rect(4,4,4,4)" v:tabSpace="42.5197"/>
			<v:textRect cx="58.4646" cy="654.959" width="116.93" height="13.9075"/>
			<rect x="0" y="648.005" width="116.929" height="13.9075" class="st3"/>
			<text x="4" y="657.36" class="st5" v:langID="1040"><v:paragraph/><v:tabList/>7. start(Xid)</text>		</g>
		<g id="shape162-160" v:mID="162" v:groupContext="shape" transform="translate(454.122,1195.26) rotate(180)">
			<title>Foglio.162</title>
			<path d="M5.1 661.91 L0 656.81 L5.1 651.71" class="st6"/>
		</g>
		<g id="shape163-163" v:mID="163" v:groupContext="shape" transform="translate(454.122,1200.36) rotate(180)">
			<title>Foglio.163</title>
			<path d="M0 661.91 L121.04 661.91" class="st6"/>
		</g>
		<g id="shape164-166" v:mID="164" v:groupContext="shape" transform="translate(321.744,-29.0665)">
			<title>Foglio.164</title>
			<rect x="0" y="547.818" width="11.3386" height="114.094" class="st9"/>
		</g>
		<g id="shape165-168" v:mID="165" v:groupContext="shape" transform="translate(334.5,-126.995)">
			<title>Foglio.165</title>
			<desc>9. complete transaction</desc>
			<v:textBlock v:margins="rect(4,4,4,4)" v:tabSpace="42.5197"/>
			<v:textRect cx="58.4646" cy="654.959" width="116.93" height="13.9075"/>
			<rect x="0" y="648.005" width="116.929" height="13.9075" class="st3"/>
			<text x="4" y="657.36" class="st5" v:langID="1040"><v:paragraph/><v:tabList/>9. complete transaction</text>		</g>
		<g id="shape166-171" v:mID="166" v:groupContext="shape" transform="translate(561.696,1219.36) rotate(180)">
			<title>Foglio.166</title>
			<path d="M5.1 661.91 L0 656.81 L5.1 651.71" class="st6"/>
		</g>
		<g id="shape167-174" v:mID="167" v:groupContext="shape" transform="translate(561.98,1224.46) rotate(180)">
			<title>Foglio.167</title>
			<path d="M0 661.91 L99.78 661.91" class="st6"/>
		</g>
		<g id="shape168-177" v:mID="168" v:groupContext="shape" transform="translate(450.862,-88.594)">
			<title>Foglio.168</title>
			<rect x="0" y="640.653" width="11.3386" height="21.2598" class="st9"/>
		</g>
		<g id="shape169-179" v:mID="169" v:groupContext="shape" transform="translate(463.618,-101.483)">
			<title>Foglio.169</title>
			<desc>10. end(Xid)</desc>
			<v:textBlock v:margins="rect(4,4,4,4)" v:tabSpace="42.5197"/>
			<v:textRect cx="58.4646" cy="654.959" width="116.93" height="13.9075"/>
			<rect x="0" y="648.005" width="116.929" height="13.9075" class="st3"/>
			<text x="4" y="657.36" class="st5" v:langID="1040"><v:paragraph/><v:tabList/>10. end(Xid)</text>		</g>
		<g id="shape170-182" v:mID="170" v:groupContext="shape" transform="translate(562.263,1250.41) rotate(180)">
			<title>Foglio.170</title>
			<path d="M5.1 661.91 L0 656.81 L5.1 651.71" class="st6"/>
		</g>
		<g id="shape171-185" v:mID="171" v:groupContext="shape" transform="translate(562.547,1255.51) rotate(180)">
			<title>Foglio.171</title>
			<path d="M0 661.91 L99.78 661.91" class="st6"/>
		</g>
		<g id="shape172-188" v:mID="172" v:groupContext="shape" transform="translate(451.429,-57.5458)">
			<title>Foglio.172</title>
			<rect x="0" y="640.653" width="11.3386" height="21.2598" class="st9"/>
		</g>
		<g id="shape173-190" v:mID="173" v:groupContext="shape" transform="translate(464.185,-70.3017)">
			<title>Foglio.173</title>
			<desc>11. prepare(Xid)</desc>
			<v:textBlock v:margins="rect(4,4,4,4)" v:tabSpace="42.5197"/>
			<v:textRect cx="58.4646" cy="654.959" width="116.93" height="13.9075"/>
			<rect x="0" y="648.005" width="116.929" height="13.9075" class="st3"/>
			<text x="4" y="657.36" class="st5" v:langID="1040"><v:paragraph/><v:tabList/>11. prepare(Xid)</text>		</g>
		<g id="shape174-193" v:mID="174" v:groupContext="shape" transform="translate(562.263,1278.82) rotate(180)">
			<title>Foglio.174</title>
			<path d="M5.1 661.91 L0 656.81 L5.1 651.71" class="st6"/>
		</g>
		<g id="shape175-196" v:mID="175" v:groupContext="shape" transform="translate(562.547,1283.92) rotate(180)">
			<title>Foglio.175</title>
			<path d="M0 661.91 L99.78 661.91" class="st6"/>
		</g>
		<g id="shape176-199" v:mID="176" v:groupContext="shape" transform="translate(451.429,-29.1329)">
			<title>Foglio.176</title>
			<rect x="0" y="640.653" width="11.3386" height="21.2598" class="st9"/>
		</g>
		<g id="shape177-201" v:mID="177" v:groupContext="shape" transform="translate(464.185,-40.6708)">
			<title>Foglio.177</title>
			<desc>12. commit(Xid)</desc>
			<v:textBlock v:margins="rect(4,4,4,4)" v:tabSpace="42.5197"/>
			<v:textRect cx="58.4646" cy="654.959" width="116.93" height="13.9075"/>
			<rect x="0" y="648.005" width="116.929" height="13.9075" class="st3"/>
			<text x="4" y="657.36" class="st5" v:langID="1040"><v:paragraph/><v:tabList/>12. commit(Xid)</text>		</g>
	</g>
</svg>
