<?xml version="1.0" encoding="UTF-8" standalone="no"?>
<!DOCTYPE svg PUBLIC "-//W3C//DTD SVG 1.0//EN" "http://www.w3.org/TR/2001/REC-SVG-20010904/DTD/svg10.dtd">
<!-- Generato da Microsoft Visio 11.0, SVG Export, v1.0 conn-155.svg Pagina 1 -->
<svg xmlns="http://www.w3.org/2000/svg" xmlns:v="http://schemas.microsoft.com/visio/2003/SVGExtensions/" width="7.81528in"
		height="6.63417in" viewBox="0 0 562.7 477.66" xml:space="preserve" color-interpolation-filters="sRGB" class="st17">
	<v:documentProperties v:langID="1040" v:metric="true" v:viewMarkup="false">
		<v:userDefs>
			<v:ud v:nameU="MBSAAddinOutlineVisible" v:prompt="" v:val="VT0(1):26"/>
		</v:userDefs>
	</v:documentProperties>

	<style type="text/css">
	<![CDATA[
		.st1 {fill:#ffffff;stroke:none;stroke-linecap:round;stroke-linejoin:round;stroke-width:0.72}
		.st2 {stroke:#173660;stroke-dasharray:0,6.48;stroke-linecap:round;stroke-linejoin:round;stroke-width:2.16}
		.st3 {fill:#afc2da;stroke:#afc2da;stroke-linecap:round;stroke-linejoin:round;stroke-width:0.72}
		.st4 {fill:none;stroke:none;stroke-linecap:round;stroke-linejoin:round;stroke-width:0.72}
		.st5 {fill:#000000;font-family:Arial;font-size:0.499992em}
		.st6 {font-size:1em}
		.st7 {fill:#afc2da;stroke:#729fdc;stroke-linecap:round;stroke-linejoin:round;stroke-width:0.72}
		.st8 {fill:#000000;font-family:Arial;font-size:0.666664em;font-weight:bold}
		.st9 {fill:#ffffff;fill-opacity:0;stroke:#8c8c8c;stroke-dasharray:0,6.48;stroke-linecap:round;stroke-linejoin:round;stroke-width:2.16}
		.st10 {fill:#facca7;stroke:#facca7;stroke-linecap:round;stroke-linejoin:round;stroke-width:0.72}
		.st11 {fill:#173660;stroke:none;stroke-linecap:round;stroke-linejoin:round;stroke-width:0.72}
		.st12 {fill:#ffffff;font-family:Arial;font-size:0.666664em;font-weight:bold}
		.st13 {fill:#ffffff;font-family:Arial;font-size:0.666664em}
		.st14 {fill:#000000;font-family:Arial;font-size:0.583328em;font-weight:bold}
		.st15 {stroke:#f28226;stroke-linecap:round;stroke-linejoin:round;stroke-width:2.16}
		.st16 {stroke:#173660;stroke-linecap:round;stroke-linejoin:round;stroke-width:2.16}
		.st17 {fill:none;fill-rule:evenodd;font-size:12;overflow:visible;stroke-linecap:square;stroke-miterlimit:3}
	]]>
	</style>

	<g v:mID="0" v:index="1" v:groupContext="foregroundPage">
		<title>Pagina 1</title>
		<v:pageProperties v:drawingScale="0.0393701" v:pageScale="0.0393701" v:drawingUnits="24" v:shadowOffsetX="8.50394"
				v:shadowOffsetY="-8.50394"/>
		<g id="shape22-1" v:mID="22" v:groupContext="shape" transform="translate(0.72,-0.72)">
			<title>Foglio.22</title>
			<rect x="0" y="1.44" width="561.26" height="476.22" class="st1"/>
		</g>
		<g id="shape81-3" v:mID="81" v:groupContext="shape" transform="translate(168.862,-210.484)">
			<title>Foglio.81</title>
			<path d="M0 477.66 L14.98 477.66" class="st2"/>
		</g>
		<g id="shape82-6" v:mID="82" v:groupContext="shape" transform="translate(167.964,-126.578)">
			<title>Foglio.82</title>
			<path d="M0 477.66 L14.98 477.66" class="st2"/>
		</g>
		<g id="shape80-9" v:mID="80" v:groupContext="shape" transform="translate(167.964,-288.153)">
			<title>Foglio.80</title>
			<path d="M0 477.66 L14.98 477.66" class="st2"/>
		</g>
		<g id="shape65-12" v:mID="65" v:groupContext="shape" transform="translate(99.9326,-88.594)">
			<title>Foglio.65</title>
			<ellipse cx="36.8504" cy="440.81" rx="36.8504" ry="36.8504" class="st3"/>
		</g>
		<g id="shape94-14" v:mID="94" v:groupContext="shape" transform="translate(116.232,-133.948)">
			<title>Foglio.94</title>
			<desc>Resource Adapter module</desc>
			<v:textBlock v:margins="rect(4,4,4,4)" v:tabSpace="42.5197"/>
			<v:textRect cx="29.0551" cy="466.743" width="58.12" height="21.8356"/>
			<rect x="0" y="455.825" width="58.1102" height="21.8356" class="st4"/>
			<text x="4" y="461.34" class="st5" v:langID="1040"><v:paragraph/><v:tabList/>Resource <v:newlineChar/><tspan x="4"
						dy="1.2em" class="st6">Adapter <v:newlineChar/></tspan><tspan x="4" dy="1.2em" class="st6">module</tspan></text>		</g>
		<g id="shape60-19" v:mID="60" v:groupContext="shape" transform="translate(99.9326,-170.799)">
			<title>Foglio.60</title>
			<ellipse cx="36.8504" cy="440.81" rx="36.8504" ry="36.8504" class="st3"/>
		</g>
		<g id="shape56-21" v:mID="56" v:groupContext="shape" transform="translate(99.9326,-255.838)">
			<title>Foglio.56</title>
			<ellipse cx="36.8504" cy="440.81" rx="36.8504" ry="36.8504" class="st3"/>
		</g>
		<g id="shape20-23" v:mID="20" v:groupContext="shape" transform="translate(224.657,-108.437)">
			<title>Foglio.20</title>
			<rect x="0" y="134.668" width="194.173" height="342.992" rx="8.50394" ry="8.50394" class="st7"/>
		</g>
		<g id="shape6-25" v:mID="6" v:groupContext="shape" transform="translate(357.885,-156.448)">
			<title>Foglio.6</title>
			<rect x="0" y="443.29" width="39.685" height="34.3701" class="st1"/>
		</g>
		<g id="shape7-27" v:mID="7" v:groupContext="shape" transform="translate(363.555,-162.959)">
			<title>Foglio.7</title>
			<desc>DD</desc>
			<v:textBlock v:margins="rect(4,4,4,4)" v:tabSpace="42.5197"/>
			<v:textRect cx="12.7559" cy="466.743" width="25.52" height="21.8356"/>
			<rect x="0" y="455.825" width="25.5118" height="21.8356" class="st4"/>
			<text x="4" y="469.14" class="st8" v:langID="1040"><v:paragraph/><v:tabList/>DD</text>		</g>
		<g id="shape23-30" v:mID="23" v:groupContext="shape" transform="translate(338.043,-136.783)">
			<title>Foglio.23</title>
			<rect x="0" y="250.889" width="70.8661" height="226.772" rx="11.3386" ry="11.3386" class="st9"/>
		</g>
		<g id="shape28-32" v:mID="28" v:groupContext="shape" transform="translate(244.5,-329.539)">
			<title>Foglio.28</title>
			<ellipse cx="28.3465" cy="449.314" rx="28.3465" ry="28.3465" class="st10"/>
		</g>
		<g id="shape3-34" v:mID="3" v:groupContext="shape" transform="translate(27.6265,448.594) rotate(-90)">
			<title>Foglio.3</title>
			<path d="M0 477.66 L252.28 477.66" class="st2"/>
		</g>
		<g id="shape40-37" v:mID="40" v:groupContext="shape" transform="translate(459.933,-281.35)">
			<title>Foglio.40</title>
			<rect x="0" y="437.975" width="90.7087" height="39.685" rx="5.66929" ry="5.66929" class="st11"/>
		</g>
		<g id="shape41-39" v:mID="41" v:groupContext="shape" transform="translate(464.185,-291.838)">
			<title>Foglio.41</title>
			<desc>Deployment Tool</desc>
			<v:textBlock v:margins="rect(4,4,4,4)" v:tabSpace="42.5197"/>
			<v:textRect cx="44.6457" cy="466.402" width="89.3" height="22.5168"/>
			<rect x="0" y="455.144" width="89.2913" height="22.5168" class="st4"/>
			<text x="4" y="464" class="st12" v:langID="1040"><v:paragraph/><v:tabList/>Deployment<v:newlineChar/><tspan x="4"
						dy="1.2em" class="st6">Tool</tspan></text>		</g>
		<g id="shape47-43" v:mID="47" v:groupContext="shape" transform="translate(369.878,-292.944)">
			<title>Foglio.47</title>
			<desc>1</desc>
			<v:textBlock v:margins="rect(4,4,4,4)" v:tabSpace="42.5197"/>
			<v:textRect cx="8.17686" cy="467.867" width="16.36" height="19.5874"/>
			<rect x="0" y="458.073" width="16.3537" height="19.5874" class="st4"/>
			<text x="4" y="470.27" class="st13" v:langID="1040"><v:paragraph/><v:tabList/>1</text>		</g>
		<g id="shape1-46" v:mID="1" v:groupContext="shape" transform="translate(357.885,-207.295)">
			<title>Foglio.1</title>
			<rect x="0" y="443.29" width="39.685" height="34.3701" class="st1"/>
		</g>
		<g id="shape2-48" v:mID="2" v:groupContext="shape" transform="translate(363.555,-213.806)">
			<title>Foglio.2</title>
			<desc>DD</desc>
			<v:textBlock v:margins="rect(4,4,4,4)" v:tabSpace="42.5197"/>
			<v:textRect cx="12.7559" cy="466.743" width="25.52" height="21.8356"/>
			<rect x="0" y="455.825" width="25.5118" height="21.8356" class="st4"/>
			<text x="4" y="469.14" class="st8" v:langID="1040"><v:paragraph/><v:tabList/>DD</text>		</g>
		<g id="shape4-51" v:mID="4" v:groupContext="shape" transform="translate(357.885,-261.33)">
			<title>Foglio.4</title>
			<rect x="0" y="443.29" width="39.685" height="34.3701" class="st1"/>
		</g>
		<g id="shape5-53" v:mID="5" v:groupContext="shape" transform="translate(363.555,-267.841)">
			<title>Foglio.5</title>
			<desc>DD</desc>
			<v:textBlock v:margins="rect(4,4,4,4)" v:tabSpace="42.5197"/>
			<v:textRect cx="12.7559" cy="466.743" width="25.52" height="21.8356"/>
			<rect x="0" y="455.825" width="25.5118" height="21.8356" class="st4"/>
			<text x="4" y="469.14" class="st8" v:langID="1040"><v:paragraph/><v:tabList/>DD</text>		</g>
		<g id="shape8-56" v:mID="8" v:groupContext="shape" transform="translate(357.885,-312.177)">
			<title>Foglio.8</title>
			<rect x="0" y="443.29" width="39.685" height="34.3701" class="st1"/>
		</g>
		<g id="shape9-58" v:mID="9" v:groupContext="shape" transform="translate(363.555,-318.688)">
			<title>Foglio.9</title>
			<desc>DD</desc>
			<v:textBlock v:margins="rect(4,4,4,4)" v:tabSpace="42.5197"/>
			<v:textRect cx="12.7559" cy="466.743" width="25.52" height="21.8356"/>
			<rect x="0" y="455.825" width="25.5118" height="21.8356" class="st4"/>
			<text x="4" y="469.14" class="st8" v:langID="1040"><v:paragraph/><v:tabList/>DD</text>		</g>
		<g id="shape12-61" v:mID="12" v:groupContext="shape" transform="translate(369.878,-241.665)">
			<title>Foglio.12</title>
			<desc>2</desc>
			<v:textBlock v:margins="rect(4,4,4,4)" v:tabSpace="42.5197"/>
			<v:textRect cx="8.17686" cy="467.867" width="16.36" height="19.5874"/>
			<rect x="0" y="458.073" width="16.3537" height="19.5874" class="st4"/>
			<text x="4" y="470.27" class="st13" v:langID="1040"><v:paragraph/><v:tabList/>2</text>		</g>
		<g id="shape14-64" v:mID="14" v:groupContext="shape" transform="translate(369.551,-187.807)">
			<title>Foglio.14</title>
			<desc>3</desc>
			<v:textBlock v:margins="rect(4,4,4,4)" v:tabSpace="42.5197"/>
			<v:textRect cx="8.17686" cy="467.867" width="16.36" height="19.5874"/>
			<rect x="0" y="458.073" width="16.3537" height="19.5874" class="st4"/>
			<text x="4" y="470.27" class="st13" v:langID="1040"><v:paragraph/><v:tabList/>3</text>		</g>
		<g id="shape15-67" v:mID="15" v:groupContext="shape" transform="translate(369.878,-139.618)">
			<title>Foglio.15</title>
			<desc>4</desc>
			<v:textBlock v:margins="rect(4,4,4,4)" v:tabSpace="42.5197"/>
			<v:textRect cx="8.17686" cy="467.867" width="16.36" height="19.5874"/>
			<rect x="0" y="458.073" width="16.3537" height="19.5874" class="st4"/>
			<text x="4" y="470.27" class="st13" v:langID="1040"><v:paragraph/><v:tabList/>4</text>		</g>
		<g id="shape16-70" v:mID="16" v:groupContext="shape" transform="translate(258.673,-337.106)">
			<title>Foglio.16</title>
			<rect x="0" y="453.11" width="28.3465" height="24.5501" class="st1"/>
		</g>
		<g id="shape18-72" v:mID="18" v:groupContext="shape" transform="translate(262.722,-341.757)">
			<title>Foglio.18</title>
			<desc>DD</desc>
			<v:textBlock v:margins="rect(4,4,4,4)" v:tabSpace="42.5197"/>
			<v:textRect cx="9.11136" cy="469.862" width="18.23" height="15.5969"/>
			<rect x="0" y="462.064" width="18.2227" height="15.5969" class="st4"/>
			<text x="4" y="471.96" class="st14" v:langID="1040"><v:paragraph/><v:tabList/>DD</text>		</g>
		<g id="shape19-75" v:mID="19" v:groupContext="shape" transform="translate(267.177,-364.396)">
			<title>Foglio.19</title>
			<desc>1</desc>
			<v:textBlock v:margins="rect(4,4,4,4)" v:tabSpace="42.5197"/>
			<v:textRect cx="12.7559" cy="466.743" width="25.52" height="21.8356"/>
			<rect x="0" y="455.825" width="25.5118" height="21.8356" class="st4"/>
			<text x="4" y="469.14" class="st8" v:langID="1040"><v:paragraph/><v:tabList/>1</text>		</g>
		<g id="shape26-78" v:mID="26" v:groupContext="shape" transform="translate(244.5,-261.507)">
			<title>Foglio.26</title>
			<ellipse cx="28.3465" cy="449.314" rx="28.3465" ry="28.3465" class="st10"/>
		</g>
		<g id="shape27-80" v:mID="27" v:groupContext="shape" transform="translate(258.673,-269.075)">
			<title>Foglio.27</title>
			<rect x="0" y="453.11" width="28.3465" height="24.5501" class="st1"/>
		</g>
		<g id="shape29-82" v:mID="29" v:groupContext="shape" transform="translate(262.722,-273.725)">
			<title>Foglio.29</title>
			<desc>DD</desc>
			<v:textBlock v:margins="rect(4,4,4,4)" v:tabSpace="42.5197"/>
			<v:textRect cx="9.11136" cy="469.862" width="18.23" height="15.5969"/>
			<rect x="0" y="462.064" width="18.2227" height="15.5969" class="st4"/>
			<text x="4" y="471.96" class="st14" v:langID="1040"><v:paragraph/><v:tabList/>DD</text>		</g>
		<g id="shape30-85" v:mID="30" v:groupContext="shape" transform="translate(267.177,-296.365)">
			<title>Foglio.30</title>
			<desc>2</desc>
			<v:textBlock v:margins="rect(4,4,4,4)" v:tabSpace="42.5197"/>
			<v:textRect cx="12.7559" cy="466.743" width="25.52" height="21.8356"/>
			<rect x="0" y="455.825" width="25.5118" height="21.8356" class="st4"/>
			<text x="4" y="469.14" class="st8" v:langID="1040"><v:paragraph/><v:tabList/>2</text>		</g>
		<g id="shape31-88" v:mID="31" v:groupContext="shape" transform="translate(244.5,-190.641)">
			<title>Foglio.31</title>
			<ellipse cx="28.3465" cy="449.314" rx="28.3465" ry="28.3465" class="st10"/>
		</g>
		<g id="shape32-90" v:mID="32" v:groupContext="shape" transform="translate(258.673,-198.209)">
			<title>Foglio.32</title>
			<rect x="0" y="453.11" width="28.3465" height="24.5501" class="st1"/>
		</g>
		<g id="shape33-92" v:mID="33" v:groupContext="shape" transform="translate(262.722,-202.859)">
			<title>Foglio.33</title>
			<desc>DD</desc>
			<v:textBlock v:margins="rect(4,4,4,4)" v:tabSpace="42.5197"/>
			<v:textRect cx="9.11136" cy="469.862" width="18.23" height="15.5969"/>
			<rect x="0" y="462.064" width="18.2227" height="15.5969" class="st4"/>
			<text x="4" y="471.96" class="st14" v:langID="1040"><v:paragraph/><v:tabList/>DD</text>		</g>
		<g id="shape34-95" v:mID="34" v:groupContext="shape" transform="translate(267.177,-225.499)">
			<title>Foglio.34</title>
			<desc>3</desc>
			<v:textBlock v:margins="rect(4,4,4,4)" v:tabSpace="42.5197"/>
			<v:textRect cx="12.7559" cy="466.743" width="25.52" height="21.8356"/>
			<rect x="0" y="455.825" width="25.5118" height="21.8356" class="st4"/>
			<text x="4" y="469.14" class="st8" v:langID="1040"><v:paragraph/><v:tabList/>3</text>		</g>
		<g id="shape35-98" v:mID="35" v:groupContext="shape" transform="translate(244.5,-122.61)">
			<title>Foglio.35</title>
			<ellipse cx="28.3465" cy="449.314" rx="28.3465" ry="28.3465" class="st10"/>
		</g>
		<g id="shape36-100" v:mID="36" v:groupContext="shape" transform="translate(258.673,-130.177)">
			<title>Foglio.36</title>
			<rect x="0" y="453.11" width="28.3465" height="24.5501" class="st1"/>
		</g>
		<g id="shape37-102" v:mID="37" v:groupContext="shape" transform="translate(262.722,-134.828)">
			<title>Foglio.37</title>
			<desc>DD</desc>
			<v:textBlock v:margins="rect(4,4,4,4)" v:tabSpace="42.5197"/>
			<v:textRect cx="9.11136" cy="469.862" width="18.23" height="15.5969"/>
			<rect x="0" y="462.064" width="18.2227" height="15.5969" class="st4"/>
			<text x="4" y="471.96" class="st14" v:langID="1040"><v:paragraph/><v:tabList/>DD</text>		</g>
		<g id="shape38-105" v:mID="38" v:groupContext="shape" transform="translate(267.177,-157.467)">
			<title>Foglio.38</title>
			<desc>4</desc>
			<v:textBlock v:margins="rect(4,4,4,4)" v:tabSpace="42.5197"/>
			<v:textRect cx="12.7559" cy="466.743" width="25.52" height="21.8356"/>
			<rect x="0" y="455.825" width="25.5118" height="21.8356" class="st4"/>
			<text x="4" y="469.14" class="st8" v:langID="1040"><v:paragraph/><v:tabList/>4</text>		</g>
		<g id="shape39-108" v:mID="39" v:groupContext="shape" transform="translate(304.027,-403.24)">
			<title>Foglio.39</title>
			<rect x="0" y="443.29" width="39.685" height="34.3701" class="st1"/>
		</g>
		<g id="shape42-110" v:mID="42" v:groupContext="shape" transform="translate(306.862,-408.909)">
			<title>Foglio.42</title>
			<desc>App DD</desc>
			<v:textBlock v:margins="rect(4,4,4,4)" v:tabSpace="42.5197"/>
			<v:textRect cx="12.7559" cy="466.743" width="25.52" height="21.8356"/>
			<rect x="0" y="455.825" width="25.5118" height="21.8356" class="st4"/>
			<text x="4" y="464.34" class="st8" v:langID="1040"><v:paragraph/><v:tabList/>App <tspan x="4" dy="1.2em" class="st6">DD</tspan></text>		</g>
		<g id="shape21-114" v:mID="21" v:groupContext="shape" transform="translate(228.588,606.536) rotate(-165)">
			<title>Foglio.21</title>
			<path d="M0 477.66 L48.42 477.66" class="st15"/>
		</g>
		<g id="shape43-117" v:mID="43" v:groupContext="shape" transform="translate(232.744,602.387) rotate(-165)">
			<title>Foglio.43</title>
			<path d="M5.1 477.66 L0 472.56 L5.1 467.46" class="st15"/>
		</g>
		<g id="shape44-120" v:mID="44" v:groupContext="shape" transform="translate(227.88,656.055) rotate(-165)">
			<title>Foglio.44</title>
			<path d="M0 477.66 L48.42 477.66" class="st15"/>
		</g>
		<g id="shape45-123" v:mID="45" v:groupContext="shape" transform="translate(232.036,651.906) rotate(-165)">
			<title>Foglio.45</title>
			<path d="M5.1 477.66 L0 472.56 L5.1 467.46" class="st15"/>
		</g>
		<g id="shape46-126" v:mID="46" v:groupContext="shape" transform="translate(474.428,712.475) rotate(165)">
			<title>Foglio.46</title>
			<path d="M0 477.66 L48.42 477.66" class="st15"/>
		</g>
		<g id="shape48-129" v:mID="48" v:groupContext="shape" transform="translate(475.952,706.804) rotate(165)">
			<title>Foglio.48</title>
			<path d="M5.1 477.66 L0 472.56 L5.1 467.46" class="st15"/>
		</g>
		<g id="shape49-132" v:mID="49" v:groupContext="shape" transform="translate(474.428,767.052) rotate(165)">
			<title>Foglio.49</title>
			<path d="M0 477.66 L48.42 477.66" class="st15"/>
		</g>
		<g id="shape50-135" v:mID="50" v:groupContext="shape" transform="translate(475.952,761.382) rotate(165)">
			<title>Foglio.50</title>
			<path d="M5.1 477.66 L0 472.56 L5.1 467.46" class="st15"/>
		</g>
		<g id="shape51-138" v:mID="51" v:groupContext="shape" transform="translate(99.9326,-336.909)">
			<title>Foglio.51</title>
			<ellipse cx="36.8504" cy="440.81" rx="36.8504" ry="36.8504" class="st3"/>
		</g>
		<g id="shape52-140" v:mID="52" v:groupContext="shape" transform="translate(119.775,-343.712)">
			<title>Foglio.52</title>
			<rect x="0" y="448.2" width="34.0157" height="29.4601" class="st1"/>
		</g>
		<g id="shape53-142" v:mID="53" v:groupContext="shape" transform="translate(124.635,-349.293)">
			<title>Foglio.53</title>
			<desc>DD</desc>
			<v:textBlock v:margins="rect(4,4,4,4)" v:tabSpace="42.5197"/>
			<v:textRect cx="10.9336" cy="468.302" width="21.87" height="18.7163"/>
			<rect x="0" y="458.944" width="21.8673" height="18.7163" class="st4"/>
			<text x="4" y="470.4" class="st14" v:langID="1040"><v:paragraph/><v:tabList/>DD</text>		</g>
		<g id="shape55-145" v:mID="55" v:groupContext="shape" transform="translate(159.46,-351.525)">
			<title>Foglio.55</title>
			<desc>1</desc>
			<v:textBlock v:margins="rect(4,4,4,4)" v:tabSpace="42.5197"/>
			<v:textRect cx="15.3071" cy="464.559" width="30.62" height="26.2028"/>
			<rect x="0" y="451.458" width="30.6142" height="26.2028" class="st4"/>
			<text x="4" y="466.96" class="st12" v:langID="1040"><v:paragraph/><v:tabList/>1</text>		</g>
		<g id="shape57-148" v:mID="57" v:groupContext="shape" transform="translate(119.775,-263.228)">
			<title>Foglio.57</title>
			<rect x="0" y="448.2" width="34.0157" height="29.4601" class="st1"/>
		</g>
		<g id="shape58-150" v:mID="58" v:groupContext="shape" transform="translate(124.635,-268.809)">
			<title>Foglio.58</title>
			<desc>DD</desc>
			<v:textBlock v:margins="rect(4,4,4,4)" v:tabSpace="42.5197"/>
			<v:textRect cx="10.9336" cy="468.302" width="21.87" height="18.7163"/>
			<rect x="0" y="458.944" width="21.8673" height="18.7163" class="st4"/>
			<text x="4" y="470.4" class="st14" v:langID="1040"><v:paragraph/><v:tabList/>DD</text>		</g>
		<g id="shape59-153" v:mID="59" v:groupContext="shape" transform="translate(160.027,-270.011)">
			<title>Foglio.59</title>
			<desc>2</desc>
			<v:textBlock v:margins="rect(4,4,4,4)" v:tabSpace="42.5197"/>
			<v:textRect cx="15.3071" cy="464.559" width="30.62" height="26.2028"/>
			<rect x="0" y="451.458" width="30.6142" height="26.2028" class="st4"/>
			<text x="4" y="466.96" class="st12" v:langID="1040"><v:paragraph/><v:tabList/>2</text>		</g>
		<g id="shape61-156" v:mID="61" v:groupContext="shape" transform="translate(119.775,-179.313)">
			<title>Foglio.61</title>
			<rect x="0" y="448.2" width="34.0157" height="29.4601" class="st1"/>
		</g>
		<g id="shape62-158" v:mID="62" v:groupContext="shape" transform="translate(124.635,-184.894)">
			<title>Foglio.62</title>
			<desc>DD</desc>
			<v:textBlock v:margins="rect(4,4,4,4)" v:tabSpace="42.5197"/>
			<v:textRect cx="10.9336" cy="468.302" width="21.87" height="18.7163"/>
			<rect x="0" y="458.944" width="21.8673" height="18.7163" class="st4"/>
			<text x="4" y="470.4" class="st14" v:langID="1040"><v:paragraph/><v:tabList/>DD</text>		</g>
		<g id="shape64-161" v:mID="64" v:groupContext="shape" transform="translate(158.326,-184.281)">
			<title>Foglio.64</title>
			<desc>3</desc>
			<v:textBlock v:margins="rect(4,4,4,4)" v:tabSpace="42.5197"/>
			<v:textRect cx="15.3071" cy="464.559" width="30.62" height="26.2028"/>
			<rect x="0" y="451.458" width="30.6142" height="26.2028" class="st4"/>
			<text x="4" y="466.96" class="st12" v:langID="1040"><v:paragraph/><v:tabList/>3</text>		</g>
		<g id="shape66-164" v:mID="66" v:groupContext="shape" transform="translate(119.775,-97.675)">
			<title>Foglio.66</title>
			<rect x="0" y="448.2" width="34.0157" height="29.4601" class="st1"/>
		</g>
		<g id="shape67-166" v:mID="67" v:groupContext="shape" transform="translate(124.635,-103.256)">
			<title>Foglio.67</title>
			<desc>DD</desc>
			<v:textBlock v:margins="rect(4,4,4,4)" v:tabSpace="42.5197"/>
			<v:textRect cx="10.9336" cy="468.302" width="21.87" height="18.7163"/>
			<rect x="0" y="458.944" width="21.8673" height="18.7163" class="st4"/>
			<text x="4" y="470.4" class="st14" v:langID="1040"><v:paragraph/><v:tabList/>DD</text>		</g>
		<g id="shape68-169" v:mID="68" v:groupContext="shape" transform="translate(156.626,-97.098)">
			<title>Foglio.68</title>
			<desc>4</desc>
			<v:textBlock v:margins="rect(4,4,4,4)" v:tabSpace="42.5197"/>
			<v:textRect cx="15.3071" cy="464.559" width="30.62" height="26.2028"/>
			<rect x="0" y="451.458" width="30.6142" height="26.2028" class="st4"/>
			<text x="4" y="466.96" class="st12" v:langID="1040"><v:paragraph/><v:tabList/>4</text>		</g>
		<g id="shape69-172" v:mID="69" v:groupContext="shape" transform="translate(115.203,576.685) rotate(-165)">
			<title>Foglio.69</title>
			<path d="M0 477.66 L48.42 477.66" class="st15"/>
		</g>
		<g id="shape70-175" v:mID="70" v:groupContext="shape" transform="translate(119.358,572.536) rotate(-165)">
			<title>Foglio.70</title>
			<path d="M5.1 477.66 L0 472.56 L5.1 467.46" class="st15"/>
		</g>
		<g id="shape71-178" v:mID="71" v:groupContext="shape" transform="translate(114.495,653.885) rotate(-165)">
			<title>Foglio.71</title>
			<path d="M0 477.66 L48.42 477.66" class="st15"/>
		</g>
		<g id="shape72-181" v:mID="72" v:groupContext="shape" transform="translate(118.65,649.737) rotate(-165)">
			<title>Foglio.72</title>
			<path d="M5.1 477.66 L0 472.56 L5.1 467.46" class="st15"/>
		</g>
		<g id="shape73-184" v:mID="73" v:groupContext="shape" transform="translate(361.042,723.358) rotate(165)">
			<title>Foglio.73</title>
			<path d="M0 477.66 L48.42 477.66" class="st15"/>
		</g>
		<g id="shape74-187" v:mID="74" v:groupContext="shape" transform="translate(362.566,717.688) rotate(165)">
			<title>Foglio.74</title>
			<path d="M5.1 477.66 L0 472.56 L5.1 467.46" class="st15"/>
		</g>
		<g id="shape75-190" v:mID="75" v:groupContext="shape" transform="translate(361.042,798.171) rotate(165)">
			<title>Foglio.75</title>
			<path d="M0 477.66 L48.42 477.66" class="st15"/>
		</g>
		<g id="shape76-193" v:mID="76" v:groupContext="shape" transform="translate(362.566,792.5) rotate(165)">
			<title>Foglio.76</title>
			<path d="M5.1 477.66 L0 472.56 L5.1 467.46" class="st15"/>
		</g>
		<g id="shape77-196" v:mID="77" v:groupContext="shape" transform="translate(186.389,-29.0665)">
			<title>Foglio.77</title>
			<path d="M0 477.66 L318.9 477.66" class="st2"/>
		</g>
		<g id="shape78-199" v:mID="78" v:groupContext="shape" transform="translate(-291.271,448.594) rotate(-90)">
			<title>Foglio.78</title>
			<path d="M0 477.66 L334.49 477.66" class="st2"/>
		</g>
		<g id="shape79-202" v:mID="79" v:groupContext="shape" transform="translate(173.633,-366.389)">
			<title>Foglio.79</title>
			<path d="M0 477.66 L14.98 477.66" class="st2"/>
		</g>
		<g id="shape83-205" v:mID="83" v:groupContext="shape" transform="translate(418.83,-184.972)">
			<title>Foglio.83</title>
			<path d="M0 477.66 L25.07 477.66" class="st2"/>
		</g>
		<g id="shape84-208" v:mID="84" v:groupContext="shape" transform="translate(921.564,292.689) rotate(90)">
			<title>Foglio.84</title>
			<path d="M0 477.66 L113.39 477.66" class="st2"/>
		</g>
		<g id="shape85-211" v:mID="85" v:groupContext="shape" transform="translate(443.903,886.569) rotate(180)">
			<title>Foglio.85</title>
			<path d="M0 477.66 L67.59 477.66" class="st2"/>
		</g>
		<g id="shape86-214" v:mID="86" v:groupContext="shape" transform="translate(-98.5153,408.909) rotate(-90)">
			<title>Foglio.86</title>
			<path d="M0 477.66 L31.18 477.66" class="st2"/>
		</g>
		<g id="shape87-217" v:mID="87" v:groupContext="shape" transform="translate(851.703,377.728) rotate(90)">
			<title>Foglio.87</title>
			<path d="M5.1 477.66 L0 472.56 L5.1 467.46" class="st16"/>
		</g>
		<g id="shape88-220" v:mID="88" v:groupContext="shape" transform="translate(362.137,-46.0743)">
			<title>Foglio.88</title>
			<desc>add/delete modules</desc>
			<v:textBlock v:margins="rect(4,4,4,4)" v:tabSpace="42.5197"/>
			<v:textRect cx="49.6063" cy="466.743" width="99.22" height="21.8356"/>
			<rect x="0" y="455.825" width="99.2126" height="21.8356" class="st4"/>
			<text x="4" y="469.14" class="st8" v:langID="1040"><v:paragraph/><v:tabList/>add/delete modules</text>		</g>
		<g id="shape89-223" v:mID="89" v:groupContext="shape" transform="translate(366.389,-9.22394)">
			<title>Foglio.89</title>
			<desc>deploy stand-alone modules</desc>
			<v:textBlock v:margins="rect(4,4,4,4)" v:tabSpace="42.5197"/>
			<v:textRect cx="60.9449" cy="466.743" width="121.89" height="21.8356"/>
			<rect x="0" y="455.825" width="121.89" height="21.8356" class="st4"/>
			<text x="4" y="469.14" class="st8" v:langID="1040"><v:paragraph/><v:tabList/>deploy stand-alone modules</text>		</g>
		<g id="shape90-226" v:mID="90" v:groupContext="shape" transform="translate(265.759,-451.429)">
			<title>Foglio.90</title>
			<desc>Jakarta EE Application</desc>
			<v:textBlock v:margins="rect(4,4,4,4)" v:tabSpace="42.5197"/>
			<v:textRect cx="49.6063" cy="466.743" width="99.22" height="21.8356"/>
			<rect x="0" y="455.825" width="99.2126" height="21.8356" class="st4"/>
			<text x="4" y="469.14" class="st8" v:langID="1040"><v:paragraph/><v:tabList/>Jakarta EE Application</text>		</g>
		<g id="shape91-229" v:mID="91" v:groupContext="shape" transform="translate(34.7357,-451.429)">
			<title>Foglio.91</title>
			<desc>Components Jakarta EE Modules</desc>
			<v:textBlock v:margins="rect(4,4,4,4)" v:tabSpace="42.5197"/>
			<v:textRect cx="69.9213" cy="466.743" width="139.85" height="21.8356"/>
			<rect x="0" y="455.825" width="139.843" height="21.8356" class="st4"/>
			<text x="4" y="469.14" class="st8" v:langID="1040"><v:paragraph/><v:tabList/>Components Jakarta EE Modules</text>		</g>
		<g id="shape92-232" v:mID="92" v:groupContext="shape" transform="translate(118.594,-377.015)">
			<title>Foglio.92</title>
			<desc>JEB module</desc>
			<v:textBlock v:margins="rect(4,4,4,4)" v:tabSpace="42.5197"/>
			<v:textRect cx="18.189" cy="466.743" width="36.38" height="21.8356"/>
			<rect x="0" y="455.825" width="36.378" height="21.8356" class="st4"/>
			<text x="4" y="464.94" class="st5" v:langID="1040"><v:paragraph/><v:tabList/>JEB <tspan x="4" dy="1.2em" class="st6">module</tspan></text>		</g>
		<g id="shape93-236" v:mID="93" v:groupContext="shape" transform="translate(109.854,-294.389)">
			<title>Foglio.93</title>
			<desc>Web client module</desc>
			<v:textBlock v:margins="rect(4,4,4,4)" v:tabSpace="42.5197"/>
			<v:textRect cx="24.0945" cy="466.743" width="48.19" height="21.8356"/>
			<rect x="0" y="455.825" width="48.189" height="21.8356" class="st4"/>
			<text x="4" y="464.94" class="st5" v:langID="1040"><v:paragraph/><v:tabList/>Web client <tspan x="4" dy="1.2em"
						class="st6">module</tspan></text>		</g>
		<g id="shape63-240" v:mID="63" v:groupContext="shape" transform="translate(107.019,-210.905)">
			<title>Foglio.63</title>
			<desc>Application client module</desc>
			<v:textBlock v:margins="rect(4,4,4,4)" v:tabSpace="42.5197"/>
			<v:textRect cx="29.0551" cy="466.743" width="58.12" height="21.8356"/>
			<rect x="0" y="455.825" width="58.1102" height="21.8356" class="st4"/>
			<text x="4" y="464.94" class="st5" v:langID="1040"><v:paragraph/><v:tabList/>Application <v:newlineChar/><tspan x="4"
						dy="1.2em" class="st6">client module</tspan></text>		</g>
		<g id="shape95-244" v:mID="95" v:groupContext="shape" transform="translate(17.7279,-390.484)">
			<title>Foglio.95</title>
			<rect x="0" y="456.401" width="43.937" height="21.2598" class="st7"/>
		</g>
		<g id="shape96-246" v:mID="96" v:groupContext="shape" transform="translate(23.6334,-389.908)">
			<title>Foglio.96</title>
			<desc>JEB</desc>
			<v:textBlock v:margins="rect(4,4,4,4)" v:tabSpace="42.5197"/>
			<v:textRect cx="18.189" cy="466.743" width="36.38" height="21.8356"/>
			<rect x="0" y="455.825" width="36.378" height="21.8356" class="st4"/>
			<text x="4" y="469.14" class="st8" v:langID="1040"><v:paragraph/><v:tabList/>JEB</text>		</g>
		<g id="shape97-249" v:mID="97" v:groupContext="shape" transform="translate(17.7279,-362.137)">
			<title>Foglio.97</title>
			<rect x="0" y="456.401" width="43.937" height="21.2598" class="st7"/>
		</g>
		<g id="shape98-251" v:mID="98" v:groupContext="shape" transform="translate(23.6334,-361.562)">
			<title>Foglio.98</title>
			<desc>JEB</desc>
			<v:textBlock v:margins="rect(4,4,4,4)" v:tabSpace="42.5197"/>
			<v:textRect cx="18.189" cy="466.743" width="36.38" height="21.8356"/>
			<rect x="0" y="455.825" width="36.378" height="21.8356" class="st4"/>
			<text x="4" y="469.14" class="st8" v:langID="1040"><v:paragraph/><v:tabList/>JEB</text>		</g>
		<g id="shape99-254" v:mID="99" v:groupContext="shape" transform="translate(17.7279,-333.791)">
			<title>Foglio.99</title>
			<rect x="0" y="456.401" width="43.937" height="21.2598" class="st7"/>
		</g>
		<g id="shape100-256" v:mID="100" v:groupContext="shape" transform="translate(23.6334,-333.215)">
			<title>Foglio.100</title>
			<desc>JEB</desc>
			<v:textBlock v:margins="rect(4,4,4,4)" v:tabSpace="42.5197"/>
			<v:textRect cx="18.189" cy="466.743" width="36.38" height="21.8356"/>
			<rect x="0" y="455.825" width="36.378" height="21.8356" class="st4"/>
			<text x="4" y="469.14" class="st8" v:langID="1040"><v:paragraph/><v:tabList/>JEB</text>		</g>
		<g id="shape101-259" v:mID="101" v:groupContext="shape" transform="translate(93.4494,554.622) rotate(180)">
			<title>Foglio.101</title>
			<path d="M0 477.66 L31.42 477.66" class="st15"/>
		</g>
		<g id="shape102-262" v:mID="102" v:groupContext="shape" transform="translate(96.3893,549.539) rotate(180)">
			<title>Foglio.102</title>
			<path d="M5.1 477.66 L0 472.56 L5.1 467.46" class="st15"/>
		</g>
		<g id="shape103-265" v:mID="103" v:groupContext="shape" transform="translate(93.619,581.834) rotate(180)">
			<title>Foglio.103</title>
			<path d="M0 477.66 L31.42 477.66" class="st15"/>
		</g>
		<g id="shape104-268" v:mID="104" v:groupContext="shape" transform="translate(96.5589,576.752) rotate(180)">
			<title>Foglio.104</title>
			<path d="M5.1 477.66 L0 472.56 L5.1 467.46" class="st15"/>
		</g>
		<g id="shape105-271" v:mID="105" v:groupContext="shape" transform="translate(93.619,610.181) rotate(180)">
			<title>Foglio.105</title>
			<path d="M0 477.66 L31.42 477.66" class="st15"/>
		</g>
		<g id="shape106-274" v:mID="106" v:groupContext="shape" transform="translate(96.5589,605.098) rotate(180)">
			<title>Foglio.106</title>
			<path d="M5.1 477.66 L0 472.56 L5.1 467.46" class="st15"/>
		</g>
		<g id="shape107-277" v:mID="107" v:groupContext="shape" transform="translate(17.9974,-293.264)">
			<title>Foglio.107</title>
			<rect x="0" y="456.401" width="43.937" height="21.2598" class="st7"/>
		</g>
		<g id="shape108-279" v:mID="108" v:groupContext="shape" transform="translate(23.9029,-292.689)">
			<title>Foglio.108</title>
			<desc>WEB</desc>
			<v:textBlock v:margins="rect(4,4,4,4)" v:tabSpace="42.5197"/>
			<v:textRect cx="18.189" cy="466.743" width="36.38" height="21.8356"/>
			<rect x="0" y="455.825" width="36.378" height="21.8356" class="st4"/>
			<text x="4" y="469.14" class="st8" v:langID="1040"><v:paragraph/><v:tabList/>WEB</text>		</g>
		<g id="shape109-282" v:mID="109" v:groupContext="shape" transform="translate(17.9974,-264.918)">
			<title>Foglio.109</title>
			<rect x="0" y="456.401" width="43.937" height="21.2598" class="st7"/>
		</g>
		<g id="shape110-284" v:mID="110" v:groupContext="shape" transform="translate(23.9029,-264.342)">
			<title>Foglio.110</title>
			<desc>WEB</desc>
			<v:textBlock v:margins="rect(4,4,4,4)" v:tabSpace="42.5197"/>
			<v:textRect cx="18.189" cy="466.743" width="36.38" height="21.8356"/>
			<rect x="0" y="455.825" width="36.378" height="21.8356" class="st4"/>
			<text x="4" y="469.14" class="st8" v:langID="1040"><v:paragraph/><v:tabList/>WEB</text>		</g>
		<g id="shape111-287" v:mID="111" v:groupContext="shape" transform="translate(93.8885,650.707) rotate(180)">
			<title>Foglio.111</title>
			<path d="M0 477.66 L31.42 477.66" class="st15"/>
		</g>
		<g id="shape112-290" v:mID="112" v:groupContext="shape" transform="translate(96.8284,645.625) rotate(180)">
			<title>Foglio.112</title>
			<path d="M5.1 477.66 L0 472.56 L5.1 467.46" class="st15"/>
		</g>
		<g id="shape113-293" v:mID="113" v:groupContext="shape" transform="translate(93.8885,679.054) rotate(180)">
			<title>Foglio.113</title>
			<path d="M0 477.66 L31.42 477.66" class="st15"/>
		</g>
		<g id="shape114-296" v:mID="114" v:groupContext="shape" transform="translate(96.8284,673.971) rotate(180)">
			<title>Foglio.114</title>
			<path d="M5.1 477.66 L0 472.56 L5.1 467.46" class="st15"/>
		</g>
	</g>
</svg>
