<?xml version="1.0" encoding="UTF-8" standalone="no"?>
<!DOCTYPE svg PUBLIC "-//W3C//DTD SVG 1.0//EN" "http://www.w3.org/TR/2001/REC-SVG-20010904/DTD/svg10.dtd">
<!-- Generato da Microsoft Visio 11.0, SVG Export, v1.0 conn-30.svg Pagina 1 -->
<svg xmlns="http://www.w3.org/2000/svg" xmlns:v="http://schemas.microsoft.com/visio/2003/SVGExtensions/" width="7.34283in"
		height="7.42157in" viewBox="0 0 528.684 534.353" xml:space="preserve" color-interpolation-filters="sRGB" class="st14">
	<v:documentProperties v:langID="1040" v:metric="true" v:viewMarkup="false">
		<v:userDefs>
			<v:ud v:nameU="MBSAAddinOutlineVisible" v:prompt="" v:val="VT0(1):26"/>
		</v:userDefs>
	</v:documentProperties>

	<style type="text/css">
	<![CDATA[
		.st1 {fill:#ffffff;stroke:none;stroke-linecap:round;stroke-linejoin:round;stroke-width:0.72}
		.st2 {stroke:#f28226;stroke-dasharray:0,6.48;stroke-linecap:round;stroke-linejoin:round;stroke-width:2.16}
		.st3 {stroke:#f28226;stroke-linecap:round;stroke-linejoin:round;stroke-width:2.16}
		.st4 {fill:#173660;stroke:none;stroke-linecap:round;stroke-linejoin:round;stroke-width:0.72}
		.st5 {fill:#facca7;stroke:none;stroke-linecap:round;stroke-linejoin:round;stroke-width:0.72}
		.st6 {fill:none;stroke:none;stroke-linecap:round;stroke-linejoin:round;stroke-width:0.72}
		.st7 {fill:#000000;font-family:Arial;font-size:0.666664em}
		.st8 {font-size:1em}
		.st9 {fill:#ffffff;font-family:Arial;font-size:0.666664em;font-weight:bold}
		.st10 {fill:#729fdc;stroke:none;stroke-linecap:round;stroke-linejoin:round;stroke-width:0.72}
		.st11 {fill:#173660;stroke:#000000;stroke-linecap:round;stroke-linejoin:round;stroke-width:0.72}
		.st12 {fill:#f28226;stroke:none;stroke-linecap:round;stroke-linejoin:round;stroke-width:0.72}
		.st13 {fill:#ffffff;fill-opacity:0;stroke:#8c8c8c;stroke-dasharray:0,6.48;stroke-linecap:round;stroke-linejoin:round;stroke-width:2.16}
		.st14 {fill:none;fill-rule:evenodd;font-size:12;overflow:visible;stroke-linecap:square;stroke-miterlimit:3}
	]]>
	</style>

	<g v:mID="0" v:index="1" v:groupContext="foregroundPage">
		<title>Pagina 1</title>
		<v:pageProperties v:drawingScale="0.0393701" v:pageScale="0.0393701" v:drawingUnits="24" v:shadowOffsetX="8.50394"
				v:shadowOffsetY="-8.50394"/>
		<g id="shape139-1" v:mID="139" v:groupContext="shape" transform="translate(0.72,-0.72)">
			<title>Foglio.139</title>
			<rect x="0" y="1.44" width="527.244" height="532.913" class="st1"/>
		</g>
		<g id="shape175-3" v:mID="175" v:groupContext="shape" transform="translate(406.074,-164.563) scale(-1,1)">
			<title>Foglio.175</title>
			<path d="M0 534.35 L70.87 534.35" class="st2"/>
		</g>
		<g id="shape176-6" v:mID="176" v:groupContext="shape" transform="translate(406.074,-93.6964) scale(-1,1)">
			<title>Foglio.176</title>
			<path d="M0 534.35 L70.87 534.35" class="st2"/>
		</g>
		<g id="shape177-9" v:mID="177" v:groupContext="shape" transform="translate(406.074,-88.594) scale(-1,1)">
			<title>Foglio.177</title>
			<path d="M5.1 534.35 L0 529.25 L5.1 524.15" class="st3"/>
		</g>
		<g id="shape178-12" v:mID="178" v:groupContext="shape" transform="translate(406.074,-159.46) scale(-1,1)">
			<title>Foglio.178</title>
			<path d="M5.1 534.35 L0 529.25 L5.1 524.15" class="st3"/>
		</g>
		<g id="shape169-15" v:mID="169" v:groupContext="shape" transform="translate(401.822,-405.507) scale(-1,1)">
			<title>Foglio.169</title>
			<path d="M0 534.35 L70.87 534.35" class="st2"/>
		</g>
		<g id="shape167-18" v:mID="167" v:groupContext="shape" transform="translate(401.822,-334.641) scale(-1,1)">
			<title>Foglio.167</title>
			<path d="M0 534.35 L70.87 534.35" class="st2"/>
		</g>
		<g id="shape142-21" v:mID="142" v:groupContext="shape" transform="translate(131.114,-335.208)">
			<title>Foglio.142</title>
			<path d="M0 534.35 L70.87 534.35" class="st2"/>
		</g>
		<g id="shape143-24" v:mID="143" v:groupContext="shape" transform="translate(131.114,-406.641)">
			<title>Foglio.143</title>
			<path d="M0 534.35 L70.87 534.35" class="st2"/>
		</g>
		<g id="shape144-27" v:mID="144" v:groupContext="shape" transform="translate(131.114,-401.539)">
			<title>Foglio.144</title>
			<path d="M5.1 534.35 L0 529.25 L5.1 524.15" class="st3"/>
		</g>
		<g id="shape146-30" v:mID="146" v:groupContext="shape" transform="translate(131.114,-330.106)">
			<title>Foglio.146</title>
			<path d="M5.1 534.35 L0 529.25 L5.1 524.15" class="st3"/>
		</g>
		<g id="shape140-33" v:mID="140" v:groupContext="shape" transform="translate(131.114,-94.2633)">
			<title>Foglio.140</title>
			<path d="M0 534.35 L70.87 534.35" class="st2"/>
		</g>
		<g id="shape9-36" v:mID="9" v:groupContext="shape" transform="translate(131.114,-165.696)">
			<title>Foglio.9</title>
			<path d="M0 534.35 L70.87 534.35" class="st2"/>
		</g>
		<g id="shape145-39" v:mID="145" v:groupContext="shape" transform="translate(131.114,-160.594)">
			<title>Foglio.145</title>
			<path d="M5.1 534.35 L0 529.25 L5.1 524.15" class="st3"/>
		</g>
		<g id="shape8-42" v:mID="8" v:groupContext="shape" transform="translate(21.9798,-148.122)">
			<title>Foglio.8</title>
			<rect x="0" y="500.338" width="104.882" height="34.0157" rx="8.50394" ry="8.50394" class="st4"/>
		</g>
		<g id="shape17-44" v:mID="17" v:groupContext="shape" transform="translate(159.46,-6.38929)">
			<title>Foglio.17</title>
			<rect x="0" y="38.2904" width="212.598" height="496.063" rx="8.50394" ry="8.50394" class="st5"/>
		</g>
		<g id="shape24-46" v:mID="24" v:groupContext="shape" transform="translate(204.814,-459.933)">
			<title>Foglio.24</title>
			<desc>Resource Adapter JavaBean (exactly one)</desc>
			<v:textBlock v:margins="rect(4,4,4,4)" v:tabSpace="42.5197"/>
			<v:textRect cx="56.6929" cy="523.79" width="113.39" height="21.127"/>
			<rect x="0" y="513.226" width="113.386" height="21.127" class="st6"/>
			<text x="4" y="521.39" class="st7" v:langID="1040"><v:paragraph/><v:tabList/>Resource Adapter<v:newlineChar/><tspan
						x="4" dy="1.2em" class="st8">JavaBean </tspan>(exactly one)</text>		</g>
		<g id="shape1-50" v:mID="1" v:groupContext="shape" transform="translate(31.9011,-158.176)">
			<title>Foglio.1</title>
			<desc>Application</desc>
			<v:textBlock v:margins="rect(4,4,4,4)" v:tabSpace="42.5197"/>
			<v:textRect cx="29.3409" cy="527.4" width="58.69" height="13.9075"/>
			<rect x="0" y="520.446" width="58.6819" height="13.9075" class="st6"/>
			<text x="7.56" y="529.8" class="st9" v:langID="1040"><v:paragraph v:horizAlign="1"/><v:tabList/>Application</text>		</g>
		<g id="shape147-53" v:mID="147" v:groupContext="shape" transform="translate(21.9798,-77.2554)">
			<title>Foglio.147</title>
			<rect x="0" y="500.338" width="104.882" height="34.0157" rx="8.50394" ry="8.50394" class="st4"/>
		</g>
		<g id="shape148-55" v:mID="148" v:groupContext="shape" transform="translate(31.9011,-87.3096)">
			<title>Foglio.148</title>
			<desc>Application</desc>
			<v:textBlock v:margins="rect(4,4,4,4)" v:tabSpace="42.5197"/>
			<v:textRect cx="29.3409" cy="527.4" width="58.69" height="13.9075"/>
			<rect x="0" y="520.446" width="58.6819" height="13.9075" class="st6"/>
			<text x="7.56" y="529.8" class="st9" v:langID="1040"><v:paragraph v:horizAlign="1"/><v:tabList/>Application</text>		</g>
		<g id="shape149-58" v:mID="149" v:groupContext="shape" transform="translate(21.9798,-389.066)">
			<title>Foglio.149</title>
			<rect x="0" y="500.338" width="104.882" height="34.0157" rx="8.50394" ry="8.50394" class="st4"/>
		</g>
		<g id="shape150-60" v:mID="150" v:groupContext="shape" transform="translate(31.9011,-399.121)">
			<title>Foglio.150</title>
			<desc>Application</desc>
			<v:textBlock v:margins="rect(4,4,4,4)" v:tabSpace="42.5197"/>
			<v:textRect cx="29.3409" cy="527.4" width="58.69" height="13.9075"/>
			<rect x="0" y="520.446" width="58.6819" height="13.9075" class="st6"/>
			<text x="7.56" y="529.8" class="st9" v:langID="1040"><v:paragraph v:horizAlign="1"/><v:tabList/>Application</text>		</g>
		<g id="shape151-63" v:mID="151" v:groupContext="shape" transform="translate(21.9798,-318.2)">
			<title>Foglio.151</title>
			<rect x="0" y="500.338" width="104.882" height="34.0157" rx="8.50394" ry="8.50394" class="st4"/>
		</g>
		<g id="shape152-65" v:mID="152" v:groupContext="shape" transform="translate(31.9011,-328.254)">
			<title>Foglio.152</title>
			<desc>Application</desc>
			<v:textBlock v:margins="rect(4,4,4,4)" v:tabSpace="42.5197"/>
			<v:textRect cx="29.3409" cy="527.4" width="58.69" height="13.9075"/>
			<rect x="0" y="520.446" width="58.6819" height="13.9075" class="st6"/>
			<text x="7.56" y="529.8" class="st9" v:langID="1040"><v:paragraph v:horizAlign="1"/><v:tabList/>Application</text>		</g>
		<g id="shape6-68" v:mID="6" v:groupContext="shape" transform="translate(404.657,-389.775)">
			<title>Foglio.6</title>
			<rect x="0" y="501.046" width="104.882" height="33.3071" rx="8.50394" ry="8.50394" class="st10"/>
		</g>
		<g id="shape153-70" v:mID="153" v:groupContext="shape" transform="translate(419.676,-399.829)">
			<title>Foglio.153</title>
			<desc>EIS Instance</desc>
			<v:textBlock v:margins="rect(4,4,4,4)" v:tabSpace="42.5197"/>
			<v:textRect cx="29.3409" cy="527.4" width="58.69" height="13.9075"/>
			<rect x="0" y="520.446" width="58.6819" height="13.9075" class="st6"/>
			<text x="5.55" y="529.8" class="st9" v:langID="1040"><v:paragraph v:horizAlign="1"/><v:tabList/>EIS Instance</text>		</g>
		<g id="shape154-73" v:mID="154" v:groupContext="shape" transform="translate(404.657,-318.2)">
			<title>Foglio.154</title>
			<rect x="0" y="501.046" width="104.882" height="33.3071" rx="8.50394" ry="8.50394" class="st10"/>
		</g>
		<g id="shape155-75" v:mID="155" v:groupContext="shape" transform="translate(419.676,-328.254)">
			<title>Foglio.155</title>
			<desc>EIS Instance</desc>
			<v:textBlock v:margins="rect(4,4,4,4)" v:tabSpace="42.5197"/>
			<v:textRect cx="29.3409" cy="527.4" width="58.69" height="13.9075"/>
			<rect x="0" y="520.446" width="58.6819" height="13.9075" class="st6"/>
			<text x="5.55" y="529.8" class="st9" v:langID="1040"><v:paragraph v:horizAlign="1"/><v:tabList/>EIS Instance</text>		</g>
		<g id="shape156-78" v:mID="156" v:groupContext="shape" transform="translate(408.909,-148.83)">
			<title>Foglio.156</title>
			<rect x="0" y="501.046" width="104.882" height="33.3071" rx="8.50394" ry="8.50394" class="st10"/>
		</g>
		<g id="shape157-80" v:mID="157" v:groupContext="shape" transform="translate(423.928,-158.884)">
			<title>Foglio.157</title>
			<desc>EIS Instance</desc>
			<v:textBlock v:margins="rect(4,4,4,4)" v:tabSpace="42.5197"/>
			<v:textRect cx="29.3409" cy="527.4" width="58.69" height="13.9075"/>
			<rect x="0" y="520.446" width="58.6819" height="13.9075" class="st6"/>
			<text x="5.55" y="529.8" class="st9" v:langID="1040"><v:paragraph v:horizAlign="1"/><v:tabList/>EIS Instance</text>		</g>
		<g id="shape158-83" v:mID="158" v:groupContext="shape" transform="translate(408.909,-77.6098)">
			<title>Foglio.158</title>
			<rect x="0" y="501.046" width="104.882" height="33.3071" rx="8.50394" ry="8.50394" class="st10"/>
		</g>
		<g id="shape159-85" v:mID="159" v:groupContext="shape" transform="translate(423.928,-87.6639)">
			<title>Foglio.159</title>
			<desc>EIS Instance</desc>
			<v:textBlock v:margins="rect(4,4,4,4)" v:tabSpace="42.5197"/>
			<v:textRect cx="29.3409" cy="527.4" width="58.69" height="13.9075"/>
			<rect x="0" y="520.446" width="58.6819" height="13.9075" class="st6"/>
			<text x="5.55" y="529.8" class="st9" v:langID="1040"><v:paragraph v:horizAlign="1"/><v:tabList/>EIS Instance</text>		</g>
		<g id="shape160-88" v:mID="160" v:groupContext="shape" transform="translate(173.633,-454.263)">
			<title>Foglio.160</title>
			<ellipse cx="14.1732" cy="520.18" rx="14.1732" ry="14.1732" class="st11"/>
		</g>
		<g id="shape161-90" v:mID="161" v:groupContext="shape" transform="translate(173.633,-394.736)">
			<title>Foglio.161</title>
			<ellipse cx="14.1732" cy="520.18" rx="14.1732" ry="14.1732" class="st12"/>
		</g>
		<g id="shape162-92" v:mID="162" v:groupContext="shape" transform="translate(175.051,-323.87)">
			<title>Foglio.162</title>
			<ellipse cx="14.1732" cy="520.18" rx="14.1732" ry="14.1732" class="st12"/>
		</g>
		<g id="shape163-94" v:mID="163" v:groupContext="shape" transform="translate(173.633,-150.956)">
			<title>Foglio.163</title>
			<ellipse cx="14.1732" cy="520.18" rx="14.1732" ry="14.1732" class="st12"/>
		</g>
		<g id="shape164-96" v:mID="164" v:groupContext="shape" transform="translate(175.051,-80.0901)">
			<title>Foglio.164</title>
			<ellipse cx="14.1732" cy="520.18" rx="14.1732" ry="14.1732" class="st12"/>
		</g>
		<g id="shape141-98" v:mID="141" v:groupContext="shape" transform="translate(131.114,-89.1609)">
			<title>Foglio.141</title>
			<path d="M5.1 534.35 L0 529.25 L5.1 524.15" class="st3"/>
		</g>
		<g id="shape165-101" v:mID="165" v:groupContext="shape" transform="translate(11.4976,-442.925)">
			<title>Foglio.165</title>
			<desc>Outbound Communication</desc>
			<v:textBlock v:margins="rect(4,4,4,4)" v:tabSpace="42.5197"/>
			<v:textRect cx="57.2539" cy="527.4" width="114.51" height="13.9075"/>
			<rect x="0" y="520.446" width="114.508" height="13.9075" class="st6"/>
			<text x="10.78" y="529.8" class="st7" v:langID="1040"><v:paragraph v:horizAlign="1"/><v:tabList/>Outbound Communication</text>		</g>
		<g id="shape166-104" v:mID="166" v:groupContext="shape" transform="translate(9.95268,-199.406)">
			<title>Foglio.166</title>
			<desc>Inbound Communication</desc>
			<v:textBlock v:margins="rect(4,4,4,4)" v:tabSpace="42.5197"/>
			<v:textRect cx="57.2539" cy="527.4" width="114.51" height="13.9075"/>
			<rect x="0" y="520.446" width="114.508" height="13.9075" class="st6"/>
			<text x="13.89" y="529.8" class="st7" v:langID="1040"><v:paragraph v:horizAlign="1"/><v:tabList/>Inbound Communication</text>		</g>
		<g id="shape168-107" v:mID="168" v:groupContext="shape" transform="translate(401.822,-329.539) scale(-1,1)">
			<title>Foglio.168</title>
			<path d="M5.1 534.35 L0 529.25 L5.1 524.15" class="st3"/>
		</g>
		<g id="shape170-110" v:mID="170" v:groupContext="shape" transform="translate(401.822,-400.405) scale(-1,1)">
			<title>Foglio.170</title>
			<path d="M5.1 534.35 L0 529.25 L5.1 524.15" class="st3"/>
		</g>
		<g id="shape171-113" v:mID="171" v:groupContext="shape" transform="translate(210.484,-400.405)">
			<title>Foglio.171</title>
			<desc>ManagedConnectionFactory JavaBean</desc>
			<v:textBlock v:margins="rect(4,4,4,4)" v:tabSpace="42.5197"/>
			<v:textRect cx="56.6929" cy="523.79" width="113.39" height="21.127"/>
			<rect x="0" y="513.226" width="113.386" height="21.127" class="st6"/>
			<text x="4" y="521.39" class="st7" v:langID="1040"><v:paragraph/><v:tabList/>ManagedConnectionFactory<v:newlineChar/><tspan
						x="4" dy="1.2em" class="st8">JavaBean</tspan></text>		</g>
		<g id="shape172-117" v:mID="172" v:groupContext="shape" transform="translate(210.484,-329.805)">
			<title>Foglio.172</title>
			<desc>ManagedConnectionFactory JavaBean</desc>
			<v:textBlock v:margins="rect(4,4,4,4)" v:tabSpace="42.5197"/>
			<v:textRect cx="56.6929" cy="523.79" width="113.39" height="21.127"/>
			<rect x="0" y="513.226" width="113.386" height="21.127" class="st6"/>
			<text x="4" y="521.39" class="st7" v:langID="1040"><v:paragraph/><v:tabList/>ManagedConnectionFactory<v:newlineChar/><tspan
						x="4" dy="1.2em" class="st8">JavaBean</tspan></text>		</g>
		<g id="shape173-121" v:mID="173" v:groupContext="shape" transform="translate(210.484,-155.075)">
			<title>Foglio.173</title>
			<desc>ManagedConnectionFactory JavaBean</desc>
			<v:textBlock v:margins="rect(4,4,4,4)" v:tabSpace="42.5197"/>
			<v:textRect cx="56.6929" cy="523.79" width="113.39" height="21.127"/>
			<rect x="0" y="513.226" width="113.386" height="21.127" class="st6"/>
			<text x="4" y="521.39" class="st7" v:langID="1040"><v:paragraph/><v:tabList/>ManagedConnectionFactory<v:newlineChar/><tspan
						x="4" dy="1.2em" class="st8">JavaBean</tspan></text>		</g>
		<g id="shape174-125" v:mID="174" v:groupContext="shape" transform="translate(210.484,-84.4749)">
			<title>Foglio.174</title>
			<desc>ManagedConnectionFactory JavaBean</desc>
			<v:textBlock v:margins="rect(4,4,4,4)" v:tabSpace="42.5197"/>
			<v:textRect cx="56.6929" cy="523.79" width="113.39" height="21.127"/>
			<rect x="0" y="513.226" width="113.386" height="21.127" class="st6"/>
			<text x="4" y="521.39" class="st7" v:langID="1040"><v:paragraph/><v:tabList/>ManagedConnectionFactory<v:newlineChar/><tspan
						x="4" dy="1.2em" class="st8">JavaBean</tspan></text>		</g>
		<g id="shape179-129" v:mID="179" v:groupContext="shape" transform="translate(543.577,340.877) rotate(90)">
			<title>Foglio.179</title>
			<rect x="0" y="18.4479" width="130.394" height="515.906" rx="11.3386" ry="11.3386" class="st13"/>
		</g>
		<g id="shape180-131" v:mID="180" v:groupContext="shape" transform="translate(540.506,99.9326) rotate(90)">
			<title>Foglio.180</title>
			<rect x="0" y="18.4479" width="130.394" height="515.906" rx="11.3386" ry="11.3386" class="st13"/>
		</g>
		<g id="shape181-133" v:mID="181" v:groupContext="shape" transform="translate(196.311,-510.956)">
			<title>Foglio.181</title>
			<desc>Resource adapter instance (within an application server)</desc>
			<v:textBlock v:margins="rect(4,4,4,4)" v:tabSpace="42.5197"/>
			<v:textRect cx="56.6929" cy="523.79" width="113.39" height="21.127"/>
			<rect x="0" y="513.226" width="113.386" height="21.127" class="st6"/>
			<text x="4" y="521.39" class="st7" v:langID="1040"><v:paragraph/><v:tabList/>Resource adapter instance<v:newlineChar/><tspan
						x="4" dy="1.2em" class="st8">(</tspan>within an application server)</text>		</g>
	</g>
</svg>
