<?xml version="1.0" encoding="UTF-8" standalone="no"?>
<!DOCTYPE svg PUBLIC "-//W3C//DTD SVG 1.0//EN" "http://www.w3.org/TR/2001/REC-SVG-20010904/DTD/svg10.dtd">
<!-- Generato da Microsoft Visio 11.0, SVG Export, v1.0 conn-92.svg Pagina 1 -->
<svg xmlns="http://www.w3.org/2000/svg" xmlns:v="http://schemas.microsoft.com/visio/2003/SVGExtensions/" width="9.66567in"
		height="8.68142in" viewBox="0 0 695.928 625.062" xml:space="preserve" color-interpolation-filters="sRGB" class="st14">
	<v:documentProperties v:langID="1040" v:metric="true" v:viewMarkup="false">
		<v:userDefs>
			<v:ud v:nameU="MBSAAddinOutlineVisible" v:prompt="" v:val="VT0(1):26"/>
		</v:userDefs>
	</v:documentProperties>

	<style type="text/css">
	<![CDATA[
		.st1 {fill:#ffffff;stroke:none;stroke-linecap:round;stroke-linejoin:round;stroke-width:0.72}
		.st2 {fill:#173660;stroke:none;stroke-linecap:round;stroke-linejoin:round;stroke-width:0.72}
		.st3 {fill:none;stroke:none;stroke-linecap:round;stroke-linejoin:round;stroke-width:0.72}
		.st4 {fill:#ffffff;font-family:Arial;font-size:0.666664em}
		.st5 {font-size:1em}
		.st6 {stroke:#8c8c8c;stroke-dasharray:0,6.48;stroke-linecap:round;stroke-linejoin:round;stroke-width:2.16}
		.st7 {stroke:#f28226;stroke-linecap:round;stroke-linejoin:round;stroke-width:2.16}
		.st8 {stroke:#f28226;stroke-dasharray:0,6.48;stroke-linecap:round;stroke-linejoin:round;stroke-width:2.16}
		.st9 {fill:#facca7;stroke:none;stroke-linecap:round;stroke-linejoin:round;stroke-width:0.72}
		.st10 {fill:#000000;font-family:Arial;font-size:0.666664em}
		.st11 {fill:#ffffff;fill-opacity:0;stroke:#8c8c8c;stroke-dasharray:0,6.48;stroke-linecap:round;stroke-linejoin:round;stroke-width:2.16}
		.st12 {fill:#729fdc;stroke:none;stroke-linecap:round;stroke-linejoin:round;stroke-width:0.72}
		.st13 {fill:#ffffff;font-family:Arial;font-size:0.666664em;font-weight:bold}
		.st14 {fill:none;fill-rule:evenodd;font-size:12;overflow:visible;stroke-linecap:square;stroke-miterlimit:3}
	]]>
	</style>

	<g v:mID="0" v:index="1" v:groupContext="foregroundPage">
		<title>Pagina 1</title>
		<v:pageProperties v:drawingScale="0.0393701" v:pageScale="0.0393701" v:drawingUnits="24" v:shadowOffsetX="8.50394"
				v:shadowOffsetY="-8.50394"/>
		<g id="shape139-1" v:mID="139" v:groupContext="shape" transform="translate(0.72,-0.72)">
			<title>Foglio.139</title>
			<rect x="0" y="1.44" width="694.488" height="623.622" class="st1"/>
		</g>
		<g id="shape11-3" v:mID="11" v:groupContext="shape" transform="translate(270.72,-568.592)">
			<title>Foglio.11</title>
			<rect x="0" y="580.062" width="114.803" height="45" rx="8.50394" ry="8.50394" class="st2"/>
		</g>
		<g id="shape12-5" v:mID="12" v:groupContext="shape" transform="translate(278.35,-583.767)">
			<title>Foglio.12</title>
			<desc>Work (from RA)</desc>
			<v:textBlock v:margins="rect(4,4,4,4)" v:tabSpace="42.5197"/>
			<v:textRect cx="39.7677" cy="615.274" width="79.54" height="19.5768"/>
			<rect x="0" y="605.485" width="79.5354" height="19.5768" class="st3"/>
			<text x="4" y="612.87" class="st4" v:langID="1040"><v:paragraph/><v:tabList/>Work <v:newlineChar/><tspan x="4"
						dy="1.2em" class="st5">(</tspan>from RA)</text>		</g>
		<g id="shape16-9" v:mID="16" v:groupContext="shape" transform="translate(-448.594,609.454) rotate(-90)">
			<title>Foglio.16</title>
			<path d="M0 625.06 L551.95 625.06" class="st6"/>
		</g>
		<g id="shape17-12" v:mID="17" v:groupContext="shape" transform="translate(-296.94,609.454) rotate(-90)">
			<title>Foglio.17</title>
			<path d="M0 625.06 L551.95 625.06" class="st6"/>
		</g>
		<g id="shape18-15" v:mID="18" v:groupContext="shape" transform="translate(-151.665,609.454) rotate(-90)">
			<title>Foglio.18</title>
			<path d="M0 625.06 L560.55 625.06" class="st6"/>
		</g>
		<g id="shape20-18" v:mID="20" v:groupContext="shape" transform="translate(-4.97197,609.454) rotate(-90)">
			<title>Foglio.20</title>
			<path d="M0 625.06 L560.55 625.06" class="st6"/>
		</g>
		<g id="shape29-21" v:mID="29" v:groupContext="shape" transform="translate(317.633,736.758) rotate(180)">
			<title>Foglio.29</title>
			<path d="M5.1 625.06 L0 619.96 L5.1 614.86" class="st7"/>
		</g>
		<g id="shape30-24" v:mID="30" v:groupContext="shape" transform="translate(315.366,741.861) rotate(180)">
			<title>Foglio.30</title>
			<path d="M0 625.06 L286.3 625.06" class="st8"/>
		</g>
		<g id="shape31-27" v:mID="31" v:groupContext="shape" transform="translate(17.7279,-496.783)">
			<title>Foglio.31</title>
			<rect x="0" y="579.708" width="11.3386" height="45.3543" class="st9"/>
		</g>
		<g id="shape141-29" v:mID="141" v:groupContext="shape" transform="translate(30.4838,-511.798)">
			<title>Foglio.141</title>
			<desc>1. create an instance</desc>
			<v:textBlock v:margins="rect(4,4,4,4)" v:tabSpace="42.5197"/>
			<v:textRect cx="58.4646" cy="618.108" width="116.93" height="13.9075"/>
			<rect x="0" y="611.155" width="116.929" height="13.9075" class="st3"/>
			<text x="4" y="620.51" class="st10" v:langID="1040"><v:paragraph/><v:tabList/>1. create an instance</text>		</g>
		<g id="shape1-32" v:mID="1" v:groupContext="shape" transform="translate(121.192,-570.484)">
			<title>Foglio.1</title>
			<rect x="0" y="580.062" width="110.551" height="45" rx="8.50394" ry="8.50394" class="st2"/>
		</g>
		<g id="shape4-34" v:mID="4" v:groupContext="shape" transform="translate(132.531,-585.813)">
			<title>Foglio.4</title>
			<desc>Work Manager (from server)</desc>
			<v:textBlock v:margins="rect(4,4,4,4)" v:tabSpace="42.5197"/>
			<v:textRect cx="41.4567" cy="615.274" width="82.92" height="19.5768"/>
			<rect x="0" y="605.485" width="82.9134" height="19.5768" class="st3"/>
			<text x="4" y="612.87" class="st4" v:langID="1040"><v:paragraph/><v:tabList/>Work Manager <v:newlineChar/><tspan x="4"
						dy="1.2em" class="st5">(</tspan>from server)</text>		</g>
		<g id="shape5-38" v:mID="5" v:groupContext="shape" transform="translate(421.665,-568.003)">
			<title>Foglio.5</title>
			<rect x="0" y="580.062" width="106.299" height="45" rx="8.50394" ry="8.50394" class="st2"/>
		</g>
		<g id="shape9-40" v:mID="9" v:groupContext="shape" transform="translate(427.334,-580.011)">
			<title>Foglio.9</title>
			<desc>Work (from adapter)</desc>
			<v:textBlock v:margins="rect(4,4,4,4)" v:tabSpace="42.5197"/>
			<v:textRect cx="32.5984" cy="610.889" width="65.2" height="28.3465"/>
			<rect x="0" y="596.716" width="65.1969" height="28.3465" class="st3"/>
			<text x="4" y="608.49" class="st4" v:langID="1040"><v:paragraph/><v:tabList/>Work <v:newlineChar/><tspan x="4"
						dy="1.2em" class="st5">(</tspan>from adapter)</text>		</g>
		<g id="shape13-44" v:mID="13" v:groupContext="shape" transform="translate(567.649,-568.592)">
			<title>Foglio.13</title>
			<rect x="0" y="580.062" width="107.717" height="45" rx="8.50394" ry="8.50394" class="st2"/>
		</g>
		<g id="shape14-46" v:mID="14" v:groupContext="shape" transform="translate(579.531,-583.767)">
			<title>Foglio.14</title>
			<desc>Work (from adapter)</desc>
			<v:textBlock v:margins="rect(4,4,4,4)" v:tabSpace="42.5197"/>
			<v:textRect cx="37.2874" cy="615.274" width="74.58" height="19.5768"/>
			<rect x="0" y="605.485" width="74.5748" height="19.5768" class="st3"/>
			<text x="4" y="612.87" class="st4" v:langID="1040"><v:paragraph/><v:tabList/>Work <v:newlineChar/><tspan x="4"
						dy="1.2em" class="st5">(</tspan>from adapter)</text>		</g>
		<g id="shape19-50" v:mID="19" v:groupContext="shape" transform="translate(167.681,780.695) rotate(180)">
			<title>Foglio.19</title>
			<path d="M5.1 625.06 L0 619.96 L5.1 614.86" class="st7"/>
		</g>
		<g id="shape23-53" v:mID="23" v:groupContext="shape" transform="translate(165.129,785.798) rotate(180)">
			<title>Foglio.23</title>
			<path d="M0 625.06 L135.71 625.06" class="st7"/>
		</g>
		<g id="shape24-56" v:mID="24" v:groupContext="shape" transform="translate(18.0822,-452.846)">
			<title>Foglio.24</title>
			<rect x="0" y="593.881" width="11.3386" height="31.1811" class="st9"/>
		</g>
		<g id="shape25-58" v:mID="25" v:groupContext="shape" transform="translate(30.8381,-467.861)">
			<title>Foglio.25</title>
			<desc>2. scheduleWork() [startWork() or doWork() may be used as well]</desc>
			<v:textBlock v:margins="rect(4,4,4,4)" v:tabSpace="42.5197"/>
			<v:textRect cx="122.421" cy="618.108" width="244.85" height="13.9075"/>
			<rect x="0" y="611.155" width="244.843" height="13.9075" class="st3"/>
			<text x="4" y="620.51" class="st10" v:langID="1040"><v:paragraph/><v:tabList/>2. scheduleWork() [startWork() or doWork() may be used as well]</text>		</g>
		<g id="shape27-61" v:mID="27" v:groupContext="shape" transform="translate(170.799,-29.0665)">
			<title>Foglio.27</title>
			<rect x="0" y="216.873" width="11.3386" height="408.189" class="st9"/>
		</g>
		<g id="shape145-63" v:mID="145" v:groupContext="shape" transform="translate(46.0743,-88.594)">
			<title>Foglio.145</title>
			<rect x="0" y="341.597" width="549.921" height="283.465" rx="11.3386" ry="11.3386" class="st11"/>
		</g>
		<g id="shape149-65" v:mID="149" v:groupContext="shape" transform="translate(613.854,951.766) rotate(180)">
			<title>Foglio.149</title>
			<path d="M5.1 625.06 L0 619.96 L5.1 614.86" class="st7"/>
		</g>
		<g id="shape150-68" v:mID="150" v:groupContext="shape" transform="translate(613.854,956.869) rotate(180)">
			<title>Foglio.150</title>
			<path d="M0 625.06 L426.05 625.06" class="st7"/>
		</g>
		<g id="shape151-71" v:mID="151" v:groupContext="shape" transform="translate(51.7436,-321.035)">
			<title>Foglio.151</title>
			<desc>[if Work implements WorkContextProvider]</desc>
			<v:textBlock v:margins="rect(4,4,4,4)" v:tabSpace="42.5197"/>
			<v:textRect cx="102.402" cy="618.108" width="204.81" height="13.9075"/>
			<rect x="0" y="611.155" width="204.803" height="13.9075" class="st3"/>
			<text x="4" y="620.51" class="st10" v:langID="1040"><v:paragraph/><v:tabList/>[if Work implements WorkContextProvider]</text>		</g>
		<g id="shape159-74" v:mID="159" v:groupContext="shape" transform="translate(315.366,1199.51) rotate(180)">
			<title>Foglio.159</title>
			<path d="M5.1 625.06 L0 619.96 L5.1 614.86" class="st7"/>
		</g>
		<g id="shape160-77" v:mID="160" v:groupContext="shape" transform="translate(312.531,1204.62) rotate(180)">
			<title>Foglio.160</title>
			<path d="M0 625.06 L124.72 625.06" class="st7"/>
		</g>
		<g id="shape165-80" v:mID="165" v:groupContext="shape" transform="translate(386.232,-51.4424) scale(-1,1)">
			<title>Foglio.165</title>
			<desc>9. after establishing the execution context, call run()</desc>
			<v:textBlock v:margins="rect(4,4,4,4)" v:tabSpace="42.5197"/>
			<v:textRect cx="100.63" cy="618.108" width="201.26" height="13.9075"/>
			<rect x="0" y="611.155" width="201.26" height="13.9075" class="st3"/>
			<text x="-197.26" y="620.51" transform="scale(-1,1)" class="st10" v:langID="1040"><v:paragraph/><v:tabList/>9. after establishing the execution context, call run()</text>		</g>
		<g id="shape146-83" v:mID="146" v:groupContext="shape" transform="translate(468.153,1077.49) rotate(180)">
			<title>Foglio.146</title>
			<path d="M5.1 625.06 L0 619.96 L5.1 614.86" class="st7"/>
		</g>
		<g id="shape147-86" v:mID="147" v:groupContext="shape" transform="translate(465.602,1082.59) rotate(180)">
			<title>Foglio.147</title>
			<path d="M0 625.06 L277.8 625.06" class="st7"/>
		</g>
		<g id="shape148-89" v:mID="148" v:groupContext="shape" transform="translate(186.389,-171.064)">
			<title>Foglio.148</title>
			<desc>7. get context information</desc>
			<v:textBlock v:margins="rect(4,4,4,4)" v:tabSpace="42.5197"/>
			<v:textRect cx="60.9449" cy="618.108" width="121.89" height="13.9075"/>
			<rect x="0" y="611.155" width="121.89" height="13.9075" class="st3"/>
			<text x="4" y="620.51" class="st10" v:langID="1040"><v:paragraph/><v:tabList/>7. get context information</text>		</g>
		<g id="shape28-92" v:mID="28" v:groupContext="shape" transform="translate(618.389,816.837) rotate(180)">
			<title>Foglio.28</title>
			<path d="M5.1 625.06 L0 619.96 L5.1 614.86" class="st7"/>
		</g>
		<g id="shape32-95" v:mID="32" v:groupContext="shape" transform="translate(615.838,821.94) rotate(180)">
			<title>Foglio.32</title>
			<path d="M0 625.06 L425.2 625.06" class="st7"/>
		</g>
		<g id="shape33-98" v:mID="33" v:groupContext="shape" transform="translate(184.972,-425.917)">
			<title>Foglio.33</title>
			<desc>3. workAccepted() or workRejected()</desc>
			<v:textBlock v:margins="rect(4,4,4,4)" v:tabSpace="42.5197"/>
			<v:textRect cx="83.622" cy="615.274" width="167.25" height="19.5768"/>
			<rect x="0" y="605.485" width="167.244" height="19.5768" class="st3"/>
			<text x="4" y="617.67" class="st10" v:langID="1049"><v:paragraph/><v:tabList/>3<tspan class="st5" v:langID="1040">. </tspan><tspan
						class="st5" v:langID="1040">workAccepted</tspan><tspan class="st5" v:langID="1040">() </tspan><tspan
						class="st5" v:langID="1040">or workRejected</tspan><tspan class="st5" v:langID="1040">()</tspan></text>		</g>
		<g id="shape34-106" v:mID="34" v:groupContext="shape" transform="translate(51.7436,-340.337)">
			<title>Foglio.34</title>
			<rect x="0" y="599.009" width="62.3622" height="26.0526" rx="8.50394" ry="8.50394" class="st12"/>
		</g>
		<g id="shape35-108" v:mID="35" v:groupContext="shape" transform="translate(60.5192,-343.712)">
			<title>Foglio.35</title>
			<desc>opt</desc>
			<v:textBlock v:margins="rect(4,4,4,4)" v:tabSpace="42.5197"/>
			<v:textRect cx="11.0669" cy="615.274" width="22.14" height="19.5768"/>
			<rect x="0" y="605.485" width="22.1339" height="19.5768" class="st3"/>
			<text x="4" y="617.67" class="st13" v:langID="1040"><v:paragraph/><v:tabList/>opt</text>		</g>
		<g id="shape36-111" v:mID="36" v:groupContext="shape" transform="translate(386.232,-295.789) scale(-1,1)">
			<title>Foglio.36</title>
			<desc>5. workStarted()</desc>
			<v:textBlock v:margins="rect(4,4,4,4)" v:tabSpace="42.5197"/>
			<v:textRect cx="100.63" cy="618.108" width="201.26" height="13.9075"/>
			<rect x="0" y="611.155" width="201.26" height="13.9075" class="st3"/>
			<text x="-197.26" y="620.51" transform="scale(-1,1)" class="st10" v:langID="1040"><v:paragraph/><v:tabList/>5. workStarted()</text>		</g>
		<g id="shape37-114" v:mID="37" v:groupContext="shape" transform="translate(65.832,-99.9326)">
			<title>Foglio.37</title>
			<rect x="0" y="483.33" width="515.99" height="141.732" rx="11.3386" ry="11.3386" class="st11"/>
		</g>
		<g id="shape38-116" v:mID="38" v:groupContext="shape" transform="translate(68.7515,-208.796)">
			<title>Foglio.38</title>
			<rect x="0" y="599.009" width="62.3622" height="26.0526" rx="8.50394" ry="8.50394" class="st12"/>
		</g>
		<g id="shape39-118" v:mID="39" v:groupContext="shape" transform="translate(77.5271,-212.172)">
			<title>Foglio.39</title>
			<desc>loop</desc>
			<v:textBlock v:margins="rect(4,4,4,4)" v:tabSpace="42.5197"/>
			<v:textRect cx="14.165" cy="615.274" width="28.33" height="19.5768"/>
			<rect x="0" y="605.485" width="28.3299" height="19.5768" class="st3"/>
			<text x="4" y="617.67" class="st13" v:langID="1040"><v:paragraph/><v:tabList/>loop</text>		</g>
		<g id="shape40-121" v:mID="40" v:groupContext="shape" transform="translate(68.0428,-190.907)">
			<title>Foglio.40</title>
			<desc>[for each WorkContext]</desc>
			<v:textBlock v:margins="rect(4,4,4,4)" v:tabSpace="42.5197"/>
			<v:textRect cx="102.402" cy="618.108" width="204.81" height="13.9075"/>
			<rect x="0" y="611.155" width="204.803" height="13.9075" class="st3"/>
			<text x="4" y="620.51" class="st10" v:langID="1040"><v:paragraph/><v:tabList/>[for each WorkContext]</text>		</g>
		<g id="shape41-124" v:mID="41" v:groupContext="shape" transform="translate(387.649,-148.122) scale(-1,1)">
			<title>Foglio.41</title>
			<desc>and recreate context in application server</desc>
			<v:textBlock v:margins="rect(4,4,4,4)" v:tabSpace="42.5197"/>
			<v:textRect cx="100.63" cy="618.108" width="201.26" height="13.9075"/>
			<rect x="0" y="611.155" width="201.26" height="13.9075" class="st3"/>
			<text x="-197.26" y="620.51" transform="scale(-1,1)" class="st10" v:langID="1040"><v:paragraph/><v:tabList/>and recreate context in application server</text>		</g>
		<g id="shape166-127" v:mID="166" v:groupContext="shape" transform="translate(316.322,856.124) rotate(180)">
			<title>Foglio.166</title>
			<path d="M5.1 625.06 L0 619.96 L5.1 614.86" class="st7"/>
		</g>
		<g id="shape167-130" v:mID="167" v:groupContext="shape" transform="translate(313.771,861.226) rotate(180)">
			<title>Foglio.167</title>
			<path d="M0 625.06 L123.13 625.06" class="st7"/>
		</g>
		<g id="shape168-133" v:mID="168" v:groupContext="shape" transform="translate(184.972,-393.451)">
			<title>Foglio.168</title>
			<desc>4. when Work is accepted, dispatch a free thread and establis...</desc>
			<v:textBlock v:margins="rect(4,4,4,4)" v:tabSpace="42.5197"/>
			<v:textRect cx="130.394" cy="615.274" width="260.79" height="19.5768"/>
			<rect x="0" y="605.485" width="260.787" height="19.5768" class="st3"/>
			<text x="4" y="612.87" class="st10" v:langID="1040"><v:paragraph/><v:tabList/>4. when Work is accepted, dispatch a free thread and establish context <tspan
						x="4" dy="1.2em" class="st5">for the WorkInstance</tspan></text>		</g>
		<g id="shape169-137" v:mID="169" v:groupContext="shape" transform="translate(316.783,984.081) rotate(180)">
			<title>Foglio.169</title>
			<path d="M5.1 625.06 L0 619.96 L5.1 614.86" class="st7"/>
		</g>
		<g id="shape170-140" v:mID="170" v:groupContext="shape" transform="translate(313.948,989.184) rotate(180)">
			<title>Foglio.170</title>
			<path d="M0 625.06 L124.72 625.06" class="st7"/>
		</g>
		<g id="shape171-143" v:mID="171" v:groupContext="shape" transform="translate(387.649,-264.608) scale(-1,1)">
			<title>Foglio.171</title>
			<desc>6. getWorkContexts() from Work</desc>
			<v:textBlock v:margins="rect(4,4,4,4)" v:tabSpace="42.5197"/>
			<v:textRect cx="100.63" cy="618.108" width="201.26" height="13.9075"/>
			<rect x="0" y="611.155" width="201.26" height="13.9075" class="st3"/>
			<text x="-197.26" y="620.51" transform="scale(-1,1)" class="st10" v:langID="1040"><v:paragraph/><v:tabList/>6. getWorkContexts() from Work</text>		</g>
		<g id="shape172-146" v:mID="172" v:groupContext="shape" transform="translate(469.57,1125.68) rotate(180)">
			<title>Foglio.172</title>
			<path d="M5.1 625.06 L0 619.96 L5.1 614.86" class="st7"/>
		</g>
		<g id="shape173-149" v:mID="173" v:groupContext="shape" transform="translate(467.019,1130.78) rotate(180)">
			<title>Foglio.173</title>
			<path d="M0 625.06 L277.8 625.06" class="st7"/>
		</g>
		<g id="shape174-152" v:mID="174" v:groupContext="shape" transform="translate(187.807,-122.876)">
			<title>Foglio.174</title>
			<desc>8. call contextSetupComplete()</desc>
			<v:textBlock v:margins="rect(4,4,4,4)" v:tabSpace="42.5197"/>
			<v:textRect cx="60.9449" cy="618.108" width="121.89" height="13.9075"/>
			<rect x="0" y="611.155" width="121.89" height="13.9075" class="st3"/>
			<text x="4" y="620.51" class="st10" v:langID="1040"><v:paragraph/><v:tabList/>8. call contextSetupComplete()</text>		</g>
	</g>
</svg>
